<svg id="圖層_1" data-name="圖層 1" xmlns="http://www.w3.org/2000/svg" viewBox="0 0 382 286"><defs><style>.cls-1{fill:#edd470;}.cls-2{fill:#e1b51e;}.cls-3{fill:#e0b21d;}.cls-4{fill:#2e0303;}.cls-5{fill:#490809;}.cls-6{fill:#300404;}.cls-7{fill:#2f0405;}.cls-8{fill:#2e0706;}.cls-9{fill:#f3cb20;}.cls-10{fill:#370c08;}.cls-11{fill:#e6bc1a;}.cls-12{fill:#4c0f0a;}.cls-13{fill:#f4cd21;}.cls-14{fill:#3e120a;}.cls-15{fill:#48120b;}.cls-16{fill:#4c090b;}.cls-17{fill:#4b0a0b;}.cls-18{fill:#2d0305;}.cls-19{fill:#340a08;}.cls-20{fill:#e7bd1b;}.cls-21{fill:#3a140b;}.cls-22{fill:#310907;}.cls-23{fill:#f3cd21;}.cls-24{fill:#e2b91b;}.cls-25{fill:#e3b91b;}.cls-26{fill:#e5bc1b;}.cls-27{fill:#c39712;}.cls-28{fill:#724b1c;}.cls-29{fill:#c69812;}.cls-30{fill:#f3edec;}.cls-31{fill:#ede7e6;}.cls-32{fill:#400c07;}.cls-33{fill:#f4f1f0;}.cls-34{fill:#4b1011;}.cls-35{fill:#f2eeed;}.cls-36{fill:#f1ebe9;}.cls-37{fill:#2c0305;}.cls-38{fill:#450a09;}.cls-39{fill:#4a060a;}.cls-40{fill:#f5f2f2;}.cls-41{fill:#1f0405;}.cls-42{fill:#f1eceb;}.cls-43{fill:#480609;}.cls-44{fill:#a99690;}.cls-45{fill:#ebe6e6;}.cls-46{fill:#7e471a;}.cls-47{fill:#1a0507;}.cls-48{fill:#e5dcdb;}.cls-49{fill:#3c0306;}.cls-50{fill:#b3a8a7;}.cls-51{fill:#3b0104;}.cls-52{fill:#3d0205;}.cls-53{fill:#ebe6e5;}.cls-54{fill:#6f441f;}.cls-55{fill:#460508;}.cls-56{fill:#faf7f7;}.cls-57{fill:#dad2d0;}.cls-58{fill:#be9414;}.cls-59{fill:#b0821d;}.cls-60{fill:#815523;}.cls-61{fill:#410306;}.cls-62{fill:#4b060a;}.cls-63{fill:#f1ecec;}.cls-64{fill:#663b1b;}.cls-65{fill:#ead122;}.cls-66{fill:#48080b;}.cls-67{fill:#490609;}.cls-68{fill:#987324;}.cls-69{fill:#b7891a;}.cls-70{fill:#c8a520;}.cls-71{fill:#4f1113;}.cls-72{fill:#1b0405;}.cls-73{fill:#230606;}.cls-74{fill:#4e080c;}.cls-75{fill:#540a0e;}.cls-76{fill:#825a25;}.cls-77{fill:#7b5524;}.cls-78{fill:#432b2c;}.cls-79{fill:#4d070b;}.cls-80{fill:#4a070a;}.cls-81{fill:#2f0305;}.cls-82{fill:#2d0506;}.cls-83{fill:#3e0205;}.cls-84{fill:#4c070b;}.cls-85{fill:#2e0304;}.cls-86{fill:#340304;}.cls-87{fill:#3a0f09;}.cls-88{fill:#450407;}.cls-89{fill:#4b0c0b;}.cls-90{fill:#946224;}.cls-91{fill:#a67520;}.cls-92{fill:#44090b;}.cls-93{fill:#4f080d;}.cls-94{fill:#dcb31c;}.cls-95{fill:#450507;}.cls-96{fill:#210305;}.cls-97{fill:#dfd7d6;}.cls-98{fill:#49080a;}.cls-99{fill:#2d0a07;}.cls-100{fill:#ae811f;}.cls-101{fill:#734c1c;}.cls-102{fill:#edc31c;}.cls-103{fill:#dcb21c;}.cls-104{fill:#f2ca1f;}.cls-105{fill:#f2cb20;}.cls-106{fill:#3e180c;}.cls-107{fill:#a87a22;}.cls-108{fill:#f4d121;}.cls-109{fill:#f4cf21;}.cls-110{fill:#190407;}.cls-111{fill:#c49510;}.cls-112{fill:#f4cf20;}.cls-113{fill:#5e2f17;}.cls-114{fill:#cb9e18;}.cls-115{fill:#a17723;}.cls-116{fill:#2f0f09;}.cls-117{fill:#cda114;}.cls-118{fill:#44200f;}.cls-119{fill:#a77c21;}.cls-120{fill:#f4d021;}.cls-121{fill:#9c6d24;}.cls-122{fill:#b98d1a;}.cls-123{fill:#2c0e08;}.cls-124{fill:#b3861d;}.cls-125{fill:#2e0404;}.cls-126{fill:#3f0306;}.cls-127{fill:#470508;}.cls-128{fill:#4a080b;}.cls-129{fill:#e2ba19;}.cls-130{fill:#2d0405;}.cls-131{fill:#3e0508;}.cls-132{fill:#663b19;}.cls-133{fill:#f0cc20;}.cls-134{fill:#340d0d;}.cls-135{fill:#f7f5f5;}.cls-136{fill:#38090b;}.cls-137{fill:#2b0304;}.cls-138{fill:#e6e1e0;}.cls-139{fill:#2c1112;}.cls-140{fill:#340a0b;}.cls-141{fill:#48060a;}.cls-142{fill:#380205;}.cls-143{fill:#3c0205;}.cls-144{fill:#331617;}.cls-145{fill:#e8e0e0;}.cls-146{fill:#3d1111;}.cls-147{fill:#764e4e;}.cls-148{fill:#140305;}.cls-149{fill:#230405;}.cls-150{fill:#5d3416;}.cls-151{fill:#d0a816;}.cls-152{fill:#310809;}.cls-153{fill:#2f0406;}.cls-154{fill:#cabfbe;}.cls-155{fill:#3d090b;}.cls-156{fill:#2d0607;}.cls-157{fill:#552220;}.cls-158{fill:#e6dfdf;}.cls-159{fill:#381213;}.cls-160{fill:#61403e;}.cls-161{fill:#6d4d4c;}.cls-162{fill:#614545;}.cls-163{fill:#49080b;}.cls-164{fill:#400306;}.cls-165{fill:#300809;}.cls-166{fill:#2e0405;}.cls-167{fill:#e8e2e1;}.cls-168{fill:#f4f0ef;}.cls-169{fill:#2e1011;}.cls-170{fill:#2b0305;}.cls-171{fill:#3f0205;}.cls-172{fill:#1e0406;}.cls-173{fill:#683f18;}.cls-174{fill:#d4ae15;}.cls-175{fill:#ede8e8;}.cls-176{fill:#6e3d1c;}.cls-177{fill:#906926;}.cls-178{fill:#deb719;}.cls-179{fill:#43190a;}.cls-180{fill:#895f24;}.cls-181{fill:#623a1b;}.cls-182{fill:#f1d223;}.cls-183{fill:#784e20;}.cls-184{fill:#ba901c;}.cls-185{fill:#b79119;}.cls-186{fill:#7a561c;}.cls-187{fill:#180406;}.cls-188{fill:#1d0405;}.cls-189{fill:#8e6325;}.cls-190{fill:#e8c11b;}.cls-191{fill:#643519;}.cls-192{fill:#b0841e;}.cls-193{fill:#44180a;}.cls-194{fill:#43190c;}.cls-195{fill:#977f7e;}.cls-196{fill:#1b0305;}.cls-197{fill:#2a0304;}.cls-198{fill:#4e1213;}.cls-199{fill:#2e1010;}.cls-200{fill:#7c4e1f;}.cls-201{fill:#380a04;}.cls-202{fill:#ca9814;}.cls-203{fill:#e0b51a;}.cls-204{fill:#8b5d24;}.cls-205{fill:#e6be1b;}.cls-206{fill:#e9c01c;}.cls-207{fill:#f5d021;}.cls-208{fill:#edc71e;}.cls-209{fill:#47080a;}.cls-210{fill:#450809;}.cls-211{fill:#460608;}.cls-212{fill:#430406;}.cls-213{fill:#320305;}.cls-214{fill:#2e0607;}.cls-215{fill:#110306;}.cls-216{fill:#2e0305;}.cls-217{fill:#4d3635;}.cls-218{fill:#efebea;}.cls-219{fill:#431715;}.cls-220{fill:#d5cbcb;}.cls-221{fill:#4e0e10;}.cls-222{fill:#380608;}.cls-223{fill:#e5dddc;}.cls-224{fill:#160306;}.cls-225{fill:#804320;}.cls-226{fill:#6e3a1c;}.cls-227{fill:#440407;}.cls-228{fill:#51090d;}.cls-229{fill:#eae5e5;}.cls-230{fill:#120306;}.cls-231{fill:#4f080c;}.cls-232{fill:#140306;}.cls-233{fill:#1f0305;}.cls-234{fill:#d3c7c8;}.cls-235{fill:#c5bdbc;}.cls-236{fill:#420306;}.cls-237{fill:#d5cdcd;}.cls-238{fill:#613619;}.cls-239{fill:#3e1809;}.cls-240{fill:#7c5419;}.cls-241{fill:#492410;}.cls-242{fill:#cda616;}.cls-243{fill:#bf9214;}.cls-244{fill:#532b14;}.cls-245{fill:#874923;}.cls-246{fill:#b2881d;}.cls-247{fill:#52160f;}.cls-248{fill:#a67d22;}.cls-249{fill:#efd222;}.cls-250{fill:#79401e;}.cls-251{fill:#552212;}.cls-252{fill:#976524;}.cls-253{fill:#885224;}.cls-254{fill:#d0ab15;}.cls-255{fill:#350205;}.cls-256{fill:#3d0206;}.cls-257{fill:#6a421c;}.cls-258{fill:#bd9813;}.cls-259{fill:#c38814;}.cls-260{fill:#b68e1a;}.cls-261{fill:#430306;}.cls-262{fill:#c79d16;}.cls-263{fill:#8c5724;}.cls-264{fill:#c29713;}.cls-265{fill:#070001;}.cls-266{fill:#c39917;}.cls-267{fill:#7c5420;}.cls-268{fill:#b3811d;}.cls-269{fill:#824e23;}.cls-270{fill:#ebbf1c;}.cls-271{fill:#743e1e;}.cls-272{fill:#ab7522;}.cls-273{fill:#662d15;}.cls-274{fill:#996925;}.cls-275{fill:#dab619;}.cls-276{fill:#855c25;}.cls-277{fill:#c39610;}.cls-278{fill:#bd9116;}.cls-279{fill:#52170f;}.cls-280{fill:#6d421e;}.cls-281{fill:#ba9915;}.cls-282{fill:#502512;}.cls-283{fill:#8b6526;}</style></defs><title>午後時光-02</title><path class="cls-1" d="M328,221.22c.13.55.25,1.1.37,1.65H101.32c0-17.12-.08-34.24,0-51.36,0-2.91-.6-6,1.23-8.68l.59,1.79c-.12,17.16-.13,34.33-.43,51.49-.08,4.5,1.92,5.34,5.85,5.33Q218.28,221.25,328,221.22Z"/><path class="cls-2" d="M201.31,77.71c33.63-4.06,63.84,4.41,90.35,25.37,16.85,13.32,29.95,29.43,34.39,51.2.49,2.41.6,4.89.88,7.33-2.49,2.18-1.46,5.12-1.48,7.72-.09,14.68,0,29.36-.09,44,0,2.48,1.22,5.8-2.95,6.52q0-.7,0-1.41c2.43-2.17,1.47-5.06,1.49-7.65.09-12.31.15-24.62,0-36.92,0-3.57,1.25-7.39-1.19-10.73l-1.56-5c-2.63-2.37.43-6-1.93-8.46a12.47,12.47,0,0,0-2.5-6.57c-3.2-4.53-3.13-10.57-7.33-14.75-7.25-7.23-14.17-14.8-21.22-22.23-.7-1.28-1.42-2.52-3.13-2.56-6.63-3.17-12.05-8.55-19.34-10.49-5.15-2.56-10.08-5.87-16.3-4.84-1.78-2.55-5-1.65-7.26-3.06l-3.36-1.51c-1.12-4.58-4.87-2.1-7.43-2.78-9.82-3.4-19.95-.56-29.88-1.5Z"/><path class="cls-2" d="M201.31,77.71l.1,1.73a3.1,3.1,0,0,0-3,1.51c-2.56.69-6.33-1.83-7.42,2.78l-1.5.5a65.61,65.61,0,0,0-17.95,5.82c-3,.88-6.29,1.19-8.93,3.18l-4.44,2.94-7.57,4.47a14.68,14.68,0,0,0-5.93,4.27l-3,1.67c-2.64,2.8-4.89,6.2-8,8.3-15.53,10.49-21.82,26.09-25,43.58l-1.41,1.66a4.57,4.57,0,0,0-3,4.49h-1.16l-.59-1.79c3.15-24.55,14.78-43.89,34.49-59C156.18,89.09,177.06,79.47,201.31,77.71Z"/><path class="cls-3" d="M103.12,164.62h1.16c0,15.86,0,31.71,0,47.57,0,2.6-1,5.51,1.46,7.7h66.84c3.21,0,6.46.32,9.37-1.51l1.5.3c9.86,2.72,19.92.46,29.86,1.2h34c2.93,0,6.11.58,7.74-2.91a2.92,2.92,0,0,1,1.28.16,5.45,5.45,0,0,1,.25,1.2c2.15,2.55,5.09,1.49,7.68,1.5,19.35.09,38.7,0,58.05,0,4.17-.72,2.94-4,2.95-6.52.09-14.67,0-29.35.09-44,0-2.6-1-5.54,1.48-7.72,2.5,7.7,1.13,15.63,1.26,23.45.19,12.05-.09,24.1-.17,36.16q-109.74.08-219.48.22c-3.93,0-5.93-.83-5.85-5.33C103,199,103,181.78,103.12,164.62Z"/><path class="cls-4" d="M108.71,158.46c3.14-17.49,9.43-33.09,25-43.58,3.12-2.1,5.37-5.5,8-8.3,1.46,2.55,3.39,3,6.18,2,5.94-2.26,12-4.23,16.4-9.17,3-3.41,6.22-4.55,10.26-2h0l-1.5,4.47c-1.94-.61-.86-4.2-3.63-3.79a2.77,2.77,0,0,0-1.76,2c.06,3,2.37,3.22,4.66,3.28.24,0,.49,0,.73,0,2-1.49,4-3,6,0,2-.31,4.64,1,5.65-1.91a2.49,2.49,0,0,0-1.37-3.08c-3.58-1.6-2.19,3.11-4.28,3.49v-6h0c3.54-.65,6.32,1,9,3,1.85,3.51,4.95,5.22,8.69,6l.45,4.29c-.87,1.31-1.9,2.62-.32,4.13-3.61,4.41.34,5.09,3.13,6.34-1.9,3.33-.86,4.93,2.9,4.91.29,1,.57,2,.86,3l2.12-1.57,1.84,1.34c2.46,5.64,4.75.56,7.12-.11l4.54-1.07,2.05,1.65a8,8,0,0,0,7.13-4.83c5.86,2.8,3.52-2.45,4.43-4.51,2.1-2.69,4.8-5.09,4.32-9l1.54-1.55c4,2.44,6.76,5.71,7.47,10.46v6c-.63,1.6-1.55,3.68,1.11,3.85s1.58-2.36,1.86-3.84c0-2.5,0-5,0-7.49h0c2.43,1.82,3.14,6.33,7,5.63,2.1-.39,1.48-3.65,2-5.63h4.48c3.44,3.31,5.88-1.12,8.8-1l-2.83-2c7.62-.8,6.07-4.64,3-9,3.52,1.06,7.11,1.92,10.52,3.25,2.73,1.07,4.74,1.13,6-1.91,7.05,7.43,14,15,21.22,22.23,4.2,4.18,4.13,10.22,7.33,14.75-.22,1.35-.34,2.74-1.72,3.52l-1.49-1.49c1.2-3.19-1.44-2.55-3-3v-1.5c1.28-.94,1.86-2.07.79-3.49a1.23,1.23,0,0,0-1.17-.2c-1.5,1.37.18,2.46.39,3.7-3.08,0-6.2-.31-9,1.5-1.14-1.66-3.06-2.14-4.35-1.12s1.18,1.54,1.35,2.62c-1.63,0-3.37-.29-4.46,1.42-3.94-2-6.77-1.86-7.4,3.49-.34,2.87-1.21,5.69-1.84,8.53l-2.67-1.5q-.21-5.94-.43-11.89c1.26-4-1.62-3.13-3.69-3.14-2.83,0-1.07,1.81-1.24,3-.89,5.9,2.86,12.39-2.23,17.75l-2.93-2.57c3-3.84,2.06-7.37-1-10.61-.76-.81-1.92-2.2-3-.83-.59.75-.19,2.29-.23,3.48-1.35,5.19-7.9,5.06-9.86,9.63l-2.07-1.82c-2.55-4.21-5.11-6.8-7.8-.1l-1.43-.05q-.12-3.79-.25-7.59l0,0c2.65.08,5.58,1.67,7.64-1.42-1.24-3.4-2.42-6.92-7.28-4.54.8-5-2.34-5-5.94-4.69-.77,3.26,1.23,7.35-3,9.36l-3.73-1.72c-1.25-3.54-1.64-9.19-6.93-2.83-2.17.46-4.07-.3-5.92-1.3l-1.44,0c-1.83,1-1.49,2.84-1.58,4.5-3.15-.57-6,1-8.94,1.45-1.05-1.76-2.84-1.41-4.46-1.55,0-.32,0-.64,0-1,1.3-.63,4.21-.27,2.58-2.93-1.34-2.17-3.2-4.92-6.45-3.18-2.13,1.14-3.9,2.93-6.57,2.68-1.59-.72-2.28-4-4.31-2.61s1.18,2.36,1.29,3.8c-3.81,3.87-7.92.12-11.86.48L179,142.2c2.43-.23,2.95-4.89,4.68-3.51s2.31,2.05,3.53.1c.77-1.24.17-2.41-.95-3.19a3.21,3.21,0,0,0-4.65.56,10.34,10.34,0,0,0-2.6,6.05c-1.75-1.07-1.45-2.84-1.5-4.48v-4.49c1.62-1.24,1.29-2.49-.14-3.51a2.11,2.11,0,0,0-1.94-.13c-1.38,1.36-.74,2.6.57,3.65-.41,6.83-3.31,3.71-6,1.49q-4.29.18-4.46,4.47c-1,3-8.81-.52-5.9,6.18l-1.54,2.83-6-.21c.64-1.7,3.57-.71,3.57-3,0-.4-1-1.05-1.55-1.14-3.21-.45-3.6,1.68-3.57,4.12l-5.92.09c.1-.71.25-1.42.28-2.13.08-1.68,4.06-2.24,1.44-4.54-1-.9-3.33-1.9-3.82-1.47-1.09,1-1.48,2.78-2,4.3-.76,2.27-1.39,4.58-2.08,6.88-2.95-1.75-5.89-1.63-9.17-.65A34.94,34.94,0,0,0,113.92,160C112,162,108.74,164.6,108.71,158.46Zm132.22-35.9c-.74-1-1.1-1.47-1.53-1.94-.9-1-2.17-2.74-2.64,0C236.5,122.14,238.32,122.69,240.93,122.56Z"/><path class="cls-5" d="M321.09,158.19l1.56,5q-.09,26.91-.19,53.8l-4.53-.3a2.87,2.87,0,0,0-1.5-2.79l-1.49-2.95,1.5-1.51h0c2.54-5.31,2.21-6.94-1.48-7.46,0-1.49,0-3,0-4.47,3-6.35-2.52-10.12-4.48-15-.2-3.27-.25-6.63-4.48-7.48v-1.49a4.54,4.54,0,0,0,4.49-3c1.29.14,2.71.35,1.51,2.1-1.09,1.59-2.05,3.37.22,4.23s2.49-1.77,3.33-3.11c2-3.27,3.18-6.61,1.27-10.48a2.27,2.27,0,0,1,1.58-3.43c.5-.07,1.29,2.13,2.22,3.78C320.8,161.5,321,159.84,321.09,158.19Z"/><path class="cls-6" d="M242.08,85.23c2.26,1.41,5.48.51,7.26,3.06l-.2.2c-5.64-.47-4.73,4.29-5.89,7.39,2.09,4.35-1.87,6.18-4.14,7.41-3.88,2.12-3.17-4.2-6.23-4.5.07-2.56,1.24-2,2.69-1,1.85,1.3,3.41.72,4-1.28.64-2.15-1-3.08-2.81-3.42-3.49-.68-5.82.26-5.5,4.41-.43-.09-.86-.16-1.28-.22q-.12-.7-.18-1.41c-.31-3.13-2.8-4.17-5.18-4.27-5.26-.23-7-3.68-8.27-7.86a14.88,14.88,0,0,1,10.43-1.08l0,1.29c-1.08,2.73-4.06,0-6.08,2.46,5.05,2.79,9,3.37,12.11-2.28a13.37,13.37,0,0,1,1.4-.17l3,.24C238.51,86.21,239.35,90.06,242.08,85.23Z"/><path class="cls-7" d="M321.09,158.19c-.14,1.65-.29,3.31-.49,5.5-.93-1.65-1.72-3.85-2.22-3.78a2.27,2.27,0,0,0-1.58,3.43c1.91,3.87.77,7.21-1.27,10.48-.84,1.34-1,4-3.33,3.11s-1.31-2.64-.22-4.23c1.2-1.75-.22-2-1.51-2.1-.84-2.49-5.38-2.21-4.49-6,2.71-.34,7.21,1,6.69-3.37s-4.36-.9-6.71-1.14a10.51,10.51,0,0,0-1.48,0c-.07-7.06,5.73-4.79,9.75-5.3L312,151.17c2-1.92,4,5.17,6,0l1.23-1.43C321.52,152.16,318.46,155.82,321.09,158.19Z"/><path class="cls-8" d="M249.34,88.29c6.22-1,11.15,2.28,16.3,4.84v1.26l-1.51,0c-1.16-.32-2.33-.6-3.48-1-2.51-.83-4.74-.18-5,2.44-.42,3.6,2.08,2.93,4.34,2.19,2.06-.69,2.48.71,2.7,2.29-2.61,1.61-4.81,4.15-8.5,1.75-3.3-2.16-2.47-4.86-1.95-7.72-.83-2.06-3.13-3.36-3.05-5.9Z"/><path class="cls-9" d="M322.41,219.88c-19.35,0-38.7,0-58.05,0-2.59,0-5.53,1-7.68-1.5l65.74,0,0,.09Q322.43,219.18,322.41,219.88Z"/><path class="cls-10" d="M265.64,94.39V93.13c7.29,1.94,12.71,7.32,19.34,10.49-4.5,2.46-8.9-.38-13.35-.26l-1.5-1.5C271.16,97.86,266.71,97.14,265.64,94.39Z"/><path class="cls-3" d="M322.46,217q.09-26.9.19-53.8c2.44,3.34,1.14,7.16,1.19,10.73.18,12.3.12,24.61,0,36.92,0,2.59.94,5.48-1.49,7.65l0-.09C322.44,217.91,322.46,217.44,322.46,217Z"/><path class="cls-11" d="M198.42,80.94a3.11,3.11,0,0,1,3-1.5c9.93.94,20.06-1.9,29.88,1.5,0,.46,0,.92,0,1.38l-1.5,0a63.21,63.21,0,0,0-28.34-.09l-3.06.17C198.41,81.88,198.42,81.41,198.42,80.94Z"/><path class="cls-12" d="M271.63,103.36c4.45-.12,8.85,2.72,13.35.26,1.71,0,2.43,1.28,3.13,2.56-1.23,3-3.24,3-6,1.91-3.41-1.33-7-2.19-10.52-3.25C271.62,104.35,271.62,103.86,271.63,103.36Z"/><path class="cls-13" d="M231.3,82.32c0-.46,0-.92,0-1.38,2.56.68,6.31-1.8,7.43,2.78l-1.45.47-3-.24Z"/><path class="cls-14" d="M319.16,149.73l-1.23,1.43-3-3c0-.5,0-1,0-1.49,1.38-.78,1.5-2.17,1.72-3.52A12.47,12.47,0,0,1,319.16,149.73Z"/><path class="cls-15" d="M237.27,84.19l1.45-.47,3.36,1.51C239.35,90.06,238.51,86.21,237.27,84.19Z"/><path class="cls-16" d="M108.71,158.46c0,6.14,3.26,3.58,5.21,1.56a34.94,34.94,0,0,1,15.42-9.54c3.28-1,6.22-1.1,9.17.65,0,.84-.06,1.68-.08,2.52-.41.18-.81.37-1.21.57-5-6.07-7.06-1-8.53,2.66-1.06,2.66-1.24,5.25-5,4.74a3.08,3.08,0,0,1-3-1.5c-1.81-4-2.63-1.08-2.82.6-.53,4.69-2.9,7-7.63,6.88h-2.86l-.39-2.94.27-4.54Z"/><path class="cls-17" d="M174.52,97.39c-4-2.57-7.25-1.43-10.26,2-4.37,4.94-10.46,6.91-16.4,9.17-2.79,1.06-4.72.59-6.18-2l3-1.67c5.14,3,5.65-.49,5.93-4.27l7.57-4.47c.78,1.14,1.29,3.59,2.47,3.08,2.41-1,3.34-3.34,2-6,2.64-2,5.89-2.3,8.93-3.18Z"/><path class="cls-18" d="M174.52,97.39l-3-7.34a65.61,65.61,0,0,1,17.95-5.82L191,86.92c-2.22,4,4.46,7.68.34,12-.49-1.67-.15-3.6-1.83-4.57-.66-3.73-3.52-4.31-6.55-4.37-4.2-.08-2.54,4-3.92,5.87h0l-4.48,1.49Z"/><path class="cls-19" d="M191,86.92l-1.45-2.69,1.5-.5,7.4-1.38,3.06-.17,1.45.46c0,1.42,0,2.85,0,4.28-.27,2.51-2.06,5,0,7.53L201.66,96c-3.15-1-11.91,1.72-4.1-6.37a2.29,2.29,0,0,0,0-3.31,2,2,0,0,0-3.19.15C193.32,87.62,192.35,88.68,191,86.92Z"/><path class="cls-20" d="M107.3,160.12l-.27,4.54c-2,2.08-1.22,4.68-1.23,7.06,0,15.56,0,31.11,0,46.67,0,.49,0,1,0,1.49-2.44-2.19-1.44-5.1-1.46-7.7-.09-15.86,0-31.71,0-47.57A4.57,4.57,0,0,1,107.3,160.12Z"/><path class="cls-21" d="M150.61,100.64c-.28,3.78-.79,7.23-5.93,4.27A14.68,14.68,0,0,1,150.61,100.64Z"/><path class="cls-22" d="M162.62,93.23c1.37,2.68.44,5-2,6-1.18.51-1.69-1.94-2.47-3.08Z"/><path class="cls-23" d="M198.4,82.35,191,83.73c1.09-4.61,4.86-2.09,7.42-2.78C198.42,81.41,198.41,81.88,198.4,82.35Z"/><path class="cls-24" d="M213.36,219.88c-9.94-.74-20,1.52-29.86-1.2l1.71-1.89,2.75-2.88h1.29c.14,2.53,1.58,2.13,3.16,1.41,3.25,3.3,5.27.34,7.52-1.48a12.08,12.08,0,0,0,1.47.09l1.7,1.36c2.11-2.08,2.06-4.09-.2-6-1.59-2.73-3-.34-4.48.16l-1.59-.08c-1.19-4.22-4.45-3.19-7.41-2.9l-1.71-.1c-3-3.2-6.73-1-10.11-1.38-1.25-.06-2.42-.28-3.09-1.52l13.44,0,34.37,0,0,1.56c-2.63-.07-5.27-.24-7.9-.18s-1.43,1.65-1,2.88c.24,2.53-.94,5.26,1.1,7.53l1.83,1.92Z"/><path class="cls-25" d="M105.79,219.88c0-.5,0-1,0-1.49,19.9,0,39.8,0,59.7,0,2.6,0,5.57,1,7.61-1.7,3.25-2.66-.74-8.57,4.61-10.3l1.34,1.38c.26,2.53-1,5.28,1.14,7.53l1.8,3.12c-2.91,1.83-6.16,1.51-9.37,1.51Z"/><path class="cls-26" d="M213.36,219.88l3-2.72c1.26-.31,2.78-.14,3.27-1.82a2.87,2.87,0,0,0,2.78-1.57c1.65.61,1.48,3.81,4.18,2.94l3-.86,1.89.84c.35,0,.71.05,1.07.05l3.38,0,2.6-.09,3.42,0,2.22-.12c1.48.22,2.79,0,3.58-1.46l.71.16h.73c1.51,2.34,3.9,1.42,6,1.62l0,.07c-1.63,3.49-4.81,2.9-7.74,2.91Z"/><path class="cls-27" d="M322.46,217c0,.47,0,.94,0,1.41l-65.74,0a5.45,5.45,0,0,0-.25-1.2l.41-.39,10.25-.1,1.58,0h6l11.92,0,7.49,0h4.46l11.9,0H312l5.91,0Z"/><path class="cls-28" d="M182,218.38l-1.8-3.12c.55-2.65,1.9-5.43-1.14-7.53l-1.34-1.38a6.33,6.33,0,0,1-.12-1.38c3.38.39,7.12-1.82,10.11,1.38l-1.35,1.11c-3.12,2.77-1.35,6.15-1.15,9.32l-1.71,1.9Z"/><path class="cls-29" d="M256.43,217.13a2.92,2.92,0,0,0-1.28-.16l0-.07a3.17,3.17,0,0,0-1.65-3.07c.09-1,.19-2,.28-3,2.59-2.63.94-5.87,1.28-8.81,0-.44,0-.87,0-1.3,1-.19,1.5.47,1.87,1.27,0,2,0,4,0,6s0,3.92,0,5.88c0,1-.05,1.94-.08,2.91Z"/><path class="cls-30" d="M274.55,161.34c5.09-5.36,1.34-11.85,2.23-17.75.17-1.16-1.59-3,1.24-3,2.07,0,5-.83,3.69,3.14-1.49,6-2.39,12,.45,17.83,4.18.19,8.35.35,10.37-4.47,2.3-.13,2.51,2.72,4.43,3.13.64,2.55-.89,3.1-2.93,3.18-3,.34-6.63-2.24-8.76,2,.4,6.67-2.52,13.62,1.74,20,7.24,1.31,4.68-6.87,8.54-8.84.92,2.38-1.06,5.34,1.48,7.4.74,2.48-.19,4.41-2,6.07l-11.61.08c-1.39-.13-1.58-1.14-1.63-2.25-.31-8.22,2.16-16.6-1.35-24.64l-4.05.08-5.21,0-2.6.12c-1.71-.8-3.92.75-6.31-2.06Z"/><path class="cls-31" d="M179.08,145.39c3.94-.36,8,3.39,11.86-.48,1.27.27,2.42.24,3-1.19,2.67.25,4.44-1.54,6.57-2.68,3.25-1.74,5.11,1,6.45,3.18,1.63,2.66-1.28,2.3-2.58,2.93-1.57,0-3.27-.46-4.47,1.08-5.08.84-10.87-2-15.14,2.94,0,1-.09,2.07-.13,3.11l.3,2.9c0,.48,0,1,0,1.44a5.68,5.68,0,0,0-.14,4.45.61.61,0,0,0,0,1.05c-1.22,4.06-1,8.25-1.09,12.41l-.15,1.51q-1.58,4.38-3.17,8.76c-3.31,2.81-3.44.34-2.87-2A48.53,48.53,0,0,0,179,167.6l0-4.49a21.19,21.19,0,0,0,0-9l-.15-7.42A2.67,2.67,0,0,0,179.08,145.39Z"/><path class="cls-32" d="M265.64,94.39c1.07,2.75,5.52,3.47,4.49,7.47-1.65.06-3.42-.26-4.49,1.5-4-.45-6.53,1.87-9,4.48-7.52-5.88-10.4-5.88-17.92,0l-1.54,1.55-2.65-3.9c-.32,3.2-1.54,5.26-4.74,5.12a4.1,4.1,0,0,0,0-1.26c4.14-1.23,3.14-4.49,2.92-7.43l-.07-3,.23-.17c3.06.3,2.35,6.62,6.23,4.5,2.27-1.23,6.23-3.06,4.14-7.41,2.62-2.64,5.65-2.84,8.94-1.49-.52,2.86-1.35,5.56,1.95,7.72,3.69,2.4,5.89-.14,8.5-1.75,3.33-1.26.69-4,1.49-5.94Z"/><path class="cls-33" d="M246.25,158.47l1.43.05a9.71,9.71,0,0,1,0,1.32c-1.42,3.13,1.63,2.54,2.87,3.45a3.3,3.3,0,0,1,.14,1.25c-1,1.88-1.87,3.8-1.53,6l.22,1.54L249.37,187l-1.65,3c-2.79,2.37-4.48.84-5.9-1.65l2.85-17.65-.06-3.32a1.48,1.48,0,0,0-.12-1.28c.06-2,.13-3.91.19-5.87l.12-1.79Z"/><path class="cls-34" d="M250.74,164.54a3.3,3.3,0,0,0-.14-1.25l4.57-3.24a14,14,0,0,0,.31-1.43l2.07,1.82c2-4.57,8.51-4.44,9.86-9.64,2.31,2.18.37,6.6,4.21,8l2.93,2.57H262.31c2.39,2.81,4.6,1.26,6.31,2.06,0,.39,0,.78,0,1.17-4.92-1-9,2-13.43,3C253.85,166.34,252.74,164.79,250.74,164.54Z"/><path class="cls-35" d="M226.75,145.06c5.29-6.36,5.68-.71,6.93,2.83a1.42,1.42,0,0,0-.93.28c-2.5,1.85-1.51,4.55-1.52,6.9,0,9.19.09,18.39.15,27.58-4.07,3-3.19-1.81-4.64-2.94,0-.47.06-.93.07-1.4a20.09,20.09,0,0,0,0-15.47v-.93a19.14,19.14,0,0,0,0-15.36C226.8,146.05,226.78,145.56,226.75,145.06Z"/><path class="cls-18" d="M256.68,107.84c2.43-2.61,5-4.93,9-4.48,4.18,2.58,2.69,6.78,3,10.47l2.83,2c-2.92-.09-5.36,4.34-8.8,1,1.78-1,3.49-2.11,2-4.45-.74-1.18-1.8-2.74-3.32-2.39-2.91.68.2,2.93-.78,4.09a7.24,7.24,0,0,1-2.41,1.25,3.73,3.73,0,0,0-6,0l-1.49-1.49,1.49-3,1.49-1.5Z"/><path class="cls-36" d="M226.81,161.91v.93c-3.91,3.82-3.91,11.65,0,15.47,0,.47,0,.93-.07,1.4-5.11-.3-2,3.78-3,5.64l-3-.16.08-41.43c1.85,1,3.75,1.76,5.92,1.3,0,.5.05,1,.06,1.49C222.86,149.62,222.86,158,226.81,161.91Z"/><path class="cls-37" d="M314.94,146.68c0,.5,0,1,0,1.49l-3,1.51-9,4.49c-2.45-2-5.83-2.95-7.48-6,1.76-1,6.14-.2,3-4.47-.17-1.08-2.49-1.72-1.35-2.62s3.21-.54,4.35,1.12c0,1.65-.27,3.4,1.48,4.48,1.21,1.67,2.86,1.72,4.54,1,.33-.14.47-1.66.41-1.68-1.11-.36-2.27-.6-3.42-.87a4.42,4.42,0,0,1,4.45-2.95l4.48,3Z"/><path class="cls-38" d="M191,86.92c1.4,1.76,2.37.7,3.46-.44a2,2,0,0,1,3.19-.15,2.29,2.29,0,0,1,0,3.31c-7.81,8.09.95,5.41,4.09,6.37L200.32,99c-2.36,1.27-2,4.19-3.67,5.91-3.74-.76-6.84-2.47-8.69-6,1.77-1.07,1.44-2.85,1.5-4.49,1.68,1,1.34,2.9,1.83,4.57C195.41,94.6,188.73,91,191,86.92Z"/><path class="cls-39" d="M256.68,107.84l-3,1.49c-1.56,0-2.37-3.24-3.93-1.38-.79.93,1.15,2.24,2.44,2.88l-1.49,3a3.05,3.05,0,0,0-1.5,3h0l-3,1.49c-.71-4.75-3.51-8-7.47-10.46C246.28,102,249.16,102,256.68,107.84Z"/><path class="cls-40" d="M244.8,158.45l-.12,1.79-6.23-.11a3.14,3.14,0,0,0,.35-1.38c2.28-2.58,2.33-5.16,0-7.76l-1.42-1.38c4.22-2,2.22-6.1,3-9.36,3.6-.33,6.74-.35,5.94,4.69-1,2-1.94,3.93-1.6,6.24Z"/><path class="cls-41" d="M217.81,148.21c.09-1.66-.25-3.46,1.58-4.5.4,5.47.8,10.95,0,16.43h-1.57c-5.23-2.62-7.86.86-10.43,4.46l-.05,1.62c-1.9-2.13-3.95-1.49-6-.3.51-2,1-4,1.52-5.95,1.28-3.27,4.72,1.62,6-1.59,2.32.6,3.17-.27,2.58-2.57C217.47,156.55,218.46,153.07,217.81,148.21Z"/><path class="cls-39" d="M179.08,145.39a2.67,2.67,0,0,1-.26,1.33c-3.36,8.73-4.16,9-10.27,2.95l1.49-1.48a2.72,2.72,0,0,0,3-3l0-1.48c3.1-.78,2.31-4.47,4.46-6,.05,1.64-.25,3.41,1.5,4.48h0Z"/><path class="cls-42" d="M138.43,153.65c0-.84,0-1.68.08-2.52.69-2.3,1.32-4.61,2.08-6.88.52-1.52.91-3.34,2-4.3.49-.43,2.8.57,3.82,1.47,2.62,2.3-1.36,2.86-1.44,4.54,0,.71-.18,1.42-.28,2.13l-1.54,3.06-3.23,4.47Z"/><path class="cls-43" d="M217.81,148.21c.65,4.86-.34,8.34-6.37,7.59l-4.25-4.16,1.68-2C211.85,149.2,214.66,147.64,217.81,148.21Z"/><path class="cls-44" d="M284.81,157.15c.63-2.84,1.5-5.66,1.84-8.53.63-5.35,3.46-5.46,7.4-3.49.15,1,.3,2.08.44,3.11l-1.8,1.46L290,154.16l-3.4,3.29Z"/><path class="cls-39" d="M189.46,94.39c-.06,1.64.27,3.42-1.5,4.49-2.65-2-5.43-3.64-9-3,1.38-1.92-.28-6,3.92-5.87C185.94,90.08,188.8,90.66,189.46,94.39Z"/><path class="cls-39" d="M268.63,113.83c-.3-3.69,1.19-7.89-3-10.47,1.07-1.76,2.84-1.44,4.49-1.5l1.5,1.5c0,.5,0,1,0,1.48C274.7,109.19,276.25,113,268.63,113.83Z"/><path class="cls-45" d="M219.4,160.14c.79-5.48.39-11,0-16.43l1.44,0q0,20.72-.08,41.43a.56.56,0,0,0,.23.75l-1.47-.77-.19-5.62A90,90,0,0,0,219.4,160.14Z"/><path class="cls-46" d="M229.83,110.6c3.2.14,4.42-1.92,4.74-5.12l2.65,3.9c.48,3.92-2.22,6.32-4.32,9l-3.31-.19-1.29-1.42c0-.43,0-.86.08-1.29C230.16,114.24,229.76,112.35,229.83,110.6Z"/><path class="cls-47" d="M237.41,149.61l1.42,1.38,0,7.76a3.14,3.14,0,0,1-.35,1.38,5.92,5.92,0,0,0-5.38-1.53c-.94-3.45-.54-6.95-.32-10.43a1.42,1.42,0,0,1,.93-.28Z"/><path class="cls-48" d="M271.62,158.77c-3.84-1.37-1.9-5.79-4.21-8,0-1.18-.36-2.72.23-3.47,1.09-1.37,2.25,0,3,.83C273.68,151.4,274.6,154.93,271.62,158.77Z"/><path class="cls-49" d="M173,145.18a2.72,2.72,0,0,1-3,3c-.41-4.93-4-4.5-7.44-4.5l-2.94,1.7c-2.91-6.7,4.91-3.19,5.9-6.18l1.49,1.5Z"/><path class="cls-50" d="M143.15,151.15l1.54-3.06,5.92-.09h1.55l6,.21c2.09,2.56,5,1,7.48,1.46-3.29,2.47-7.1.82-10.63,1.33-2.68-2-4.86-2.37-5.84,1.64A8,8,0,0,0,143.15,151.15Z"/><path class="cls-51" d="M199.93,148.23c1.2-1.54,2.9-1,4.47-1.08,0,.32,0,.64,0,1-2.34,2.86.23,2.8,1.93,3.25-.72,1.73-3.25,2.11-3.26,4.37l-.39-.2c-2.13.57-3.9-.54-5.75-1.28v-1.62A4.49,4.49,0,0,0,199.93,148.23Z"/><path class="cls-52" d="M249.21,116.8a3.05,3.05,0,0,1,1.5-3l1.49,1.49c.11,1.5.53,3.78,1.94,3.39,2.38-.65,2-3,1-4.89a3.1,3.1,0,0,1,3,1.5v1.49c-.54,2,.08,5.24-2,5.63C252.35,123.13,251.64,118.62,249.21,116.8Z"/><path class="cls-53" d="M244.74,151.18c-.34-2.31.61-4.28,1.6-6.24,4.86-2.38,6,1.14,7.28,4.54-2.38,1.36-5.39-.65-7.64,1.42l0,0A1.34,1.34,0,0,0,244.74,151.18Z"/><path class="cls-49" d="M177.5,137.73c-2.15,1.5-1.36,5.19-4.46,6-1.26-2.16-1.77-4.9-4.49-6l1.47-3c2.67,2.22,5.57,5.34,6-1.49h1.51Z"/><path class="cls-54" d="M196.78,113.28c-1.58-1.51-.55-2.82.32-4.13l3-.13.57.15.58-.16L203,114a7.38,7.38,0,0,0,.05,1.15l-1.79,1.8-1.75,0C198.31,115.89,198.78,113.65,196.78,113.28Z"/><path class="cls-55" d="M179,142.21a10.34,10.34,0,0,1,2.6-6.05,3.21,3.21,0,0,1,4.65-.56c1.12.78,1.72,2,.95,3.19-1.22,2-1.74,1.34-3.53-.1S181.42,142,179,142.2Z"/><path class="cls-56" d="M255.48,158.62a14,14,0,0,1-.31,1.43l-7.44-.21a9.71,9.71,0,0,0,0-1.32C250.37,151.82,252.93,154.41,255.48,158.62Z"/><path class="cls-43" d="M258.18,116.8v-1.49a7.24,7.24,0,0,0,2.41-1.25c1-1.16-2.13-3.41.78-4.09,1.52-.35,2.58,1.21,3.32,2.39,1.46,2.34-.25,3.47-2,4.45Z"/><path class="cls-57" d="M165.6,149.68c-2.5-.45-5.39,1.1-7.48-1.46.52-.94,1-1.88,1.54-2.83l2.94-1.7,3.89,5.79A1.64,1.64,0,0,0,165.6,149.68Z"/><path class="cls-58" d="M228.47,122.9a8,8,0,0,1-7.12,4.83c.34-1.63.68-3.25,1-4.88q2.25-1.51,4.48-3c-.08,1,.54,1.45,1.43,1.65A2.28,2.28,0,0,0,228.47,122.9Z"/><path class="cls-59" d="M200.11,109l-3,.13-.45-4.29c1.63-1.72,1.31-4.64,3.67-5.91l.69-.13.27,3.19c-1.73,1-1.47,2.65-1.2,4.26Z"/><path class="cls-60" d="M222.36,122.85c-.33,1.63-.67,3.25-1,4.88l-2.06-1.65q-.73-2.4-1.45-4.78l.16-1.8,2.85.3A3.43,3.43,0,0,1,222.36,122.85Z"/><path class="cls-61" d="M174.52,97.38,179,95.89v7.46c-2-3-4-1.49-6,0v-1.5Z"/><path class="cls-62" d="M309,142.21a4.42,4.42,0,0,0-4.45,2.95L303,146.69c-1.75-1.08-1.44-2.83-1.48-4.48,2.76-1.81,5.88-1.54,9-1.5h0v1.5Z"/><path class="cls-39" d="M179,103.35v-1.5c2.09-.38.7-5.09,4.28-3.49a2.49,2.49,0,0,1,1.37,3.08C183.64,104.33,181,103,179,103.35Z"/><path class="cls-63" d="M282.16,161.59c-2.84-5.88-1.94-11.85-.45-17.83q.21,5.94.43,11.89v4.47Z"/><path class="cls-64" d="M228.47,122.9a2.3,2.3,0,0,1-.2-1.46c0-.55,0-1.1,0-1.65s0-.9,0-1.35a11.17,11.17,0,0,0,1.26-.24l3.31.19C232,120.45,234.33,125.7,228.47,122.9Z"/><path class="cls-62" d="M173,101.85v1.5c-.24,0-.49,0-.73,0-2.29-.06-4.6-.29-4.66-3.28a2.77,2.77,0,0,1,1.76-2C172.16,97.65,171.08,101.24,173,101.85Z"/><path class="cls-65" d="M214.75,127.15c-2.37.67-4.66,5.75-7.12.11l1.32-.66c2.32.29,3.23-3.09,5.77-2.23Z"/><path class="cls-66" d="M294.49,148.24c-.14-1-.29-2.07-.44-3.11,1.09-1.71,2.83-1.39,4.46-1.42,3.13,4.27-1.25,3.49-3,4.47C295.16,148.19,294.83,148.21,294.49,148.24Z"/><path class="cls-52" d="M246.23,118.29l3-1.49c0,2.5,0,5,0,7.49h-3Z"/><path class="cls-55" d="M152.16,148h-1.55c0-2.44.36-4.57,3.57-4.12.58.09,1.55.74,1.55,1.14C155.73,147.3,152.8,146.31,152.16,148Z"/><path class="cls-67" d="M177.51,133.24H176c-1.31-1.05-1.95-2.29-.57-3.65a2.11,2.11,0,0,1,1.94.13C178.8,130.75,179.13,132,177.51,133.24Z"/><path class="cls-68" d="M214.75,127.15l0-2.78c1.27-.61,1.58-1.77,1.74-3l.68,0h.7q.72,2.39,1.45,4.78Z"/><path class="cls-69" d="M209,126.61l-1.32.65-1.84-1.34-1.64-3.32c.71-1.39,2-1.17,3.23-1.18Q208.16,124,209,126.61Z"/><path class="cls-70" d="M196.78,113.28c2,.37,1.53,2.61,2.74,3.59l.3,2.83.09-.08C197.12,118.37,193.17,117.69,196.78,113.28Z"/><path class="cls-71" d="M194,143.72c-.6,1.43-1.75,1.46-3,1.19-.11-1.44-3.39-2.39-1.29-3.8S192.37,143,194,143.72Z"/><path class="cls-39" d="M170,134.74l-1.47,3a3.1,3.1,0,0,1-1.5,3l-1.49-1.5Q165.72,134.92,170,134.74Z"/><path class="cls-72" d="M206.34,151.36c-1.7-.45-4.27-.39-1.93-3.25,1.62.14,3.41-.21,4.46,1.55l-1.68,2A1,1,0,0,1,206.34,151.36Z"/><path class="cls-73" d="M282.14,160.12v-4.47l2.67,1.5,1.75.3C286.28,160.31,284.15,160.12,282.14,160.12Z"/><path class="cls-74" d="M246.23,124.28h3c-.28,1.48.75,4-1.86,3.84S245.6,125.88,246.23,124.28Z"/><path class="cls-75" d="M240.93,122.56c-2.61.13-4.43-.42-4.17-1.93.47-2.75,1.74-1,2.64,0C239.83,121.09,240.19,121.61,240.93,122.56Z"/><path class="cls-76" d="M202.81,124.53c-3.76,0-4.8-1.58-2.9-4.91l-.09.08c1,1,2.05,2.07,3.08,3.11Z"/><path class="cls-77" d="M202.81,124.53l.09-1.72c.41-.08.83-.15,1.25-.21l1.64,3.32-2.12,1.57C203.38,126.51,203.1,125.52,202.81,124.53Z"/><path class="cls-78" d="M244.74,151.18a1.34,1.34,0,0,1,1.27-.3l.24,7.59-1.45,0Z"/><path class="cls-79" d="M310.47,140.71c-.21-1.24-1.89-2.33-.39-3.7a1.23,1.23,0,0,1,1.17.2c1.07,1.42.49,2.55-.79,3.49Z"/><path class="cls-78" d="M246,150.9c2.25-2.07,5.26-.06,7.64-1.42C251.56,152.57,248.63,151,246,150.9Z"/><path class="cls-14" d="M309,142.21h1.49c1.55.44,4.19-.2,3,3Z"/><path class="cls-80" d="M314.94,197.5c0,1.49,0,3,0,4.47-2.26,3,2,4.77,1.48,7.46h0c-2.39-.46-3.36-4.73-6-3.28-8.51,4.68-7.41-2.87-8.62-6.73-1.13-3.59-2.28,0-3.3-.41a4.91,4.91,0,0,1,0-6c3.66-2.79,2.06-11.72,10.47-9-1.64,2.57-4.42,4.88.83,7.13C312,192.09,313.26,195.31,314.94,197.5Z"/><path class="cls-81" d="M298.53,199c1,.45,2.17-3.18,3.3.41,1.21,3.86.11,11.41,8.62,6.73,2.63-1.45,3.6,2.82,6,3.28l-1.5,1.51-3-1.5c-6.23-.87-11.19.62-13.41,7.21h-4.46c3.59-3,3.48-7.34,4.77-11.28-2.84-1-5.49,2.87-7.81-.41C294,203.53,297,202.23,298.53,199Z"/><path class="cls-82" d="M309,184c-8.41-2.76-6.81,6.17-10.47,9h-3l0,0c-.07-.71-.13-1.42-.19-2.12-.09-.29-.17-.58-.23-.87,1.77-1.66,2.7-3.59,2-6.07l.29-.39c2.26-2,.74-4.66,1.21-7,3.05,2.35,5.42,1.3,7.45-1.47,4.23.85,4.28,4.21,4.48,7.48Z"/><path class="cls-83" d="M294,163.43c2-.08,3.57-.63,2.93-3.18a5.2,5.2,0,0,1,3.05-3.12,5.19,5.19,0,0,1,3,3c-.25,2.33,2.08,2.94,3,4.49-.89,3.78,3.65,3.5,4.49,6a4.54,4.54,0,0,1-4.49,3v-1.48c-1.55-3.76-1.76-9.16-8.46-5.08C294.59,168.79,294.11,165.73,294,163.43Z"/><path class="cls-84" d="M306,172.09v3c-2,2.77-4.4,3.82-7.45,1.47a12.5,12.5,0,0,0-.21-2.13c-.09-.31-.61-.5-1-.81v9.92l-.29.39c-2.54-2.06-.56-5-1.48-7.4C295.84,167.55,296.33,167.34,306,172.09Z"/><path class="cls-18" d="M309,184l1.48-1.48c2,4.84,7.52,8.61,4.48,15-1.68-2.19-2.91-5.41-5.13-6.35C304.56,188.9,307.34,186.59,309,184Z"/><path class="cls-79" d="M312,209.43l3,1.5,1.49,2.95a4.63,4.63,0,0,0-4.41,2.77h-1.57C305.65,213.15,311,211.75,312,209.43Z"/><path class="cls-85" d="M316.43,209.43c.52-2.69-3.74-4.43-1.48-7.46C318.64,202.49,319,204.12,316.43,209.43Z"/><path class="cls-86" d="M312,216.65a4.63,4.63,0,0,1,4.41-2.77,2.87,2.87,0,0,1,1.5,2.79Z"/><path class="cls-87" d="M216.35,83.73c1.26,4.18,3,7.63,8.27,7.86,2.38.1,4.87,1.14,5.18,4.27-3.51-1.39-7-1.86-10.51.08a2.59,2.59,0,0,0-1.45-3l-1.1-1.24c-1.19-3.74-4.43-6.08-6.39-9.3C212.63,81.58,214.68,81.84,216.35,83.73Z"/><path class="cls-2" d="M216.35,83.73c-1.67-1.89-3.72-2.15-6-1.38l-7.44.29-1.45-.46a63.21,63.21,0,0,1,28.34.09l-3,.38A14.88,14.88,0,0,0,216.35,83.73Z"/><path class="cls-62" d="M231.26,97.49c-.32-4.15,2-5.09,5.5-4.41,1.79.34,3.45,1.27,2.81,3.42-.59,2-2.15,2.58-4,1.28-1.45-1-2.62-1.55-2.69,1l-.22.17Z"/><path class="cls-88" d="M232.84,84.12c-3.07,5.65-7.06,5.07-12.11,2.28,2-2.44,5,.27,6.08-2.46Z"/><path class="cls-89" d="M252.19,94.39c-3.29-1.35-6.32-1.15-8.94,1.49,1.16-3.1.25-7.86,5.89-7.39C249.06,91,251.36,92.33,252.19,94.39Z"/><path class="cls-90" d="M219.29,95.94c3.49-1.94,7-1.47,10.51-.08,0,.47.1.94.17,1.41l-1.74.13-7.43,1.48-1.46-1.41,0-1.62Z"/><path class="cls-91" d="M228.23,97.4l1.74-.13c.43.06.86.13,1.29.22l1.4,1.47.06,3c-1.78-.11-3.5,0-4.63,1.65l-1.45-1.65Z"/><path class="cls-15" d="M232.84,84.12l-6-.18,0-1.29,3-.38,1.5,0L234.24,84A13.37,13.37,0,0,0,232.84,84.12Z"/><path class="cls-92" d="M303,160.12a5.19,5.19,0,0,0-3-3c0-.49,0-1,0-1.49a3,3,0,0,0,3-1.47l9-4.49v1.49l2.27,3.66c-4,.51-9.82-1.76-9.75,5.3Z"/><path class="cls-84" d="M303,160.12h1.49a10.51,10.51,0,0,1,1.48,0c2.35.24,6.2-3.13,6.71,1.14s-4,3-6.69,3.37C305.07,163.06,302.74,162.45,303,160.12Z"/><path class="cls-93" d="M312,151.17v-1.49l3-1.51,3,3C316,156.34,313.94,149.25,312,151.17Z"/><path class="cls-79" d="M264.13,94.42c-.8,1.91,1.84,4.68-1.49,5.94-.22-1.58-.64-3-2.7-2.29-2.26.74-4.76,1.41-4.34-2.19.31-2.62,2.54-3.27,5-2.44C261.8,93.82,263,94.1,264.13,94.42Z"/><path class="cls-85" d="M110.28,167.6c4.73.13,7.1-2.19,7.63-6.88.19-1.68,1-4.56,2.82-.6-3,4.32-1.42,10-4.31,14.3-.49.74-2.82-.72-2.4,1.48.14.73,1.25,1.53,2.08,1.82,1.54.53,2.79-.23,3.86-1.44,1.8-2-.88-4.11.23-6.46l3.53,3.76c3.73,7.12,11.38,8.4,17.95,3,1.47-1.76,5.94-2,3-6v-1.23l3,0c.61,4.89-1.36,10,1.33,14.7q.11,3.69.23,7.38c4.11,2,3.5,4.8,1.29,7.79-3.86,5.23-6.23,10.94-5.85,17.57l-11.92,0c.58-1.33,1.12-2.67,1.75-4,3.66-7.64,3.24-20.06-1.53-24.39-6.76-6.14-13.8-12.45-24.12-7.35A35.25,35.25,0,0,1,110.28,167.6Z"/><path class="cls-94" d="M132.7,216.77l11.92,0,7.5,0,14.9,0,3,0,1.51-.23a4.79,4.79,0,0,0,1.2.11l.37,0c-2,2.74-5,1.69-7.61,1.7-19.9.08-39.8,0-59.7,0,0-15.56,0-31.11,0-46.67,0-2.38-.74-5,1.23-7.06l.39,2.94-.09,14.92V184c0,1.48,0,3,0,4.45l0,4.53V196l0,6v3c.39,3.93-2.25,8.23,1.41,11.77h16.48Z"/><path class="cls-82" d="M123.73,161.62c3.72.51,3.9-2.08,5-4.74,1.47-3.7,3.56-8.73,8.53-2.66l-1.47,5.83c-2.2,1.83-5.54,2.52-6.05,6,.14,2.57-.26,4.87-3,6C125.71,168.6,121.63,166,123.73,161.62Z"/><path class="cls-95" d="M123.73,161.62c-2.1,4.37,2,7,3,10.47a3.08,3.08,0,0,1-3,1.49l-3.53-3.76c-1.11,2.35,1.57,4.43-.23,6.46-1.07,1.21-2.32,2-3.86,1.44-.83-.29-1.94-1.09-2.08-1.82-.42-2.2,1.91-.74,2.4-1.48,2.89-4.3,1.33-10,4.31-14.3A3.08,3.08,0,0,0,123.73,161.62Z"/><path class="cls-96" d="M107.33,182.52l.09-14.92h2.86a35.25,35.25,0,0,0-1.48,13.46Z"/><path class="cls-97" d="M135.75,160.05l1.47-5.83c.4-.2.8-.39,1.21-.57l1.49,2-1.28,2.9-2.91,1.5Z"/><path class="cls-98" d="M202.91,94.45c-2.07-2.51-.28-5,0-7.53,7.57-2.51,9.23-1.4,9,6-.47,0-.94,0-1.41,0l-1.72,0C206.23,91.24,205.09,94.86,202.91,94.45Z"/><path class="cls-99" d="M211.87,92.9c.26-7.38-1.4-8.49-9-6,0-1.43,0-2.86,0-4.28l7.44-.29c2,3.22,5.2,5.56,6.39,9.3a2.42,2.42,0,0,1-.43,1.18l-1.49.19a1.26,1.26,0,0,0-1.3,0Z"/><path class="cls-100" d="M202.91,94.45c2.18.41,3.32-3.21,5.83-1.5a9,9,0,0,1,.23,1.36c-.9,2.06-3.49,1.16-4.7,2.69L201,98.82l-.69.13L201.65,96Z"/><path class="cls-101" d="M219.63,215.34c-.5,1.68-2,1.51-3.28,1.82l-1.83-1.92c.48-2.63,1.92-5.41-1.1-7.53-.45-1.23-1.69-2.83,1-2.88s5.27.11,7.9.18c-.14.88-.29,1.77-.43,2.65a1.38,1.38,0,0,0-1,.23C217.51,209.9,219.11,212.71,219.63,215.34Z"/><path class="cls-102" d="M222.32,203.45l-34.37,0c0-.48,0-.95,0-1.43h38.84c0,.45,0,.91,0,1.36Z"/><path class="cls-3" d="M199.93,213.84c-2.25,1.82-4.27,4.78-7.52,1.48-.06-1.93-.13-3.86-.19-5.78l4.61-.19,1.59.08C198.92,210.9,199.42,212.37,199.93,213.84Z"/><path class="cls-103" d="M222.32,203.45l4.46-.1c.58.59,1.16,1.19,1.73,1.79a2.9,2.9,0,0,0,1.46,3,5.11,5.11,0,0,1-.25,1.16l-3,.22-2.85,0c0-.54,0-1.08,0-1.61l.34-.62-.33.62-2-.25c.14-.88.29-1.77.43-2.65C222.3,204.49,222.31,204,222.32,203.45Z"/><path class="cls-104" d="M177.6,205a6.33,6.33,0,0,0,.12,1.38c-5.35,1.73-1.36,7.64-4.61,10.3l-.37,0,.3-13.22h1.47C175.18,204.69,176.35,204.91,177.6,205Z"/><path class="cls-105" d="M196.83,209.35l-4.61.19-2.7.1-.1-3.19C192.38,206.16,195.64,205.13,196.83,209.35Z"/><path class="cls-106" d="M189.52,209.64l2.7-.1c.06,1.92.13,3.85.19,5.78-1.58.72-3,1.12-3.16-1.41Z"/><path class="cls-107" d="M199.93,213.84c-.51-1.47-1-2.94-1.51-4.41,1.48-.5,2.89-2.89,4.48-.16-.06,1.08-.13,2.15-.2,3.23l-1.3,1.43A12.08,12.08,0,0,1,199.93,213.84Z"/><path class="cls-104" d="M188,202c0,.48,0,.95,0,1.43l-13.44,0h0C178.72,200.48,183.48,202.6,188,202Z"/><path class="cls-3" d="M189.52,209.64l-.27,4.27H188c-.53-2.15-1.07-4.3-1.6-6.45l1.35-1.11,1.71.1C189.45,207.51,189.49,208.57,189.52,209.64Z"/><path class="cls-108" d="M186.36,207.46c.53,2.15,1.07,4.3,1.6,6.45l-2.75,2.88C185,213.61,183.24,210.23,186.36,207.46Z"/><path class="cls-109" d="M213.42,207.71c3,2.12,1.58,4.9,1.1,7.53C212.48,213,213.66,210.24,213.42,207.71Z"/><path class="cls-110" d="M202.7,212.5c.07-1.08.14-2.15.2-3.23,2.26,1.93,2.31,3.94.2,6C203,214.36,202.83,213.43,202.7,212.5Z"/><path class="cls-111" d="M202.7,212.5c.13.93.27,1.86.4,2.79l-1.7-1.36C201.84,213.46,202.27,213,202.7,212.5Z"/><path class="cls-112" d="M179.06,207.73c3,2.1,1.69,4.88,1.14,7.53C178.1,213,179.32,210.26,179.06,207.73Z"/><path class="cls-113" d="M238.54,216.67l-2.6.09c-.13-1.92-.25-3.85-.37-5.77l1.69-3,1.53.2,1.5,2.85A6.88,6.88,0,0,1,238.54,216.67Z"/><path class="cls-114" d="M247.76,215.13c-.79,1.48-2.1,1.68-3.58,1.46q-.57-3.54-1.13-7.06l2.9,1.35C247.73,211.8,247.58,213.53,247.76,215.13Z"/><path class="cls-115" d="M237.26,208l-1.69,3h-2.46c-3.52,1.05-1.31,3.74-1.62,5.71l-1.89-.84.12-6.57a5.11,5.11,0,0,0,.25-1.16l7.2-.61Z"/><path class="cls-116" d="M223.85,209.52l2.85,0-.12,7.21c-2.7.87-2.53-2.33-4.18-2.94l1.16-2.83A3.87,3.87,0,0,0,223.85,209.52Z"/><path class="cls-117" d="M253.54,213.83a3.17,3.17,0,0,1,1.65,3.07c-2.09-.2-4.48.72-6-1.62.07-1.25.22-2.46,1.61-3Z"/><path class="cls-118" d="M243.05,209.53q.55,3.53,1.13,7.06l-2.22.12c-1-1.74.78-4.32-1.67-5.63l-1.5-2.85C240.54,207.58,241.67,209,243.05,209.53Z"/><path class="cls-119" d="M226.58,216.71l.12-7.21,3-.22-.12,6.57Z"/><path class="cls-120" d="M223.56,210.94l-1.16,2.83a2.87,2.87,0,0,1-2.78,1.57c-.51-2.63-2.11-5.44,1.21-7.45C220.85,209.7,221.66,210.81,223.56,210.94Z"/><path class="cls-121" d="M250.81,212.27c-1.39.55-1.54,1.76-1.61,3h-.73l-.71-.16c-.18-1.6,0-3.33-1.81-4.25.1-.95.19-1.9.28-2.85l3.09.12C249.82,209.52,250.31,210.9,250.81,212.27Z"/><path class="cls-122" d="M233.11,211h2.46c.12,1.92.24,3.85.37,5.77l-3.38,0C232.74,214.82,232.93,212.9,233.11,211Z"/><path class="cls-123" d="M233.11,211c-.18,1.92-.37,3.84-.55,5.76-.36,0-.72,0-1.07-.05C231.8,214.72,229.59,212,233.11,211Z"/><path class="cls-124" d="M240.29,211.08c2.45,1.31.65,3.89,1.67,5.63l-3.42,0A6.88,6.88,0,0,0,240.29,211.08Z"/><path class="cls-125" d="M281.83,187.8c.05,1.11.24,2.12,1.63,2.25a4.26,4.26,0,0,1,.53,1.22,2.25,2.25,0,0,0-.43.57,1.1,1.1,0,0,0,0,.61c4,.18,7.92.34,11.89.51l0,0L291,203.44c-4.64,3.35-1.61,9.27-4.44,13.23l-11.92,0c.48-1.42.95-2.83,1.43-4.24h0c2.52-2.1,2.64-5,3.08-8,1.18-8-2-14.43-6.25-20.67l3.33-11.7,4.26,0C281.7,177.23,279.58,182.7,281.83,187.8Z"/><path class="cls-67" d="M286.6,216.67c2.83-4-.2-9.88,4.44-13.23,0,.51,0,1,0,1.52,2.32,3.28,5-.58,7.81.41-1.29,3.94-1.18,8.32-4.77,11.28Z"/><path class="cls-18" d="M256.92,213.83c0-2,0-3.92,0-5.88,2.43-.38,5.23,1,7.22-1.51l3-1.5h1.5l-.79,6.56c2.77,1.06,5.95-2.41,8.28.92h0l-7.44,4.25-1.58,0C263.72,215.64,263.29,204,256.92,213.83Z"/><path class="cls-126" d="M312,209.43c-1,2.32-6.31,3.72-1.51,7.23l-11.9,0C300.77,210.05,305.73,208.56,312,209.43Z"/><path class="cls-127" d="M256.92,213.83c6.37-9.84,6.8,1.81,10.17,2.81l-10.25.1C256.87,215.77,256.9,214.8,256.92,213.83Z"/><path class="cls-128" d="M268.67,216.66l7.44-4.25c-.48,1.41-.95,2.82-1.43,4.24Z"/><path class="cls-129" d="M188,202c-4.47.61-9.23-1.51-13.43,1.46H173c-.65-3.83,2.21-2.9,4.16-3,5.56-.16,11.12-.2,16.68-.29l21,0,17.92,0h1.49l3,0h18l-.16.46c0,.43,0,.86,0,1.29-.46,0-.92,0-1.38,0H188Z"/><path class="cls-130" d="M257,202c-.37-.8-.83-1.46-1.87-1.27l.16-.46c-1.21-2.33-2.91-4.46-3-7.25,2.07-.85,3.37-3.21,6-3,0,.5,0,1,0,1.52V193c-1.85,1-3.45,2-2,4.56,1.68,2.95,4.16,1.75,6.5,1.41l0,1.51C260.78,201,259.52,204,257,202Z"/><path class="cls-131" d="M257,202c2.57,2,3.83-.95,5.73-1.51,3,1.36-.3,4.29,1.47,6-2,2.47-4.79,1.13-7.22,1.51C256.94,206,256.94,204,257,202Z"/><path class="cls-132" d="M250.81,212.27c-.5-1.37-1-2.75-1.49-4.12,1.77-.41,2.87,1,4.26,1.58a1.74,1.74,0,0,0,.24,1.09c-.09,1-.19,2-.28,3Z"/><path class="cls-133" d="M253.82,210.82a1.74,1.74,0,0,1-.24-1.09l.12-3.27c0-1.49,0-3,0-4.48.46,0,.92,0,1.38,0C254.76,205,256.41,208.19,253.82,210.82Z"/><path class="cls-134" d="M306,172.09c-9.65-4.75-10.14-4.54-10.43,4.41-3.86,2-1.3,10.15-8.54,8.84-1.71-3.84-1.3-7.79-.61-11.76,4.11-.57,3.18-3.39,2.71-6.68-1.47,1.87-.68,4.39-2.74,5.22-.36-2.25-.73-4.49-1.1-6.74,2.13-4.19,5.77-1.61,8.76-1.95.08,2.3.56,5.36,3.49,3.58C304.22,162.93,304.43,168.33,306,172.09Z"/><path class="cls-135" d="M276.26,172.06l-3.33,11.7-4.41,4.66-2.92.26.2-3.11c1.61-.25,1.79-1.32,1.54-2.64,2.49-1.92,1.67-5.14,2.94-7.54,1.73-3.92,1.21-8,.94-12.11l5.21,0c0,1.46,0,2.91-.05,4.36Z"/><path class="cls-136" d="M300,155.64c0,.5,0,1,0,1.49a5.2,5.2,0,0,0-3.05,3.12c-1.92-.41-2.13-3.26-4.43-3.13,1.58-3.11-.51-3-2.57-3l2.73-4.46Z"/><path class="cls-137" d="M290,154.16c2.06-.06,4.15-.15,2.57,3-2,4.82-6.19,4.66-10.37,4.47,0-.49,0-1,0-1.47,2,0,4.14.19,4.42-2.67Z"/><path class="cls-138" d="M281.83,187.8c-2.25-5.1-.13-10.57-1.31-15.75,0-1,0-2,0-3l0-5.92C284,171.2,281.52,179.58,281.83,187.8Z"/><path class="cls-138" d="M286.4,173.58c-.69,4-1.1,7.92.61,11.76-4.26-6.33-1.34-13.28-1.74-20q.56,3.36,1.1,6.73Z"/><path class="cls-139" d="M280.48,163.16l0,5.92-4.13-1.48c0-1.45,0-2.9.05-4.36Z"/><path class="cls-140" d="M271.22,163.28c.27,4.09.79,8.19-.94,12.11-.89-3.55,1.3-7.59-1.68-10.82,0-.39,0-.78,0-1.17Z"/><path class="cls-138" d="M284,191.27a4.26,4.26,0,0,0-.53-1.22l11.61-.08c.06.29.14.58.23.87Z"/><path class="cls-141" d="M179,167.6a48.53,48.53,0,0,1-1.43,17.25c-.57,2.29-.44,4.76,2.87,2l1.61,1.71c0,3.76-1.62,7.07-3,10.45-2.63-.64-6.49,1.83-7.49-3a12.23,12.23,0,0,0-1.5-7.49c-2.39-4.53-2.57-10.29-7.46-13.44,0-1,0-2,0-3l5.92-2.73a5.24,5.24,0,0,1,1.46-.33,3.12,3.12,0,0,1,1.59,3c-2.38.22-4.26,1.07-4.19,3.86,0,.48.93,1.41,1.21,1.33,2.19-.63,2.41-2.67,2.9-4.48a3.43,3.43,0,0,0,.08-.71c5.07-3.41-1.51-8.28,1.5-11.94Z"/><path class="cls-142" d="M179,167.6q-3-3.73-5.92-7.46c-1.13-2.6-2.42-4.84-5.92-4.53-3.07.28-6,.32-3.07,4.52v1.25L161,165.9l-5.93.31.17-.51q0-7.11,0-14.24L155,151c3.53-.51,7.34,1.14,10.63-1.33a1.64,1.64,0,0,1,.89-.2l2.06.19c6.11,6,6.91,5.78,10.27-2.95l.15,7.42c-2.21,3-2.25,6,0,9Z"/><path class="cls-143" d="M196.93,152.63c0,.54,0,1.08,0,1.62-4.09,2.69-8.18,1.46-12.28,0,0-1,.09-2.07.13-3.11C188.82,151.82,193.18,149.67,196.93,152.63Z"/><path class="cls-144" d="M196.93,152.63c-3.75-3-8.11-.81-12.14-1.46,4.27-5,10.06-2.1,15.14-2.94A4.49,4.49,0,0,1,196.93,152.63Z"/><path class="cls-145" d="M208.86,158.37c-1.29,3.21-4.73-1.68-6,1.59a2.61,2.61,0,0,1-1.3.11c-4.3-2.87-9-.92-13.53-1.17l-3.05-.28c0-.48,0-1,0-1.44,5.87-1.06,12.11,1.93,17.73-1.65l.39.2Z"/><path class="cls-80" d="M185,158.62l3.05.28a4.46,4.46,0,0,0,3.87,2.67c4.88.16.67,2,.56,3l-1.73,1.95-4.1-.24c-.14-1.33-.41-2.59-1.79-3.25A5.68,5.68,0,0,1,185,158.62Z"/><path class="cls-146" d="M182,188.51l-1.61-1.71q1.59-4.38,3.17-8.76h2.93l0,1.49c-3.22,2.26.12,6.71-3,9Z"/><path class="cls-147" d="M202.69,155.53c-5.62,3.58-11.86.59-17.73,1.65l-.3-2.9c4.1,1.43,8.19,2.66,12.28,0C198.79,155,200.56,156.1,202.69,155.53Z"/><path class="cls-148" d="M186.49,178h-2.93l.15-1.51c2.53-3.95,1-8.25,1.09-12.41a.61.61,0,0,1,0-1.05c1.38.66,1.65,1.92,1.79,3.25C186.58,170.23,186.53,174.13,186.49,178Z"/><path class="cls-146" d="M184.8,164.12c-.07,4.16,1.44,8.46-1.09,12.41C183.76,172.37,183.58,168.18,184.8,164.12Z"/><path class="cls-149" d="M179,163.11c-2.26-3-2.22-6,0-9A21.19,21.19,0,0,1,179,163.11Z"/><path class="cls-150" d="M229.83,110.6c-.07,1.75.33,3.64-1.45,4.89l-4.58-3.17c.11-1.61-.32-3.41,1.52-4.44,2.14,1.74,2.19-.6,3-1.52,1.49.49,1.61,1.68,1.51,3A4.1,4.1,0,0,1,229.83,110.6Z"/><path class="cls-151" d="M229.8,109.34c.1-1.3,0-2.49-1.51-3-.09-.53-.19-1.06-.29-1.59a2.49,2.49,0,0,0,.09-1.21c1.13-1.7,2.85-1.76,4.63-1.65C232.94,104.85,233.94,108.11,229.8,109.34Z"/><path class="cls-152" d="M268.6,164.57c3,3.23.79,7.27,1.68,10.82-1.27,2.4-.45,5.62-2.94,7.54-4.76-4.65-10-4.81-14.61.3,5.28-3.09,8.74,1.47,13.07,2.34-.07,1-.13,2.07-.2,3.11-2.15,1.78-4.81,2.23-7.42,2.83,0-.51,0-1,0-1.52-3.48-4.39-5.59-2-7.46,1.51h-3c0-.49,0-1,0-1.48l1.65-3a18.38,18.38,0,0,0,.06-14.89c-.08-.51-.15-1-.22-1.54,2.43-.1,4.57-.79,6-3C259.65,166.61,263.68,163.6,268.6,164.57Zm-6,10.48h-5.93c1.83,2.7,3.38,4.18,6,1.53l1.53-1.51c1.71-1.12,5.24-.21,4.46-4.11-.31-1.57.44-3.61-1.58-4.4-2.68-1-4.66,0-5.89,2.55Q261.9,172.08,262.64,175.05Z"/><path class="cls-153" d="M223.76,185.35c1-1.86-2.13-5.94,3-5.64,1.45,1.13.57,5.95,4.64,2.94,1.84-.74,1.59-2.44,1.3-3.73-1.82-8.08,2.31-9.7,9.1-8.61,1,.15,1.92.27,2.89.4l-2.85,17.65L240.26,190c-.53-1.14-2-2.72-2.5-2-2.79,3.79-7.84,3.5-11,6.51Q225.28,189.92,223.76,185.35Zm12.31-8c-.2,1.64-1.11,3.57,1.83,3.67,2.52.09,3.66-1.51,3.64-3.6a3.6,3.6,0,0,0-3.68-3.8C234.62,173.52,236.68,176.1,236.07,177.34Z"/><path class="cls-154" d="M244.67,170.71c-1-.13-1.93-.25-2.89-.4-6.79-1.09-10.92.53-9.1,8.61.29,1.29.54,3-1.3,3.73-.06-9.19-.19-18.39-.15-27.58,0-2.35-1-5,1.52-6.9-.22,3.48-.62,7,.32,10.43l-.09,3c.23,2.24-2.8,6,2.75,5.72l8.88.07Z"/><path class="cls-155" d="M240.26,190l1.56-1.64c1.42,2.49,3.11,4,5.9,1.65,0,.49,0,1,0,1.48-4.21,1.66-3.2,8.64-8.93,8.75h-1.54C240.42,197.45,235,192.17,240.26,190Z"/><path class="cls-156" d="M244.61,167.39l-8.88-.07a8.38,8.38,0,0,1-1.5-5.34c4.27-.71,8.1-.36,10.26,4.13A1.48,1.48,0,0,1,244.61,167.39Z"/><path class="cls-157" d="M244.49,166.11c-2.16-4.49-6-4.84-10.26-4.13a6.69,6.69,0,0,0-1.25-.38l.09-3a5.92,5.92,0,0,1,5.38,1.53l6.23.11C244.62,162.2,244.55,164.16,244.49,166.11Z"/><path class="cls-158" d="M255.17,167.59c-1.39,2.18-3.53,2.87-6,3-.34-2.22.51-4.14,1.53-6C252.74,164.79,253.85,166.34,255.17,167.59Z"/><path class="cls-159" d="M249.43,172.1a18.38,18.38,0,0,1-.06,14.89Z"/><path class="cls-160" d="M247.73,159.84l7.44.21-4.57,3.24C249.36,162.38,246.31,163,247.73,159.84Z"/><path class="cls-161" d="M226.81,161.91c-3.95-3.93-3.95-12.29,0-15.36A19.14,19.14,0,0,1,226.81,161.91Z"/><path class="cls-162" d="M226.81,178.31c-3.91-3.82-3.91-11.65,0-15.47A20.09,20.09,0,0,1,226.81,178.31Z"/><path class="cls-37" d="M255.18,113.81c.95,1.94,1.34,4.24-1,4.89-1.41.39-1.83-1.89-1.94-3.39A3.08,3.08,0,0,1,255.18,113.81Z"/><path class="cls-52" d="M252.2,110.83c-1.29-.64-3.23-2-2.44-2.88,1.56-1.86,2.37,1.41,3.93,1.38Z"/><path class="cls-163" d="M223.76,185.35q1.52,4.58,3,9.14c-.33,3.34,1.19,4.82,4.52,4.46l1.45,1.26-17.92,0V199q3.06-6.54,6.13-13.06a.56.56,0,0,1-.23-.75Z"/><path class="cls-39" d="M300,155.64l-7.33-5.94,1.8-1.46c.34,0,.67-.05,1-.06,1.65,3,5,3.94,7.48,6A3,3,0,0,1,300,155.64Z"/><path class="cls-164" d="M303,146.69l1.53-1.53c1.15.27,2.31.51,3.42.87.06,0-.08,1.54-.41,1.68C305.85,148.41,304.2,148.36,303,146.69Z"/><path class="cls-165" d="M238.8,158.75l0-7.76C241.13,153.59,241.08,156.17,238.8,158.75Z"/><path class="cls-166" d="M221,185.94q-3.06,6.52-6.13,13.06v0a11.24,11.24,0,0,0-11.93,0l-1.53-1.48c-.17-2.61-1.79-4.91-1.1-7.82.26-1.12-1.28-.41-1.88.34-2.13,1.52-4.21,0-6.31-.12l.35-2.83,10.45,0c.53,3.53,1.57,6.06,5.55,2.86,3.82-4,1.09-8.91,1.92-13.32,1.26.24,2.79,2.12,3.71.33s-.89-3.47-2.38-3.56c-2.19-.15-.94,2.08-1.33,3.23l-1.65,0c-1.62-3.29,2.33-7.32-1.37-10.33,0-.54,0-1.08.05-1.62l10.43-4.46h1.57a90,90,0,0,1-.08,19.41c-1.45,1.93-3.16,3.86.19,5.62Zm-3.16-13.3c-1.06-4.3-2.49-6.19-5.14-7.78C211.3,169.12,213.77,170.42,217.82,172.64Z"/><path class="cls-167" d="M207.35,166.21c3.7,3-.25,7,1.37,10.33l-.27,13.34c-4,3.2-5,.67-5.55-2.86a6.23,6.23,0,0,1,.15-1.36c2.58-6.69,2.3-13.14-1.53-19.32l-.19-.43C203.4,164.72,205.45,164.08,207.35,166.21Z"/><path class="cls-168" d="M208.86,158.37l-5.78-2.64c0-2.26,2.54-2.64,3.26-4.37a1,1,0,0,0,.85.29l4.25,4.15C212,158.1,211.18,159,208.86,158.37Z"/><path class="cls-61" d="M217.83,160.13l-10.43,4.46C210,161,212.6,157.51,217.83,160.13Z"/><path class="cls-61" d="M201.55,160.07a2.61,2.61,0,0,0,1.3-.11c-.5,2-1,4-1.52,5.95l.19.43a2.24,2.24,0,0,0-1.44-.16l-1.66-.08C198.66,163.67,197.5,160.52,201.55,160.07Z"/><path class="cls-169" d="M168.55,149.67l-2.06-.19-3.89-5.79c3.39,0,7-.43,7.44,4.5Z"/><path class="cls-170" d="M167.05,140.71a3.1,3.1,0,0,0,1.5-3c2.72,1.07,3.23,3.81,4.49,6l0,1.48Z"/><path class="cls-171" d="M138.64,158.52l1.28-2.9,3.23-4.47a8,8,0,0,1,6,1.5l-.15,1.5c-4.11.94-4.14,4.26-4.34,7.47l1.49,4.23-1.47,0C143.33,162.87,138.32,162.87,138.64,158.52Z"/><path class="cls-172" d="M219.51,185.17c-3.35-1.76-1.64-3.69-.19-5.62Z"/><path class="cls-173" d="M223.8,112.32l4.58,3.17c0,.43-.06.86-.08,1.29l.14.3-1.69,1.18a4.56,4.56,0,0,0-4.52,0,14.48,14.48,0,0,0,.08-1.47c0-1.45,0-2.91-.05-4.36Z"/><path class="cls-174" d="M229.59,118.2a11.17,11.17,0,0,1-1.26.24c0-.45.06-.91.11-1.36l-.14-.3Z"/><path class="cls-175" d="M149,154.15l.15-1.5c1-4,3.16-3.69,5.84-1.64l.23.45a20.75,20.75,0,0,0,0,14.24l-.17.51c0,.9,0,1.79,0,2.69l.21.41c-2.22,6.51-1.26,13.07-.34,19.63a.67.67,0,0,0-.1.94v-.06a4.64,4.64,0,0,1-5.58,1.57L149,184q0-7.42.11-14.85a2.15,2.15,0,0,0,0-1.46c0-.56,0-1.12,0-1.69q0-3.69-.11-7.38Z"/><path class="cls-4" d="M204.15,122.6c-.42.06-.84.13-1.25.21-1-1-2.06-2.07-3.08-3.11l-.3-2.83,1.74,0c1.25,2.06,2.05-.06,3.05-.33l3,0v1.54l.06,3.28C206.16,121.43,204.86,121.21,204.15,122.6Z"/><path class="cls-176" d="M203,114,201.26,109a2.37,2.37,0,0,1,.32-1.22l1.25-1.43,2.92-.07c.07.91.15,1.83.22,2.75l-1.57,3.29-.22,1.54A11.49,11.49,0,0,0,203,114Z"/><path class="cls-177" d="M204.31,116.58c-1,.27-1.8,2.39-3.05.33l1.79-1.8.74,0,.73-.11Z"/><path class="cls-178" d="M201.58,107.79a2.37,2.37,0,0,0-.32,1.22l-.58.16-.57-.15,0-2.75a7.1,7.1,0,0,0,1.12.12l.6-.12Z"/><path class="cls-179" d="M204.53,115l-.74.11-.74,0A7.38,7.38,0,0,1,203,114a11.49,11.49,0,0,1,1.18-.09,4.43,4.43,0,0,1,.62,1.25Z"/><path class="cls-180" d="M222.23,118.3a4.56,4.56,0,0,1,4.52,0c0,.54,0,1.07.07,1.61l0-.07q-2.24,1.53-4.48,3a3.43,3.43,0,0,0-1.51-3Z"/><path class="cls-72" d="M228.29,119.79c0,.55,0,1.1,0,1.65-.89-.19-1.51-.6-1.43-1.64l0,.07C227.31,119.83,227.8,119.81,228.29,119.79Z"/><path class="cls-181" d="M201,98.82,204.27,97c1.71,1.38,4.61,1.66,4.42,4.8a8.24,8.24,0,0,1-1.22.08l-2.83,0c-1.19-1.87-2.22.18-3.33.13l0,0Z"/><path class="cls-182" d="M201.2,106.39a7.1,7.1,0,0,1-1.12-.12c-.27-1.61-.53-3.22,1.2-4.26l0,0,1.7,1.33Z"/><path class="cls-183" d="M217.84,121.3h-.7l-.69,0-1.49,0,.06-7,2.79,1.48.19,3.75Z"/><path class="cls-184" d="M218,119.5c-.06-1.25-.13-2.5-.19-3.76l.36-2.21c1.43,1,1.9,3.28,4.14,3.3a14.48,14.48,0,0,1-.08,1.47l-1.38,1.5Z"/><path class="cls-185" d="M228.29,119.79c-.49,0-1,0-1.47.08,0-.54,0-1.07-.07-1.61l1.69-1.18c-.05.45-.09.91-.11,1.36S228.31,119.34,228.29,119.79Z"/><path class="cls-186" d="M215,121.31l1.49,0c-.15,1.26-.46,2.42-1.73,3-2.54-.86-3.45,2.52-5.77,2.23q-.8-2.58-1.57-5.18l-.06-3.28,1.59.16C211.07,119,212.26,121.68,215,121.31Z"/><path class="cls-79" d="M291.05,205c0-.51,0-1,0-1.52L295.52,193h3a4.91,4.91,0,0,0,0,6C297,202.23,294,203.53,291.05,205Z"/><path class="cls-187" d="M284,191.27l11.31-.43c.06.7.12,1.41.19,2.12-4-.17-7.93-.33-11.89-.51a1.1,1.1,0,0,1,0-.61A2.25,2.25,0,0,1,284,191.27Z"/><path class="cls-188" d="M297.32,183.51v-9.92c.39.31.91.5,1,.81a12.5,12.5,0,0,1,.21,2.13C298.06,178.85,299.58,181.51,297.32,183.51Z"/><path class="cls-189" d="M217.84,92.89a2.59,2.59,0,0,1,1.45,3l.08-.08q-.72.08-1.44.12l-1.67-.12a8.86,8.86,0,0,0,.06-1.15l0-.66C217.32,94.25,217.62,93.62,217.84,92.89Z"/><path class="cls-190" d="M217.84,92.89c-.22.73-.52,1.36-1.48,1.17a7.24,7.24,0,0,0-.05-1.23,2.42,2.42,0,0,0,.43-1.18Z"/><path class="cls-191" d="M228.23,97.4l-1.59,4.51-4.33-1.54c-.49,0-1,0-1.47,0a8.25,8.25,0,0,1,0-1.49Z"/><path class="cls-192" d="M220.8,98.88a8.25,8.25,0,0,0,0,1.49l-3,0,.1-2.55a3.12,3.12,0,0,1,1.44-.31Z"/><path class="cls-193" d="M219.34,97.47a3.12,3.12,0,0,0-1.44.31l0-1.8q.72,0,1.44-.12Z"/><path class="cls-194" d="M222.31,100.37l4.33,1.54,1.45,1.65a2.49,2.49,0,0,1-.09,1.21l-2.7,1.38a9.67,9.67,0,0,1-1.42.18,2.76,2.76,0,0,0-1.74-3,3.19,3.19,0,0,0,0-1.34Z"/><path class="cls-39" d="M107.33,182.52l1.47-1.46c10.32-5.1,17.36,1.21,24.12,7.35,4.77,4.33,5.19,16.75,1.53,24.39-.63,1.3-1.17,2.64-1.75,4l-7.47,0c1.66-2.12,4.91-2.6,6.06-5.34-2.94-1.61-5.26,1.94-7.95.36,1.47-4.19,1.44-9.14,6.36-11.3,3.6-.65,4.26-3.08,4.19-6.73-2.19,2.06-4.68,2.82-5.68,5.24-2.19-2.59-2.87-5.68-3-9,.42-1.35,2-2.79.67-4.09-2.12-2.13-1.89.78-2.73,1.51a1.84,1.84,0,0,1-3.07-.7c-3-7.45-8-4.27-12.76-2.68Z"/><path class="cls-43" d="M149.18,191.39a4.64,4.64,0,0,0,5.58-1.57,3.65,3.65,0,0,0,3.34,1.68c-.91,3.48,6.43,7,0,10.44-4.1-1.63-5.65,1.56-8.15,3.68,2.77,1.69,4.59-1.55,7.34.09-3.36,3-1.06,8.32-5.16,11.08l-7.5,0c-.38-6.63,2-12.34,5.85-17.57C152.68,196.19,153.29,193.38,149.18,191.39Z"/><path class="cls-171" d="M123.72,173.58a3.08,3.08,0,0,0,3-1.49c2.74-1.13,3.14-3.43,3-6h2.94c3,4.9,7.51,4,12,3.25v1.23c-.7,2-2.64,2.5-4.06,3.66-2,1.62-.52,2.13,1.09,2.34C135.1,182,127.45,180.7,123.72,173.58Z"/><path class="cls-195" d="M144.64,169.35c-4.49.71-9,1.65-12-3.25l1.55-.35c1.85,2.28,4.12-.08,6.12.55,2.57,2.66,5.88.64,8.75,1.4a2.15,2.15,0,0,1,0,1.46,2,2,0,0,0-1.44.15Z"/><path class="cls-196" d="M147.62,169.31a2,2,0,0,1,1.44-.15Q149,176.59,149,184C146.26,179.31,148.23,174.2,147.62,169.31Z"/><path class="cls-84" d="M141.67,176.58c-1.61-.21-3.06-.72-1.09-2.34,1.42-1.16,3.36-1.7,4.06-3.66C147.61,174.54,143.14,174.82,141.67,176.58Z"/><path class="cls-39" d="M158.09,201.94c6.44-3.47-.9-7,0-10.44.43-2.59,1-5.09,3.72-6.61,1.23,1.58.22,4.05,2.25,5.09,3.6.62,4.85,4.17,7.46,6,1,4.79,4.86,2.32,7.49,3H182c3.95.59,8.16-1.27,11.91,1.26-5.56.09-11.12.13-16.68.29-1.95.06-4.81-.87-4.16,3l-.3,13.22a4.92,4.92,0,0,1-1.21-.11,60.53,60.53,0,0,1,.05-7.38c.4-3.33-2.51-4.53-3.87-3.59C162.27,209.37,160.66,204.72,158.09,201.94Z"/><path class="cls-10" d="M158.09,201.94c2.57,2.78,4.18,7.43,9.62,3.66,1.36-.94,4.27.26,3.87,3.59a60.53,60.53,0,0,0-.05,7.38l-1.5.23c-.17-2.37.75-5.27-2.1-6.55-2-.9-3.36,1.28-4,2.46-1.77,3.12,3.73,1.36,3.12,4.06l-14.9,0c4.1-2.76,1.8-8.12,5.16-11.08-2.75-1.64-4.57,1.6-7.34-.09C152.44,203.5,154,200.31,158.09,201.94Z"/><path class="cls-81" d="M125.22,190c.12,3.29.8,6.38,3,9l1.49,1.49c-4.92,2.16-4.89,7.11-6.36,11.3,2.69,1.58,5-2,7.95-.36-1.15,2.74-4.4,3.22-6.06,5.34h-1.52c-3.67-.9-3.89-7.1-9-5.85l-3-3,1.49,0c2.06-.21,4.4.7,6-1.48,5.23-2.93,5.71-7,3-12V193Z"/><path class="cls-18" d="M125.22,190l-3,3c-1.65-2.73-5.78-.11-7-3-2-4.64-4.91-2.78-7.86-1.53,0-1.48,0-3,0-4.45,4.76-1.59,9.81-4.77,12.76,2.68a1.84,1.84,0,0,0,3.07.7c.84-.73.61-3.64,2.73-1.51C127.2,187.21,125.64,188.65,125.22,190Z"/><path class="cls-127" d="M107.34,188.49c3-1.25,5.83-3.11,7.86,1.53,1.26,2.86,5.39.24,7,3v1.49l-1.5,1.5c-4.87-1.89-2.52,3.45-4.47,4.48h-1.53l-3-3,.93-6.39L107.36,193Z"/><path class="cls-127" d="M114.75,210.9c5.07-1.25,5.29,4.95,9,5.85h-15C108.73,212.71,109.74,209.75,114.75,210.9Z"/><path class="cls-62" d="M114.74,200.46h1.51c3.26,4.19-2.37,4.83-3,7.47l-1.49,0-4.44-3c0-1,0-2,0-3C110.15,203.22,112.58,202.49,114.74,200.46Z"/><path class="cls-67" d="M167,216.77c.61-2.7-4.89-.94-3.12-4.06.67-1.18,2-3.36,4-2.46,2.85,1.28,1.93,4.18,2.1,6.55Z"/><path class="cls-197" d="M107.34,205l4.44,3,3,3c-5-1.15-6,1.81-6,5.84C105.09,213.2,107.73,208.9,107.34,205Z"/><path class="cls-52" d="M114.74,200.46c-2.16,2-4.59,2.76-7.41,1.51,0-2,0-4,0-6l4.4,1.5Z"/><path class="cls-37" d="M111.77,197.47l-4.4-1.5c0-1,0-2,0-2.95l5.34-1.94Z"/><path class="cls-198" d="M134.19,165.75l-1.55.35H129.7c.51-3.52,3.85-4.21,6.05-6l0,0Q135,162.89,134.19,165.75Z"/><path class="cls-199" d="M134.19,165.75q.76-2.87,1.54-5.73l2.91-1.5c-.32,4.35,4.69,4.35,6,7.35l-4.35.43C138.31,165.67,136,168,134.19,165.75Z"/><path class="cls-200" d="M211.87,92.9l1.65.12c.13.76.31,1.47,1.37,1.17,0,.26,0,.52,0,.79a1.19,1.19,0,0,1,0,.85l-3,.06-1.37-1.41,0-1.55C210.93,92.92,211.4,92.9,211.87,92.9Z"/><path class="cls-201" d="M210.46,92.93l0,1.55L209,94.31a9,9,0,0,0-.23-1.36Z"/><path class="cls-202" d="M216.31,92.83a7.24,7.24,0,0,1,.05,1.23l0,.64-1.47.28c0-.27,0-.53,0-.79s-.06-.78-.07-1.17Z"/><path class="cls-203" d="M214.82,93c0,.39,0,.78.07,1.17-1.06.3-1.24-.41-1.37-1.17A1.26,1.26,0,0,1,214.82,93Z"/><path class="cls-204" d="M209,94.31l1.52.17,1.37,1.41c0,.67.07,1.34.11,2s-.06,1.64-.1,2.46l-1.49,1.49a5.27,5.27,0,0,0-1.32.1l-.37-.16c.19-3.14-2.71-3.42-4.42-4.8C205.48,95.47,208.07,96.37,209,94.31Z"/><path class="cls-205" d="M223.56,210.94c-1.9-.13-2.71-1.24-2.73-3.05a1.38,1.38,0,0,1,1-.23l2,.25h0l0,1.61A3.87,3.87,0,0,1,223.56,210.94Z"/><path class="cls-206" d="M253.72,202c0,1.49,0,3,0,4.48-2.53.36-5.43-1.08-7.47,1.57-.09.95-.18,1.9-.28,2.85l-2.9-1.35c-1.38-.58-2.51-1.95-4.26-1.3l-1.53-.2-.09-.52-8.66-2.37c-.57-.6-1.15-1.2-1.73-1.79,0-.46,0-.92,0-1.37Z"/><path class="cls-207" d="M228.51,205.14l8.66,2.37-7.2.61A2.9,2.9,0,0,1,228.51,205.14Z"/><path class="cls-208" d="M223.84,207.91l.33-.62-.34.62Z"/><path class="cls-105" d="M246.23,208c2-2.65,4.94-1.21,7.47-1.57l-.12,3.27c-1.39-.62-2.49-2-4.26-1.58Z"/><path class="cls-128" d="M268.52,188.42l4.41-4.66c4.21,6.24,7.43,12.71,6.25,20.67-.44,3-.56,5.89-3.08,8-2.33-3.33-5.51.14-8.28-.92.27-2.26.53-4.41.79-6.56,1.39-3.71,7.81-3.6,7-10.1-3.65,6.81-5.08,2.12-6.95-.36C268.1,192.47,271.4,190.39,268.52,188.42Z"/><path class="cls-209" d="M276.38,167.6l4.13,1.48c0,1,0,2,0,3h-4.26Z"/><path class="cls-137" d="M268.63,194.48c1.87,2.48,3.3,7.17,6.95.36.84,6.5-5.58,6.39-7,10.1h-1.5c0-1,0-2,0-3,2.48-2.11,1.12-5,1.48-7.49Z"/><path class="cls-84" d="M267.15,202c0,1,0,2,0,3l-3,1.5c-1.77-1.68,1.56-4.61-1.47-6,0-.51,0-1,0-1.51v-1.48l1.48,0C267.19,197.6,267.16,199.79,267.15,202Z"/><path class="cls-210" d="M193.88,200.21c-3.75-2.53-8-.67-11.91-1.26,1.33-2.72,2-5.83,4.77-7.67a5,5,0,0,0,5.36-1.41c2.1.09,4.18,1.64,6.31.12.67,2.62-1.82,6.5,3,7.48l1.53,1.48h11.93v1.28Z"/><path class="cls-211" d="M238.81,200.24c5.73-.11,4.72-7.09,8.93-8.75h3l1.5,1.5c.12,2.79,1.82,4.92,3,7.25Z"/><path class="cls-127" d="M231.32,199c-3.33.36-4.85-1.12-4.52-4.46,3.12-3,8.17-2.72,11-6.51.52-.7,2,.88,2.5,2-5.22,2.17.16,7.45-3,10.23l-3,0c-.48-2.26-1-4.53-1.46-6.84C228.8,194.57,231.68,197.13,231.32,199Z"/><path class="cls-18" d="M231.32,199c.36-1.82-2.52-4.38,1.48-5.58.49,2.31,1,4.58,1.46,6.84h-1.49Z"/><path class="cls-131" d="M268.52,188.42c2.88,2-.42,4.05.11,6.06h0L264.17,193a3.1,3.1,0,0,0-3,1.51,3.06,3.06,0,0,1-3-1.51v-1.48c2.61-.6,5.27-1,7.42-2.83Z"/><path class="cls-39" d="M258.18,193a3.06,3.06,0,0,0,3,1.51l1.51,3V199c-2.34.34-4.82,1.54-6.5-1.41C254.73,195,256.33,194,258.18,193Z"/><path class="cls-84" d="M252.21,193l-1.5-1.5c1.87-3.54,4-5.9,7.46-1.51C255.58,189.79,254.28,192.15,252.21,193Z"/><path class="cls-127" d="M286.4,173.58l0-1.46c2.06-.83,1.27-3.35,2.74-5.22C289.58,170.19,290.51,173,286.4,173.58Z"/><path class="cls-212" d="M265.8,185.57c-4.33-.87-7.79-5.43-13.07-2.34,4.65-5.11,9.85-4.95,14.61-.3C267.59,184.25,267.41,185.32,265.8,185.57Z"/><path class="cls-213" d="M164.07,190c-2-1-1-3.51-2.25-5.09-2.71,1.52-3.29,4-3.72,6.61a3.65,3.65,0,0,1-3.34-1.68v.06c3.66-4,1-8.91,1.83-13.33,2.32.84,5.07,3.41,6-1.48,4.89,3.15,5.07,8.91,7.46,13.44C167.69,187.58,164.44,182.93,164.07,190Z"/><path class="cls-214" d="M164,160.13c-2.91-4.2,0-4.24,3.07-4.52,3.5-.31,4.79,1.93,5.92,4.53-3,3.66,3.57,8.53-1.5,11.94h0a3.12,3.12,0,0,0-1.59-3c.09-1.13.32-2.3-.92-3l-2.38-4.22c.88-.45,1.84-1.21,1.16-2.09C166.55,158.12,165.3,159.9,164,160.13Z"/><path class="cls-215" d="M156.6,176.55c-.83,4.42,1.83,9.31-1.83,13.33a.68.68,0,0,1,.1-.95q.16-9.81.34-19.62l-.21-.41,5.75,0,7.73.51-5.92,2.73C157.09,168.92,156.27,172,156.6,176.55Z"/><path class="cls-62" d="M156.6,176.55c-.33-4.59.49-7.63,6-4.44,0,1,0,2,0,3C161.67,180,158.92,177.39,156.6,176.55Z"/><path class="cls-170" d="M164.07,190c.37-7,3.62-2.4,6-1.47a12.23,12.23,0,0,1,1.5,7.49C168.92,194.15,167.67,190.6,164.07,190Z"/><path class="cls-216" d="M186.74,191.28c-2.74,1.84-3.44,4.95-4.77,7.67H179c1.36-3.38,3-6.69,3-10.45h1.5a4.11,4.11,0,0,0,3.26,2.81Z"/><path class="cls-85" d="M171.53,172.08a3.43,3.43,0,0,1-.08.71c-.49,1.81-.71,3.85-2.9,4.48-.28.08-1.2-.85-1.21-1.33-.07-2.79,1.81-3.64,4.19-3.86Z"/><path class="cls-217" d="M168.48,169.38l-7.73-.51a3.8,3.8,0,0,0,.37-1.09c2.65-.5,5.93,1.88,7.9-1.74,1.24.71,1,1.88.92,3A5.24,5.24,0,0,0,168.48,169.38Z"/><path class="cls-218" d="M169,166c-2,3.62-5.25,1.24-7.9,1.74L161,165.9l3.07-4.52,2.6.44Z"/><path class="cls-219" d="M155.21,165.7a20.75,20.75,0,0,1,0-14.24Q155.2,158.59,155.21,165.7Z"/><path class="cls-220" d="M161,165.9l.15,1.88a3.8,3.8,0,0,1-.37,1.09l-5.75,0c0-.9,0-1.79,0-2.69Z"/><path class="cls-221" d="M166.64,161.82l-2.6-.44v-1.25c1.26-.23,2.51-2,3.76-.4C168.48,160.61,167.52,161.37,166.64,161.82Z"/><path class="cls-222" d="M201.55,160.07c-4.05.45-2.89,3.6-3.13,6l-6-1.49c.11-1.07,4.32-2.88-.56-3A4.46,4.46,0,0,1,188,158.9C192.54,159.15,197.25,157.2,201.55,160.07Z"/><path class="cls-223" d="M192.1,189.87a5,5,0,0,1-5.36,1.41l0,.05q-.12-5.9-.25-11.8l0-1.49c0-3.91.09-7.81.13-11.72l4.1.24,1.65,1.26c-2,5.93-2.51,11.87,0,17.81a8.39,8.39,0,0,1,.12,1.41Z"/><path class="cls-224" d="M192.37,167.82l-1.65-1.26,1.73-1.95,6,1.49,1.66.08C198,168.94,194.85,166.86,192.37,167.82Z"/><path class="cls-188" d="M186.51,179.53q.12,5.91.25,11.8a4.11,4.11,0,0,1-3.26-2.81C186.63,186.24,183.29,181.79,186.51,179.53Z"/><path class="cls-225" d="M223.88,106.33a9.67,9.67,0,0,0,1.42-.18c0,.58,0,1.15,0,1.73-1.84,1-1.41,2.83-1.52,4.44l-1.54.15-2.64-3.09c-.06-.51-.12-1-.17-1.52l1.62-.19,1.5-1.28Z"/><path class="cls-226" d="M225.32,107.88c0-.58,0-1.15,0-1.73l2.7-1.38c.1.53.2,1.06.29,1.59C227.51,107.28,227.46,109.62,225.32,107.88Z"/><path class="cls-140" d="M261.18,169.11c1.23-2.54,3.21-3.59,5.89-2.55,2,.79,1.27,2.83,1.58,4.4.78,3.9-2.75,3-4.46,4.11C264.27,172.53,263.91,170.22,261.18,169.11Z"/><path class="cls-227" d="M262.66,176.58c-2.57,2.65-4.12,1.17-6-1.53h5.93C262.65,175.56,262.65,176.07,262.66,176.58Z"/><path class="cls-228" d="M262.66,176.58c0-.51,0-1,0-1.53q-.74-3-1.46-5.94c2.73,1.11,3.09,3.42,3,6Z"/><path class="cls-229" d="M236.07,177.34c.61-1.24-1.45-3.82,1.79-3.73a3.6,3.6,0,0,1,3.68,3.8c0,2.09-1.12,3.69-3.64,3.6C235,180.91,235.87,179,236.07,177.34Z"/><path class="cls-230" d="M233,161.6a6.69,6.69,0,0,1,1.25.38,8.38,8.38,0,0,0,1.5,5.34C230.18,167.64,233.21,163.84,233,161.6Z"/><path class="cls-231" d="M217.82,172.64c-4-2.22-6.52-3.52-5.14-7.78C215.33,166.45,216.76,168.34,217.82,172.64Z"/><path class="cls-232" d="M208.45,189.88l.27-13.34,1.65,0h0C209.54,181,212.27,185.9,208.45,189.88Z"/><path class="cls-74" d="M201.39,197.47c-4.8-1-2.31-4.86-3-7.48.6-.75,2.14-1.46,1.88-.34C199.6,192.56,201.22,194.86,201.39,197.47Z"/><path class="cls-233" d="M214.85,199H202.92A11.24,11.24,0,0,1,214.85,199Z"/><path class="cls-79" d="M210.37,176.56c.39-1.15-.86-3.38,1.33-3.23,1.49.09,3.3,1.77,2.38,3.56s-2.45-.09-3.71-.33Z"/><path class="cls-234" d="M192.45,187a8.39,8.39,0,0,0-.12-1.41l10.72,0a6.23,6.23,0,0,0-.15,1.36Z"/><path class="cls-235" d="M203.05,185.66l-10.72,0c-2.47-5.94-2-11.88,0-17.81,2.48-1,5.61,1.12,7.71-1.64a2.24,2.24,0,0,1,1.44.16C205.35,172.52,205.63,179,203.05,185.66Zm-6.06-15c-8-1.43-3.82,4.42-4.44,7.4-.07,2.08-1.53,5.06,1,5.86s7,1.22,8.39-.27c2.72-2.89,1.28-7.51.89-11.27S199.1,170.93,197,170.7Z"/><path class="cls-96" d="M149,158.63q.06,3.69.11,7.38l-3-.16-1.49-4.23C147.38,162.51,146.33,157.89,149,158.63Z"/><path class="cls-236" d="M149,158.63c-2.64-.74-1.59,3.88-4.33,3,.2-3.21.23-6.53,4.34-7.47Z"/><path class="cls-237" d="M146.13,165.85l3,.16c0,.57,0,1.13,0,1.69-2.87-.76-6.18,1.26-8.75-1.4l4.35-.43Z"/><path class="cls-238" d="M219.62,109.38l2.64,3.09c0,1.45,0,2.91.05,4.36-2.24,0-2.71-2.26-4.14-3.3a6.33,6.33,0,0,0-.43-1.17Z"/><path class="cls-217" d="M155.21,169.31q-.17,9.81-.34,19.62C154,182.38,153,175.82,155.21,169.31Z"/><path class="cls-239" d="M208.91,118.3l-1.59-.16c0-.51,0-1,0-1.54a9.39,9.39,0,0,1-.13-1.3,4.31,4.31,0,0,0,.32-1.27l.6-.11h.6Z"/><path class="cls-240" d="M207.18,115.3a9.39,9.39,0,0,0,.13,1.3l-3,0,.21-1.54.27.08.49-.05Z"/><path class="cls-191" d="M201.2,106.39c.61-1,1.21-2,1.81-3l.64,0,.63-.11.45.22,1,1,.27.5a4,4,0,0,0,.08,1.38l-.34-.15-2.92.07a9,9,0,0,1-1-.09Z"/><path class="cls-241" d="M204.4,112.33c.52-1.1,1-2.19,1.57-3.29l.63.21.67,0,1.52,1.31-1.31,1.8-1.63.37Z"/><path class="cls-242" d="M204.4,112.33l1.45.37c0,.32,0,.65,0,1l-.57,1.39-.48.05a4.15,4.15,0,0,0-.61-1.25C204.25,113.36,204.32,112.85,204.4,112.33Z"/><path class="cls-243" d="M207.27,109.22l-.67,0L206,109c-.07-.92-.15-1.84-.22-2.75l.34.14a11.38,11.38,0,0,1,1.31-.08Z"/><path class="cls-244" d="M201.8,106.27a9,9,0,0,0,1,.09l-1.25,1.43C201.65,107.28,201.73,106.77,201.8,106.27Z"/><path class="cls-245" d="M207.48,101.88a8.2,8.2,0,0,0,1.21-.08l.37.16c.44.4.88.8,1.31,1.21a11.72,11.72,0,0,0,1.45.18h1.52c.62,1.26,1.82,1.37,3,1.51,0,.34,0,.67-.07,1a7.86,7.86,0,0,0-1.41.42l-1.46.07-1.54,0-1.55-1.4-3-.26Z"/><path class="cls-246" d="M204.28,103.3l-.63.11-.64,0-1.7-1.33c1.11,0,2.14-2,3.33-.13Q204.45,102.61,204.28,103.3Z"/><path class="cls-247" d="M204.28,103.3q.16-.69.36-1.38l2.83,0c-.06.93-.13,1.86-.2,2.8a6.3,6.3,0,0,0-1.26.38l-.27-.5c-.34-.34-.67-.69-1-1Z"/><path class="cls-248" d="M208.91,118.3l-.21-4.37,1.64-.12,3.17,0,1.51.48-.06,7C212.26,121.68,211.07,119,208.91,118.3Z"/><path class="cls-249" d="M215,114.27l-1.52-.48c-.07-.52-.15-1-.22-1.56a14.05,14.05,0,0,0,.32-1.43l4.14,1.56a6.33,6.33,0,0,1,.43,1.17l-.36,2.21Z"/><path class="cls-250" d="M217.93,96l0,1.8c0,.85-.07,1.7-.1,2.55l0,0-1.61-.07L215,99.12l0-2,1.38-1.26-.07,0Z"/><path class="cls-251" d="M214.85,95l1.47-.28a8.92,8.92,0,0,1-.06,1.16l.07,0-1.52-.09h.05A1.19,1.19,0,0,0,214.85,95Z"/><path class="cls-252" d="M222.31,100.37c0,.54-.09,1.07-.13,1.61l-1.1,1.23-1.64.08-1.74-1.6a13,13,0,0,0,.14-1.4l0,0,3,0C221.33,100.35,221.82,100.36,222.31,100.37Z"/><path class="cls-253" d="M219.44,103.29l1.63-.08c.36.05.72.08,1.07.11a2.76,2.76,0,0,1,1.74,3l-1.31.06L221,105l-1.7-.12C219.35,104.32,219.39,103.8,219.44,103.29Z"/><path class="cls-254" d="M222.14,103.32c-.35,0-.71-.06-1.07-.11l1.11-1.23A3.19,3.19,0,0,1,222.14,103.32Z"/><path class="cls-255" d="M129.7,200.46,128.21,199c1-2.42,3.49-3.18,5.68-5.24C134,197.38,133.3,199.81,129.7,200.46Z"/><path class="cls-79" d="M120.74,196l1.5-1.5c2.71,4.92,2.23,9-3,12,.06-2,1.46-4,0-6Z"/><path class="cls-256" d="M119.24,200.46c1.46,2,.06,4,0,6-1.57,2.18-3.91,1.27-6,1.48.61-2.64,6.24-3.28,3-7.47h3Z"/><path class="cls-81" d="M119.24,200.46h-3c2-1-.4-6.37,4.47-4.48Z"/><path class="cls-257" d="M215,97.17c0,.65,0,1.3,0,2,0,.33,0,.67,0,1l-1.66.21.08.06c.08-1.15.07-2.24-1.42-2.49,0-.68-.07-1.35-.11-2l3-.06h-.05A5.53,5.53,0,0,1,215,97.17Z"/><path class="cls-258" d="M212,97.91c1.49.25,1.5,1.34,1.42,2.49l-1.56-.06,0,0Z"/><path class="cls-259" d="M211.82,103.35a11.72,11.72,0,0,1-1.45-.18c0-.44,0-.88,0-1.31l1.49-1.49,0,0C211.83,101.34,211.82,102.34,211.82,103.35Z"/><path class="cls-260" d="M210.38,101.86c0,.43,0,.87,0,1.31-.43-.41-.87-.81-1.31-1.21A5.27,5.27,0,0,1,210.38,101.86Z"/><path class="cls-261" d="M264.17,193l4.46,1.49c-.36,2.52,1,5.38-1.48,7.49,0-2.18,0-4.37-3-4.5A4,4,0,0,0,264.17,193Z"/><path class="cls-152" d="M264.17,193a4,4,0,0,1,0,4.48h-1.48l-1.51-3A3.1,3.1,0,0,1,264.17,193Z"/><path class="cls-262" d="M217.74,112.36l-4.14-1.56L213,111a2.33,2.33,0,0,0,.06-1.43l.42-1.78,1.37-1.44a7.86,7.86,0,0,1,1.41-.42l3.17,2c.05.51.11,1,.17,1.52Z"/><path class="cls-263" d="M219.45,107.86l-3.17-2c0-.34,0-.67.07-1h.74l.75,0h1.46l1.7.12c0,.9,0,1.81.07,2.72Z"/><path class="cls-264" d="M221.07,107.67c0-.91,0-1.82-.07-2.72l1.57,1.44Z"/><path class="cls-95" d="M192.55,178.1c.62-3-3.54-8.83,4.44-7.4,2.88,3.27,5.9,7.68,2.84,11.07C196.91,185,195.29,179,192.55,178.1Z"/><path class="cls-265" d="M192.55,178.1c2.74.91,4.36,6.91,7.28,3.67,3.06-3.39,0-7.8-2.84-11.07,2.11.23,5.5-2.07,5.88,1.72s1.83,8.38-.89,11.27c-1.4,1.49-5.76,1.09-8.39.27S192.48,180.18,192.55,178.1Z"/><path class="cls-266" d="M210.34,113.81l-1.64.12h-.6l-.6.11-1.66-.35c0-.33,0-.66,0-1l1.63-.37,2.79-.07Z"/><path class="cls-267" d="M205.84,113.68l1.66.35a4.31,4.31,0,0,1-.32,1.27l-1.9-.23C205.46,114.6,205.65,114.14,205.84,113.68Z"/><path class="cls-268" d="M206,105.06a6.3,6.3,0,0,1,1.26-.38l3,.26-1.52,1.47a10.85,10.85,0,0,0-1.4-.06,11.38,11.38,0,0,0-1.31.08A4,4,0,0,1,206,105.06Z"/><path class="cls-149" d="M204.73,103.52c.34.35.67.7,1,1C205.4,104.22,205.07,103.87,204.73,103.52Z"/><path class="cls-269" d="M207.4,106.35a13,13,0,0,1,1.4.05l1.62,1.5c.06.86.11,1.72.17,2.58l-.32.49-1.48-.44-1.52-1.31C207.31,108.26,207.36,107.31,207.4,106.35Z"/><path class="cls-270" d="M208.79,110.53l1.48.44a2,2,0,0,1,0,1.29l-2.79.07Z"/><path class="cls-271" d="M211.82,103.35c0-1,0-2,0-3l1.56.06-.08-.06,1.54,1.52a14.15,14.15,0,0,0,.05,1.46l-1.56,0Z"/><path class="cls-272" d="M210.42,107.9l-1.62-1.5,1.52-1.46,1.55,1.4c0,.51,0,1,0,1.53A5,5,0,0,0,210.42,107.9Z"/><path class="cls-273" d="M213.34,103.36l1.55,0,.71,0,.7,0,1.54,1.52-.75,0h-.74C215.16,104.73,214,104.62,213.34,103.36Z"/><path class="cls-274" d="M211.86,107.87c0-.51,0-1,0-1.53l1.54,0a6.27,6.27,0,0,0,.09,1.37l-.42,1.78Z"/><path class="cls-275" d="M213.5,107.74a6.27,6.27,0,0,1-.09-1.37l1.46-.07Z"/><path class="cls-276" d="M210.27,112.26a2,2,0,0,0,0-1.29l.32-.49a2.83,2.83,0,0,0,1.36.34l1.33,1.41c.07.52.15,1,.22,1.56l-3.16,0C210.32,113.3,210.3,112.78,210.27,112.26Z"/><path class="cls-187" d="M213.28,112.23,212,110.82,213,111l.58-.15A14.05,14.05,0,0,1,213.28,112.23Z"/><path class="cls-277" d="M217.84,100.29a13,13,0,0,1-.14,1.4,3.64,3.64,0,0,1-1.35.17c0-.5,0-1,0-1.49l-.11-.15Z"/><path class="cls-278" d="M215,97.17a5.53,5.53,0,0,0-.14-1.35l1.52.09Z"/><path class="cls-279" d="M215,100.13c0-.34,0-.68,0-1l1.26,1.1.11.15-1.47,0Z"/><path class="cls-280" d="M216.35,101.86a3.64,3.64,0,0,0,1.35-.17l1.74,1.6c-.05.51-.09,1-.14,1.54h-1.46l-1.54-1.52A14.15,14.15,0,0,0,216.35,101.86Z"/><path class="cls-281" d="M214.85,101.86l-1.54-1.52,1.66-.21-.1.22C214.86,100.86,214.86,101.36,214.85,101.86Z"/><path class="cls-282" d="M213,111l-1.07-.13a2.83,2.83,0,0,1-1.36-.34c-.06-.86-.11-1.72-.17-2.58a5,5,0,0,1,1.44,0l1.22,1.65A2.33,2.33,0,0,1,213,111Z"/><path class="cls-283" d="M214.85,101.86c0-.5,0-1,0-1.51l1.47,0c0,.5,0,1,0,1.49a14.15,14.15,0,0,1,0,1.46l-.7,0-.71,0C214.86,102.84,214.84,102.35,214.85,101.86Z"/></svg>