<svg id="圖層_1" data-name="圖層 1" xmlns="http://www.w3.org/2000/svg" viewBox="0 0 423.66 286"><defs><style>.cls-1{fill:#edd470;}.cls-2{fill:#e1b51e;}.cls-3{fill:#e0b21d;}.cls-4{fill:#2e0303;}.cls-5{fill:#490809;}.cls-6{fill:#300404;}.cls-7{fill:#2f0405;}.cls-8{fill:#2e0706;}.cls-9{fill:#f3cb20;}.cls-10{fill:#370c08;}.cls-11{fill:#e6bc1a;}.cls-12{fill:#4c0f0a;}.cls-13{fill:#f4cd21;}.cls-14{fill:#3e120a;}.cls-15{fill:#48120b;}.cls-16{fill:#4c090b;}.cls-17{fill:#4b0a0b;}.cls-18{fill:#2d0305;}.cls-19{fill:#340a08;}.cls-20{fill:#e7bd1b;}.cls-21{fill:#3a140b;}.cls-22{fill:#310907;}.cls-23{fill:#f3cd21;}.cls-24{fill:#e2b91b;}.cls-25{fill:#e3b91b;}.cls-26{fill:#e5bc1b;}.cls-27{fill:#c39712;}.cls-28{fill:#724b1c;}.cls-29{fill:#c69812;}.cls-30{fill:#f3edec;}.cls-31{fill:#ede7e6;}.cls-32{fill:#400c07;}.cls-33{fill:#f4f1f0;}.cls-34{fill:#4b1011;}.cls-35{fill:#f2eeed;}.cls-36{fill:#f1ebe9;}.cls-37{fill:#2c0305;}.cls-38{fill:#450a09;}.cls-39{fill:#4a060a;}.cls-40{fill:#f5f2f2;}.cls-41{fill:#1f0405;}.cls-42{fill:#f1eceb;}.cls-43{fill:#480609;}.cls-44{fill:#a99690;}.cls-45{fill:#ebe6e6;}.cls-46{fill:#7e471a;}.cls-47{fill:#1a0507;}.cls-48{fill:#e5dcdb;}.cls-49{fill:#3c0306;}.cls-50{fill:#b3a8a7;}.cls-51{fill:#3b0104;}.cls-52{fill:#3d0205;}.cls-53{fill:#ebe6e5;}.cls-54{fill:#6f441f;}.cls-55{fill:#460508;}.cls-56{fill:#faf7f7;}.cls-57{fill:#dad2d0;}.cls-58{fill:#be9414;}.cls-59{fill:#b0821d;}.cls-60{fill:#815523;}.cls-61{fill:#410306;}.cls-62{fill:#4b060a;}.cls-63{fill:#f1ecec;}.cls-64{fill:#663b1b;}.cls-65{fill:#ead122;}.cls-66{fill:#48080b;}.cls-67{fill:#490609;}.cls-68{fill:#987324;}.cls-69{fill:#b7891a;}.cls-70{fill:#c8a520;}.cls-71{fill:#4f1113;}.cls-72{fill:#1b0405;}.cls-73{fill:#230606;}.cls-74{fill:#4e080c;}.cls-75{fill:#540a0e;}.cls-76{fill:#825a25;}.cls-77{fill:#7b5524;}.cls-78{fill:#432b2c;}.cls-79{fill:#4d070b;}.cls-80{fill:#4a070a;}.cls-81{fill:#2f0305;}.cls-82{fill:#2d0506;}.cls-83{fill:#3e0205;}.cls-84{fill:#4c070b;}.cls-85{fill:#2e0304;}.cls-86{fill:#340304;}.cls-87{fill:#3a0f09;}.cls-88{fill:#450407;}.cls-89{fill:#4b0c0b;}.cls-90{fill:#946224;}.cls-91{fill:#a67520;}.cls-92{fill:#44090b;}.cls-93{fill:#4f080d;}.cls-94{fill:#dcb31c;}.cls-95{fill:#450507;}.cls-96{fill:#210305;}.cls-97{fill:#dfd7d6;}.cls-98{fill:#49080a;}.cls-99{fill:#2d0a07;}.cls-100{fill:#ae811f;}.cls-101{fill:#734c1c;}.cls-102{fill:#edc31c;}.cls-103{fill:#dcb21c;}.cls-104{fill:#f2ca1f;}.cls-105{fill:#f2cb20;}.cls-106{fill:#3e180c;}.cls-107{fill:#a87a22;}.cls-108{fill:#f4d121;}.cls-109{fill:#f4cf21;}.cls-110{fill:#190407;}.cls-111{fill:#c49510;}.cls-112{fill:#f4cf20;}.cls-113{fill:#5e2f17;}.cls-114{fill:#cb9e18;}.cls-115{fill:#a17723;}.cls-116{fill:#2f0f09;}.cls-117{fill:#cda114;}.cls-118{fill:#44200f;}.cls-119{fill:#a77c21;}.cls-120{fill:#f4d021;}.cls-121{fill:#9c6d24;}.cls-122{fill:#b98d1a;}.cls-123{fill:#2c0e08;}.cls-124{fill:#b3861d;}.cls-125{fill:#2e0404;}.cls-126{fill:#3f0306;}.cls-127{fill:#470508;}.cls-128{fill:#4a080b;}.cls-129{fill:#e2ba19;}.cls-130{fill:#2d0405;}.cls-131{fill:#3e0508;}.cls-132{fill:#663b19;}.cls-133{fill:#f0cc20;}.cls-134{fill:#340d0d;}.cls-135{fill:#f7f5f5;}.cls-136{fill:#38090b;}.cls-137{fill:#2b0304;}.cls-138{fill:#e6e1e0;}.cls-139{fill:#2c1112;}.cls-140{fill:#340a0b;}.cls-141{fill:#48060a;}.cls-142{fill:#380205;}.cls-143{fill:#3c0205;}.cls-144{fill:#331617;}.cls-145{fill:#e8e0e0;}.cls-146{fill:#3d1111;}.cls-147{fill:#764e4e;}.cls-148{fill:#140305;}.cls-149{fill:#230405;}.cls-150{fill:#5d3416;}.cls-151{fill:#d0a816;}.cls-152{fill:#310809;}.cls-153{fill:#2f0406;}.cls-154{fill:#cabfbe;}.cls-155{fill:#3d090b;}.cls-156{fill:#2d0607;}.cls-157{fill:#552220;}.cls-158{fill:#e6dfdf;}.cls-159{fill:#381213;}.cls-160{fill:#61403e;}.cls-161{fill:#6d4d4c;}.cls-162{fill:#614545;}.cls-163{fill:#49080b;}.cls-164{fill:#400306;}.cls-165{fill:#300809;}.cls-166{fill:#2e0405;}.cls-167{fill:#e8e2e1;}.cls-168{fill:#f4f0ef;}.cls-169{fill:#2e1011;}.cls-170{fill:#2b0305;}.cls-171{fill:#3f0205;}.cls-172{fill:#1e0406;}.cls-173{fill:#683f18;}.cls-174{fill:#d4ae15;}.cls-175{fill:#ede8e8;}.cls-176{fill:#6e3d1c;}.cls-177{fill:#906926;}.cls-178{fill:#deb719;}.cls-179{fill:#43190a;}.cls-180{fill:#895f24;}.cls-181{fill:#623a1b;}.cls-182{fill:#f1d223;}.cls-183{fill:#784e20;}.cls-184{fill:#ba901c;}.cls-185{fill:#b79119;}.cls-186{fill:#7a561c;}.cls-187{fill:#180406;}.cls-188{fill:#1d0405;}.cls-189{fill:#8e6325;}.cls-190{fill:#e8c11b;}.cls-191{fill:#643519;}.cls-192{fill:#b0841e;}.cls-193{fill:#44180a;}.cls-194{fill:#43190c;}.cls-195{fill:#977f7e;}.cls-196{fill:#1b0305;}.cls-197{fill:#2a0304;}.cls-198{fill:#4e1213;}.cls-199{fill:#2e1010;}.cls-200{fill:#7c4e1f;}.cls-201{fill:#380a04;}.cls-202{fill:#ca9814;}.cls-203{fill:#e0b51a;}.cls-204{fill:#8b5d24;}.cls-205{fill:#e6be1b;}.cls-206{fill:#e9c01c;}.cls-207{fill:#f5d021;}.cls-208{fill:#edc71e;}.cls-209{fill:#47080a;}.cls-210{fill:#450809;}.cls-211{fill:#460608;}.cls-212{fill:#430406;}.cls-213{fill:#320305;}.cls-214{fill:#2e0607;}.cls-215{fill:#110306;}.cls-216{fill:#2e0305;}.cls-217{fill:#4d3635;}.cls-218{fill:#efebea;}.cls-219{fill:#431715;}.cls-220{fill:#d5cbcb;}.cls-221{fill:#4e0e10;}.cls-222{fill:#380608;}.cls-223{fill:#e5dddc;}.cls-224{fill:#160306;}.cls-225{fill:#804320;}.cls-226{fill:#6e3a1c;}.cls-227{fill:#440407;}.cls-228{fill:#51090d;}.cls-229{fill:#eae5e5;}.cls-230{fill:#120306;}.cls-231{fill:#4f080c;}.cls-232{fill:#140306;}.cls-233{fill:#1f0305;}.cls-234{fill:#d3c7c8;}.cls-235{fill:#c5bdbc;}.cls-236{fill:#420306;}.cls-237{fill:#d5cdcd;}.cls-238{fill:#613619;}.cls-239{fill:#3e1809;}.cls-240{fill:#7c5419;}.cls-241{fill:#492410;}.cls-242{fill:#cda616;}.cls-243{fill:#bf9214;}.cls-244{fill:#532b14;}.cls-245{fill:#874923;}.cls-246{fill:#b2881d;}.cls-247{fill:#52160f;}.cls-248{fill:#a67d22;}.cls-249{fill:#efd222;}.cls-250{fill:#79401e;}.cls-251{fill:#552212;}.cls-252{fill:#976524;}.cls-253{fill:#885224;}.cls-254{fill:#d0ab15;}.cls-255{fill:#350205;}.cls-256{fill:#3d0206;}.cls-257{fill:#6a421c;}.cls-258{fill:#bd9813;}.cls-259{fill:#c38814;}.cls-260{fill:#b68e1a;}.cls-261{fill:#430306;}.cls-262{fill:#c79d16;}.cls-263{fill:#8c5724;}.cls-264{fill:#c29713;}.cls-265{fill:#070001;}.cls-266{fill:#c39917;}.cls-267{fill:#7c5420;}.cls-268{fill:#b3811d;}.cls-269{fill:#824e23;}.cls-270{fill:#ebbf1c;}.cls-271{fill:#743e1e;}.cls-272{fill:#ab7522;}.cls-273{fill:#662d15;}.cls-274{fill:#996925;}.cls-275{fill:#dab619;}.cls-276{fill:#855c25;}.cls-277{fill:#c39610;}.cls-278{fill:#bd9116;}.cls-279{fill:#52170f;}.cls-280{fill:#6d421e;}.cls-281{fill:#ba9915;}.cls-282{fill:#502512;}.cls-283{fill:#8b6526;}</style></defs><title>午後時光-05</title><path class="cls-1" d="M423.87,282.3c.23,1.08.45,2.16.68,3.24H.73c0-33.45-.13-66.9,0-100.34,0-5.7-1.13-11.71,2.29-17,.37,1.16.73,2.32,1.1,3.48-.22,33.54-.23,67.08-.8,100.61-.14,8.79,3.59,10.42,10.92,10.41Q219,282.35,423.87,282.3Z"/><path class="cls-2" d="M187.37,1.93C250.14-6,306.51,10.54,356,51.49c31.45,26,55.9,57.51,64.2,100,.91,4.69,1.11,9.54,1.64,14.32-4.66,4.26-2.73,10-2.76,15.09-.18,28.67,0,57.34-.17,86,0,4.84,2.28,11.33-5.5,12.74,0-.92,0-1.85-.07-2.77,4.55-4.23,2.75-9.88,2.79-14.94.17-24.05.28-48.09-.05-72.13-.1-7,2.33-14.44-2.23-21l-2.91-9.74c-4.91-4.62.8-11.78-3.6-16.53a25.19,25.19,0,0,0-4.67-12.83c-6-8.84-5.85-20.65-13.68-28.81-13.54-14.13-26.44-28.93-39.62-43.44-1.29-2.5-2.64-4.93-5.83-5-12.37-6.19-22.49-16.71-36.1-20.5-9.61-5-18.82-11.46-30.42-9.46-3.32-5-9.34-3.22-13.55-6l-6.27-3c-2.08-8.94-9.08-4.09-13.88-5.42C225,1.59,206.09,7.14,187.55,5.31Z"/><path class="cls-2" d="M187.37,1.93l.18,3.38c-2.29.08-4.38.57-5.58,2.93-4.78,1.36-11.81-3.56-13.85,5.45l-2.81,1c-11.74,1.92-22.79,6.07-33.48,11.36-5.68,1.72-11.75,2.32-16.68,6.22L106.86,38,92.74,46.72a27.49,27.49,0,0,0-11.07,8.35l-5.59,3.27c-5,5.47-9.14,12.1-15,16.21-29,20.49-40.73,51-46.58,85.14l-2.63,3.25c-3.75,1.61-5.58,4.57-5.64,8.78H4.1c-.37-1.16-.73-2.32-1.1-3.48,5.88-48,27.59-85.77,64.37-115.34C103.13,24.16,142.11,5.37,187.37,1.93Z"/><path class="cls-3" d="M4.1,171.72H6.27c0,31-.08,61.95.1,92.92,0,5.09-1.84,10.78,2.72,15.05l124.75,0c6,0,12.06.64,17.49-2.95l2.79.58c18.41,5.32,37.19.91,55.74,2.35q31.77,0,63.55,0c5.46,0,11.4,1.14,14.45-5.67a5.21,5.21,0,0,1,2.38.31,11.65,11.65,0,0,1,.47,2.35c4,5,9.49,2.9,14.33,2.92,36.12.18,72.24.1,108.36.11,7.78-1.41,5.47-7.9,5.5-12.74.17-28.68,0-57.35.17-86,0-5.1-1.9-10.83,2.76-15.09,4.66,15,2.11,30.54,2.34,45.81.36,23.54-.16,47.09-.3,70.64q-204.82.17-409.65.44c-7.33,0-11.06-1.62-10.92-10.41C3.87,238.8,3.88,205.26,4.1,171.72Z"/><path class="cls-4" d="M14.54,159.69C20.39,125.52,32.13,95,61.12,74.55c5.82-4.11,10-10.74,15-16.21,2.72,5,6.32,5.89,11.52,3.83,11.08-4.42,22.46-8.28,30.61-17.93,5.62-6.66,11.6-8.89,19.16-3.87v0l-2.79,8.73c-3.63-1.19-1.62-8.21-6.78-7.39-1.31.21-3.33,2.59-3.3,3.93.13,5.83,4.43,6.28,8.71,6.4h1.37c3.72-2.92,7.44-5.85,11.16,0,3.74-.61,8.65,1.91,10.54-3.74a5,5,0,0,0-2.56-6c-6.67-3.11-4.09,6.09-8,6.83,0-3.89,0-7.77,0-11.66v0c6.61-1.29,11.79,1.9,16.73,5.84,3.46,6.86,9.24,10.2,16.23,11.68l.84,8.37c-1.64,2.58-3.54,5.13-.59,8.07-6.75,8.62.62,10,5.83,12.4-3.55,6.51-1.61,9.62,5.42,9.59q.79,2.89,1.6,5.79l3.95-3.07,3.43,2.61c4.6,11,8.88,1.09,13.3-.21l8.47-2.1,3.83,3.24c6.29-.28,10.53-3.72,13.3-9.44,10.94,5.47,6.57-4.8,8.28-8.82,3.92-5.25,8.95-9.94,8.06-17.61l2.88-3c7.39,4.76,12.61,11.14,13.93,20.43,0,3.9,0,7.8,0,11.7-1.19,3.13-2.89,7.19,2.06,7.52s3-4.61,3.47-7.51q0-7.31,0-14.62h0c4.54,3.56,5.86,12.38,13,11,3.93-.76,2.77-7.12,3.77-11l8.37,0c6.42,6.45,11-2.19,16.43-2L313,72.49c14.22-1.55,11.31-9.06,5.57-17.56,6.56,2.08,13.28,3.74,19.64,6.35,5.09,2.08,8.84,2.2,11.13-3.73C362.54,72.06,375.44,86.86,389,101c7.83,8.16,7.71,20,13.68,28.81-.41,2.64-.64,5.36-3.21,6.88l-2.79-2.91c2.25-6.24-2.67-5-5.57-5.84,0-1,0-2,0-2.94,2.39-1.83,3.47-4,1.47-6.82a2.18,2.18,0,0,0-2.18-.38c-2.79,2.66.35,4.81.74,7.22-5.75-.07-11.57-.6-16.73,2.94-2.12-3.25-5.71-4.19-8.12-2.19-2.13,1.76,2.2,3,2.52,5.1-3,.07-6.29-.55-8.32,2.78-7.36-3.84-12.64-3.63-13.81,6.82-.63,5.62-2.26,11.12-3.44,16.67l-5-2.93q-.41-11.61-.8-23.23c2.35-7.75-3-6.11-6.9-6.14-5.27,0-2,3.54-2.31,5.81-1.66,11.52,5.34,24.2-4.15,34.68q-2.74-2.5-5.47-5c5.56-7.5,3.85-14.39-1.82-20.73-1.41-1.58-3.59-4.28-5.62-1.61-1.1,1.46-.34,4.47-.42,6.79-2.52,10.14-14.74,9.9-18.4,18.82L288.47,160c-4.75-8.22-9.55-13.3-14.57-.2l-2.66-.11q-.23-7.41-.46-14.82l0,0c4.94.15,10.41,3.26,14.26-2.76-2.32-6.66-4.52-13.53-13.58-8.89,1.48-9.83-4.38-9.81-11.1-9.16-1.44,6.36,2.3,14.36-5.58,18.29l-7-3.37c-2.33-6.91-3.05-18-12.93-5.52-4,.89-7.59-.59-11-2.54l-2.69-.1c-3.41,2-2.79,5.56-3,8.79-5.88-1.12-11.11,1.94-16.68,2.85-2-3.44-5.31-2.76-8.34-3,0-.62,0-1.25,0-1.88,2.43-1.22,7.86-.51,4.81-5.72-2.49-4.24-6-9.61-12-6.21-4,2.23-7.28,5.73-12.27,5.23-3-1.41-4.26-7.77-8.05-5.1s2.21,4.61,2.4,7.43c-7.09,7.56-14.76.23-22.13.93-.05-2.08-.11-4.15-.16-6.23,4.53-.44,5.51-9.56,8.73-6.85s4.31,4,6.58.19c1.44-2.42.33-4.71-1.76-6.23-3.15-2.29-6.3-1.86-8.68,1.1a20.63,20.63,0,0,0-4.85,11.81c-3.28-2.09-2.7-5.54-2.81-8.75l0-8.77c3-2.42,2.41-4.87-.27-6.86-.87-.65-3-.86-3.62-.25-2.57,2.65-1.37,5.08,1.08,7.13-.77,13.35-6.18,7.25-11.17,2.92q-8,.35-8.32,8.72c-1.84,5.85-16.44-1-11,12.08q-1.44,2.76-2.89,5.52l-11.12-.4c1.2-3.32,6.66-1.38,6.67-5.86,0-.76-1.81-2-2.91-2.21-6-.88-6.71,3.28-6.65,8l-11,.18c.18-1.39.46-2.77.52-4.16.14-3.28,7.58-4.38,2.68-8.88-1.89-1.74-6.2-3.71-7.12-2.85-2,1.87-2.77,5.41-3.73,8.38-1.43,4.44-2.6,9-3.88,13.46-5.51-3.43-11-3.2-17.11-1.27a64.86,64.86,0,0,0-28.8,18.63C20.62,166.69,14.59,171.7,14.54,159.69ZM261.31,89.56c-1.39-1.86-2.06-2.88-2.85-3.79-1.69-1.94-4.06-5.37-4.93,0C253.05,88.72,256.44,89.8,261.31,89.56Z"/><path class="cls-5" d="M410.93,159.16l2.91,9.74L413.48,274l-8.46-.6c0-2.3-.64-4.31-2.78-5.44q-1.39-2.89-2.78-5.77l2.79-2.95v0c4.72-10.37,4.12-13.55-2.78-14.59q0-4.37,0-8.73c5.68-12.4-4.7-19.76-8.36-29.23-.38-6.38-.47-12.94-8.37-14.61v-2.9c4,0,6.8-1.95,8.38-5.81,2.42.27,5.06.68,2.82,4.1-2,3.11-3.83,6.59.41,8.27s4.66-3.46,6.21-6.08c3.81-6.39,5.94-12.92,2.38-20.46-1.28-2.7-.33-6.28,2.95-6.72.93-.13,2.4,4.16,4.14,7.39C410.38,165.63,410.66,162.39,410.93,159.16Z"/><path class="cls-6" d="M263.46,16.62c4.21,2.75,10.23,1,13.55,6l-.37.4c-10.53-.93-8.83,8.37-11,14.43,3.9,8.5-3.5,12.07-7.72,14.49-7.24,4.14-5.92-8.21-11.63-8.81.12-5,2.32-3.94,5-2,3.46,2.53,6.37,1.41,7.47-2.5,1.2-4.21-1.9-6-5.24-6.7-6.51-1.32-10.87.52-10.27,8.63-.8-.17-1.59-.31-2.39-.43-.15-.91-.26-1.83-.33-2.75-.58-6.12-5.22-8.15-9.66-8.35-9.83-.44-13.08-7.19-15.45-15.36,6.26-3,12.72-4,19.46-2.1l.06,2.51c-2,5.35-7.57.05-11.34,4.81,9.42,5.45,16.88,6.59,22.61-4.44a20.94,20.94,0,0,1,2.61-.34l5.65.46C256.79,18.53,258.37,26.06,263.46,16.62Z"/><path class="cls-7" d="M410.93,159.16c-.27,3.23-.55,6.47-.92,10.75-1.74-3.23-3.21-7.52-4.14-7.39-3.28.44-4.23,4-2.95,6.72,3.56,7.54,1.43,14.07-2.38,20.46-1.55,2.62-1.94,7.78-6.21,6.08s-2.45-5.16-.41-8.27c2.24-3.42-.4-3.83-2.82-4.1-1.56-4.87-10.05-4.31-8.37-11.71,5.06-.65,13.46,1.88,12.49-6.59s-8.15-1.74-12.53-2.21a21.22,21.22,0,0,0-2.76,0c-.13-13.78,10.68-9.35,18.2-10.35-1.88-3.17-3.07-5.16-4.25-7.16,3.71-3.74,7.45,10.11,11.15,0l2.3-2.79C411.73,147.38,406,154.54,410.93,159.16Z"/><path class="cls-8" d="M277,22.59c11.6-2,20.81,4.46,30.42,9.46,0,.82,0,1.64,0,2.47l-2.82.06c-2.17-.64-4.36-1.19-6.5-1.92-4.68-1.62-8.85-.36-9.42,4.77-.78,7,3.88,5.72,8.09,4.27,3.85-1.34,4.64,1.4,5,4.47-4.86,3.15-9,8.11-15.84,3.42-6.17-4.21-4.63-9.49-3.65-15.08-1.55-4-5.84-6.57-5.69-11.52Z"/><path class="cls-9" d="M413.4,279.7c-36.12,0-72.24.07-108.36-.11-4.84,0-10.32,2.06-14.33-2.92l122.69.09-.07.17C413.39,277.85,413.41,278.78,413.4,279.7Z"/><path class="cls-10" d="M307.44,34.52c0-.83,0-1.65,0-2.47,13.61,3.79,23.73,14.31,36.1,20.5-8.4,4.81-16.61-.74-24.93-.5l-2.79-2.94C317.73,41.29,309.43,39.88,307.44,34.52Z"/><path class="cls-3" d="M413.48,274l.36-105.12c4.56,6.52,2.13,14,2.23,21,.33,24,.22,48.08.05,72.13,0,5.06,1.76,10.71-2.79,14.94l.07-.17C413.45,275.85,413.48,274.93,413.48,274Z"/><path class="cls-11" d="M182,8.24c1.2-2.36,3.29-2.85,5.58-2.93C206.09,7.14,225,1.59,243.31,8.24l0,2.69-2.8-.09c-17.62-4.44-35.25-4.13-52.9-.19l-5.71.35C182,10.08,182,9.16,182,8.24Z"/><path class="cls-12" d="M318.6,52.05c8.32-.24,16.53,5.31,24.93.5,3.19.07,4.54,2.5,5.83,5-2.29,5.93-6,5.81-11.13,3.73-6.36-2.61-13.08-4.27-19.64-6.35C318.6,54,318.6,53,318.6,52.05Z"/><path class="cls-13" d="M243.35,10.93c0-.89,0-1.79,0-2.69,4.8,1.33,11.8-3.52,13.88,5.42l-2.71.92-5.65-.46Q246.08,12.53,243.35,10.93Z"/><path class="cls-14" d="M407.33,142.63l-2.3,2.79q-2.79-2.91-5.57-5.84c0-1,0-1.93,0-2.9,2.57-1.52,2.8-4.24,3.21-6.88A25.19,25.19,0,0,1,407.33,142.63Z"/><path class="cls-15" d="M254.48,14.58l2.71-.92,6.27,3C258.37,26.06,256.79,18.53,254.48,14.58Z"/><path class="cls-16" d="M14.54,159.69c.05,12,6.08,7,9.71,3.05a64.86,64.86,0,0,1,28.8-18.63c6.1-1.93,11.6-2.16,17.11,1.27-.06,1.64-.11,3.27-.16,4.91-.77.35-1.52.73-2.26,1.12-9.26-11.86-13.18-2-15.92,5.19-2,5.19-2.32,10.26-9.25,9.27-2.31-.06-4.4-.57-5.6-2.94-3.39-7.74-4.92-2.11-5.27,1.17-1,9.17-5.41,13.7-14.24,13.46H12.13l-.73-5.74.51-8.87Z"/><path class="cls-17" d="M137.37,40.37c-7.56-5-13.54-2.79-19.16,3.87-8.15,9.65-19.53,13.51-30.61,17.93-5.2,2.06-8.8,1.13-11.52-3.83l5.59-3.27c9.59,5.77,10.55-1,11.07-8.35L106.86,38c1.46,2.22,2.4,7,4.62,6,4.49-2,6.23-6.54,3.67-11.77,4.93-3.9,11-4.5,16.68-6.22Q134.59,33.2,137.37,40.37Z"/><path class="cls-18" d="M137.37,40.37Q134.6,33.2,131.83,26c10.69-5.29,21.74-9.44,33.48-11.36L168,19.92c-4.15,7.91,8.32,15,.63,23.53-.91-3.27-.28-7-3.41-9C164,27.22,158.68,26.08,153,26c-7.84-.15-4.76,7.71-7.32,11.47v0l-8.36,2.92Z"/><path class="cls-19" d="M168,19.92l-2.72-5.25,2.81-1L181.93,11l5.71-.35,2.7.9q0,4.17,0,8.36c-.5,4.91-3.85,9.83,0,14.73l-2.34,3c-5.87-1.88-22.22,3.37-7.65-12.43a4.65,4.65,0,0,0,.08-6.48c-1.95-2.07-4.2-1.62-5.95.3C172.45,21.29,170.65,23.35,168,19.92Z"/><path class="cls-20" d="M11.91,162.94l-.51,8.87c-3.68,4.05-2.28,9.13-2.3,13.8-.1,30.38,0,60.77,0,91.16,0,1,0,2,0,2.92-4.56-4.27-2.7-10-2.72-15.05-.18-31-.1-61.95-.1-92.92C6.33,167.51,8.16,164.55,11.91,162.94Z"/><path class="cls-21" d="M92.74,46.72c-.52,7.39-1.48,14.12-11.07,8.35A27.49,27.49,0,0,1,92.74,46.72Z"/><path class="cls-22" d="M115.15,32.25c2.56,5.23.82,9.77-3.67,11.77-2.22,1-3.16-3.8-4.62-6Z"/><path class="cls-23" d="M181.93,11l-13.81,2.69c2-9,9.07-4.09,13.85-5.45C182,9.16,182,10.08,181.93,11Z"/><path class="cls-24" d="M209.86,279.69c-18.55-1.44-37.33,3-55.74-2.35l3.2-3.69,5.13-5.63c.8,0,1.6,0,2.41,0,.26,4.92,2.94,4.15,5.9,2.74,6.06,6.46,9.83.66,14-2.88.92.1,1.84.16,2.76.17l3.16,2.65c3.94-4.06,3.84-8-.36-11.76-3-5.33-5.61-.66-8.37.32l-3-.16c-2.22-8.25-8.3-6.23-13.82-5.67l-3.2-.19c-5.59-6.25-12.55-1.94-18.86-2.69-2.34-.12-4.53-.55-5.77-3l25.08-.06,64.15.05c0,1,0,2,0,3.06-4.92-.14-9.83-.46-14.74-.36s-2.67,3.23-1.83,5.63c.44,4.94-1.76,10.29,2.06,14.72l3.41,3.74Z"/><path class="cls-25" d="M9.09,279.69c0-1,0-1.94,0-2.92,37.15,0,74.29.09,111.43-.06,4.84,0,10.39,2,14.2-3.32,6.06-5.21-1.39-16.75,8.6-20.12l2.5,2.68c.49,4.94-1.79,10.32,2.13,14.71,1.12,2,2.25,4.06,3.37,6.1-5.43,3.59-11.51,2.95-17.49,2.95Z"/><path class="cls-26" d="M209.86,279.69l5.58-5.32c2.34-.6,5.18-.27,6.11-3.54,2.23-.1,4.14-.79,5.19-3.08,3.07,1.2,2.76,7.46,7.8,5.74l5.63-1.67,3.52,1.63a19,19,0,0,0,2,.1l6.31.05,4.86-.18,6.38.08,4.14-.24c2.76.44,5.2,0,6.67-2.84l1.33.31,1.36,0c2.82,4.56,7.28,2.78,11.18,3.15l-.06.15c-3.05,6.81-9,5.67-14.45,5.67Q241.64,279.72,209.86,279.69Z"/><path class="cls-27" d="M413.48,274c0,.91,0,1.83-.08,2.74l-122.69-.09a11.65,11.65,0,0,0-.47-2.35l.77-.76,19.13-.2,2.95,0,11.22,0,22.24.05,14,0,8.33,0,22.21.05,2.92,0,11,0Z"/><path class="cls-28" d="M151.33,276.76c-1.12-2-2.25-4.07-3.37-6.1,1-5.18,3.56-10.6-2.13-14.71-.84-.89-1.67-1.79-2.5-2.68a12.2,12.2,0,0,1-.21-2.7c6.31.75,13.27-3.56,18.87,2.7l-2.53,2.16c-5.82,5.41-2.51,12-2.14,18.22l-3.2,3.69Z"/><path class="cls-29" d="M290.24,274.32a5.21,5.21,0,0,0-2.38-.31l.06-.15c-.09-2.52-.7-4.75-3.08-6l.54-5.88c4.82-5.13,1.74-11.46,2.37-17.22,0-.85,0-1.69,0-2.54,1.94-.36,2.8.93,3.49,2.49l0,11.66c0,3.83,0,7.66,0,11.5l-.15,5.68Z"/><path class="cls-30" d="M324.07,165.32c9.49-10.48,2.49-23.16,4.15-34.68.32-2.27-3-5.85,2.31-5.81,3.87,0,9.25-1.61,6.9,6.14-2.78,11.69-4.46,23.35.83,34.83,7.8.37,15.58.68,19.36-8.73,4.3-.24,4.68,5.32,8.27,6.12,1.2,5-1.67,6.05-5.47,6.21-5.58.66-12.37-4.38-16.34,3.82.74,13-4.7,26.63,3.23,39,13.53,2.54,8.74-13.44,16-17.29,1.71,4.66-2,10.44,2.74,14.46,1.39,4.84-.35,8.62-3.66,11.87l-21.65.16c-2.61-.26-3-2.23-3-4.4-.59-16.07,4-32.43-2.53-48.15l-7.56.17-9.73.08-4.85.23c-3.2-1.57-7.32,1.47-11.78-4Z"/><path class="cls-31" d="M145.87,134.15c7.37-.7,15,6.63,22.13-.93,2.38.53,4.53.48,5.65-2.33,5,.5,8.29-3,12.27-5.23,6.06-3.4,9.53,2,12,6.21,3.05,5.21-2.38,4.5-4.81,5.72-2.93.06-6.1-.9-8.35,2.11-9.46,1.64-20.28-4-28.25,5.75q-.12,3-.25,6.07c.19,1.89.39,3.78.58,5.67,0,.94,0,1.87,0,2.81a11.55,11.55,0,0,0-.26,8.7,1.21,1.21,0,0,0-.07,2c-2.27,7.94-1.94,16.12-2,24.26l-.27,2.94q-3,8.55-5.92,17.12c-6.17,5.5-6.42.67-5.35-3.82,2.64-11.12,3.88-22.28,2.66-33.69l.06-8.77a43.44,43.44,0,0,0,0-17.52q-.13-7.26-.28-14.51A5.27,5.27,0,0,0,145.87,134.15Z"/><path class="cls-32" d="M307.44,34.52c2,5.36,10.29,6.77,8.37,14.59-3.08.11-6.38-.51-8.38,2.94-7.38-.88-12.19,3.65-16.72,8.73-14-11.47-19.42-11.47-33.44,0l-2.88,3c-1.42-2.19-2.84-4.37-4.94-7.62-.6,6.26-2.89,10.29-8.86,10a7.81,7.81,0,0,0-.06-2.46c7.73-2.4,5.86-8.76,5.47-14.52l-.13-5.75.43-.35c5.7.6,4.38,12.95,11.62,8.81,4.22-2.42,11.62-6,7.72-14.49,4.89-5.16,10.55-5.55,16.69-2.91-1,5.59-2.52,10.87,3.65,15.08,6.87,4.69,11-.27,15.84-3.42,6.23-2.46,1.3-7.88,2.8-11.59Z"/><path class="cls-33" d="M271.24,159.7l2.66.11a17.13,17.13,0,0,1,.1,2.58c-2.65,6.12,3,5,5.37,6.73a7,7,0,0,1,.25,2.45c-1.91,3.67-3.48,7.43-2.86,11.77.14,1,.27,2,.41,3q0,14.55-.1,29.1l-3.09,5.9c-5.19,4.63-8.35,1.64-11-3.23l5.31-34.47-.1-6.49a2.94,2.94,0,0,0-.23-2.49c.12-3.83.25-7.65.37-11.47.07-1.17.15-2.34.22-3.51Z"/><path class="cls-34" d="M279.62,171.57a7,7,0,0,0-.25-2.45l8.51-6.33a25.89,25.89,0,0,0,.59-2.78l3.87,3.55c3.66-8.92,15.88-8.68,18.4-18.83,4.31,4.25.69,12.89,7.86,15.56q2.73,2.52,5.47,5H301.21c4.46,5.5,8.58,2.46,11.78,4,0,.76,0,1.52,0,2.29-9.18-1.9-16.7,4-25.06,5.89C285.43,175.08,283.35,172.07,279.62,171.57Z"/><path class="cls-35" d="M234.85,133.51c9.88-12.43,10.6-1.39,12.93,5.52a2.58,2.58,0,0,0-1.73.55c-4.66,3.62-2.81,8.89-2.84,13.48-.08,18,.16,35.93.28,53.89-7.61,5.89-6-3.53-8.66-5.74.07-.91.11-1.83.13-2.74a41,41,0,0,0,0-30.21c0-.61,0-1.22,0-1.83,3.9-10,4.08-20,0-30C234.94,135.45,234.91,134.48,234.85,133.51Z"/><path class="cls-18" d="M290.71,60.78c4.53-5.08,9.34-9.61,16.72-8.73,7.8,5,5,13.24,5.59,20.44l5.28,3.81c-5.46-.16-10,8.48-16.43,2,3.32-1.94,6.51-4.14,3.79-8.71-1.38-2.31-3.36-5.35-6.2-4.66-5.43,1.33.37,5.73-1.46,8-1,1.25-3,1.65-4.5,2.43-1.2-2.36-3.29-2.86-5.59-2.92s-4.37.57-5.56,2.93l-2.79-2.92,2.79-5.84,2.79-2.92Z"/><path class="cls-36" d="M235,166.43c0,.61,0,1.22,0,1.83-7.29,7.46-7.3,22.74,0,30.21,0,.91-.06,1.83-.13,2.74-9.55-.58-3.65,7.38-5.57,11l-5.62-.32L223.8,131c3.46,1.95,7,3.43,11,2.54.06,1,.09,1.94.1,2.91C227.58,142.41,227.59,158.75,235,166.43Z"/><path class="cls-37" d="M399.45,136.68c0,1,0,1.94,0,2.9l-5.57,2.95-16.77,8.79c-4.57-4-10.87-5.77-14-11.72,3.29-1.91,11.46-.39,5.62-8.73-.32-2.12-4.65-3.35-2.52-5.11,2.41-2,6-1.06,8.11,2.19.08,3.21-.49,6.64,2.77,8.75,2.26,3.26,5.34,3.36,8.48,2,.62-.27.88-3.23.77-3.26-2.09-.72-4.25-1.19-6.4-1.71,1.52-3.89,4.32-5.77,8.31-5.77l8.36,5.83Z"/><path class="cls-38" d="M168,19.92c2.62,3.43,4.42,1.37,6.46-.86,1.75-1.92,4-2.37,5.95-.3a4.65,4.65,0,0,1-.08,6.48C165.79,41,182.14,35.79,188,37.67c-.83,1.92-1.67,3.84-2.5,5.75-4.4,2.48-3.81,8.19-6.84,11.55-7-1.48-12.77-4.82-16.23-11.68,3.31-2.1,2.7-5.57,2.81-8.79,3.13,1.91,2.5,5.68,3.41,9C176.35,34.92,163.88,27.83,168,19.92Z"/><path class="cls-39" d="M290.71,60.78l-5.57,2.93c-2.92,0-4.44-6.34-7.35-2.71-1.47,1.83,2.16,4.39,4.56,5.63l-2.79,5.84c-2.25,1.24-2.74,3.42-2.8,5.82h0l-5.56,2.91c-1.32-9.29-6.54-15.67-13.93-20.43C271.29,49.31,276.67,49.31,290.71,60.78Z"/><path class="cls-40" d="M268.54,159.67c-.07,1.17-.15,2.34-.22,3.51L256.68,163a6.14,6.14,0,0,0,.65-2.7c4.27-5,4.35-10.09.06-15.17l-2.65-2.69c7.88-3.93,4.14-11.93,5.58-18.29,6.72-.65,12.58-.67,11.1,9.16-1.86,3.83-3.64,7.69-3,12.2Z"/><path class="cls-41" d="M218.16,139.66c.16-3.23-.46-6.75,3-8.79.74,10.7,1.5,21.4,0,32.1H218.2c-9.77-5.13-14.66,1.68-19.47,8.71l-.09,3.17c-3.55-4.18-7.37-2.91-11.24-.6l2.85-11.61c2.38-6.39,8.81,3.17,11.21-3.12,4.32,1.17,5.91-.52,4.81-5C217.53,156,219.38,149.16,218.16,139.66Z"/><path class="cls-39" d="M145.87,134.15a5.27,5.27,0,0,1-.48,2.6c-6.27,17.05-7.76,17.5-19.17,5.77l2.79-2.9q5.44-.18,5.54-5.88c0-1,0-1.92,0-2.88,5.79-1.53,4.31-8.74,8.32-11.67.11,3.21-.47,6.66,2.81,8.75l0,0C145.76,130,145.82,132.07,145.87,134.15Z"/><path class="cls-42" d="M70,150.29c0-1.64.1-3.27.16-4.91,1.28-4.49,2.45-9,3.88-13.46,1-3,1.7-6.51,3.73-8.38.92-.86,5.23,1.11,7.12,2.85,4.9,4.5-2.54,5.6-2.68,8.88-.06,1.39-.34,2.77-.52,4.16l-2.89,6-6,8.73Z"/><path class="cls-43" d="M218.16,139.66c1.22,9.5-.63,16.3-11.89,14.82l-7.93-8.1,3.14-3.87C207.05,141.6,212.28,138.54,218.16,139.66Z"/><path class="cls-44" d="M343.21,157.13c1.18-5.55,2.81-11,3.44-16.67,1.17-10.45,6.45-10.66,13.81-6.82q.41,3,.83,6.09l-3.36,2.84-5.1,8.72-6.34,6.42Z"/><path class="cls-39" d="M165.25,34.5c-.11,3.22.5,6.69-2.81,8.79-4.94-3.94-10.12-7.13-16.73-5.84,2.56-3.76-.52-11.62,7.32-11.47C158.68,26.08,164,27.22,165.25,34.5Z"/><path class="cls-39" d="M313,72.49c-.57-7.2,2.21-15.41-5.59-20.44,2-3.45,5.3-2.83,8.38-2.94l2.79,2.94c0,1,0,1.92,0,2.88C324.33,63.43,327.24,70.94,313,72.49Z"/><path class="cls-45" d="M221.14,163c1.47-10.7.71-21.4,0-32.1l2.69.1q-.08,40.47-.16,80.95a1.13,1.13,0,0,0,.43,1.46l-2.73-1.5-.37-11A185.55,185.55,0,0,0,221.14,163Z"/><path class="cls-46" d="M240.59,66.18c6,.28,8.26-3.75,8.86-10,2.1,3.25,3.52,5.43,4.94,7.62.89,7.67-4.14,12.36-8.06,17.61L240.15,81l-2.42-2.77c0-.84.1-1.68.16-2.52C241.2,73.3,240.46,69.61,240.59,66.18Z"/><path class="cls-47" d="M254.74,142.4l2.65,2.69-.06,15.17a6.14,6.14,0,0,1-.65,2.7,10.7,10.7,0,0,0-10-3c-1.75-6.75-1-13.57-.59-20.39a2.58,2.58,0,0,1,1.73-.55Z"/><path class="cls-48" d="M318.6,160.29c-7.17-2.67-3.55-11.31-7.86-15.56.08-2.31-.68-5.32.42-6.78,2-2.67,4.21,0,5.62,1.61C322.45,145.9,324.16,152.79,318.6,160.29Z"/><path class="cls-49" d="M134.55,133.74q-.09,5.7-5.54,5.88c-.76-9.63-7.58-8.78-13.89-8.79l-5.48,3.33c-5.44-13.1,9.16-6.23,11-12.08.92,1,1.85,2,2.78,2.93Z"/><path class="cls-50" d="M78.8,145.41l2.89-6,11-.18,2.89,0,11.12.4c3.9,5,9.3,2,14,2.86-6.14,4.83-13.24,1.59-19.84,2.6-5-4-9.07-4.63-10.89,3.2C86.56,146.08,83,144.55,78.8,145.41Z"/><path class="cls-51" d="M184.78,139.7c2.25-3,5.42-2,8.35-2.11,0,.63,0,1.26,0,1.89-4.36,5.58.44,5.46,3.61,6.35-1.34,3.37-6.07,4.11-6.09,8.52L190,154c-4,1.12-7.28-1.06-10.73-2.5l0-3.16C182.88,146.74,184.7,143.84,184.78,139.7Z"/><path class="cls-52" d="M276.76,78.29c.06-2.4.55-4.58,2.8-5.82l2.79,2.92c.2,2.93,1,7.38,3.62,6.62,4.44-1.28,3.71-5.76,1.94-9.55,2.3.06,4.39.56,5.59,2.92V78.3c-1,3.87.16,10.23-3.77,11C282.62,90.67,281.3,81.85,276.76,78.29Z"/><path class="cls-53" d="M268.42,145.47c-.64-4.51,1.14-8.37,3-12.2,9.06-4.64,11.26,2.23,13.58,8.89-4.45,2.64-10.06-1.28-14.26,2.76l.05,0A2.4,2.4,0,0,0,268.42,145.47Z"/><path class="cls-49" d="M142.92,119.19c-4,2.93-2.53,10.14-8.32,11.67-2.36-4.24-3.31-9.58-8.38-11.68l2.74-5.82c5,4.33,10.4,10.43,11.17-2.92l2.81,0Z"/><path class="cls-54" d="M178.92,71.41c-2.95-2.94-1-5.49.59-8.06l5.61-.25,1.08.29,1.07-.32,3.24,9.68a16.72,16.72,0,0,0,.1,2.24l-3.34,3.53L184,78.44C181.77,76.53,182.64,72.15,178.92,71.41Z"/><path class="cls-55" d="M145.73,127.94a20.63,20.63,0,0,1,4.85-11.81c2.38-3,5.53-3.39,8.68-1.1,2.09,1.52,3.2,3.81,1.76,6.23-2.27,3.8-3.24,2.61-6.58-.19s-4.2,6.41-8.73,6.85Z"/><path class="cls-56" d="M288.47,160a25.89,25.89,0,0,1-.59,2.78l-13.88-.4a17.13,17.13,0,0,0-.1-2.58C278.92,146.71,283.72,151.79,288.47,160Z"/><path class="cls-43" d="M293.5,78.3V75.38C295,74.6,297,74.2,298,73c1.83-2.26-4-6.66,1.46-8,2.84-.69,4.82,2.35,6.2,4.66,2.72,4.57-.47,6.77-3.79,8.71Z"/><path class="cls-57" d="M120.71,142.54c-4.66-.89-10.06,2.15-14-2.86q1.45-2.76,2.89-5.52l5.48-3.33,7.26,11.31A2.9,2.9,0,0,0,120.71,142.54Z"/><path class="cls-58" d="M238.05,90.22c-2.77,5.72-7,9.16-13.28,9.44.64-3.18,1.26-6.36,1.89-9.53l8.35-6c-.15,2,1,2.84,2.67,3.22A4.7,4.7,0,0,0,238.05,90.22Z"/><path class="cls-59" d="M185.12,63.09l-5.61.26L178.67,55c3-3.36,2.44-9.07,6.84-11.55l1.29-.25c.17,2.08.34,4.15.52,6.23-3.25,2-2.76,5.18-2.25,8.33C185.09,59.52,185.1,61.31,185.12,63.09Z"/><path class="cls-60" d="M226.66,90.13c-.63,3.17-1.25,6.35-1.89,9.53-1.3-1.08-2.57-2.16-3.85-3.24q-1.35-4.67-2.71-9.32l.31-3.54,5.31.6C226,85.5,226.49,87.73,226.66,90.13Z"/><path class="cls-61" d="M137.36,40.35l8.36-2.92c0,3.89,0,7.77,0,11.66V52c-3.72-5.84-7.44-2.91-11.16,0v-3Z"/><path class="cls-62" d="M388.3,127.94c-4,0-6.79,1.88-8.31,5.77l-2.85,3c-3.26-2.11-2.69-5.54-2.77-8.75,5.17-3.54,11-3,16.74-2.94l0,0v2.94C390.16,127.92,389.23,127.93,388.3,127.94Z"/><path class="cls-39" d="M145.73,52V49.09c3.89-.74,1.31-9.94,8-6.83a5,5,0,0,1,2.56,6C154.38,53.93,149.47,51.41,145.73,52Z"/><path class="cls-63" d="M338.26,165.8c-5.29-11.48-3.61-23.14-.83-34.83q.39,11.63.8,23.23v8.74C338.23,163.89,338.25,164.85,338.26,165.8Z"/><path class="cls-64" d="M238.05,90.22a4.73,4.73,0,0,1-.37-2.85l0-3.22c0-.88.08-1.76.08-2.64a19.35,19.35,0,0,0,2.36-.48l6.18.37C244.62,85.42,249,95.69,238.05,90.22Z"/><path class="cls-62" d="M134.57,49.08v3H133.2c-4.28-.12-8.58-.57-8.71-6.4,0-1.34,2-3.72,3.3-3.93C133,40.87,130.94,47.89,134.57,49.08Z"/><path class="cls-65" d="M212.45,98.52c-4.42,1.3-8.7,11.23-13.3.21l2.47-1.28c4.34.57,6-6,10.78-4.36C212.41,94.9,212.43,96.71,212.45,98.52Z"/><path class="cls-66" d="M361.29,139.73q-.42-3-.83-6.09c2-3.33,5.28-2.71,8.32-2.78,5.84,8.35-2.33,6.83-5.62,8.74C362.53,139.62,361.91,139.67,361.29,139.73Z"/><path class="cls-52" d="M271.2,81.21l5.56-2.91q0,7.31,0,14.62h-5.53C271.21,89,271.2,85.11,271.2,81.21Z"/><path class="cls-55" d="M95.63,139.28l-2.89,0c-.06-4.76.67-8.92,6.65-8,1.1.17,2.91,1.45,2.91,2.21C102.29,137.9,96.83,136,95.63,139.28Z"/><path class="cls-67" d="M142.94,110.42l-2.81,0c-2.45-2-3.65-4.48-1.08-7.13.6-.61,2.75-.4,3.62.25C145.35,105.55,146,108,142.94,110.42Z"/><path class="cls-68" d="M212.45,98.52c0-1.81,0-3.62,0-5.43,2.37-1.19,2.95-3.47,3.23-5.91l1.29-.09h1.29q1.35,4.65,2.71,9.32Z"/><path class="cls-69" d="M201.62,97.45l-2.47,1.28-3.43-2.61q-1.51-3.25-3.05-6.49c1.33-2.71,3.75-2.28,6-2.31Q200.16,92.39,201.62,97.45Z"/><path class="cls-70" d="M178.92,71.41c3.72.74,2.85,5.12,5.09,7l.57,5.53.17-.16C179.54,81.36,172.17,80,178.92,71.41Z"/><path class="cls-71" d="M173.65,130.89c-1.12,2.81-3.27,2.86-5.65,2.33-.19-2.82-6.31-4.68-2.4-7.43S170.67,129.48,173.65,130.89Z"/><path class="cls-39" d="M129,113.36l-2.74,5.82c-.09,2.39-.54,4.59-2.8,5.83-.93-1-1.86-2-2.78-2.93Q121,113.7,129,113.36Z"/><path class="cls-72" d="M196.75,145.83c-3.17-.89-8-.77-3.61-6.35,3,.27,6.37-.41,8.34,3l-3.14,3.87A1.93,1.93,0,0,1,196.75,145.83Z"/><path class="cls-73" d="M338.22,162.94V154.2l5,2.93,3.28.58C346,163.31,342,162.93,338.22,162.94Z"/><path class="cls-74" d="M271.21,92.91h5.53c-.52,2.9,1.4,7.84-3.47,7.51S270,96,271.21,92.91Z"/><path class="cls-75" d="M261.31,89.56c-4.87.24-8.26-.84-7.78-3.77.87-5.39,3.24-2,4.93,0C259.25,86.68,259.92,87.7,261.31,89.56Z"/><path class="cls-76" d="M190.17,93.4c-7,0-9-3.08-5.42-9.59l-.17.16L190.33,90Z"/><path class="cls-77" d="M190.17,93.4c.05-1.12.1-2.25.16-3.37.78-.15,1.56-.29,2.34-.4q1.53,3.24,3.05,6.49l-3.95,3.07Q191,96.3,190.17,93.4Z"/><path class="cls-78" d="M268.42,145.47a2.4,2.4,0,0,1,2.37-.59l.45,14.82-2.7,0Z"/><path class="cls-79" d="M391.11,125c-.39-2.41-3.53-4.56-.74-7.22a2.18,2.18,0,0,1,2.18.38c2,2.77.92,5-1.47,6.82Z"/><path class="cls-78" d="M270.74,144.92c4.2-4,9.81-.12,14.26-2.76C281.15,148.18,275.68,145.07,270.74,144.92Z"/><path class="cls-14" d="M388.3,127.94c.93,0,1.86,0,2.79,0,2.9.86,7.82-.4,5.57,5.84Z"/><path class="cls-80" d="M399.45,236q0,4.36,0,8.73c-4.22,5.94,3.74,9.33,2.78,14.59v0c-4.47-.91-6.28-9.24-11.18-6.42C375.19,262,377.25,247.23,375,239.7c-2.11-7-4.26.08-6.16-.8a10,10,0,0,1,0-11.77c6.83-5.44,3.86-22.9,19.55-17.49-3.07,5-8.26,9.52,1.55,13.91C394,225.4,396.32,231.69,399.45,236Z"/><path class="cls-81" d="M368.82,238.9c1.9.88,4.05-6.22,6.16.8,2.27,7.53.21,22.3,16.09,13.14,4.9-2.82,6.71,5.51,11.18,6.42l-2.79,2.95-5.57-2.92c-11.64-1.72-20.89,1.2-25,14.07l-8.33,0c6.69-5.79,6.5-14.36,8.91-22-5.3-1.93-10.26,5.61-14.59-.81C360.33,247.74,366,245.21,368.82,238.9Z"/><path class="cls-82" d="M388.33,209.64c-15.69-5.41-12.72,12.05-19.55,17.49l-5.58,0-.06-.06c-.12-1.38-.23-2.76-.35-4.14-.16-.56-.31-1.12-.44-1.69,3.31-3.25,5-7,3.66-11.86l.54-.78c4.23-3.9,1.39-9.1,2.27-13.62,5.68,4.6,10.11,2.54,13.9-2.88,7.9,1.67,8,8.23,8.37,14.61Z"/><path class="cls-83" d="M360.42,169.4c3.8-.16,6.67-1.22,5.47-6.21a9.94,9.94,0,0,1,5.68-6.09,9.87,9.87,0,0,1,5.58,5.84c-.47,4.55,3.88,5.73,5.58,8.76-1.68,7.4,6.81,6.84,8.37,11.71-1.58,3.86-4.36,5.81-8.38,5.81v-2.91c-2.89-7.33-3.28-17.88-15.79-9.91C361.46,179.87,360.58,173.9,360.42,169.4Z"/><path class="cls-84" d="M382.72,186.31v5.81c-3.79,5.42-8.22,7.48-13.9,2.88a23.84,23.84,0,0,0-.4-4.16c-.16-.61-1.12-1-1.87-1.59v19.37l-.54.78c-4.73-4-1-9.81-2.74-14.47C363.79,177.46,364.72,177.05,382.72,186.31Z"/><path class="cls-18" d="M388.33,209.64l2.76-2.91c3.66,9.47,14,16.83,8.36,29.23-3.13-4.27-5.44-10.56-9.57-12.41C380.07,219.16,385.26,214.65,388.33,209.64Z"/><path class="cls-79" d="M393.89,259.29l5.57,2.92q1.38,2.88,2.78,5.77a8.59,8.59,0,0,0-8.25,5.4l-2.92,0C382.11,266.54,392.1,263.81,393.89,259.29Z"/><path class="cls-85" d="M402.24,259.28c1-5.26-7-8.65-2.78-14.59C406.36,245.73,407,248.91,402.24,259.28Z"/><path class="cls-86" d="M394,273.38a8.59,8.59,0,0,1,8.25-5.4c2.14,1.13,2.73,3.14,2.78,5.44Z"/><path class="cls-87" d="M215.43,13.68c2.37,8.17,5.62,14.92,15.45,15.36,4.44.2,9.08,2.23,9.66,8.35-6.56-2.71-13.11-3.64-19.62.14.35-2.61-.24-4.74-2.7-6l-2.06-2.41c-2.23-7.32-8.27-11.9-11.93-18.18C208.49,9.49,212.31,10,215.43,13.68Z"/><path class="cls-2" d="M215.43,13.68c-3.12-3.69-6.94-4.19-11.2-2.69l-13.89.56-2.7-.9c17.65-3.94,35.28-4.25,52.9.19l-5.65.74C228.15,9.64,221.69,10.68,215.43,13.68Z"/><path class="cls-62" d="M243.26,40.58c-.6-8.12,3.76-10,10.27-8.64,3.34.68,6.44,2.49,5.24,6.7-1.1,3.91-4,5-7.47,2.5-2.69-2-4.89-3-5,2l-.42.35Z"/><path class="cls-88" d="M246.22,14.46c-5.73,11-13.19,9.89-22.61,4.44,3.77-4.76,9.33.54,11.34-4.81Z"/><path class="cls-89" d="M282.33,34.51c-6.14-2.64-11.8-2.25-16.69,2.91,2.17-6.06.47-15.36,11-14.43C276.49,27.94,280.78,30.48,282.33,34.51Z"/><path class="cls-90" d="M220.92,37.53c6.51-3.78,13.06-2.85,19.62-.14.07.92.18,1.84.32,2.76l-3.25.24-13.86,2.89L221,40.53l.06-3.15Z"/><path class="cls-91" d="M237.61,40.39l3.25-.24c.81.11,1.6.25,2.4.42l2.61,2.88c0,1.92.08,3.83.13,5.75-3.33-.21-6.54-.08-8.66,3.24-.89-1.08-1.79-2.15-2.69-3.23Z"/><path class="cls-15" d="M246.22,14.46,235,14.09l-.06-2.51,5.65-.74,2.8.09,5.49,3.19A20.94,20.94,0,0,0,246.22,14.46Z"/><path class="cls-92" d="M377.15,162.94a9.87,9.87,0,0,0-5.58-5.84l0-2.92c2.26-.05,4.33-.53,5.52-2.86l16.77-8.79c0,1,0,1.94,0,2.91,1.18,2,2.37,4,4.25,7.16-7.52,1-18.33-3.43-18.2,10.35Z"/><path class="cls-84" d="M377.15,162.94h2.78a21.22,21.22,0,0,1,2.76,0c4.38.47,11.58-6.12,12.53,2.21s-7.43,5.94-12.49,6.59C381,168.67,376.68,167.49,377.15,162.94Z"/><path class="cls-93" d="M393.88,145.44c0-1,0-1.94,0-2.91l5.57-2.95q2.78,2.92,5.57,5.84C401.33,155.55,397.59,141.7,393.88,145.44Z"/><path class="cls-79" d="M304.62,34.58c-1.5,3.71,3.43,9.13-2.8,11.59-.39-3.07-1.18-5.81-5-4.47-4.21,1.45-8.87,2.75-8.09-4.27.57-5.13,4.74-6.39,9.42-4.77C300.26,33.39,302.45,33.94,304.62,34.58Z"/><path class="cls-85" d="M17.46,177.56c8.83.24,13.25-4.29,14.24-13.46.35-3.28,1.88-8.91,5.27-1.17-5.56,8.44-2.65,19.54-8,27.95-.92,1.44-5.28-1.42-4.49,2.89.26,1.43,2.34,3,3.89,3.55,2.88,1,5.2-.45,7.2-2.82,3.37-4-1.64-8,.44-12.62l6.57,7.35c7,13.91,21.25,16.41,33.52,5.87,2.74-3.44,11.08-4,5.53-11.73V181l5.57-.06c1.13,9.54-2.54,19.53,2.47,28.71q.23,7.21.44,14.43c7.67,3.88,6.53,9.37,2.41,15.21-7.21,10.23-11.64,21.37-10.92,34.33l-22.25,0c1.08-2.59,2.09-5.21,3.26-7.75,6.83-14.92,6.06-39.2-2.84-47.66-12.63-12-25.76-24.31-45-14.36C14.24,194.92,14.68,186.1,17.46,177.56Z"/><path class="cls-94" d="M59.31,273.61l22.25,0,14,.07,27.8,0,5.62.06,2.81-.46a9,9,0,0,0,2.25.23l.69-.07c-3.81,5.35-9.36,3.31-14.2,3.33-37.14.15-74.28.07-111.43.06,0-30.39-.1-60.78,0-91.16,0-4.67-1.38-9.75,2.3-13.8.24,1.91.49,3.83.73,5.74L12,206.71c0,1,0,2,0,3,0,2.9,0,5.79,0,8.69s0,5.9,0,8.85L12,233,12,244.69l0,5.88c.73,7.68-4.21,16.07,2.63,23l27.91,0,2.84,0Z"/><path class="cls-82" d="M42.57,165.87c6.93,1,7.28-4.08,9.25-9.27,2.74-7.23,6.66-17,15.92-5.19q-1.36,5.7-2.74,11.4c-4.11,3.57-10.35,4.9-11.29,11.79.26,5-.49,9.52-5.6,11.73C46.26,179.51,38.64,174.41,42.57,165.87Z"/><path class="cls-95" d="M42.57,165.87c-3.93,8.54,3.69,13.64,5.54,20.46-1.19,2.36-3.28,2.83-5.57,2.9L36,181.88c-2.08,4.6,2.93,8.66-.44,12.62-2,2.37-4.32,3.86-7.2,2.82-1.55-.57-3.63-2.12-3.89-3.55-.79-4.31,3.57-1.45,4.49-2.89,5.39-8.41,2.48-19.51,8-27.95C38.17,165.3,40.26,165.81,42.57,165.87Z"/><path class="cls-96" d="M12,206.71l.18-29.16h5.33c-2.78,8.54-3.22,17.36-2.76,26.28Z"/><path class="cls-97" d="M65,162.81q1.36-5.7,2.74-11.4c.74-.39,1.49-.77,2.26-1.12l2.79,3.85-2.4,5.66L65,162.73Z"/><path class="cls-98" d="M190.35,34.64c-3.87-4.9-.52-9.82,0-14.73,14.13-4.9,17.23-2.74,16.74,11.68l-2.63.07-3.21,0C196.54,28.36,194.42,35.44,190.35,34.64Z"/><path class="cls-99" d="M207.07,31.59c.49-14.42-2.61-16.58-16.74-11.68q0-4.18,0-8.36L204.23,11c3.66,6.28,9.7,10.86,11.93,18.18a4.66,4.66,0,0,1-.79,2.29l-2.78.37a2.31,2.31,0,0,0-2.43,0Z"/><path class="cls-100" d="M190.35,34.64c4.07.8,6.19-6.28,10.88-2.95a20.09,20.09,0,0,1,.44,2.67c-1.69,4-6.53,2.27-8.78,5.25l-6.09,3.56-1.29.25c.83-1.91,1.67-3.83,2.5-5.75Z"/><path class="cls-101" d="M221.55,270.83c-.93,3.27-3.77,2.94-6.11,3.54L212,270.63c.88-5.15,3.58-10.57-2.06-14.72-.84-2.4-3.16-5.52,1.83-5.63s9.82.22,14.74.36c-.27,1.73-.53,3.45-.79,5.18a2.47,2.47,0,0,0-1.95.44C217.61,260.2,220.58,265.68,221.55,270.83Z"/><path class="cls-102" d="M226.58,247.58l-64.15-.05c0-.93,0-1.86,0-2.79l72.51,0c0,.89,0,1.78,0,2.68Z"/><path class="cls-3" d="M184.78,267.9c-4.19,3.54-8,9.34-14,2.88-.13-3.76-.25-7.53-.37-11.29l8.61-.37,3,.16Q183.37,263.58,184.78,267.9Z"/><path class="cls-103" d="M226.58,247.58l8.33-.19c1.08,1.17,2.15,2.34,3.23,3.5-.16,2.49.54,4.53,2.71,5.83a11,11,0,0,1-.45,2.27l-5.65.42-5.31,0,0-3.14.62-1.21c-.2.41-.41.82-.61,1.22l-3.67-.49c.26-1.73.52-3.45.79-5.18C226.55,249.62,226.56,248.6,226.58,247.58Z"/><path class="cls-104" d="M143.12,250.57a12.2,12.2,0,0,0,.21,2.7c-10,3.37-2.54,14.91-8.6,20.12l-.69.06q.27-12.93.55-25.84l1.39,0h1.37C138.59,250,140.78,250.45,143.12,250.57Z"/><path class="cls-105" d="M179,259.12l-8.61.37-5,.19q-.07-3.1-.17-6.23C170.7,252.89,176.78,250.87,179,259.12Z"/><path class="cls-106" d="M165.35,259.68l5-.19c.12,3.76.24,7.53.37,11.29-3,1.41-5.64,2.18-5.9-2.74C165,265.25,165.19,262.47,165.35,259.68Z"/><path class="cls-107" d="M184.78,267.9q-1.41-4.32-2.81-8.62c2.76-1,5.39-5.65,8.37-.32-.13,2.1-.25,4.21-.38,6.32l-2.42,2.79C186.62,268.06,185.7,268,184.78,267.9Z"/><path class="cls-104" d="M162.42,244.74c0,.93,0,1.86,0,2.79l-25.08.06h0C145.21,241.8,154.1,245.93,162.42,244.74Z"/><path class="cls-3" d="M165.35,259.68c-.16,2.79-.33,5.57-.49,8.36-.81,0-1.61,0-2.41,0q-1.5-6.28-3-12.59l2.53-2.16,3.19.18Q165.27,256.57,165.35,259.68Z"/><path class="cls-108" d="M159.46,255.43q1.5,6.3,3,12.59l-5.13,5.63C157,267.43,153.64,260.84,159.46,255.43Z"/><path class="cls-109" d="M210,255.91c5.64,4.15,2.94,9.57,2.06,14.72C208.21,266.2,210.41,260.85,210,255.91Z"/><path class="cls-110" d="M190,265.28c.13-2.11.25-4.22.38-6.32,4.2,3.78,4.3,7.7.36,11.76C190.46,268.91,190.21,267.09,190,265.28Z"/><path class="cls-111" d="M190,265.28c.25,1.81.5,3.63.74,5.44l-3.16-2.65Z"/><path class="cls-112" d="M145.83,256c5.69,4.11,3.15,9.53,2.13,14.71C144,266.27,146.32,260.89,145.83,256Z"/><path class="cls-113" d="M256.86,273.42l-4.86.18-.69-11.28,3.15-5.77,2.86.39q1.41,2.78,2.8,5.55A13.9,13.9,0,0,1,256.86,273.42Z"/><path class="cls-114" d="M274.05,270.41c-1.47,2.89-3.91,3.29-6.67,2.85q-1.06-6.9-2.12-13.79l5.43,2.64C274,263.9,273.72,267.3,274.05,270.41Z"/><path class="cls-115" d="M254.46,256.55l-3.15,5.77-4.59,0c-6.57,2.06-2.45,7.31-3,11.15l-3.52-1.64q.12-6.42.22-12.83a10.19,10.19,0,0,0,.46-2.26l13.44-1.19Z"/><path class="cls-116" d="M229.44,259.44l5.31,0-.21,14.08c-5,1.72-4.73-4.54-7.8-5.74q1.06-2.76,2.15-5.52A8,8,0,0,0,229.44,259.44Z"/><path class="cls-117" d="M284.84,267.86c2.38,1.25,3,3.48,3.08,6-3.9-.37-8.36,1.41-11.18-3.15.13-2.45.43-4.81,3-5.88Z"/><path class="cls-118" d="M265.26,259.47q1.07,6.9,2.12,13.79l-4.14.24c-1.9-3.4,1.44-8.43-3.12-11q-1.39-2.78-2.8-5.55C260.58,255.67,262.7,258.33,265.26,259.47Z"/><path class="cls-119" d="M234.54,273.49l.21-14.08,5.65-.42q-.12,6.4-.23,12.82Z"/><path class="cls-120" d="M228.89,262.23q-1.08,2.76-2.15,5.52c-1.05,2.29-3,3-5.19,3.08-1-5.15-3.94-10.63,2.25-14.57C223.83,259.81,225.34,262,228.89,262.23Z"/><path class="cls-121" d="M279.76,264.83c-2.59,1.07-2.89,3.43-3,5.88l-1.36,0-1.33-.31c-.33-3.12-.05-6.52-3.36-8.31.17-1.85.34-3.71.52-5.56l5.76.22Z"/><path class="cls-122" d="M246.72,262.3l4.59,0L252,273.6l-6.31-.05Q246.2,267.93,246.72,262.3Z"/><path class="cls-123" d="M246.72,262.3q-.51,5.63-1,11.25a19,19,0,0,1-2-.1C244.27,269.61,240.15,264.36,246.72,262.3Z"/><path class="cls-124" d="M260.12,262.49c4.56,2.58,1.22,7.61,3.12,11l-6.38-.08A13.9,13.9,0,0,0,260.12,262.49Z"/><path class="cls-125" d="M337.66,217c.08,2.17.43,4.14,3,4.4a8.14,8.14,0,0,1,1,2.38,4.44,4.44,0,0,0-.81,1.11,2.34,2.34,0,0,0,.08,1.18c7.4.37,14.79.68,22.19,1l.06.06-8.36,20.43c-8.66,6.54-3,18.11-8.29,25.84l-22.24-.05c.89-2.76,1.77-5.52,2.66-8.28v0c4.7-4.09,4.92-9.74,5.75-15.6C334.9,234,328.9,221.32,321,209.12q3.12-11.43,6.22-22.85l7.95,0C337.4,196.37,333.44,207.05,337.66,217Z"/><path class="cls-67" d="M346.55,273.42c5.29-7.73-.37-19.3,8.29-25.84,0,1,0,2,0,2.95,4.33,6.42,9.29-1.12,14.59.81-2.41,7.69-2.22,16.26-8.91,22Z"/><path class="cls-18" d="M291.16,267.88c0-3.84,0-7.67,0-11.5,4.54-.73,9.75,1.88,13.47-2.95l5.53-2.93H313c-.49,4.19-1,8.39-1.48,12.8,5.17,2.08,11.11-4.69,15.46,1.8v0l-13.88,8.31-2.95,0C303.85,271.42,303,248.66,291.16,267.88Z"/><path class="cls-126" d="M393.89,259.29c-1.79,4.52-11.78,7.25-2.82,14.12l-22.21-.05C373,260.49,382.25,257.57,393.89,259.29Z"/><path class="cls-127" d="M291.16,267.88c11.88-19.22,12.69,3.54,19,5.48l-19.13.2Z"/><path class="cls-128" d="M313.09,273.4,327,265.09c-.89,2.76-1.77,5.52-2.66,8.28Z"/><path class="cls-129" d="M162.42,244.74c-8.32,1.19-17.21-2.94-25.06,2.86H136l-1.39,0c-1.2-7.48,4.14-5.67,7.77-5.78,10.38-.31,20.76-.39,31.14-.56l39.14,0,33.44-.05h2.78l5.61,0h2.88l30.67,0-.3.89c0,.85,0,1.69,0,2.54-.85-.05-1.71-.07-2.57-.05H234.93Z"/><path class="cls-130" d="M291.21,244.72c-.69-1.56-1.55-2.85-3.49-2.49l.3-.89c-2.25-4.56-5.43-8.71-5.64-14.16,3.84-1.67,6.27-6.27,11.11-5.89l0,3c0,1,0,1.94,0,2.9-3.45,2-6.43,4-3.76,8.91,3.13,5.75,7.77,3.41,12.13,2.75l0,2.94C298.37,242.87,296,248.64,291.21,244.72Z"/><path class="cls-131" d="M291.21,244.72c4.8,3.92,7.16-1.85,10.69-3,5.66,2.66-.55,8.4,2.75,11.67-3.72,4.83-8.93,2.22-13.47,2.95Z"/><path class="cls-132" d="M279.76,264.83,277,256.77c3.3-.8,5.36,1.89,7.95,3.1a3.49,3.49,0,0,0,.46,2.12l-.54,5.88Z"/><path class="cls-133" d="M285.38,262a3.49,3.49,0,0,1-.46-2.12c.07-2.13.15-4.26.22-6.39q0-4.38,0-8.76c.86,0,1.72,0,2.57.05C287.12,250.53,290.2,256.86,285.38,262Z"/><path class="cls-134" d="M382.72,186.31c-18-9.26-18.93-8.85-19.45,8.62-7.22,3.85-2.43,19.83-16,17.29-3.18-7.51-2.42-15.24-1.13-23,7.67-1.12,5.93-6.62,5.06-13.06-2.75,3.66-1.27,8.58-5.12,10.2l-2-13.15c4-8.2,10.76-3.16,16.34-3.82.16,4.5,1,10.47,6.51,7C379.44,168.43,379.83,179,382.72,186.31Z"/><path class="cls-135" d="M327.25,186.27,321,209.12l-8.22,9.12-5.46.49.38-6.07c3-.48,3.34-2.57,2.86-5.16,4.66-3.75,3.13-10,5.5-14.72,3.23-7.68,2.26-15.69,1.74-23.66l9.73-.08-.09,8.51Q327.38,181.9,327.25,186.27Z"/><path class="cls-136" d="M371.6,154.18l0,2.92a9.94,9.94,0,0,0-5.68,6.09c-3.59-.8-4-6.36-8.27-6.12,2.95-6.06-.95-5.89-4.79-5.78l5.1-8.72Z"/><path class="cls-137" d="M352.83,151.29c3.84-.11,7.74-.28,4.79,5.78-3.78,9.41-11.56,9.1-19.36,8.73,0-1,0-1.91,0-2.86,3.76,0,7.74.37,8.27-5.23Z"/><path class="cls-138" d="M337.66,217c-4.22-10-.26-20.65-2.46-30.79,0-1.92,0-3.85,0-5.78l-.06-11.58C341.68,184.59,337.07,201,337.66,217Z"/><path class="cls-138" d="M346.18,189.23c-1.29,7.75-2.05,15.48,1.13,23-7.93-12.37-2.49-26-3.23-39l2,13.15Z"/><path class="cls-139" d="M335.13,168.87l.06,11.58-7.71-2.9.09-8.51Z"/><path class="cls-140" d="M317.84,169.12c.52,8,1.49,16-1.74,23.66-1.66-6.95,2.43-14.84-3.15-21.14,0-.77.05-1.53,0-2.29Z"/><path class="cls-138" d="M341.68,223.8a8.14,8.14,0,0,0-1-2.38l21.65-.16c.13.57.28,1.13.44,1.69Z"/><path class="cls-141" d="M145.63,177.55c1.22,11.41,0,22.57-2.66,33.69-1.07,4.49-.82,9.32,5.35,3.82l3,3.34c0,7.36-3,13.82-5.56,20.42-4.91-1.26-12.11,3.58-14-5.77.29-5.14-.12-10.13-2.82-14.64-4.45-8.86-4.79-20.11-13.91-26.26,0-1.93,0-3.86,0-5.8l11-5.32a9.34,9.34,0,0,1,2.71-.65c2.32,1.24,2.9,3.44,3,5.92-4.45.44-8,2.09-7.83,7.54,0,.94,1.75,2.76,2.26,2.6,4.09-1.22,4.49-5.21,5.42-8.75a8,8,0,0,0,.14-1.4c9.46-6.65-2.82-16.17,2.81-23.32Z"/><path class="cls-142" d="M145.63,177.55l-11-14.58c-2.12-5.08-4.53-9.45-11.06-8.84-5.73.53-11.16.62-5.73,8.82,0,.81,0,1.62,0,2.44l-5.73,8.85-11.07.59.31-1q0-13.9,0-27.82l-.43-.88c6.6-1,13.7,2.23,19.84-2.6a2.9,2.9,0,0,1,1.67-.4l3.84.38c11.41,11.73,12.9,11.28,19.17-5.77q.13,7.26.28,14.51c-4.12,5.85-4.2,11.68,0,17.52Z"/><path class="cls-143" d="M179.19,148.31l0,3.16c-7.64,5.26-15.29,2.85-22.94.05q.14-3,.25-6.07C164.05,146.72,172.19,142.53,179.19,148.31Z"/><path class="cls-144" d="M179.19,148.31c-7-5.78-15.14-1.59-22.66-2.86,8-9.71,18.79-4.11,28.25-5.75C184.7,143.84,182.88,146.74,179.19,148.31Z"/><path class="cls-145" d="M201.46,159.51c-2.4,6.29-8.83-3.27-11.21,3.12a4.72,4.72,0,0,1-2.44.2c-8-5.59-16.81-1.79-25.25-2.28l-5.69-.55c0-.94,0-1.87,0-2.81C167.8,155.11,179.44,161,190,154l.71.38Z"/><path class="cls-80" d="M156.87,160l5.69.55c1.57,3,3.79,5.09,7.21,5.21,9.12.32,1.27,3.86,1,6l-3.22,3.8-7.65-.46c-.26-2.61-.77-5.07-3.34-6.35A11.55,11.55,0,0,1,156.87,160Z"/><path class="cls-146" d="M151.32,218.39l-3-3.33q3-8.56,5.92-17.12h5.46l0,2.93c-6,4.4.23,13.09-5.61,17.55Z"/><path class="cls-147" d="M190,154c-10.51,7-22.15,1.14-33.09,3.22-.19-1.89-.39-3.78-.58-5.67,7.65,2.8,15.3,5.21,22.94-.05C182.67,152.91,186,155.09,190,154Z"/><path class="cls-148" d="M159.7,197.94h-5.46l.27-2.94c4.74-7.71,1.9-16.12,2-24.26a1.21,1.21,0,0,1,.07-2c2.57,1.28,3.08,3.74,3.34,6.35Q159.83,186.5,159.7,197.94Z"/><path class="cls-146" d="M156.54,170.74c-.13,8.14,2.71,16.55-2,24.26C154.6,186.86,154.27,178.68,156.54,170.74Z"/><path class="cls-149" d="M145.69,168.78c-4.22-5.84-4.14-11.67,0-17.52A43.44,43.44,0,0,1,145.69,168.78Z"/><path class="cls-150" d="M240.59,66.18c-.13,3.43.61,7.12-2.7,9.56l-8.55-6.19c.2-3.16-.6-6.68,2.83-8.68,4,3.39,4.1-1.17,5.55-3,2.79,1,3,3.29,2.81,5.83A7.81,7.81,0,0,1,240.59,66.18Z"/><path class="cls-151" d="M240.53,63.72c.2-2.54,0-4.86-2.81-5.83l-.54-3.1a4.93,4.93,0,0,0,.16-2.35c2.12-3.32,5.33-3.45,8.66-3.24C246.39,55,248.26,61.32,240.53,63.72Z"/><path class="cls-152" d="M313,171.64c5.58,6.3,1.49,14.19,3.15,21.14-2.37,4.68-.84,11-5.5,14.72-8.87-9.09-18.58-9.39-27.27.58,9.86-6,16.31,2.88,24.41,4.58-.13,2-.26,4.05-.38,6.07-4,3.49-9,4.36-13.84,5.53l0-3c-6.5-8.57-10.44-4-13.92,3l-5.55,0c0-1,0-1.94,0-2.9l3.09-5.9c4.07-9.69,3.88-19.38.1-29.1-.14-1-.27-2-.41-3,4.53-.21,8.53-1.55,11.13-5.81C296.25,175.62,303.77,169.74,313,171.64ZM301.83,192.1H290.77c3.41,5.29,6.31,8.17,11.1,3l2.85-3c3.2-2.18,9.78-.41,8.34-8-.59-3.07.81-7.06-3-8.6-5-2-8.7,0-11,5Z"/><path class="cls-153" d="M229.26,212.24c1.92-3.65-4-11.61,5.57-11,2.71,2.21,1,11.63,8.66,5.74,3.44-1.44,3-4.77,2.43-7.28-3.4-15.8,4.31-19,17-16.83,1.79.3,3.6.53,5.39.79L263,218.1l-2.91,3.22c-1-2.22-3.68-5.33-4.66-3.95-5.22,7.41-14.63,6.84-20.45,12.71Zm23-15.66c-.37,3.21-2.06,7,3.41,7.18,4.71.16,6.84-2.95,6.8-7s-2.48-7.3-6.87-7.43C249.54,189.12,253.38,194.16,252.24,196.58Z"/><path class="cls-154" d="M268.28,183.63c-1.79-.26-3.6-.49-5.39-.79-12.66-2.13-20.37,1-17,16.83.54,2.51,1,5.84-2.43,7.28-.12-18-.36-35.92-.28-53.89,0-4.59-1.82-9.86,2.84-13.48-.41,6.82-1.16,13.64.59,20.39-.06,1.95-.11,3.91-.17,5.87.44,4.36-5.22,11.79,5.13,11.17l16.58.13C268.21,179.3,268.25,181.47,268.28,183.63Z"/><path class="cls-155" d="M260.06,221.32,263,218.1c2.66,4.87,5.82,7.86,11,3.23,0,1,0,1.93,0,2.9-7.86,3.23-6,16.88-16.67,17.08h-2.88C260.35,235.87,250.32,225.56,260.06,221.32Z"/><path class="cls-156" d="M268.18,177.14,251.6,177a16.94,16.94,0,0,1-2.78-10.43c7.95-1.4,15.1-.71,19.13,8.07A2.94,2.94,0,0,1,268.18,177.14Z"/><path class="cls-157" d="M268,174.65c-4-8.78-11.18-9.47-19.13-8.08a11.43,11.43,0,0,0-2.35-.73c.06-2,.11-3.92.17-5.87a10.7,10.7,0,0,1,10,3l11.64.22C268.2,167,268.07,170.82,268,174.65Z"/><path class="cls-158" d="M287.89,177.53c-2.6,4.26-6.6,5.6-11.13,5.81-.62-4.34.95-8.1,2.86-11.77C283.35,172.07,285.43,175.08,287.89,177.53Z"/><path class="cls-159" d="M277.17,186.33c3.78,9.72,4,19.41-.1,29.1Q277.12,200.88,277.17,186.33Z"/><path class="cls-160" d="M274,162.39l13.88.4-8.51,6.33C277,167.34,271.35,168.51,274,162.39Z"/><path class="cls-161" d="M235,166.43c-7.38-7.68-7.39-24,0-30C239.05,146.42,238.87,156.42,235,166.43Z"/><path class="cls-162" d="M235,198.47c-7.3-7.47-7.29-22.75,0-30.21A41,41,0,0,1,235,198.47Z"/><path class="cls-37" d="M287.91,72.46c1.77,3.79,2.5,8.27-1.94,9.55-2.63.76-3.42-3.69-3.62-6.62C283.54,73,285.61,72.52,287.91,72.46Z"/><path class="cls-52" d="M282.35,66.63c-2.4-1.24-6-3.8-4.56-5.63,2.91-3.63,4.43,2.76,7.35,2.71Z"/><path class="cls-163" d="M229.26,212.24,235,230.08c-.62,6.54,2.21,9.41,8.42,8.73l2.71,2.45-33.44.05v-2.42l11.43-25.51a1.13,1.13,0,0,1-.43-1.46Z"/><path class="cls-39" d="M371.6,154.18l-13.67-11.61,3.36-2.84c.62-.06,1.24-.11,1.87-.13,3.09,6,9.39,7.7,14,11.72C375.93,153.65,373.86,154.13,371.6,154.18Z"/><path class="cls-164" d="M377.14,136.7l2.85-3c2.15.52,4.31,1,6.4,1.71.11,0-.15,3-.77,3.26C382.48,140.06,379.4,140,377.14,136.7Z"/><path class="cls-165" d="M257.33,160.26l.06-15.17C261.68,150.17,261.6,155.22,257.33,160.26Z"/><path class="cls-166" d="M224.07,213.38l-11.43,25.51v-.08q-11.13-6.7-22.26,0l-2.85-2.9c-.32-5.09-3.34-9.58-2.06-15.26.49-2.2-2.39-.82-3.51.65-4,3-7.85-.06-11.78-.23l.67-5.53,19.49,0c1,6.89,2.92,11.84,10.37,5.58,7.13-7.78,2-17.39,3.57-26,2.36.47,5.21,4.13,6.92.64s-1.66-6.78-4.43-7c-4.09-.28-1.76,4.07-2.49,6.32L201.2,195c-3-6.42,4.34-14.29-2.56-20.17l.09-3.17L218.2,163h2.94a185.55,185.55,0,0,1-.17,37.92c-2.71,3.77-5.9,7.55.37,11Zm-5.89-26c-2-8.4-4.65-12.08-9.6-15.19C206,180.53,210.61,183.06,218.18,187.39Z"/><path class="cls-167" d="M198.64,174.84c6.9,5.88-.47,13.75,2.56,20.17q-.24,13-.5,26.06c-7.45,6.26-9.38,1.31-10.37-5.58a12.52,12.52,0,0,1,.28-2.66c4.82-13.06,4.3-25.67-2.86-37.74l-.35-.85C191.27,171.93,195.09,170.66,198.64,174.84Z"/><path class="cls-168" d="M201.46,159.51l-10.8-5.16c0-4.41,4.75-5.15,6.09-8.52a1.93,1.93,0,0,0,1.59.55l7.93,8.1C207.37,159,205.78,160.68,201.46,159.51Z"/><path class="cls-61" d="M218.2,163l-19.47,8.71C203.54,164.64,208.43,157.83,218.2,163Z"/><path class="cls-61" d="M187.81,162.83a4.72,4.72,0,0,0,2.44-.2l-2.85,11.61.35.85a4,4,0,0,0-2.69-.32l-3.09-.15C182.41,169.87,180.26,163.72,187.81,162.83Z"/><path class="cls-169" d="M126.22,142.52l-3.84-.38-7.26-11.31c6.31,0,13.13-.84,13.89,8.79Z"/><path class="cls-170" d="M123.42,125c2.26-1.24,2.71-3.44,2.8-5.83,5.07,2.1,6,7.44,8.38,11.68,0,1,0,1.92,0,2.88Z"/><path class="cls-171" d="M70.39,159.8l2.4-5.66,6-8.73c4.17-.86,7.76.67,11.18,2.93-.1,1-.2,2-.29,2.94-7.67,1.84-7.72,8.31-8.1,14.58l2.79,8.28-2.75,0C79.14,168.3,69.8,168.3,70.39,159.8Z"/><path class="cls-172" d="M221.34,211.88c-6.27-3.44-3.08-7.22-.37-11Z"/><path class="cls-173" d="M229.34,69.55l8.55,6.19c-.06.84-.12,1.68-.16,2.52l.27.58-3.16,2.32c-2.82-1.69-5.63-1.38-8.43.06.1-1,.15-1.91.16-2.87,0-2.84-.07-5.68-.1-8.52Z"/><path class="cls-174" d="M240.15,81a19.35,19.35,0,0,1-2.36.48q.06-1.33.21-2.67l-.27-.58Z"/><path class="cls-175" d="M89.69,151.28c.09-1,.19-2,.29-2.94,1.82-7.83,5.9-7.21,10.89-3.2l.43.88a42.32,42.32,0,0,0,0,27.82l-.31,1c0,1.75-.05,3.5-.07,5.25l.38.82c-4.13,12.71-2.35,25.52-.64,38.33a1.36,1.36,0,0,0-.18,1.84l0-.1c-2.81,3.49-6.23,4.67-10.41,3.07q-.22-7.22-.44-14.43l.21-29a4.45,4.45,0,0,0,0-2.84c0-1.1,0-2.2,0-3.3L89.68,160C89.68,157.11,89.68,154.2,89.69,151.28Z"/><path class="cls-4" d="M192.67,89.63c-.78.11-1.56.25-2.34.4L184.58,84,184,78.44l3.26.08c2.34,4,3.83-.12,5.69-.65l5.61,0c0,1,0,2,0,3,0,2.14.07,4.27.1,6.41C196.42,87.35,194,86.92,192.67,89.63Z"/><path class="cls-176" d="M190.52,72.75q-1.64-4.83-3.25-9.68a4.71,4.71,0,0,1,.6-2.38c.77-.93,1.55-1.86,2.33-2.78l5.46-.15.39,5.37c-1,2.15-2,4.29-2.92,6.44l-.41,3A18,18,0,0,0,190.52,72.75Z"/><path class="cls-177" d="M193,77.87c-1.86.53-3.35,4.67-5.69.65,1.11-1.18,2.23-2.35,3.34-3.52l1.38.07,1.37-.2C193.22,75.87,193.09,76.87,193,77.87Z"/><path class="cls-178" d="M187.87,60.69a4.71,4.71,0,0,0-.6,2.38l-1.07.32-1.08-.29c0-1.79,0-3.58-.05-5.37a16.45,16.45,0,0,0,2.1.23l1.12-.24Z"/><path class="cls-179" d="M193.37,74.86l-1.38.21L190.61,75a16.94,16.94,0,0,1-.1-2.25,18.27,18.27,0,0,1,2.21-.17A8.48,8.48,0,0,1,193.87,75Z"/><path class="cls-180" d="M226.41,81.22c2.8-1.44,5.61-1.75,8.43-.06,0,1,.09,2.09.13,3.13l0-.13-8.35,6c-.17-2.4-.63-4.63-2.83-6Z"/><path class="cls-72" d="M237.71,84.15l0,3.22C236,87,234.86,86.18,235,84.16l0,.13C235.88,84.22,236.8,84.17,237.71,84.15Z"/><path class="cls-181" d="M186.8,43.17l6.09-3.56c3.2,2.7,8.61,3.25,8.25,9.38a15.65,15.65,0,0,1-2.27.16l-5.3.08c-2.21-3.66-4.13.35-6.21.26l0-.09C187.14,47.32,187,45.25,186.8,43.17Z"/><path class="cls-182" d="M187.17,58a16.45,16.45,0,0,1-2.1-.23c-.51-3.15-1-6.29,2.25-8.33l0,.09,3.18,2.58C189.42,54,188.29,56,187.17,58Z"/><path class="cls-183" d="M218.21,87.1h-1.29l-1.29.08-2.79-.06L213,73.35l5.2,2.89.36,7.32Z"/><path class="cls-184" d="M218.52,83.56l-.36-7.32c.22-1.45.45-2.89.67-4.33,2.67,2,3.55,6.41,7.74,6.44,0,1-.06,1.92-.16,2.87l-2.58,2.94Z"/><path class="cls-185" d="M237.71,84.15c-.91,0-1.83.07-2.74.14,0-1-.08-2.09-.13-3.13L238,78.84q-.15,1.34-.21,2.67C237.79,82.39,237.76,83.27,237.71,84.15Z"/><path class="cls-186" d="M212.84,87.11l2.79.06c-.28,2.45-.86,4.73-3.23,5.92C207.64,91.4,206,98,201.62,97.45q-1.47-5.06-2.93-10.13c0-2.14-.07-4.27-.1-6.4l2.95.31C205.58,82.62,207.8,87.83,212.84,87.11Z"/><path class="cls-79" d="M354.85,250.53c0-1,0-2,0-2.95l8.36-20.43,5.58,0a10,10,0,0,0,0,11.77C366,245.21,360.33,247.74,354.85,250.53Z"/><path class="cls-187" d="M341.68,223.8l21.11-.85c.12,1.38.23,2.76.35,4.14-7.4-.32-14.79-.63-22.19-1a2.34,2.34,0,0,1-.08-1.18A4.44,4.44,0,0,1,341.68,223.8Z"/><path class="cls-188" d="M366.55,208.62V189.25c.75.6,1.71,1,1.87,1.59a23.84,23.84,0,0,1,.4,4.16C367.94,199.52,370.78,204.72,366.55,208.62Z"/><path class="cls-189" d="M218.22,31.58c2.46,1.21,3.05,3.34,2.7,6l.15-.15c-.89.11-1.79.19-2.69.24l-3.11-.24a18.83,18.83,0,0,0,.11-2.25l.08-1.27C217.24,34.24,217.8,33,218.22,31.58Z"/><path class="cls-190" d="M218.22,31.58c-.42,1.43-1,2.66-2.76,2.28a16.06,16.06,0,0,0-.09-2.4,4.66,4.66,0,0,0,.79-2.29Z"/><path class="cls-191" d="M237.61,40.39l-3,8.82-8.09-3c-.92,0-1.83,0-2.75,0a17.68,17.68,0,0,1-.06-2.91Z"/><path class="cls-192" d="M223.75,43.28a17.68,17.68,0,0,0,.06,2.91l-5.67-.07.18-5a5.79,5.79,0,0,1,2.7-.6Z"/><path class="cls-193" d="M221,40.53a5.79,5.79,0,0,0-2.7.6l.06-3.51c.9,0,1.8-.13,2.69-.24C221.06,38.43,221,39.48,221,40.53Z"/><path class="cls-194" d="M226.56,46.2l8.09,3c.9,1.08,1.8,2.15,2.69,3.23a4.93,4.93,0,0,1-.16,2.35l-5,2.69a18.5,18.5,0,0,1-2.66.37c0-2.64-.64-4.85-3.24-5.88a6.47,6.47,0,0,0,.06-2.63C226.4,48.3,226.48,47.25,226.56,46.2Z"/><path class="cls-39" d="M12,206.71l2.75-2.87c19.27-10,32.4,2.36,45,14.36,8.9,8.46,9.67,32.74,2.84,47.66-1.17,2.54-2.18,5.16-3.26,7.75l-14-.05c3.11-4.13,9.16-5.08,11.32-10.43-5.5-3.16-9.82,3.78-14.84.69,2.75-8.18,2.69-17.85,11.87-22.07,6.73-1.26,8-6,7.81-13.15-4.08,4-8.72,5.52-10.6,10.24-4.09-5.06-5.36-11.11-5.58-17.52.8-2.64,3.71-5.45,1.26-8-4-4.14-3.53,1.53-5.09,3-2.38,2.2-4.94.76-5.74-1.37-5.5-14.56-14.92-8.35-23.81-5.24Z"/><path class="cls-43" d="M90.07,224c4.18,1.6,7.6.42,10.41-3.07,1.44,2.44,3.66,3.23,6.24,3.28-1.7,6.8,12,13.62,0,20.4-7.64-3.18-10.54,3-15.21,7.18,5.18,3.3,8.57-3,13.72.18-6.29,5.79-2,16.25-9.64,21.64l-14-.07c-.72-13,3.71-24.1,10.92-34.33C96.6,233.41,97.74,227.92,90.07,224Z"/><path class="cls-171" d="M42.54,189.23c2.29-.07,4.38-.54,5.57-2.9,5.11-2.21,5.86-6.71,5.6-11.73l5.48,0c5.55,9.56,14,7.73,22.4,6.34v2.41c-1.3,3.83-4.92,4.88-7.56,7.16-3.68,3.16-1,4.15,2,4.57C63.79,205.64,49.5,203.14,42.54,189.23Z"/><path class="cls-195" d="M81.59,181c-8.37,1.39-16.85,3.22-22.4-6.34l2.91-.69c3.45,4.45,7.69-.16,11.42,1.08,4.78,5.21,11,1.24,16.32,2.74a4.45,4.45,0,0,1,0,2.84,3.63,3.63,0,0,0-2.68.31Z"/><path class="cls-196" d="M87.16,180.9a3.63,3.63,0,0,1,2.68-.31l-.21,29C84.62,200.43,88.29,190.44,87.16,180.9Z"/><path class="cls-84" d="M76.06,195.1c-3-.42-5.71-1.41-2-4.57,2.64-2.28,6.26-3.33,7.56-7.16C87.14,191.11,78.8,191.66,76.06,195.1Z"/><path class="cls-39" d="M106.69,244.65c12-6.78-1.67-13.6,0-20.4.8-5.06,1.87-9.95,6.94-12.91,2.29,3.07.42,7.9,4.2,9.94,6.73,1.21,9.06,8.13,13.93,11.77,1.86,9.35,9.06,4.51,14,5.77l5.5,0c7.38,1.16,15.24-2.47,22.24,2.47-10.38.17-20.76.25-31.14.56-3.63.11-9-1.7-7.77,5.78q-.27,12.92-.55,25.84a9,9,0,0,1-2.25-.23c0-4.81-.47-9.67.08-14.41.76-6.5-4.68-8.85-7.22-7C114.49,259.16,111.5,250.07,106.69,244.65Z"/><path class="cls-10" d="M106.69,244.65c4.81,5.42,7.8,14.51,18,7.15,2.54-1.84,8,.51,7.22,7-.55,4.74-.09,9.6-.08,14.41l-2.81.46c-.32-4.63,1.4-10.3-3.91-12.8-3.74-1.77-6.28,2.49-7.53,4.81-3.3,6.09,7,2.65,5.82,7.93l-27.8,0c7.65-5.39,3.35-15.85,9.64-21.64-5.15-3.2-8.54,3.12-13.72-.18C96.15,247.7,99.05,241.47,106.69,244.65Z"/><path class="cls-81" d="M45.34,221.32c.22,6.41,1.49,12.46,5.58,17.52l2.79,2.91c-9.18,4.22-9.12,13.89-11.87,22.07,5,3.09,9.34-3.85,14.84-.69-2.16,5.35-8.21,6.3-11.32,10.43l-2.84,0c-6.84-1.77-7.24-13.88-16.72-11.43l-5.54-5.76,2.78,0c3.85-.41,8.21,1.37,11.15-2.89,9.76-5.73,10.65-13.79,5.59-23.4,0-1,0-1.94,0-2.9Z"/><path class="cls-18" d="M45.34,221.32l-5.55,5.84c-3.08-5.34-10.79-.21-13.14-5.81-3.79-9-9.17-5.42-14.68-3,0-2.9,0-5.79,0-8.69,8.89-3.11,18.31-9.32,23.81,5.24.8,2.13,3.36,3.57,5.74,1.37,1.56-1.44,1.12-7.11,5.09-3C49.05,215.87,46.14,218.68,45.34,221.32Z"/><path class="cls-127" d="M12,218.36c5.51-2.43,10.89-6.06,14.68,3,2.35,5.6,10.06.47,13.14,5.81,0,1,0,1.93,0,2.9L37,233c-9.1-3.7-4.7,6.73-8.34,8.74H25.79l-5.55-5.84c.57-4,1.13-8.1,1.74-12.5l-10,3.79Z"/><path class="cls-127" d="M25.8,262.14c9.48-2.44,9.88,9.67,16.72,11.44l-27.91,0C14.57,265.69,16.46,259.91,25.8,262.14Z"/><path class="cls-62" d="M25.79,241.76h2.82c6.07,8.19-4.42,9.44-5.57,14.6l-2.78,0L12,250.57c0-2,0-3.92,0-5.88C17.23,247.15,21.75,245.71,25.79,241.76Z"/><path class="cls-67" d="M123.36,273.62c1.14-5.28-9.12-1.84-5.82-7.93,1.25-2.32,3.79-6.58,7.53-4.81,5.31,2.5,3.59,8.17,3.91,12.8Z"/><path class="cls-197" d="M12,250.57l8.28,5.82,5.54,5.76c-9.34-2.24-11.23,3.54-11.19,11.4C7.77,266.64,12.71,258.25,12,250.57Z"/><path class="cls-52" d="M25.79,241.76c-4,4-8.56,5.39-13.83,2.93q0-5.85.08-11.71l8.2,2.94Z"/><path class="cls-37" d="M20.24,235.92,12,233l0-5.77,10-3.79C21.37,227.82,20.81,231.87,20.24,235.92Z"/><path class="cls-198" d="M62.1,173.93l-2.91.69-5.48,0c.94-6.89,7.18-8.22,11.29-11.79l0-.08Q63.52,168.33,62.1,173.93Z"/><path class="cls-199" d="M62.1,173.93q1.42-5.6,2.86-11.2l5.43-2.93c-.59,8.5,8.75,8.5,11.24,14.37l-8.11.84C69.79,173.77,65.55,178.38,62.1,173.93Z"/><path class="cls-200" d="M207.07,31.59l3.09.24c.25,1.49.58,2.88,2.54,2.28,0,.52,0,1-.06,1.55a2.52,2.52,0,0,1,0,1.67l-5.59.11-2.56-2.76-.06-3Z"/><path class="cls-201" d="M204.44,31.66l.06,3-2.83-.32a20.09,20.09,0,0,0-.44-2.67Z"/><path class="cls-202" d="M215.37,31.46a16.06,16.06,0,0,1,.09,2.4l-.08,1.27-2.74.53c0-.51,0-1,.06-1.54,0-.76-.09-1.53-.11-2.29Z"/><path class="cls-203" d="M212.59,31.83c0,.76.06,1.53.11,2.29-2,.59-2.29-.8-2.54-2.29A2.31,2.31,0,0,1,212.59,31.83Z"/><path class="cls-204" d="M201.67,34.36l2.83.32,2.56,2.76c.07,1.31.13,2.63.2,4l-.18,4.81-2.79,2.9a9.67,9.67,0,0,0-2.46.2l-.69-.31c.36-6.13-5-6.68-8.25-9.38C195.14,36.63,200,38.37,201.67,34.36Z"/><path class="cls-205" d="M228.89,262.23c-3.55-.26-5.06-2.42-5.09-6a2.47,2.47,0,0,1,1.95-.44l3.67.49h0l0,3.14A8,8,0,0,1,228.89,262.23Z"/><path class="cls-206" d="M285.18,244.72q0,4.38,0,8.75c-4.71.72-10.13-2.11-13.93,3.08-.18,1.85-.35,3.71-.52,5.56l-5.43-2.64c-2.56-1.14-4.68-3.8-7.94-2.53l-2.86-.39-.17-1-16.15-4.64c-1.08-1.16-2.15-2.33-3.23-3.5,0-.9,0-1.79,0-2.68Z"/><path class="cls-207" d="M238.14,250.89l16.15,4.64-13.44,1.19C238.68,255.42,238,253.38,238.14,250.89Z"/><path class="cls-208" d="M229.42,256.31c.2-.4.41-.81.61-1.22l-.62,1.21Z"/><path class="cls-105" d="M271.21,256.55c3.8-5.19,9.22-2.36,13.93-3.08-.07,2.14-.15,4.27-.22,6.4-2.59-1.21-4.65-3.9-7.95-3.1Z"/><path class="cls-128" d="M312.82,218.24l8.22-9.12c7.86,12.2,13.86,24.83,11.67,40.39-.83,5.86-1,11.51-5.75,15.6-4.35-6.49-10.29.28-15.46-1.8.51-4.41,1-8.61,1.48-12.8,2.59-7.25,14.57-7,13-19.74-6.82,13.3-9.48,4.15-13-.71C312,226.14,318.17,222.08,312.82,218.24Z"/><path class="cls-209" d="M327.48,177.55l7.71,2.9c0,1.93,0,3.86,0,5.78l-7.95,0Q327.37,181.91,327.48,177.55Z"/><path class="cls-137" d="M313,230.06c3.49,4.86,6.15,14,13,.71,1.56,12.7-10.42,12.49-13,19.74h-2.8c0-1.94.05-3.87.07-5.81,4.62-4.1,2.09-9.69,2.76-14.61Z"/><path class="cls-84" d="M310.25,244.69c0,1.94-.05,3.87-.07,5.81l-5.53,2.93c-3.3-3.27,2.91-9-2.75-11.67l0-2.94v-2.9l2.77,0C310.32,236.16,310.27,240.44,310.25,244.69Z"/><path class="cls-210" d="M173.5,241.27c-7-4.94-14.86-1.31-22.24-2.47,2.48-5.31,3.79-11.38,8.91-15,3.89,1.29,7.17.14,10-2.76,3.93.17,7.8,3.21,11.78.23,1.25,5.12-3.39,12.71,5.57,14.61l2.85,2.9h22.26v2.5Z"/><path class="cls-211" d="M257.35,241.31c10.69-.2,8.81-13.85,16.67-17.08l5.55,0c.93,1,1.87,1.95,2.81,2.93.21,5.45,3.39,9.6,5.64,14.16Z"/><path class="cls-127" d="M243.37,238.81c-6.21.68-9-2.19-8.42-8.73,5.82-5.87,15.23-5.3,20.45-12.71,1-1.38,3.68,1.73,4.66,3.95-9.74,4.24.29,14.55-5.59,20l-5.61,0c-.9-4.42-1.8-8.84-2.71-13.35C238.68,230.24,244,235.24,243.37,238.81Z"/><path class="cls-18" d="M243.37,238.81c.67-3.57-4.69-8.57,2.78-10.9.91,4.51,1.81,8.93,2.71,13.35h-2.78Z"/><path class="cls-131" d="M312.82,218.24c5.35,3.84-.8,7.9.2,11.82v0l-8.33-2.92c-2.32.06-4.42.57-5.64,2.94-2.28-.08-4.35-.59-5.54-2.94,0-1,0-1.93,0-2.9,4.86-1.17,9.83-2,13.84-5.53Z"/><path class="cls-39" d="M293.5,227.16c1.19,2.35,3.26,2.86,5.54,2.94q1.43,2.91,2.83,5.82v2.9c-4.36.66-9,3-12.13-2.75C287.07,231.17,290.05,229.11,293.5,227.16Z"/><path class="cls-84" d="M282.38,227.18c-.94-1-1.88-2-2.81-2.93,3.48-6.93,7.42-11.53,13.92-3C288.65,220.91,286.22,225.51,282.38,227.18Z"/><path class="cls-127" d="M346.18,189.23l-.06-2.86c3.85-1.62,2.37-6.54,5.12-10.2C352.11,182.61,353.85,188.11,346.18,189.23Z"/><path class="cls-212" d="M307.74,212.66c-8.1-1.7-14.55-10.62-24.41-4.58,8.69-10,18.4-9.67,27.27-.58C311.08,210.09,310.73,212.18,307.74,212.66Z"/><path class="cls-213" d="M117.86,221.28c-3.78-2-1.91-6.87-4.2-9.94-5.07,3-6.14,7.85-6.94,12.91-2.58-.05-4.8-.84-6.24-3.28l0,.1c6.84-7.85,1.87-17.41,3.41-26,4.33,1.64,9.47,6.67,11.15-2.89,9.12,6.15,9.46,17.4,13.92,26.26C124.61,216.58,118.55,207.49,117.86,221.28Z"/><path class="cls-214" d="M117.8,163c-5.43-8.2,0-8.29,5.73-8.82,6.53-.61,8.94,3.76,11.06,8.84-5.63,7.15,6.65,16.67-2.81,23.32h0c-.08-2.48-.66-4.68-3-5.92.17-2.2.61-4.48-1.72-5.88l-4.43-8.24c1.63-.88,3.44-2.37,2.16-4.09C122.48,159,120.16,162.5,117.8,163Z"/><path class="cls-215" d="M103.91,195c-1.54,8.62,3.43,18.18-3.41,26a1.35,1.35,0,0,1,.19-1.84l.63-38.33-.38-.82,10.72-.05,14.44,1-11,5.32C104.84,180.13,103.3,186.07,103.91,195Z"/><path class="cls-62" d="M103.91,195c-.61-9,.93-14.91,11.14-8.69,0,1.94,0,3.87,0,5.8C113.38,201.71,108.24,196.68,103.91,195Z"/><path class="cls-170" d="M117.86,221.28c.69-13.79,6.75-4.7,11.12-2.87,2.69,4.51,3.1,9.5,2.81,14.64C126.92,229.41,124.59,222.49,117.86,221.28Z"/><path class="cls-216" d="M160.17,223.82c-5.12,3.6-6.43,9.67-8.91,15l-5.5,0c2.55-6.6,5.57-13.06,5.56-20.42l2.81,0c1.12,2.93,3,5,6.08,5.5Z"/><path class="cls-85" d="M131.78,186.29a8,8,0,0,1-.14,1.4c-.93,3.54-1.33,7.53-5.42,8.75-.51.16-2.24-1.66-2.26-2.6-.13-5.45,3.38-7.1,7.83-7.54Z"/><path class="cls-217" d="M126.1,181l-14.44-1a7.57,7.57,0,0,0,.7-2.14c4.94-1,11.07,3.69,14.73-3.39,2.33,1.4,1.89,3.68,1.72,5.88A9.34,9.34,0,0,0,126.1,181Z"/><path class="cls-218" d="M127.09,174.5c-3.66,7.08-9.79,2.43-14.73,3.39-.1-1.22-.19-2.44-.28-3.65l5.73-8.85,4.85.87Z"/><path class="cls-219" d="M101.32,173.84a42.32,42.32,0,0,1,0-27.82Q101.32,159.92,101.32,173.84Z"/><path class="cls-220" d="M112.08,174.24c.09,1.21.18,2.43.28,3.65a7.57,7.57,0,0,1-.7,2.14l-10.72.05c0-1.75,0-3.5.07-5.25Z"/><path class="cls-221" d="M122.66,166.26l-4.85-.87c0-.82,0-1.63,0-2.44,2.36-.45,4.68-3.93,7-.78C126.1,163.89,124.29,165.38,122.66,166.26Z"/><path class="cls-222" d="M187.81,162.83c-7.55.89-5.4,7-5.84,11.79l-11.15-2.91c.22-2.09,8.07-5.63-1-6-3.42-.12-5.64-2.21-7.21-5.21C171,161,179.79,157.24,187.81,162.83Z"/><path class="cls-223" d="M170.17,221.06c-2.83,2.9-6.11,4.05-10,2.76l0,.1q-.22-11.52-.47-23l0-2.93q.12-11.44.25-22.89l7.65.46,3.07,2.47c-3.8,11.59-4.68,23.19-.06,34.8a18.11,18.11,0,0,1,.23,2.75Z"/><path class="cls-224" d="M170.67,178l-3.07-2.47,3.22-3.8L182,174.62l3.09.15C181.14,180.17,175.31,176.11,170.67,178Z"/><path class="cls-188" d="M159.74,200.87q.24,11.52.47,23c-3.09-.54-5-2.57-6.08-5.5C160,214,153.74,205.27,159.74,200.87Z"/><path class="cls-225" d="M229.49,57.85a20,20,0,0,0,2.66-.36c0,1.13,0,2.25,0,3.38-3.43,2-2.63,5.52-2.83,8.68l-2.87.28-4.94-6c-.1-1-.21-2-.32-3l3-.38L227,58Z"/><path class="cls-226" d="M232.17,60.87c0-1.13,0-2.25,0-3.38,1.67-.91,3.35-1.8,5-2.7l.54,3.1C236.27,59.7,236.17,64.26,232.17,60.87Z"/><path class="cls-140" d="M299.1,180.51c2.3-5,6-7,11-5,3.77,1.54,2.37,5.53,3,8.6,1.44,7.62-5.14,5.85-8.34,8C304.87,187.19,304.2,182.67,299.1,180.51Z"/><path class="cls-227" d="M301.87,195.1c-4.79,5.17-7.69,2.29-11.1-3h11.06C301.85,193.1,301.86,194.1,301.87,195.1Z"/><path class="cls-228" d="M301.87,195.1c0-1,0-2,0-3l-2.73-11.59c5.1,2.16,5.77,6.68,5.62,11.63Z"/><path class="cls-229" d="M252.24,196.58c1.14-2.42-2.7-7.46,3.34-7.28,4.39.13,6.83,3.32,6.87,7.43s-2.09,7.19-6.8,7C250.18,203.56,251.87,199.79,252.24,196.58Z"/><path class="cls-230" d="M246.47,165.84a11.43,11.43,0,0,1,2.35.73A17,17,0,0,0,251.6,177C241.25,177.63,246.91,170.2,246.47,165.84Z"/><path class="cls-231" d="M218.18,187.39c-7.57-4.33-12.18-6.86-9.6-15.19C213.53,175.31,216.2,179,218.18,187.39Z"/><path class="cls-232" d="M200.7,221.07q.26-13,.5-26.06l3.07.05h0C202.72,203.68,207.83,213.29,200.7,221.07Z"/><path class="cls-74" d="M187.52,235.9c-9-1.9-4.32-9.49-5.57-14.61,1.12-1.47,4-2.85,3.51-.65C184.18,226.32,187.2,230.81,187.52,235.9Z"/><path class="cls-233" d="M212.63,238.81H190.37Q201.52,232.11,212.63,238.81Z"/><path class="cls-79" d="M204.27,195.06c.73-2.25-1.6-6.6,2.49-6.32,2.77.18,6.15,3.46,4.43,7s-4.56-.17-6.92-.64Z"/><path class="cls-234" d="M170.84,215.53a18.35,18.35,0,0,0-.23-2.76l20,.06a12.52,12.52,0,0,0-.28,2.66Z"/><path class="cls-235" d="M190.61,212.83l-20-.06c-4.62-11.6-3.74-23.2.06-34.79,4.64-1.87,10.47,2.19,14.39-3.21a4,4,0,0,1,2.69.32C194.91,187.16,195.43,199.77,190.61,212.83Zm-11.3-29.22c-14.9-2.8-7.14,8.63-8.29,14.46-.13,4.07-2.86,9.88,1.93,11.44S186,211.9,188.62,209c5.08-5.65,2.38-14.67,1.66-22S183.24,184.06,179.31,183.61Z"/><path class="cls-96" d="M89.68,160l.21,14.42-5.51-.31-2.79-8.28C86.71,167.61,84.75,158.57,89.68,160Z"/><path class="cls-236" d="M89.68,160c-4.93-1.46-3,7.58-8.09,5.83.38-6.27.43-12.74,8.1-14.58C89.68,154.2,89.68,157.11,89.68,160Z"/><path class="cls-237" d="M84.38,174.14l5.51.31c0,1.1,0,2.2,0,3.3-5.35-1.5-11.54,2.47-16.32-2.74l8.11-.84Z"/><path class="cls-238" d="M221.53,63.8l4.94,6c0,2.84.07,5.68.1,8.52-4.19,0-5.07-4.41-7.74-6.44a11.77,11.77,0,0,0-.81-2.29Z"/><path class="cls-217" d="M101.32,180.9l-.63,38.33C99,206.42,97.19,193.61,101.32,180.9Z"/><path class="cls-239" d="M201.54,81.23l-2.95-.31c0-1,0-2,0-3a19.66,19.66,0,0,1-.25-2.55,8.68,8.68,0,0,0,.61-2.47l1.1-.23,1.13,0C201.29,75.54,201.42,78.38,201.54,81.23Z"/><path class="cls-240" d="M198.31,75.36a21.59,21.59,0,0,0,.26,2.55l-5.61,0c.13-1,.26-2,.4-3,0,0,.51.14.51.14l.9-.1Z"/><path class="cls-191" d="M187.17,58c1.12-2,2.25-3.92,3.37-5.89l1.2.06,1.18-.22.82.45,1.89,2,.52,1a7.9,7.9,0,0,0,.13,2.7l-.62-.29-5.46.15a15.25,15.25,0,0,1-1.91-.19Z"/><path class="cls-241" d="M193.13,69.57c1-2.15,2-4.29,2.92-6.44l1.19.41,1.24-.06,2.85,2.57-2.45,3.51-3,.72Z"/><path class="cls-242" d="M193.13,69.57l2.7.71c0,.64,0,1.28,0,1.92l-1.06,2.71-.89.1a8.48,8.48,0,0,0-1.15-2.43C192.85,71.57,193,70.57,193.13,69.57Z"/><path class="cls-243" d="M198.48,63.48l-1.24.06-1.19-.41-.39-5.37.62.29a16.76,16.76,0,0,1,2.46-.16Z"/><path class="cls-244" d="M188.29,57.72a15.25,15.25,0,0,0,1.91.19c-.78.92-1.56,1.85-2.33,2.78Z"/><path class="cls-245" d="M198.87,49.15a15.65,15.65,0,0,0,2.27-.16l.69.31,2.45,2.36A20.35,20.35,0,0,0,207,52l2.83,0c1.16,2.47,3.41,2.68,5.62,3-.05.66-.09,1.31-.12,2a13.61,13.61,0,0,0-2.63.83l-2.74.13-2.87-.05-2.9-2.75-5.69-.51Z"/><path class="cls-246" d="M192.92,51.91l-1.18.22-1.2-.06-3.18-2.58c2.08.09,4-3.92,6.21-.26C193.34,50.12,193.12,51,192.92,51.91Z"/><path class="cls-247" d="M192.92,51.91c.2-.89.42-1.79.65-2.68l5.3-.08-.39,5.46a12.63,12.63,0,0,0-2.33.74s-.52-1-.51-1l-1.9-2Z"/><path class="cls-248" d="M201.54,81.23c-.12-2.85-.25-5.69-.38-8.54l3.06-.23,5.91,0,2.83.94-.12,13.76C207.8,87.83,205.58,82.62,201.54,81.23Z"/><path class="cls-249" d="M213,73.35l-2.84-.94-.42-3c.25-.93.45-1.86.61-2.81L218,69.62a11.77,11.77,0,0,1,.81,2.29c-.22,1.44-.45,2.88-.67,4.33Z"/><path class="cls-250" d="M218.38,37.62l-.06,3.51-.18,5,.08-.09-3-.14-2.35-2.14,0-3.82,2.57-2.45-.13-.11Z"/><path class="cls-251" d="M212.64,35.66l2.74-.53a18.83,18.83,0,0,1-.11,2.25l.13.11-2.83-.18.08,0A2.52,2.52,0,0,0,212.64,35.66Z"/><path class="cls-252" d="M226.56,46.2c-.08,1-.16,2.1-.25,3.14-.68.81-1.37,1.61-2.05,2.41l-3,.15L218,48.77a27.42,27.42,0,0,0,.26-2.73l-.08.09,5.67.06C224.73,46.17,225.64,46.17,226.56,46.2Z"/><path class="cls-253" d="M221.21,51.89l3-.14c.67.09,1.33.16,2,.22,2.6,1,3.28,3.24,3.24,5.88L227,58l-2.93-2.81-3.17-.23Z"/><path class="cls-254" d="M226.25,52c-.67-.06-1.33-.13-2-.22.69-.8,1.38-1.6,2.06-2.41A6.47,6.47,0,0,1,226.25,52Z"/><path class="cls-255" d="M53.71,241.75l-2.79-2.91c1.88-4.72,6.52-6.22,10.6-10.24C61.67,235.72,60.44,240.49,53.71,241.75Z"/><path class="cls-79" d="M37,233l2.79-2.94c5.06,9.61,4.17,17.67-5.59,23.4.1-3.91,2.73-7.81,0-11.71C35.12,238.83,36.06,235.92,37,233Z"/><path class="cls-256" d="M34.18,241.75c2.74,3.9.11,7.8,0,11.71-2.94,4.26-7.3,2.48-11.15,2.89,1.15-5.16,11.64-6.41,5.57-14.6h5.57Z"/><path class="cls-81" d="M34.18,241.75H28.65c3.64-2-.76-12.44,8.34-8.74C36.06,235.92,35.12,238.83,34.18,241.75Z"/><path class="cls-257" d="M212.83,39.94l0,3.81c0,.66,0,1.32,0,2l-3.1.41.14.12c.16-2.24.13-4.38-2.65-4.87-.07-1.32-.13-2.64-.2-4l5.59-.11-.08,0A12.22,12.22,0,0,1,212.83,39.94Z"/><path class="cls-258" d="M207.26,41.39c2.78.49,2.81,2.63,2.65,4.87l-2.9-.13.07.07Z"/><path class="cls-259" d="M207,52a22.13,22.13,0,0,1-2.7-.34c0-.86,0-1.71,0-2.57l2.79-2.9-.07-.07Z"/><path class="cls-260" d="M204.29,49.1c0,.86,0,1.71,0,2.57l-2.45-2.37A9.67,9.67,0,0,1,204.29,49.1Z"/><path class="cls-261" d="M304.68,227.16l8.33,2.92c-.67,4.92,1.86,10.51-2.76,14.61,0-4.25.07-8.53-5.61-8.79A8,8,0,0,0,304.68,227.16Z"/><path class="cls-152" d="M304.68,227.16a8,8,0,0,1,0,8.74l-2.77,0Q300.46,233,299,230.1C300.26,227.73,302.36,227.22,304.68,227.16Z"/><path class="cls-262" d="M218,69.62l-7.71-3.05-1.09.29a4.74,4.74,0,0,0,.12-2.79c.26-1.16.52-2.31.79-3.47l2.55-2.81a13.61,13.61,0,0,1,2.63-.83l5.9,3.87c.11,1,.22,2,.32,3Z"/><path class="cls-263" d="M221.21,60.83,215.31,57c0-.66.07-1.31.12-2h1.39l1.39-.07h1.36l1.37,0,3.17.23c0,1.77.09,3.54.13,5.31Z"/><path class="cls-264" d="M224.24,60.45c0-1.77-.09-3.54-.13-5.31L227,58Z"/><path class="cls-95" d="M171,198.07c1.15-5.83-6.61-17.26,8.28-14.46,5.37,6.39,11,15,5.31,21.63C179.15,211.56,176.12,199.84,171,198.07Z"/><path class="cls-265" d="M171,198.07c5.1,1.77,8.13,13.49,13.59,7.17,5.7-6.62.06-15.24-5.31-21.63,3.94.45,10.26-4.05,11,3.35s3.42,16.38-1.66,22c-2.61,2.91-10.76,2.12-15.67.52S170.89,202.14,171,198.07Z"/><path class="cls-266" d="M204.22,72.46l-3.06.23-1.13,0-1.1.23-3.11-.69c0-.64,0-1.28,0-1.92l3-.72,5.22-.13C204.14,70.44,204.18,71.45,204.22,72.46Z"/><path class="cls-267" d="M195.82,72.2l3.11.69a8.68,8.68,0,0,1-.61,2.47l-3.55-.45Z"/><path class="cls-268" d="M196.15,55.35a12.63,12.63,0,0,1,2.33-.74l5.7.51L201.35,58a17.53,17.53,0,0,0-2.61-.1,16.76,16.76,0,0,0-2.46.16A7.9,7.9,0,0,1,196.15,55.35Z"/><path class="cls-149" d="M193.74,52.36l1.9,2Z"/><path class="cls-269" d="M198.74,57.89a17.53,17.53,0,0,1,2.61.1l3,2.91c.11,1.69.21,3.37.32,5.05l-.61,1-2.75-.86-2.85-2.57C198.57,61.62,198.65,59.75,198.74,57.89Z"/><path class="cls-270" d="M201.33,66.05l2.75.86a4.25,4.25,0,0,1,0,2.52l-5.22.13Z"/><path class="cls-271" d="M207,52l0-5.88,2.9.13-.14-.12,2.87,3a27.13,27.13,0,0,0,.09,2.85l-2.92.08Z"/><path class="cls-272" d="M204.37,60.91c-1-1-2-1.95-3-2.92l2.83-2.87,2.89,2.75c0,1,0,2,0,3A8.38,8.38,0,0,0,204.37,60.91Z"/><path class="cls-273" d="M209.81,52l2.91-.07L214,52l1.31,0,2.87,3-1.39.07h-1.39C213.22,54.72,211,54.51,209.81,52Z"/><path class="cls-274" d="M207.06,60.86c0-1,0-2,0-3l2.87.05a12.68,12.68,0,0,0,.19,2.68c-.27,1.16-.53,2.31-.79,3.47Z"/><path class="cls-275" d="M210.13,60.6a12.68,12.68,0,0,1-.19-2.68l2.74-.13Z"/><path class="cls-276" d="M204.09,69.43a4.25,4.25,0,0,0,0-2.52s.61-1,.6-1a5.12,5.12,0,0,0,2.55.67l2.47,2.76.42,3-5.9,0C204.18,71.45,204.14,70.44,204.09,69.43Z"/><path class="cls-187" d="M209.7,69.38l-2.47-2.76c.66.09,1.33.17,2,.24l1.09-.29C210.15,67.52,210,68.45,209.7,69.38Z"/><path class="cls-277" d="M218.22,46a27.42,27.42,0,0,1-.26,2.73,6.23,6.23,0,0,1-2.53.34c0-1,0-2,0-2.92l-.21-.29Z"/><path class="cls-278" d="M212.83,39.94a12.22,12.22,0,0,0-.26-2.63l2.83.18Z"/><path class="cls-279" d="M212.87,45.73c0-.66,0-1.32,0-2l2.35,2.15.21.29c-.91,0-1.83,0-2.74,0Z"/><path class="cls-280" d="M215.43,49.11a6.23,6.23,0,0,0,2.53-.34l3.25,3.13-.27,3-1.37,0h-1.36l-2.86-3C215.42,51,215.45,50.07,215.43,49.11Z"/><path class="cls-281" d="M212.64,49.11l-2.87-3,3.1-.41-.19.43C212.66,47.14,212.65,48.13,212.64,49.11Z"/><path class="cls-282" d="M209.22,66.86c-.66-.07-1.33-.15-2-.24a5.12,5.12,0,0,1-2.55-.67c-.1-1.68-.2-3.36-.31-5.05a8.67,8.67,0,0,1,2.69,0l2.28,3.21A4.74,4.74,0,0,1,209.22,66.86Z"/><path class="cls-283" d="M212.64,49.11c0-1,0-2,0-3,.91,0,1.83,0,2.74,0,0,1,0,2,0,2.92s0,1.91-.08,2.86c0,0-1.32,0-1.32,0l-1.31,0C212.65,51,212.62,50.06,212.64,49.11Z"/></svg>