<svg id="圖層_1" data-name="圖層 1" xmlns="http://www.w3.org/2000/svg" viewBox="0 0 393.12 516.51"><defs><style>.cls-1{fill:#d22a35;}.cls-2{fill:#d53c43;}.cls-3{fill:#f6e0e0;}</style></defs><title>濃奶2</title><path class="cls-1" d="M393.06,278.82q0,117.35.06,234.69c0,2.45-.55,3-3,3q-105.25-.12-210.53-.06c-.11-3.08-3.24-3.81-4.62-5.91-.55-.84-1.34-2.18-2.5-1.11s-.3,2.26.75,3.21c1.33,1.19,3.26,1.8,3.76,3.81H150.21c-1-2.25-2.41-4.21-3.14-6.67-1.64-5.45-3.1-6-8.9-4.71-1.61.35-3.34.69-4.74-.37-2.09-1.58-3.78-2.07-5.88.18a2.52,2.52,0,0,1-4-.21c-1-1.45-.32-2.57.74-3.74,1.65-1.82,3.06-3.89,5.45-.78.54.7,1.73,1.5,2.6,1,2.27-1.24,4.89,3.67,6.95-.48.16-.32,1.15.41,1.49,1,.8,1.32,1.8,1.11,3.09.78,2.84-.72,5.35-2.47,8.39-2.53,1.22,0,3.12-1,3.19.84.06,1.55,0,4.2-2.35,4.42-3.13.3-2.81,2.44-3.08,4.42-.12.93-.08,1.87,1.11,1.94s1.45-.74,1.43-1.74-.8-2.51.74-2.73c1.77-.25,1.3,1.61,1.67,2.62a5,5,0,0,0,3.17,3.08c1.37.46,2.17-.79,2.89-1.7,1.39-1.74,1.08-3.68.32-5.57s-.91-3.44.86-4.66c1.57-1.07,2.75,0,4.11.8,2.3,1.37,5,2.11,6.12,5.17.36-.71.51-1.2.33-1.5-1.23-2.1-.54-3.18,1.73-3.62a3.92,3.92,0,0,0,3-2.73c.42-1.11.84-2.5,2.37-2.22s1.55,1.61,1.73,2.83c.12.79,0,1.83,1.51,1.8a12.54,12.54,0,0,0,.39-1.49c.2-1.61.24-4,1.85-4.1,1.83-.09,2,2.44,2.62,4,.33.81-.27,2.3,1.14,2.32,1.18,0,1.62-1.22,2.12-2.22,1.8-3.58,2-7.52,2.58-11.37,2.51,1.41,4.77,3.45,8,3.28-.77,1.72,0,3.42.06,5.13.11,2.81,2,3,3.88,2.35a28.53,28.53,0,0,0,5.35-3,2.09,2.09,0,0,0,.9-2c0-2.78,1.91-4,4.55-2.88,1.08.46,2,1.35,3.2,1.54,6.28.93,12.47,2.51,18.92.43a13.27,13.27,0,0,1,7.34,0c5.5,1.57,11.12.87,16.66,1.41,2.6.26,5.45-.06,6.5-3.52.41-1.35,2.06-2.18,3.37-2.34,2.79-.34,5-2.1,7.58-2.76,2.77-.71,5.46-1.74,8.5-1.25,4.05.66,10.1-1.48,11.27-6.57.67-2.93-.67-5.59.15-8.25,1.95-6.31,1.22-12.92,2.37-19.31.78-4.39-1-7.51-4.9-9.67-2.81-1.56-5.68-1.07-8.57-.74-9.34,1.09-18.64,2.7-28.1,2.12-2.76-.17-5.39-.75-7.16-3.22-1.36-1.92-.64-4.09,1.39-3.57,3.74.95,5.47-2.94,9-2.79,2,.09,4.54-1.42,7-1.64.6-.05,1.7-.51,1.68-.73-.16-2.87,3-5.34.89-8.48-1.82-2.68-.81-4.94,1.61-6.72,1.46-1.07,1.67-2.19.28-3.46l0-.93a5,5,0,0,0-.57-1.49c-1.38-1.74-3.47-2.09-5.44-2.67-.8-.24-1.87-.46-1.75-1.58.1-.89,1.11-.88,1.79-1.18a22.19,22.19,0,0,0,4.65-2.24c1.33-1,2.76-2.49.42-4.09-1.76-.1-2.61-3.49-5-1.37-1-1.62.86-2,1.63-3-1.51-.58-2.69-1.16-3.93-1.49s-2.66-.13-3.79-.64c-2.15-1-3.26-.54-3.7,1.8-.36,1.87-1.55,1.87-2.9,1a6.88,6.88,0,0,1-2.32-1.74c-1.54-2.4-3.84-1.67-5.52-.95-1.41.6-4.54.4-3.53,3.68.2.66-.38,1-1,1-2.52-.35-4.58,1-6.8,1.77-1.74.59-2.91.5-3.42-1.57-.69-2.78-2.61-3.5-5.24-2.93-1.78.38-3.55,1.09-5.31-.2-.75-.55-1.38.15-2,.55-2.34,1.44-7.38.77-9.34-1.21-1-1.05-6.38-1.71-7-.75-3,4.69-5.58,9.55-5.61,15.4,0,4-.37,8.05-.58,12.08l-.21.14-.94.06,0-.24.22-.12-.27-1.1-.7,0a3.87,3.87,0,0,1,0-4,3.65,3.65,0,0,0,.27-3.45c-.88-2.18-.53-4.48-.82-6.71-.71-5.55,1.8-11.12,0-16.55-.83-2.53.11-4.8.39-7,.52-4,3.73-1.08,5.75-1.32l.33,0c4.46-.5,8.92-1.19,13.38.11a1.42,1.42,0,0,0,1.19-.34c2-1.92,4.59-1.79,7-2.35.94-.22,2.24-.12,2.59-1.1.91-2.52,2.92-2.73,5.12-3.24,4.16-1,8.59-.48,12.55-2.63a7,7,0,0,1,6-.23,2.87,2.87,0,0,0,3.1-.44c2.75-2.85,5.84-3.91,9.35-2.08,1.12-1.4-1.85-2.9.47-3.54,4-1.09,7.52-3.43,11.53-4.39a13.48,13.48,0,0,0,5.72-2.69,19.12,19.12,0,0,1,4.84-3.25,53.82,53.82,0,0,0,13.44-8.36c4.37-3.53,9.83-5.83,13.13-10.68a1.2,1.2,0,0,1,.79-.54c2.66.07,3.14-2,4-3.84a5.69,5.69,0,0,1,1.39-1.77,6.31,6.31,0,0,0-.11-9.19c-4.74-4.26-9.57-8.39-13.36-13.64a102.92,102.92,0,0,0-8.35-9.51c-1.7-1.81-4.2-1.57-4.68.57-1.09,4.87-1.72,9.83-3.6,14.54-.54,1.34-.44,3.07-1.34,4.29-3.81,5.19-4.3,11.81-7.62,17.27-1.45,2.4-3.17,4.6-4.76,6.87a5.57,5.57,0,0,1-5.1,2.42c-3.13-.4-6.58,1.26-9.4-1.5A4.32,4.32,0,0,0,258,339a10.72,10.72,0,0,1-6.59-2.46,3.17,3.17,0,0,0-2.74-.74l0,0c-.2-2.4-2.45-2.49-3.92-3.41-4.75-3-7.44-5-5.32-11.85a40.47,40.47,0,0,0,1.58-15.08c-.09-1.2,0-2.46-1.45-2.94v0l-.66-.69v0c-2-3-3.8-6.1-6.91-8.21-1.46-1-3.18-2.37-2.33-4.55a39,39,0,0,1,2.86-5.42c2.08-3.59,5.35-5.51,9.2-6.77,1.3-.42,3.59-.74,3.18-2.58-.58-2.63,1.17-3.06,2.66-3.66,1.73-.7,3.12.26,4.26,1.6.51.59.41,1.71,1.66,1.87,0-1.58-.08-3,1.82-3.72,4-1.57,8.46-2.58,10.75-6.91a1.83,1.83,0,0,1,1.07-.6c2.74-.71,3.95-3.54,6.47-4.6a1.83,1.83,0,0,0,.66-2.35c-1-2.06-.11-3.27,1.57-4.29a3.82,3.82,0,0,0,1.62-1.95c1.64-4.12,3.12-4.73,7.14-3.08,4.4,1.81,13.51.45,16.08-3.28,1.9-2.77,3.62-2.46,6-1.74a2.52,2.52,0,0,0,2.15-.16c1.31-.71,3.07-1.06,3.61.69.31,1,1.88,3.74-1.68,3.32-.81-.1-1,.67-1.15,1.33-.34,1.74-1.76,2.83-2.93,3.74-6.53,5-7.34,7.5-4.35,15,1,2.5,5.63,5.23,7.45,3.91,3.48-2.53,7.66-4.17,10.38-7.7s6.35-4.69,10.48-5.1a4.23,4.23,0,0,1,4.6,2.88,7,7,0,0,0,3.11,3.55,7.85,7.85,0,0,1,2.89,10.19,12.23,12.23,0,0,0-1,2.4c-2,9.23-6.87,9.64-14.28,11.66-1.79,1.38-1.89,1.47-.81,3s2.3,2.76,3.47,4.13c-1,1.75.24,3.53-.1,5.28l0,0c2.11-.08,3.3,1.3,4.56,2.71,2.53,2.83,4.93,2.57,7.87.17,3.67-3,4.35-7.62,6.84-11.23,1.23-1.79,3.35-3.12,3.79-5.19,1-4.51,4.57-7.75,5.46-12.32.48-2.5,1.8-4.86,2.89-7.22,4.67-10.12,7.2-20.91,9.6-31.7a90.2,90.2,0,0,0,1.35-27.31c-.81-9.7-1.35-19.42-2.64-29.07-.33-2.46-.86-4.9-1.38-7.34a3.27,3.27,0,0,0-2.47-2.75l-.08-1.19c1.27-2.14.37-4.33-.3-6.26-3.81-11-7.91-22-13.9-32.07-1.25-2.12-2.94-4.56-1.49-7.47.3-.6.07-2.06-.51-2-4.24.41-4.28-3.68-6.36-5.55-1.75-1.58-2.63-4.43-5.64-4.41l-.21-.08v-.22c-1.29-3-.79-7-3.63-8.9a11.91,11.91,0,0,1-5.36-7.91c-.16-.7-.94-1.33-.36-2.08s1.4-.38,2.09-.08a6.66,6.66,0,0,0,4.14.18c9.45-1.89,18.9-3.61,28.61-3.55,2.09,0,5.3.17,6.34-1.73,2.94-5.32,6.14-10.6,5.12-17.35-1.3-8.58-1-17.34-.51-25.95a64.78,64.78,0,0,0-2.88-22.21,2.33,2.33,0,0,0-1.8-1.72c-7.36-1.59-14.67-3.57-22.11-4.55A18.9,18.9,0,0,0,334,15.46c2.92,1.92,6.08,0,8.79,1.73-1.7.79-3.12.35-4.5.47-1.76.17-3.7-1-5.26.7a18.72,18.72,0,0,1-3.56.25c-7.5-.82-8.66.19-8.67,7.72a22,22,0,0,0-.17,2.9c1.5,11-.69,22,.52,33,.87,7.91.59,15.94.82,23.92-1.42,2.15-2.93,1.53-4.49.17-2-1.74-3.94-3.51-6.77-3.69l-.19-.12-1-.81-.05,0c-.59-1.56-2-2.18-3.29-3s-3.25-1.54-3.91-2.81c-3.36-6.51-9.38-10.14-15.56-12.37a85.9,85.9,0,0,1-18.39-9.65c-2.43-1.61-2.11.73-2.69,1.81-1.11.51-4.54,6.89-4.08,8,1.94,4.59.27,8.92-.73,13.31-.42,1.81-.89,4,.15,5.35s2.88-.06,4.4-.27c4.35-.59,8.55-1.88,12.85-2.61,6.74-1.13,13.31.61,19.82,1.93,2.62.54,5.78,1.07,7,4.28a.5.5,0,0,0,.28.47.31.31,0,0,1,.34.22,3.91,3.91,0,0,0,2.61,3l.08.1q.3,5.07.62,10.13c.39,2.35-.38,4.64-.63,6.92-.67,6.13-2.8,12-4.2,18-1.21,5.19-4,10.24-6.37,15.25-.63-.44-.48-1.58-1.71-1.91.16,4.63.37,9.08-2.21,13.17,1.51-1.35,4.17-.88,4.51-3.42l.09-.07.24,0,.25,0c1.27,1.14,1.93,2.16-.46,2.69s-3.8,2.43-5.12,4.26a7.76,7.76,0,0,1-2,1.91c-5.42,3.91-11.93,5.8-17.33,9.84C269,170,263.27,173,258,176.47c-7.51,4.93-14.37,10.91-22.91,14.19-5.8,1.3-9.5,5.73-13.47,9.51-3.28,3.14-6.42,5.84-11.22,5.62-.87-1.82-3-.82-4.22-1.89.32-1.84-1.11-3-1.78-4.41-2.77-6-7.81-11.06-6.77-18.42.17-1.21-.92-1.55-1.75-2.07-2.93-1.82-6.65-3.31-8.51-5.67-2.29-2.92-6-4.92-7-8.84-.75-3-3.25-4.47-5.22-6.42-.51-.51-1.31-.68-1.48-1.61-.44-2.43-2.06-3.53-4.46-3.6-1.58-.85-.9-2.92-2.15-4,.07-1.92.42-3.72-.13-5.75-1.73-6.37-3.24-12.82-2.1-19.55.49-2.88.77-5.8,1.09-8.72a7.53,7.53,0,0,1,2.12-4.26c3.18-3.63,7.24-3.92,11.62-3.57,7.27.6,10.28-2.48,10.34-9.79.06-9.6-.11-19.23,3.6-28.44.91-2.27,1.86-4.83,1.1-7.56a2.19,2.19,0,0,1,1.51-2.88c4.71-1.17,9.39-2.76,14.38-1.64a3.58,3.58,0,0,1,2.7,1.57c2.81,4.89,4.77,10.29,4.6,15.77-.19,6.2.55,12.34.3,18.51,0,1.28-.24,2.7,1.46,3.22,1.15,3.8,4,1.93,5.45,1a29.89,29.89,0,0,1,11-3.92c2-.37,2.58-1.46,3.8-2.65,3.37-3.28,3.26-6.64,1.77-10.54-.28-.72.13-1.7.22-2.56A62.15,62.15,0,0,1,246.12,60a14.6,14.6,0,0,0,.93-4.78c.19-4.53-1.7-6.63-5.16-6l-14-2.09c1-1.49-.23-1.21-1-1.42-4.41-1.16-8.88-.36-13.31-.46-13.47-.28-26.91-.68-40,3.86-4.18,1.44-8.31,3.16-12.61,4.24-5.35,1.35-10.71,2.6-15.48,5.56-.76.47-1.81.86-2.48.37-1.61-1.17-2.54-.5-3.51.78-.43.58-1.16.4-1.8.51-1.32.24-4.39-2.39-3.44,2,0,.16-.62.57-1,.71-6.58,2.37-12,6.64-17.36,10.89a17.27,17.27,0,0,1-4.16,2.35c-3.16,1.34-7,1.66-8.77,5.43-.79,1.64-2.55,1.86-4.29,1.06-1-.46-2.41-1-3,0-1.87,3-6.38,2.67-7.39,6.79-.75-1.36-1.23-2.63-.74-3.24,1.81-2.26.59-4.17-.09-6.34C85.19,73.29,85,66.62,90.16,60.81c.41-.46.7-.7.32-1.31-2-3.22-.14-3.67,2.59-3.68a27.15,27.15,0,0,1,4.85.25c1.26.23,3.23.65,3.72-.34,1.23-2.49,2.75-.81,4.13-.72a2.25,2.25,0,0,1,2.2,2.05c.2,1.43-.94,1.95-2,2.15-2.09.4-2.85,1.76-3.09,3.65-.12,1,.29,1.69,1.24,1.11,2.27-1.38,4.2.3,6.27.52s2.22,1.57,1.31,3.08c-.45.75-1.24,1.29-.46,2.24a1.44,1.44,0,0,0,1.47.5c1-.21,1.3-1,1.51-1.9,1.38-6,1.39-6,6.22-2.85.71.47,1.58,1,2.39.37s.15-1.42,0-2.12c-.47-1.7-1.38-2.9-3.32-3.11A23.46,23.46,0,0,1,116,60a1.88,1.88,0,0,1-1.5-2.2c.16-1.28,1.09-1.46,2.17-1.4a29,29,0,0,0,5.17.18c2.27-.29,4.7-.3,7.32-1.67-4.58-1.19-4.71-1.48-2.57-5a4.53,4.53,0,0,0,.76-2.1l0,0c1.85-.68,3.79-1.41,4.72-3.23,1.06-2.08,2.49-2.09,4.34-1.47,1,.33,2.05,1,3.08.08,1.47-1.26.74-7.16-1-8.39-.55.94.28,1.64.42,2.45a4.26,4.26,0,0,1-1.74,4,1.7,1.7,0,0,1-2.39-.19c-1.34-1.35.46-2.3.64-3.48.1-.7,1.14-1.29.54-2s-1.47-.2-2.07.17c-1.59,1-2.5.35-2.92-1.18-.6-2.14-1-4.35-1.61-6.47a1.92,1.92,0,0,1,.58-2.32,9.46,9.46,0,0,0,2.89-4.93c.7-2.21,3-2.38,4.57-1.49.89.49,4.35,1.38,1.26,3.83-1,.81-.29,1.56.63,1.93,2.2.9,4,1.7,6.47-.45s4.56-5.15,3.73-8.29c-.24-.92-6.21-4.84-7.31-4.87A2.52,2.52,0,0,0,140,12.58c-.49.64-1.07,1.13-1.93.75a2.26,2.26,0,0,1-1.38-2.05c-.06-.65.7-1.46-.3-2-.81.42-.78,1.27-1.11,1.92-.45.88-.42,2.39-2.1,1.76-1.47-.55-1.44-1.65-1-2.94a9,9,0,0,0,.44-4.49C131.29,7,130,6.91,128.52,6.92c-1.67,0-3.41,1.14-3.63,2.69-.18,1.31,1.72.68,2.68,1,.53.16,1.16.25,1.2.89s-.55.83-1.11,1a7.15,7.15,0,0,0-1.87.49c-4.29,2.27-6,2-9.56-1.52,5-1.86,5-1.86,4.44-4.93-.29.18-.67.28-.79.51-1.12,2.17-2.64,1.24-3.72.23-1.47-1.38.4-2.07,1.11-2.66,1.45-1.23,2.83-2.39,2.91-4.47q135,0,269.94-.06c2.45,0,3,.55,3,3q-.11,132.69-.06,265.37c-1.29,1.48-2.38,7.84-1.49,9.38C391.85,278.23,392.55,278.47,393.06,278.82ZM265.25,289.7a1,1,0,0,0-1.24,1l-.14.13c-3.73.43-5,1.59-4.89,4.55l0,.07c-.8.45-1,.84.12,1.08l.18.05,0,.18a6.34,6.34,0,0,0-.31,2.19,42.25,42.25,0,0,1,.51,15.41,2.63,2.63,0,0,0,1.87,3c1.39.66,2.4-.42,3.1-1.11a151,151,0,0,0,13.35-15.12,3,3,0,0,0,0-3.61c-2.54-3.71-4.38-7.95-8.1-10.77-2.63-.91-3.71.49-4.18,2.8A.2.2,0,0,1,265.25,289.7ZM218.51,151.05c-.13-1.1-.57-1.76-1.82-1.28-1.41,1-1.12,2.58-.95,3.84.68,5.28.49,10.57.5,15.86.23,1.48,1.27,1.83,2.56,1.86,2.88.08,8.17-3.36,9.19-6.07.54-1.4,1.11-2.92-.81-3.85l0,0c-.59-2-.87-4.3-3.39-5l0,0c-.68-2.79-2.78-4.17-5.2-5.23ZM181,133.27c.07,1.12-1.32,2.58,0,3.24s2.49-.68,3.46-1.76c1.72-1.91,2.85-4.39,4.45-6.15,2.78-3.06,1.93-5.52.54-8.42a3.85,3.85,0,0,0-3.94.33C182.25,122.59,180.19,128.14,181,133.27Zm70.36,11.12c-.6.16-1.72.27-1.74.49-.26,2.63-2.75,3.88-3.61,6a59.35,59.35,0,0,1-2.51,5.92c-.42.8-.95,1.67-.5,2.43.64,1.05,1.57.1,2.32-.09,3.79-1,6.73-3.7,10.4-5,6.33-2.25,6.39-2.51,1.12-6.63C255.27,146.29,254.06,144,251.39,144.39Zm-26.21-17.85c1.63,1.44,1.85-.44,2.09-.91,1.72-3.45,1.91-7.29,2.42-11a1.31,1.31,0,0,0-2.45-.71,7.37,7.37,0,0,1-3.12,2.8c-2.91,1.45-3.55,3.49-2.84,6.6C221.84,125.71,220.8,129.23,225.18,126.54Zm39-27.54c-1.89.8-4.64,1.33-5.27,3.43-1,3.38-1.1,7-1.53,10.59,0,.34.17,1,.4,1a1.43,1.43,0,0,0,1.18-.27c4.07-3.15,6.11-7.51,7.11-12.42C266.33,100.13,266.72,98.48,264.19,99ZM142.7,8.59c-.25-1-.8-1.62-1.78-1.57a2.07,2.07,0,0,0-2.2,1.89c-.1,1.11.67,1.52,1.66,1.35S142.54,10,142.7,8.59Zm-42,70.52c0-.73-.46-1-1.07-1-1,.16-1.91.58-1.9,1.81,0,.58.33,1.19,1,1A3.19,3.19,0,0,0,100.72,79.11Zm141.2-31.65c-.14-.61-.5-.82-.93-.73-.23.05-.57.39-.55.57a.72.72,0,0,0,.89.62C241.56,47.89,241.75,47.6,241.92,47.46ZM239,46.05l-.21-.5c-.17.09-.4.13-.49.27s-.16.6.27.6C238.71,46.42,238.85,46.18,239,46.05Z"/><path class="cls-2" d="M275.51,411.9c1.39,1.27,1.18,2.39-.28,3.46-2.42,1.78-3.43,4-1.61,6.72,2.13,3.14-1.05,5.61-.89,8.48,0,.22-1.08.68-1.68.73-2.47.22-5,1.73-7,1.64-3.57-.15-5.3,3.74-9,2.79-2-.52-2.75,1.65-1.39,3.57,1.77,2.47,4.4,3,7.16,3.22,9.46.58,18.76-1,28.1-2.12,2.89-.33,5.76-.82,8.57.74,3.87,2.16,5.68,5.28,4.9,9.67-1.15,6.39-.42,13-2.37,19.31-.82,2.66.52,5.32-.15,8.25-1.17,5.09-7.22,7.23-11.27,6.57-3-.49-5.73.54-8.5,1.25-2.6.66-4.79,2.42-7.58,2.76-1.31.16-3,1-3.37,2.34-1.05,3.46-3.9,3.78-6.5,3.52-5.54-.54-11.16.16-16.66-1.41a13.27,13.27,0,0,0-7.34,0c-6.45,2.08-12.64.5-18.92-.43-1.25-.19-2.12-1.08-3.2-1.54-2.64-1.13-4.58.1-4.55,2.88a2.09,2.09,0,0,1-.9,2,28.53,28.53,0,0,1-5.35,3c-1.83.63-3.77.46-3.88-2.35-.06-1.71-.83-3.41-.06-5.13,2.85-1,5.71-1.85,8.22-3.72a6.47,6.47,0,0,1,9,.58c2.17,2.07,4.66,2.49,7.45,2.53,6.15.09,10.91-3.15,15.68-6.35,3.15-2.1,3.58-2,4.16,1.51a6.4,6.4,0,0,0,4.2,5,4.2,4.2,0,0,0,5.18-1.64c1.18-1.68,2.1-.21,3,.17,4.29,1.78,7.6,1,10.27-2.79,2.83-4,6.71-5.73,11.53-5.78,3.85,0,7.66.24,11.57-.2s4.65-2.19,5.14-5.48c1.28-8.73,1.36-17.61,3.36-26.25.59-2.56-2.21-6.48-4.48-6.44-5.41.11-10.85-.06-16.2.57-7.35.86-14.72.74-22.06,1.21a3.08,3.08,0,0,1-3.25-1.48,14.55,14.55,0,0,0-8.4-6.28c2.11-1,4.54-1.37,6.4-2.94.64-.53,1-1.24.55-2s-1.2-.14-1.72.14c-3.71,2-7.79,1.87-11.85,2.22-.06,1.41.48,2.27,2,2.06a3.18,3.18,0,0,1,2.74.53c-6,1.48-10.77,5.32-16,8.49-1.3-6.53-2.57-7.94-7.94-8.11-4.85-.15-9.47.71-13.41,4-1.56,1.29-2.91,2.95-5,3.58a15.15,15.15,0,0,1-1.53-9.77c.84-4.41-.71-5.86-5.09-4.74a11.53,11.53,0,0,1-11-2.65A2.75,2.75,0,0,1,183,425c.28-1.45.55-3.14-1.4-3.33-1.71-.17-2.13,1.57-2.53,2.92q-2.93,9.7-11.17,4.4a5.24,5.24,0,0,0-8.16,3.1c-.91,3.63-2.75,6-6.57,6.7-.77.15-2-.22-2.5,1a2.09,2.09,0,0,0,2.7,1.27,3.49,3.49,0,0,1,2.79.6c.58.39,1.62.57,1.28,1.57s-1.24.72-2,.6a18,18,0,0,0-6.7-.34c6.16,2.8,11.69,1.66,16.94.51a12,12,0,0,1,5.17-.29c3.24.66,6.58,2.26,9.68,1.86,4-.51,8,1,12-.05a3.41,3.41,0,0,1,4.06,2c-1.64.83-3.41.54-5.13.58-8.38.19-16.73-1.42-25-1.13-8.06.28-16,.16-24.06-.32-3.09-.18-6.83-1-9.15,0A28.39,28.39,0,0,1,117.84,449c-4.74-.65-9.71-.17-14.25-2.18-1.13-.5-1.35.38-1.44,1.12-1.35,10.48-2.36,21-.1,31.45.31,1.45.91,3.5,2.28,3.71,4.12.63,7.57,3.09,11.93,3.3,14,.67,28,3,42.08,1.37a25.49,25.49,0,0,1,7.47-.16c8.36,1.49,16.83,1.6,25.3,1.75,1.18,0,1.17-2.84,2.68-.83-.57,3.85-.78,7.79-2.58,11.37-.5,1-.94,2.23-2.12,2.22-1.41,0-.81-1.51-1.14-2.32-.63-1.55-.79-4.08-2.62-4-1.61.08-1.65,2.49-1.85,4.1a12.54,12.54,0,0,1-.39,1.49c-1.48,0-1.39-1-1.51-1.8-.18-1.22-.32-2.58-1.73-2.83s-1.95,1.11-2.37,2.22a3.92,3.92,0,0,1-3,2.73c-2.27.44-3,1.52-1.73,3.62.18.3,0,.79-.33,1.5-1.08-3.06-3.82-3.8-6.12-5.17-1.36-.8-2.54-1.87-4.11-.8-1.77,1.22-1.56,2.89-.86,4.66s1.07,3.83-.32,5.57c-.72.91-1.52,2.16-2.89,1.7a5,5,0,0,1-3.17-3.08c-.37-1,.1-2.87-1.67-2.62-1.54.22-.77,1.72-.74,2.73s-.31,1.81-1.43,1.74-1.23-1-1.11-1.94c.27-2,0-4.12,3.08-4.42,2.33-.22,2.41-2.87,2.35-4.42-.07-1.82-2-.87-3.19-.84-3,.06-5.55,1.81-8.39,2.53-1.29.33-2.29.54-3.09-.78-.34-.55-1.33-1.28-1.49-1-2.06,4.15-4.68-.76-6.95.48-.87.47-2.06-.33-2.6-1-2.39-3.11-3.8-1-5.45.78-1.06,1.17-1.75,2.29-.74,3.74a2.52,2.52,0,0,0,4,.21c2.1-2.25,3.79-1.76,5.88-.18,1.4,1.06,3.13.72,4.74.37,5.8-1.28,7.26-.74,8.9,4.71.73,2.46,2.16,4.42,3.14,6.67q-73.77,0-147.54.06c-2.23,0-2.67-.44-2.67-2.67Q.11,258.26,0,2.67C0,.44.44,0,2.67,0Q61.43.14,120.18.06c-.08,2.08-1.46,3.24-2.91,4.47-.71.59-2.58,1.28-1.11,2.66,1.08,1,2.6,1.94,3.72-.23.12-.23.5-.33.79-.51.52,3.07.52,3.07-4.44,4.93,3.53,3.53,5.27,3.79,9.56,1.52a7.15,7.15,0,0,1,1.87-.49c.56-.13,1.15-.31,1.11-1s-.67-.73-1.2-.89c-1-.27-2.86.36-2.68-1,.22-1.55,2-2.68,3.63-2.69,1.45,0,2.77.06,4.08-1.37a9,9,0,0,1-.44,4.49c-.41,1.29-.44,2.39,1,2.94,1.68.63,1.65-.88,2.1-1.76.33-.65.3-1.5,1.11-1.92,1,.52.24,1.33.3,2a2.26,2.26,0,0,0,1.38,2.05c.86.38,1.44-.11,1.93-.75a2.52,2.52,0,0,1,2.16-1.23c1.1,0,7.07,4,7.31,4.87.83,3.14-1.27,6.13-3.73,8.29s-4.27,1.35-6.47.45c-.92-.37-1.65-1.12-.63-1.93,3.09-2.45-.37-3.34-1.26-3.83-1.61-.89-3.87-.72-4.57,1.49a9.46,9.46,0,0,1-2.89,4.93,1.92,1.92,0,0,0-.58,2.32c.66,2.12,1,4.33,1.61,6.47.42,1.53,1.33,2.17,2.92,1.18.6-.37,1.46-.93,2.07-.17s-.44,1.34-.54,2c-.18,1.18-2,2.13-.64,3.48a1.7,1.7,0,0,0,2.39.19,4.26,4.26,0,0,0,1.74-4c-.14-.81-1-1.51-.42-2.45,1.78,1.23,2.51,7.13,1,8.39-1,.87-2.09.25-3.08-.08-1.85-.62-3.28-.61-4.34,1.47-.93,1.82-2.87,2.55-4.72,3.23l-.45-.22.4.27a4.53,4.53,0,0,1-.76,2.1c-2.14,3.53-2,3.82,2.57,5-2.62,1.37-5,1.38-7.32,1.67a29,29,0,0,1-5.17-.18c-1.08-.06-2,.12-2.17,1.4A1.88,1.88,0,0,0,116,60a23.46,23.46,0,0,0,3.5.75c1.94.21,2.85,1.41,3.32,3.11.19.7.77,1.53,0,2.12s-1.68.1-2.39-.37c-4.83-3.19-4.84-3.2-6.22,2.85-.21.91-.51,1.69-1.51,1.9a1.44,1.44,0,0,1-1.47-.5c-.78-1,0-1.49.46-2.24.91-1.51.65-2.87-1.31-3.08s-4-1.9-6.27-.52c-.95.58-1.36-.12-1.24-1.11.24-1.89,1-3.25,3.09-3.65,1-.2,2.19-.72,2-2.15a2.25,2.25,0,0,0-2.2-2.05c-1.38-.09-2.9-1.77-4.13.72-.49,1-2.46.57-3.72.34a27.15,27.15,0,0,0-4.85-.25c-2.73,0-4.57.46-2.59,3.68.38.61.09.85-.32,1.31-5.2,5.81-5,12.48-2.82,19.34.68,2.17,1.9,4.08.09,6.34-.49.61,0,1.88.74,3.24,1-4.12,5.52-3.81,7.39-6.79.62-1,2-.43,3,0,1.74.8,3.5.58,4.29-1.06,1.81-3.77,5.61-4.09,8.77-5.43a17.27,17.27,0,0,0,4.16-2.35c5.38-4.25,10.78-8.52,17.36-10.89.39-.14,1-.55,1-.71-1-4.35,2.12-1.72,3.44-2,.64-.11,1.37.07,1.8-.51,1-1.28,1.9-2,3.51-.78.67.49,1.72.1,2.48-.37,4.77-3,10.13-4.21,15.48-5.56,4.3-1.08,8.43-2.8,12.61-4.24,13.09-4.54,26.53-4.14,40-3.86,4.43.1,8.9-.7,13.31.46.8.21,2.08-.07,1,1.42-4.4-.66-8.85-.34-13.26-.74a111.7,111.7,0,0,0-30.66,1.45c-10.45,1.94-20.24,6.17-30.41,9.07A31.46,31.46,0,0,0,142.44,62l.08-.08c-7.64,3.93-15.61,7.16-22.37,12.84C114,80,106.6,83.56,99.78,87.89c-2.57,1.62-4.76,4-7.49,5.14-4.77,2-8.13,5.76-11.56,9.16a206.78,206.78,0,0,0-16,18.45c-2,2.53-5.35,4.66-4.54,8.78,0,.27-.16.85-.29.87-4.59.53-5.32,5-7.76,7.69-1.77,1.94-3.45,4.46-1.46,7.29,1.2,1.7,2.7,3.14-.33,4.5-.41.18-.54,1.13-.68,1.76-.6,2.82-2.74,4.61-4.57,6.54-2.25,2.37-6.48,3.56-4.42,8.26a1.23,1.23,0,0,1-.51,1.09c-2.63.89-2,3.14-2.47,5.1-.34,1.45.74,2.91-.11,4.12-3.37,4.83-1.52,10.92-4,16a3.38,3.38,0,0,0,.8,3.64c1.4,1.53.57,4.47-1.44,5.29-.81.33-2,.47-2.07,1.38-.43,3.88-2.41,7.43-2.39,11.37,0,3.4,5.55,7,8.07,4.94,1.89-1.54,4.72-1,6-3.42.24-.43,1-.32,1.52-.16,3.67,1.08,2.65,4.12,3,6.7.33,2.83-1.63,1.4-2.69,1.6s-1.76,1.16-2.52,1.93c-2.42,2.47-1.48,6.29-3.71,8.85-1.39,1.59-.64,2.74,1.07,3.54s3.2,1.55,4.08,3.12,1.7,1.69,3.21,1.17c1-.35,2.91-1,3.09.45.33,2.64,2.69,4.63,1.9,7.62-.64,2.39.82,3.92,2.78,3.47.48-.11,1.18-.08,1.07-.86a.68.68,0,0,0-.92-.57c-1,.29-.66.76-.27,1.41a36.51,36.51,0,0,1,3.33,7.7l-.15.13a2.69,2.69,0,0,1-1.76-1.77c-.64-1.5-.93-3.32-3.2-1.24a1.49,1.49,0,0,1-2.16-1.73c.49-2-1.25-4.08.49-6,.55-.62-.17-1.92-1-2-3-.4-3-2.45-2.51-5.5a63.1,63.1,0,0,0-4.12,5.19c-.92,1.44-2.95,2-3.07,4-.14,2.49,2.18,2.63,3.57,3.66,1.14.84.8,2.19,1,3.31.29,1.36-.21,1.7-1.64,1.16-2.77-1-3.65-.12-3.88,2.85S41.48,266.21,43,267c-1.18,2-1.62,2.07-.79,6.55.69,3.7,2,7.56,5.46,9.88,1.31.87,2,1.76,1.84,3.41-.28,2.43,1.1,3.42,3.35,3.17,2.42-.26,3-1.74,2.42-3.95s-1.64-4.54-1.55-7c.09-2.26.45-4.38-3-4.37-1.15,0-2.1-1.36-2.5-3.59,1.86,2,5.7-1,5.59,3.76,0,1.17,1.41.71,2.35.21s2-1.72,2.86.19c1.56,3.38,4.57,6.53,1,10.48-1,1.09-1.92,2.62-.41,4.05,1.34,1.26,2.41.26,3.73-.44a3.89,3.89,0,0,1,4.34.78c.68.63.68,2.42,0,2.65-1.52.51-2.23,3.41-4.57,1.61s-5-1.38-7.52,0c1.2,3.64,4.25,6.62,4,10.82,0,.74.6,1.06,1.1,1.49a27.06,27.06,0,0,1,7.61,11.33c3.45,9.32,9.34,16.15,18.19,20.52a68.73,68.73,0,0,0,6,6.74c5,5.05,12.48,6.39,17.18,11.9,1.61,1.89,3.62.35,5.32-.5,1.14-.57,2.33-2.05,1.52-2.81-2.72-2.54-4.1-6.71-7-8.21-2.18-1.14-4.82-3.92-8.5-2.41-.94.38-4,.36-5.31-1.39-2.26-3-5.27-3.93-8.82-3.76-1.8-2.21-1.89-4.64-1.23-7.34s1.27-5-2.68-6.14A7.27,7.27,0,0,1,77.56,318c1.36-.08,2.77.57,3.86-.26,2.31-1.74,4.1-1.36,5.47,1.67,1.8-3.66-2.1-5.91-1.25-9.13.89.9,1.37,2,2.53,2.2.81-.6.78-1.55.92-2.35,1.61-9.27,3.57-18.46,5.63-27.64A275.55,275.55,0,0,0,100,252.09c.64-5.86,2.19-11.59,1.94-17.57-.19-4.53,0-9.09,0-13.63,0-.54.14-1.06-.28-1.53-2.65-2.93-5.2-6-7.93-8.8-4-4.12-9-7.26-11.09-13-.39-1.08-1-2.07-2.33-1.76-1.72.39-2.25-.41-2.07-1.89s1.19-1.14,2.38-1.14c3.37,0,7.36.95,8.63-3.9a2.59,2.59,0,0,1,2.57-1.7c3.28.07,6.65-.75,9.85.67a6.85,6.85,0,0,0,4,.47,12.12,12.12,0,0,1,6.41.65c6.63,2.6,12.95,5.9,19.82,7.93,4.75,1.41,9.09,4,13.95,5.19,3.18.79,5.72,2.76,8.46,4.54,3,1.92,4.84,4.89,7.84,6.66a4.78,4.78,0,0,1,2.05,3.36c0,1.24-1.84.6-2.74,1.14s-2.11.29-2.15,1.63c0,1.09.8,1.73,1.6,2.3,1,.7,2.5.68,3.18,3.28-1.42-1.82-2.26,0-3.56-1.08-2.63-2.15-5.13-1.51-7.14,1.18a66,66,0,0,1-6,7.53c-2.21,2.21-5.11,4-6.33,7.25-.7,1.9-.77,4-2.14,5.73A41.91,41.91,0,0,0,131.16,262c-2.35,9.3-5.77,18.38-6.27,28.09h-.17l.1.07c2.44-1.28,4.19-3.39,6.28-5a133.65,133.65,0,0,0,14-12.92c4.21-4.4,9-8.11,12.75-13.16,4.25-5.74,9.6-10.68,14-16.42,4.27-5.54,8.71-10.91,12-17.15.32-.6.37-1.57,1.88-1.5-1.59,5-4.71,9.3-5.4,14.45a4.23,4.23,0,0,0-4,2.2c-4.33,6.48-10.73,11.23-14.73,18,2.35,1.42,2.65,4.64,4.5,6.87,1.87-4.83,4.44-9.17,6.77-13.62.59-1.14,1.7-1.25,2.71-.27-1,.1-1.41.72-1.84,1.57-1.24,2.47-1.79,5.26-3.55,7.47-2.26,2.85-1.92,6.67-3.64,9.73-1.64.83-3.75,4.88-3.08,6.22.27.54.85-.35,1.36-.33a10.81,10.81,0,0,1-1.14,3A26.54,26.54,0,0,0,159.3,288c-.34,1.08-.06,2.31-1.09,3.3-4,3.8-6.11,8.94-8.63,13.6-3.71,6.85-8.89,12.84-12,19.9-2.24,5.15-5.82,9.29-8.32,14.14-.83,1.6-1.53,2.77-3.59,2.51a2.77,2.77,0,0,0-2.89,1.74c-.51,1.28.81,1.86,1.63,2.51,3.94,3.12,8.53,5.14,12.93,7.51,1.32.71,2.92,1.11,2.05,3.29a1.73,1.73,0,0,0,1.33,2.28,4.68,4.68,0,0,0,3.15-.31c1.62-1,1.52-1.16,3-.53L155,361.4c-1.75,1.4-3.21,3.08-2.51,5.05,1.11,3.13,3.9,6.43,6.39,6.72,2.83.34,4.63,1.74,6.93,2.62a22.31,22.31,0,0,0,10.91,1.27,26,26,0,0,1,9.06.09c2.08.46,4.31,0,6.47-.07,2.54-.12,4.68-2.32,7.13-1.46,1.42.5,2.71.27,4,.49,3.46.62,6.4-1.55,9.86-1.16a15.11,15.11,0,0,0,13.24-4.7,4,4,0,0,1,2.57-1.3c9.56-.82,18.66-3.74,27.7-6.61a141.57,141.57,0,0,0,21.94-8.9c14.15-7.33,26.27-17.63,38.38-27.86,3.26-2.77,3.37-3.6-.13-6.2-8-5.95-13.66-14.06-20.26-21.31-.69-.76-1-2.35-2.23-1.94s-1.12,1.93-1.13,3.1c0,6.15-2.54,11.53-5.05,17-.95,2.05-3.51,3.59-3,5.85.61,3-.94,4.93-2.29,7.1a12.17,12.17,0,0,0-1.45,2.88c-1.42,4.85-5.12,8-8.45,11.39a.91.91,0,0,1-.85.1c-2.55-1.38-4.9-.68-7.23.61-.84.47-1.89,1.19-2.24-.44-.67-3.1-2.81-3-5.24-2.7-3,.37-7.49-2.32-8.83-5.18a3.17,3.17,0,0,1,2.74.74A10.72,10.72,0,0,0,258,339a4.32,4.32,0,0,1,2.51.58c2.82,2.76,6.27,1.1,9.4,1.5a5.57,5.57,0,0,0,5.1-2.42c1.59-2.27,3.31-4.47,4.76-6.87,3.32-5.46,3.81-12.08,7.62-17.27.9-1.22.8-3,1.34-4.29,1.88-4.71,2.51-9.67,3.6-14.54.48-2.14,3-2.38,4.68-.57a102.92,102.92,0,0,1,8.35,9.51c3.79,5.25,8.62,9.38,13.36,13.64a6.31,6.31,0,0,1,.11,9.19,5.69,5.69,0,0,0-1.39,1.77c-.87,1.79-1.35,3.91-4,3.84a1.2,1.2,0,0,0-.79.54c-3.3,4.85-8.76,7.15-13.13,10.68A53.82,53.82,0,0,1,286,352.67a19.12,19.12,0,0,0-4.84,3.25,13.48,13.48,0,0,1-5.72,2.69c-4,1-7.52,3.3-11.53,4.39-2.32.64.65,2.14-.47,3.54-3.51-1.83-6.6-.77-9.35,2.08a2.87,2.87,0,0,1-3.1.44,7,7,0,0,0-6,.23c-4,2.15-8.39,1.65-12.55,2.63-2.2.51-4.21.72-5.12,3.24-.35,1-1.65.88-2.59,1.1-2.41.56-5,.43-7,2.35a1.42,1.42,0,0,1-1.19.34c-4.46-1.3-8.92-.61-13.38-.11l-.33,0c-2,.24-5.23-2.67-5.75,1.32-.28,2.19-1.22,4.46-.39,7,1.77,5.43-.74,11,0,16.55.29,2.23-.06,4.53.82,6.71a3.65,3.65,0,0,1-.27,3.45,3.87,3.87,0,0,0,0,4,37.45,37.45,0,0,1-1.17,4.37c-.72,1.82-2.45,1.47-3.94,1.45a1.59,1.59,0,0,1-1.77-1.82c.05-8.37-.18-16.75.26-25.1.1-1.94.08-2.54-1.64-2.61-1.5-.06-3.52-.71-3.52,2,0,9.35,0,18.69.08,28a3.74,3.74,0,0,0,3.25,3.93,23,23,0,0,0,8.44,0c1.62-.3,3.57-1.56,2.19-3.36s-1.29-3.55-1.38-5.45l1-.06c.12.31,0,1,.47.8s0-.65-.27-.94c.21-4,.57-8.05.58-12.08,0-5.85,2.57-10.71,5.61-15.4.63-1,6-.3,7,.75,2,2,7,2.65,9.34,1.21.65-.4,1.28-1.1,2-.55,1.76,1.29,3.53.58,5.31.2,2.63-.57,4.55.15,5.24,2.93.51,2.07,1.68,2.16,3.42,1.57,2.22-.74,4.28-2.12,6.8-1.77.59.08,1.17-.3,1-1-1-3.28,2.12-3.08,3.53-3.68,1.68-.72,4-1.45,5.52.95a6.88,6.88,0,0,0,2.32,1.74c1.35.84,2.54.84,2.9-1,.44-2.34,1.55-2.78,3.7-1.8,1.13.51,2.55.31,3.79.64s2.42.91,3.93,1.49c-.77,1-2.66,1.36-1.63,3a2,2,0,0,1-2.64,1.7,1.33,1.33,0,0,1-.92-1.83c.78-1.62.84-2.55-1.36-2.62-1.85-.06-3.6-.25-3.47,2.45.05,1-.07,2.1-1.41,2.14-1.74,0-3.47,0-5.2-.12a1.39,1.39,0,0,1-1.26-2.1c.63-1.54.3-2.26-1.34-2.25-1.4,0-3.47-.84-3.48,1.58,0,2.88-1.67,3.06-3.81,3-1.35,0-2.7.12-4.06.19a11.63,11.63,0,0,0,5.28,1c1.51,0,2.67.28,2.42,2.09-.31,2.34,1.21,2.76,3.19,2.74-2.95,5.3-7.9,7.93-12,11.58A32.31,32.31,0,0,0,257.2,405.5c1.95,1.74,3.85,3.36,5.64,5.09.65.62,2.28,1,1.09,2.47-.87,1.07-1.58,2.62-3.32,2-1.58-.56-.71-2.05-.8-3.14-.06-.73,1.08-1.48-.18-2.2-2.17-1.24-4.75-.07-4.75,2.44s-1.25,3.34-3.61,3.3c-1.63,0-3.34-.61-5.34.3a8.36,8.36,0,0,0,1.11.57c2.45.68,6-1.11,7.27,1.22,1.18,2.11.45,5.29.56,8,0,.21,0,.43,0,.65,0,1.37-.39,3.07,1.84,3a2.65,2.65,0,0,0,2.92-2.8c.06-2,.21-3.92.08-5.86-.21-3,.74-4.75,4-3.85s5.51-3,8.81-1.6c.12,0,.64-.77.94-1.21A5,5,0,0,1,275.51,411.9ZM123.45,302.32c.13-2.05.2-4.11.41-6.16a2.78,2.78,0,0,0-.89-2.63c-.47-.4-.88-1.23-1.59-.81a1.34,1.34,0,0,0-.27,2c1.62,1.54,1,3.4,1,5.18a2.34,2.34,0,0,0,1.3,2.41,13.06,13.06,0,0,1-1.88,5.84c-1.93,2.92-2.79,6-1.47,9.46a10.18,10.18,0,0,1,.81,4.41c-.15,1.37-.85,2.65,1.12,3s2.48-.72,2.34-2.52a2.15,2.15,0,0,1,1.89-2.3c.82-.19,1.92.11,1.9.8-.12,3.27,4,5.44,2.27,9.11a1.59,1.59,0,0,0,.57,2c1,.58,1.19-.55,1.63-1.08,2-2.45,2.23-5.59,3.21-8.45a34.42,34.42,0,0,1,5.43-9.76c.85-1.11,1.74-2.66.57-3.83s-1.8.57-2.65,1.1a7.17,7.17,0,0,1-9.49-1.19c-.36-.43-.7-.9-1.31-.82-.84.11-.88.82-1,1.46-.21,1.31.3,2.87-1.39,3.9-1.11-2.17-2.45-4.1-.49-6.49C128,303.91,127.54,302.92,123.45,302.32ZM77.75,470.75h0c0-1.36.64-2.94-1.37-3.47-.95-.25-2,.05-2.14,1-.32,2.9-2.32,3.21-4.58,3.49a2.84,2.84,0,0,0-2.39,2c-.5,1.5.89,1.43,1.65,1.86a1.28,1.28,0,0,1,.66,1.65,1.8,1.8,0,0,1-2.09,1.16c-3.56-.3-7.12-.65-10.68-.91-1.33-.1-3.18-.94-3.78.67-.45,1.21.65,2.66,1.78,3.58.75.61,1.6,1.53,2.43,1.55,4.48.08,8.86,1.86,13.42.84,2.09-.47,3.82-.39,3.33,2.58a1.53,1.53,0,0,0,.69,1.7,1.4,1.4,0,0,0,1.93-.72c1.06-1.74,2.75-1.81,4.51-2,2.75-.35,4.59,1.71,6.91,2.48,1.75.57,2.88.7,4-.66A9.2,9.2,0,0,1,97.69,484c.82-.14,1.56-.3,1.43-1.33a1.37,1.37,0,0,0-1.92-1.19,2.92,2.92,0,0,1-3.34-1.39c-1.93-2.59-4.68-3.35-7.73-3.43-1.94,0-4.46.32-5.06-1.91-.49-1.85,1.1-3.6,2.59-5a3.37,3.37,0,0,1,.5-.42c2-1.12,2-2.32.63-4.15s2.79-2.16,1.42-4.62c-2.24-4-2.82-4.26-6.35-1.35A3.06,3.06,0,0,0,78.55,462c.13,1.41,1.22,1.22,2.2,1.28,1.36.08,1.81,1.27,2,2.25.42,1.66-1.15,1.13-1.93,1.37-1.15.36-1.58.95-1.2,2.18C80.24,471,78.73,470.59,77.75,470.75Zm153.1-63.34c.87-3.6.22-6.41,1.77-8.81.75-1.16-.06-1.63-.74-2.06-1.1-.69-2.1-2.63-3.54-1.31s-3.16,1.12-4.85,1.16c-2.41.06-4.85-.19-7.48.87,3.62-.27,3.42,1.95,3.29,4.16-.17,2.82-.28,5.64-.48,8.46a28.66,28.66,0,0,1-2.51,10.51c-.91-1.62-2.63-2.38-1.75-4.26,1.75-3.78,1.3-8.13,3-11.92.74-1.62-1-1.91-1.7-2.73s-1.32-1.54-2.46-.62c-.81.65-1.6,1.82-2.8,1.07-1.36-.85-.21-2.17-.26-3.27a3.91,3.91,0,0,1,.38-2.22c1.81-2.77-.17-2.61-2-2.89-2.33-.37-2.31,1.23-2.68,2.73-.61,2.49.37,5.9-4,6.63,2.87.34,2.43,2,2.12,3.67-.53,2.89-1.14,5.76-1.63,8.65-.19,1.12-.84,2.49.39,3.33a2.54,2.54,0,0,0,3.52-.47c.51-.57,1-.77,1.68-.25s.52,1.25.22,2a16.7,16.7,0,0,1-4.28,5.95c-.66.63-1.32,1.17-.62,2.34a22.26,22.26,0,0,0,6.56-4.43c.45-.48.91-2.07,1.84-.83.66.87,2.72,1.13,1.74,3-.42.8-1.2,1.57-.23,2.65,3.89-2.26,6.16-5.75,7.77-9.74,2.36-5.84,3-12,3.11-18.2,0-1.06-.45-2.8,1.39-2.76,2.25.05,1.22,2,1.15,3-.16,2.59-.61,5.17-.95,7.76-.19,1.49.19,3,1.92,2.48,4.13-1.28,3.42,1.6,3.51,3.76.29,7.25-1,9-7.12,9.82-.09,0-.15.33-.21.51a14.43,14.43,0,0,1,2.55,1.92c2,2.37,4.12,2.5,6.31.28,1.38-1.4,1.69-3.24,2.2-5,1.3-4.48.33-9.31,2.23-13.7.31-.72-.33-1.23-.8-1.64C234.94,405.68,233.31,404.66,230.85,407.41Zm-102.46-6.29c.52.07,1.05.18,1.57.2,3.15.11,6.3.22,9.45.3,1.28,0,2.09.55,2,1.94s-1.21,1.32-2.15,1.24c-1.59-.15-3.2.18-4.8-.51s-2.87-.33-2.8,2a61,61,0,0,1-.19,8.45c-.14,1.22-.1,2.2.8,2.85a2.32,2.32,0,0,0,3-.4,4.33,4.33,0,0,1,3.86-1.21c1.12.19,2.49-.15,2.4,1.8s-1.23,1.64-2.47,1.69c-2.93.13-5.93-.76-9.72.56a44.25,44.25,0,0,0,8.9.8c1.61.07,3.48-.07,3.34,2.42s-2.11,1.49-3.43,1.6c-3.56.3-7.19-.73-11.19.33a8.8,8.8,0,0,0,4.86.95c6.73.17,13.46.24,20.19.37,2.6.05,5.2.21,7.8.21.66,0,2-.12,1.71-1-.42-1.51-2.13-2-3.25-3a1.23,1.23,0,0,0-2,.29c-1.76,3.06-4.7,2.09-7.3,2.2-1.22.06-2.48,0-2.41-1.82,0-1.59.72-2.39,2.41-2.29,2.38.12,4.77.17,7.16.19.94,0,2.17.49,2.74-.46.7-1.17-.9-1.45-1.31-2.24-.28-.54-1-.73-1-1.57.21-3,0-6.15.64-9.06.38-1.64.09-2.37-1-3.22-1.42-1.11-2.62-2.05-4.37-.12-1.17,1.27-3.11.47-4.66.1-.68-.16-.7-1.12-.39-1.69.88-1.59,2.5-1,3.81-1,2.81,0,5.63.14,8.45.26a1.71,1.71,0,0,0,1.67-.8c.46-.82-.36-1.22-.83-1.49a7.34,7.34,0,0,1-3-3.91c-1-2.3-2.67-3.9-5.91-2.92a83.67,83.67,0,0,1-14.69,2.86c-2,.23-4.06.8-6.08,1.22,2.92,1.3,5.84,1,8.74,1.07.91,0,2.32-.32,2.27,1.08s-1.44,1-2.36,1C135.43,400.4,131.87,399.85,128.39,401.12ZM177,408.61c-.83,1.84-1.7,2.66-3.22,2.67-.64,0-1.64.05-1.68.69-.23,3.57-3,2.62-5.07,3-.9.19-2.18-.19-2.5,1a3.89,3.89,0,0,0,.95,3.34c1.13,1.37,2.39-.07,3.6-.06.87,0,2.1-.94,2.5.5.34,1.22.71,2.8-.41,3.68-.8.63-2.15.59-2.82.74a13.59,13.59,0,0,1,1.59,2.3c.72,1.7,1.89,2.32,3.59,1.79a3.66,3.66,0,0,0,2.86-3.53,13.08,13.08,0,0,0,.1-2.92c-.65-3.55,1.06-5.18,4.31-5.84,1.14-.23,2.5-.37,3.22-1.88-2.54-.34-4.91.34-7.3-.32a7.79,7.79,0,0,1,3.69-2.95c4.73-2.21,4.75-2.56.52-5.57l-.76-.56c.54-.59,1-1.08,1.41-1.54,2.6-2.6,2.52-2.56-.73-4.16-2.24-1.1-2.51.32-3.14,1.81-2.72,6.43-2.74,6.41-8.43,5.62,1.35-3.81.38-5.52-4.07-6.76.29,2.08,1,4.13.74,6-.33,2.31.83,2.26,2.32,2.34Zm-4.91-10.3c3.71.73,6.45-.6,9.37-.7.61,0,1.71-.15,1.26-.89-1-1.6-2.27-3.93-4.27-3.41-4.61,1.2-9,3.06-13.54,4.66l-.31.89c4.62-.84,6.7,1,6.65,5.24a1.76,1.76,0,0,0,2.25,1.76c1.36-.28,1.81-1.43,1.81-2.74C175.27,401.24,173.62,400.43,172.05,398.31Zm-44.37-2.69c1.85.3,4-1.52,6.48-1.63.9,0,2.26.62,2.31-.85,0-1.2-1.34-1.29-2.28-1.3-4.09-.06-8.18,0-12.28,0a.87.87,0,0,0-1,1,5.15,5.15,0,0,0,1,3.38c1,1.1,1.71-.1,2.47-.58S126.07,395.4,127.68,395.62Zm112.86,31.8c4.85-.4,8-2.67,11-5.37.64-.59,3-.95,1.16-2.4-1.22-1-3.21-3-4.68-1A94.14,94.14,0,0,1,240.54,427.42Zm21-8.81c2.18,2.78,4.48,4.62,6,7.1.89,1.45,2.05,2.93,3.85,1.45s1.2-3.18-.07-4.59C268.9,419.87,265.76,418.72,261.51,418.61ZM145,310.37c.88-1.54,1-2.83,1.64-4,.76-1.35-.1-2.74-1.49-3.45-.76-.38-1.29.28-1.3,1C143.78,306,143.08,308.19,145,310.37ZM116.7,345.18c1.34,2.36,3.93,2.59,5.56,3.46C120.86,347.39,119.16,345.68,116.7,345.18Zm46.48-79.7c-1,.14-1.14.87-1.06,1.66s.47,1.51,1.36,1.51a1.3,1.3,0,0,0,1.31-1.51A1.67,1.67,0,0,0,163.18,265.48Zm-11.92,95.94c-.29-1.18-.93-2.14-2.35-2-1,.09-1.33.94-1.25,1.88.1,1.31.94,1.8,2.16,1.83S151.32,362.51,151.26,361.42Z"/><path class="cls-2" d="M177,516.45c-.5-2-2.43-2.62-3.76-3.81-1.05-.95-2-2-.75-3.21s1.95.27,2.5,1.11c1.38,2.1,4.51,2.83,4.62,5.91Z"/><path class="cls-2" d="M393.06,278.82c-.51-.35-1.21-.59-1.49-1.07-.89-1.54.2-7.9,1.49-9.38Z"/><path class="cls-3" d="M57.51,261.81a36.51,36.51,0,0,0-3.33-7.7c-.39-.65-.69-1.12.27-1.41a.68.68,0,0,1,.92.57c.11.78-.59.75-1.07.86-2,.45-3.42-1.08-2.78-3.47.79-3-1.57-5-1.9-7.62-.18-1.44-2-.8-3.09-.45-1.51.52-2.4.25-3.21-1.17s-2.5-2.37-4.08-3.12-2.46-2-1.07-3.54c2.23-2.56,1.29-6.38,3.71-8.85.76-.77,1.33-1.69,2.52-1.93s3,1.23,2.69-1.6c-.3-2.58.72-5.62-3-6.7-.57-.16-1.28-.27-1.52.16-1.27,2.37-4.1,1.88-6,3.42-2.52,2.05-8.05-1.54-8.07-4.94,0-3.94,2-7.49,2.39-11.37.11-.91,1.26-1,2.07-1.38,2-.82,2.84-3.76,1.44-5.29a3.38,3.38,0,0,1-.8-3.64c2.43-5.08.58-11.17,4-16,.85-1.21-.23-2.67.11-4.12.44-2-.16-4.21,2.47-5.1a1.23,1.23,0,0,0,.51-1.09c-2.06-4.7,2.17-5.89,4.42-8.26,1.83-1.93,4-3.72,4.57-6.54.14-.63.27-1.58.68-1.76,3-1.36,1.53-2.8.33-4.5-2-2.83-.31-5.35,1.46-7.29,2.44-2.67,3.17-7.16,7.76-7.69.13,0,.34-.6.29-.87-.81-4.12,2.53-6.25,4.54-8.78a206.78,206.78,0,0,1,16-18.45c3.43-3.4,6.79-7.14,11.56-9.16,2.73-1.15,4.92-3.52,7.49-5.14C106.6,83.56,114,80,120.15,74.77c6.76-5.68,14.73-8.91,22.37-12.84,0,.89-1.34,1-1.15,2.17,1.83-.89,3.82-1.27,5.66-3.12-2,.23-3.13,1.32-4.59,1a31.46,31.46,0,0,1,11.07-5.1c10.17-2.9,20-7.13,30.41-9.07a111.7,111.7,0,0,1,30.66-1.45c4.41.4,8.86.08,13.26.74l14,2.09a7.1,7.1,0,0,1,1.47,6.25c-1.73,10-4.52,19.88-5,30.11a5.29,5.29,0,0,1-4.44,5.25c-4.92,1.17-9.56,3.17-14.26,5,.93-4.1-.24-8.19-.08-12.25.37-9.21-.71-18.06-4.62-26.48-.92-2-2.07-3.65-5.19-1.81,1.28-1.76.68-2.8-.52-3.78-2.06-1.7-9.23-1.2-10.41,1.11-.78,1.54-1.86,1.65-3.09,1.8-3.8.44-5,1.7-4,5.41s.2,6.83-.62,10.17c-1.73,7.09-3.41,14.19-2.93,21.56.21,3.27-.08,6.51,0,9.77,0,2.51-1.16,2.83-3.33,3.13-4.28.59-8.73-.22-12.87,1.58-1.44.62-2.78,1.57-4.6,1.2-1.3-.27-1.34,1.12-1.64,2a60.61,60.61,0,0,0-2.62,12,55.44,55.44,0,0,0,4,27.66c1.25,1,.57,3.1,2.16,4a8.92,8.92,0,0,1-5.12-3.21c-1.84-2.07-7-2.09-4.86-7,.05-.13-.54-.64-.91-.83-2.27-1.18-4.57-3.24-6.84-3.22-2.59,0-3.23-1.51-4.48-2.78-.37-.37-.55-1-1-1.25-7.6-4.84-15.14-9.78-22.86-14.43-5.91-3.56-12.51-5.27-19.35-6.09a7.66,7.66,0,0,0-4.13.6,5.13,5.13,0,0,1-6.42-1.44c-1.7-1.92-4.44-2.19-5.93-4.32-.19-.27-2.16-1.4-2.21.61-.11,4.89-.18,9.81.83,14.62a29,29,0,0,0,5.81,12.73c3.84,4.49,7.58,9.1,12.5,12.83a104.42,104.42,0,0,0,13.11,9c6.13,3.3,11.9,6.78,16.6,11.92,1.07,1.16,2,1.41,3.28.27,3.21-3,6.22-6.14,9.36-9.18,3.9-3.78,7.56-5,12.08-2.35,1.67,1,4.13,1.94,5.05,1.2,1.65-1.32-.9-2.86-1.18-4.45a.67.67,0,0,0,.17-.49c4.13-1.64,5.86-1.18,8.75,2.83,3.07,4.27,5.79,8.8,8.95,13,3.41,4.54,6.29,9.92,13.05,10.31,1.63.09,1.61,1.32,1.83,2.55.42,2.28-.35,5,1.48,6.76,2.56,2.41,3.95,5.45,5.5,8.42,1,1.84,1.8,3.62,3.84,4.44,1.21,1.07,3.35.07,4.22,1.89.59,1,1.65,2.78,2.28,2.34,1.67-1.18,4.06-.47,5.3-2.1,3.32-4.35,7.59-7.55,11.91-10.82,1.78-1.34,4.73-1.65,5.2-4.55,8.54-3.28,15.4-9.26,22.91-14.19C263.27,173,269,170,274,166.24c5.4-4,11.91-5.93,17.33-9.84a7.76,7.76,0,0,0,2-1.91c1.32-1.83,2.69-3.73,5.12-4.26s1.73-1.55.46-2.69l3.14-4.22c-.82-2.34-4.81.29-4.31-3.55,2.36-5,5.16-10.06,6.37-15.25,1.4-6,3.53-11.88,4.2-18,.25-2.28,1-4.57.63-6.92,1.37-2.74.27-5.65.57-8.46a1.47,1.47,0,0,0-1.19-1.67l-.08-.1c-.45-1.36-.62-3-2.61-3a.31.31,0,0,0-.34-.22.41.41,0,0,0-.28-.47c-1.24-3.21-4.4-3.74-7-4.28-6.51-1.32-13.08-3.06-19.82-1.93-4.3.73-8.5,2-12.85,2.61-1.52.21-3.34,1.69-4.4.27s-.57-3.54-.15-5.35c1-4.39,2.67-8.72.73-13.31-.46-1.11,3-7.49,4.08-8,1.52.79,3.1,1.49,4.54,2.4,6.44,4,12.69,8.4,20.26,11.73-1.63-3.23-5-3.37-7.42-6,5.13,1.93,8.8,4.85,12.6,7.54l0,.07c-.78-.71-1.46-.42-2.47.31,5.66,3.28,10.28,7.74,16.29,10l.05,0c.18.48.45.83,1,.81l.19.12c2.9,3,5.68,6.2,8.74,9.07,5.84,5.48,10.84,11.74,16.39,17.49v.22l.2.08a8.32,8.32,0,0,0,.7,1.4,161.2,161.2,0,0,1,22.5,41.36c1.83,4.94,3.35,10,5,15l.08,1.2c4.08,15.46,3.71,31.42,5.34,47.16.67,6.54-.5,13.11-1.83,19.33-4.14,19.35-10.37,38.07-21.37,54.79-2.48,3.78-3.8,8.3-7.29,11.45-1.38,1.25-2.26,2-3.85,0a89.27,89.27,0,0,0-6.79-6.83c-1.17-1.37-2.43-2.67-3.47-4.13s-1-1.62.81-3c2.31,2,4.81-.81,7.15.25,1.24.56,2,0,2.8-.9A39.77,39.77,0,0,0,342.55,275c1.59-4.06,2.32-7.78.05-11.45-1.89-3.06-2.51-6.47-6.88-8.62-4.86-2.39-8.94-1.49-11.91.58-4.23,3-9,5.54-12.29,9.81-1,1.34-3,2.61-4.32,1.12s-2.6-2.86-3.72-4.42c-1.69-2.37-2-4.51.88-6.4,1.61-1,2.82-2.7,4.4-3.81,3.76-2.66,6-6.88,9.79-9.46a1.15,1.15,0,0,0,.16-.82c-1.83-.78-1.59-3.79-4-3.83-6.82-.11-13.67-.19-19.56,4-1.49,1.06-3,2.05-4.5,3.09-2.56,1.78-4.68,1.16-6.74-.64a2.55,2.55,0,0,0-2.87-.67c-4.14,1.34-8.43,2.14-12.18,4.64-.87.57-2.06.66-2.14,1.92-.1,1.69,1.35.91,2.14,1.16,3.34,1.05,4,3.43,1.36,5.59-3.53,2.84-7.25,5.45-11,8.06-2.35,1.66-4.37,4-7.86,4.59,2.6-4.56,2.05-9.67,4.72-13.81.78-1.21,2-2.38,1.89-4.06,1.31-1.1,2.45-2.6,4-3.23,4-1.68,7.06-4.66,10.45-7.19,3.73-2.79,6.41-6.71,10.11-9.43a211.18,211.18,0,0,0,16.59-14.14v-.06l.58-.43c2.9-1.33.94-2.69-.13-3.72-2.82-2.71-6.47-2.41-10-2.66a24.21,24.21,0,0,0-14.86,3.6c-7.56,4.71-13.75,11.09-20.22,17.11-3.73,3.47-7.21,7.2-12.29,9-1.22.44-3.54.45-4.09,2.47-1.09,4,1.85,9,5.75,10.62a7.06,7.06,0,0,0,6.36.06c.94-.44,2.53-.66,3.34.36.68.85-.37,1.78-.76,2.64a51.27,51.27,0,0,1-7.78,11.5c-3.74,4.43-7.55,8.51-13.48,10.42-7.3,2.35-8.42,9.33-3.17,14.88,1.79,1.9,4.81,2.35,5.76,4.87a4.9,4.9,0,0,0,4.78,3.58v0l.66.69v0c-.4,6,0,12-2.2,17.8-2.21,6-.17,10.65,5.25,13.28a56.75,56.75,0,0,0,6.06,2.2l0,0c1.34,2.86,5.79,5.55,8.83,5.18,2.43-.3,4.57-.4,5.24,2.7.35,1.63,1.4.91,2.24.44,2.33-1.29,4.68-2,7.23-.61a.91.91,0,0,0,.85-.1c3.33-3.41,7-6.54,8.45-11.39a12.17,12.17,0,0,1,1.45-2.88c1.35-2.17,2.9-4.06,2.29-7.1-.46-2.26,2.1-3.8,3-5.85,2.51-5.45,5-10.83,5.05-17,0-1.17-.12-2.7,1.13-3.1s1.54,1.18,2.23,1.94c6.6,7.25,12.25,15.36,20.26,21.31,3.5,2.6,3.39,3.43.13,6.2-12.11,10.23-24.23,20.53-38.38,27.86a141.57,141.57,0,0,1-21.94,8.9c-9,2.87-18.14,5.79-27.7,6.61a4,4,0,0,0-2.57,1.3,15.11,15.11,0,0,1-13.24,4.7c-3.46-.39-6.4,1.78-9.86,1.16-1.26-.22-2.55,0-4-.49-2.45-.86-4.59,1.34-7.13,1.46-2.16.11-4.39.53-6.47.07a26,26,0,0,0-9.06-.09,22.31,22.31,0,0,1-10.91-1.27c-2.3-.88-4.1-2.28-6.93-2.62-2.49-.29-5.28-3.59-6.39-6.72-.7-2,.76-3.65,2.51-5.05l-8.11-3.47c-1.49-.63-1.39-.46-3,.53a4.68,4.68,0,0,1-3.15.31,1.73,1.73,0,0,1-1.33-2.28c.87-2.18-.73-2.58-2.05-3.29-4.4-2.37-9-4.39-12.93-7.51-.82-.65-2.14-1.23-1.63-2.51a2.77,2.77,0,0,1,2.89-1.74c2.06.26,2.76-.91,3.59-2.51,2.5-4.85,6.08-9,8.32-14.14,3.07-7.06,8.25-13.05,12-19.9,2.52-4.66,4.65-9.8,8.63-13.6,1-1,.75-2.22,1.09-3.3a26.54,26.54,0,0,1,4.33-8.73,10.81,10.81,0,0,0,1.14-3c.75-1.91.6-4.09,1.72-5.89,1.72-3.06,1.38-6.88,3.64-9.73,1.76-2.21,2.31-5,3.55-7.47.43-.85.85-1.47,1.84-1.57h0a27.85,27.85,0,0,1,7.73,4.61,8.11,8.11,0,0,0,2.69,1l3.51,5.22a17.42,17.42,0,0,1-1.18,5.71c-.29.85-.64,1.56.05,2.4a5.23,5.23,0,0,1,.52,5.59c-2,4.38-1.86,9.06-2.55,13.63-1.24,8.16-2.81,16.26-4.16,24.4-.17,1-1,2.47,0,3.08,2.63,1.57,1.81,3.89,1.71,6.06a208.19,208.19,0,0,0,.66,31.19c.24,2.26.8,4.73-.27,6.75-1.79,3.41.38,4.52,2.72,5.61,4.27,2,8.7,2.94,13.41,1.71,3.55-.93,7.23-1,10.74-2.66,2.19-1,4.83-1.19,5.16-3.94.42-3.53,1.71-6.85,1.89-10.46s-.75-7.07-.66-10.64c.12-4.87-.64-9.7-.52-14.61.13-5.14-.73-10.28-.73-15.49,0-8.81.18-17.57,1.81-26.22.72-3.78-.11-7.68.73-11.22,1.4-5.9,2.81-11.78,3.83-17.75.52-3,.84-6.14,1.61-9.11,1.05-4.06,4.77-6,7.56-8.61,3.93-3.7,8.54-6.71,11.56-11.35a52.12,52.12,0,0,1,4.45-4.07c1.75-1.45,3.79-2.43,5.47-4,3.94-3.74,8.18-7.11,12-11,6.06-6.2,14.23-9.94,21-15.45,5.35-4.4,10.42-9.14,13.42-15.61.72-.7,2.31-.92,1.95-2.22-.41-1.5-2-1.11-3.08-1-4.28.32-8.79-.16-12.76,1.42a32.51,32.51,0,0,0-10.67,7.1,39.52,39.52,0,0,1-12.94,8.55c-2.28,1-5,2.14-6.32,3.65-3.28,3.65-7.85,4.79-11.59,7.41-6.07,4.25-13,7.15-19,11.45-3.85,2.72-7.79,5.44-11.78,7.84-6.9,4.14-12.67,9.51-18.64,14.66-4.46,3.84-8.7,6.27-14.52,3.63a.28.28,0,0,0-.06-.38c.69-5.15,3.81-9.47,5.4-14.45-1.51-.07-1.56.9-1.88,1.5-3.25,6.24-7.69,11.61-12,17.15-4.43,5.74-9.78,10.68-14,16.42-3.72,5.05-8.54,8.76-12.75,13.16a133.65,133.65,0,0,1-14,12.92c-2.09,1.65-3.84,3.76-6.28,5l.07-.08c.5-9.71,3.92-18.79,6.27-28.09A41.91,41.91,0,0,1,139,245.61c1.37-1.7,1.44-3.83,2.14-5.73,1.22-3.27,4.12-5,6.33-7.25a66,66,0,0,0,6-7.53c2-2.69,4.51-3.33,7.14-1.18,1.3,1.05,2.14-.74,3.56,1.08-.68-2.6-2.22-2.58-3.18-3.28-.8-.57-1.64-1.21-1.6-2.3,0-1.34,1.37-1.16,2.15-1.63s2.77.1,2.74-1.14a4.78,4.78,0,0,0-2.05-3.36c-3-1.77-4.87-4.74-7.84-6.66-2.74-1.78-5.28-3.75-8.46-4.54-4.86-1.21-9.2-3.78-13.95-5.19-6.87-2-13.19-5.33-19.82-7.93a12.12,12.12,0,0,0-6.41-.65,6.85,6.85,0,0,1-4-.47c-3.2-1.42-6.57-.6-9.85-.67a2.59,2.59,0,0,0-2.57,1.7c-1.27,4.85-5.26,3.9-8.63,3.9-1.19,0-2.19-.44-2.38,1.14s.35,2.28,2.07,1.89c1.36-.31,1.94.68,2.33,1.76,2.06,5.73,7.14,8.87,11.09,13,2.73,2.85,5.28,5.87,7.93,8.8.42.47.28,1,.28,1.53,0,4.54-.21,9.1,0,13.63.25,6-1.3,11.71-1.94,17.57a275.55,275.55,0,0,1-5.31,30.35c-2.06,9.18-4,18.37-5.63,27.64-.14.8-.11,1.75-.92,2.35-1.16-.23-1.64-1.3-2.53-2.2-.85,3.22,3,5.47,1.25,9.13-1.37-3-3.16-3.41-5.47-1.67-1.09.83-2.5.18-3.86.26A7.27,7.27,0,0,0,83,324.66c4,1.12,3.3,3.57,2.68,6.14s-.57,5.13,1.23,7.34l-.45.44c-8.85-4.37-14.74-11.2-18.19-20.52a27.06,27.06,0,0,0-7.61-11.33c-.5-.43-1.14-.75-1.1-1.49.26-4.2-2.79-7.18-4-10.82,2.54-1.4,5.07-1.91,7.52,0s3.05-1.1,4.57-1.61c.69-.23.69-2,0-2.65a3.89,3.89,0,0,0-4.34-.78c-1.32.7-2.39,1.7-3.73.44-1.51-1.43-.57-3,.41-4.05,3.54-3.95.53-7.1-1-10.48-.89-1.91-1.95-.68-2.86-.19s-2.38,1-2.35-.21c.11-4.8-3.73-1.78-5.59-3.76.4,2.23,1.35,3.6,2.5,3.59,3.46,0,3.1,2.11,3,4.37-.09,2.43.9,4.67,1.55,7s0,3.69-2.42,3.95c-2.25.25-3.63-.74-3.35-3.17.19-1.65-.53-2.54-1.84-3.41-3.49-2.32-4.77-6.18-5.46-9.88-.83-4.48-.39-4.56.79-6.55-1.51-.77-4.15-.09-3.92-3.18S40.18,259.91,43,261c1.43.54,1.93.2,1.64-1.16-.24-1.12.1-2.47-1-3.31-1.39-1-3.71-1.17-3.57-3.66.12-2,2.15-2.57,3.07-4a63.1,63.1,0,0,1,4.12-5.19c-.54,3-.5,5.1,2.51,5.5.88.12,1.6,1.42,1,2-1.74,2,0,4-.49,6a1.49,1.49,0,0,0,2.16,1.73c2.27-2.08,2.56-.26,3.2,1.24a2.69,2.69,0,0,0,1.76,1.77l3,3.86a32.7,32.7,0,0,0-2.42-9C57.5,258.66,59.42,260.36,57.51,261.81Zm82.32-197c-.23.17-.3.13-.19-.15l.24.11.08-.08ZM58.74,269a55.85,55.85,0,0,0,5.1,13.58c.56,1.12.31,3.17,1,3.17,3.34,0,3.49,2.75,4.72,4.65.49.76.62,2.47,2.18,1.71,1.35-.66.82-1.9.28-2.83-1.77-3.1-3.14-6.67-5.63-9.05-2-1.93-3.49-2.8-2.65-6.11C64.37,271.76,61.33,270.46,58.74,269Zm-8.48-72.17a1.48,1.48,0,0,0-1.46-1.6c-1.13-.19-1.43.41-1.82,1.31-.56,1.33.31,3.91-2.94,3.26-.61-.12-3,1.23-3.59,2.53-.49,1.12,1.75,1.25,2.22,2.4a4.1,4.1,0,0,0,1,1.28c.59.61,1.23,1.18,1.85,1.76.56-.9,1.72-1.48,1.7-2.68,0-2.29,1.5-4,2.12-6A18.23,18.23,0,0,1,50.26,196.86ZM73.47,304.43l-.51-.78a9.94,9.94,0,0,1-3.54,2c-.69.18-1.58.59-1,1.55.41.69,1.17.37,1.69,0C71.25,306.26,72.35,305.33,73.47,304.43ZM50.53,223.56c-.12-2.28-.23-4.55-.34-6.83C49.1,219.13,50.09,221.39,50.53,223.56Zm18,76.79c-1.27.28-2.4-.33-3.66-.67C65.31,304.08,67,301.64,68.48,300.35ZM50.26,206.63c-.17-.87.26-2.28-1.43-2.28-1.07,0-1,.89-1,1.67,0,1,0,2,1.35,2.18C50.34,208.31,50.35,207.56,50.26,206.63Z"/><path class="cls-3" d="M202,444.94c2.07-.63,3.42-2.29,5-3.58,3.94-3.29,8.56-4.15,13.41-4,5.37.17,6.64,1.58,7.94,8.11,5.22-3.17,10-7,16-8.49l1.83-.05a14.55,14.55,0,0,1,8.4,6.28,3.08,3.08,0,0,0,3.25,1.48c7.34-.47,14.71-.35,22.06-1.21,5.35-.63,10.79-.46,16.2-.57,2.27,0,5.07,3.88,4.48,6.44-2,8.64-2.08,17.52-3.36,26.25-.49,3.29-1.29,5-5.14,5.48s-7.72.15-11.57.2c-4.82.05-8.7,1.79-11.53,5.78-2.67,3.75-6,4.57-10.27,2.79-.9-.38-1.82-1.85-3-.17a4.2,4.2,0,0,1-5.18,1.64,6.4,6.4,0,0,1-4.2-5c-.58-3.53-1-3.61-4.16-1.51-4.77,3.2-9.53,6.44-15.68,6.35-2.79,0-5.28-.46-7.45-2.53a6.47,6.47,0,0,0-9-.58c-2.51,1.87-5.37,2.75-8.22,3.72-3.18.17-5.44-1.87-8-3.28-1.51-2-1.5.86-2.68.83-8.47-.15-16.94-.26-25.3-1.75a25.49,25.49,0,0,0-7.47.16c-14.12,1.62-28.06-.7-42.08-1.37-4.36-.21-7.81-2.67-11.93-3.3-1.37-.21-2-2.26-2.28-3.71-2.26-10.48-1.25-21,.1-31.45.09-.74.31-1.62,1.44-1.12,4.54,2,9.51,1.53,14.25,2.18a28.39,28.39,0,0,0,15.43-2.31c2.32-1,6.06-.22,9.15,0,8,.48,16,.6,24.06.32,8.29-.29,16.64,1.32,25,1.13,1.72,0,3.49.25,5.13-.58h1c.29.4.58.5.9,0Zm78.81,16.78c2.46-.62,4.68-5.37,7.3-.12.79-1.17.67-2.06-.15-2.52-2.16-1.21-1.93-2.83-1.07-4.68a4.87,4.87,0,0,0,.37-1.57c.06-.54,0-1.15-.72-1.2a.79.79,0,0,0-.87.77c-.05,3.92-2.95,6.33-4.85,9.26l-.09.2-.12-.18Zm-31.72,6.65c.81,1.79,1.24,3,1.89,4.11s1.56,2.22,3.11,1.07c2.35-1.73,4.1-3.85,4.46-6.88a4.3,4.3,0,0,0-1.7-4.33c-1.4-.89-2.59.43-3.74,1.22-.75.51-1.34,1.92-2.3,1.32s-.39-1.87,0-2.92c1.63-4.4,2.19-8.82-.3-13.15a2.69,2.69,0,0,1-.35-1.2c-.12-4.45-2.59-6.44-6.86-5.18-8.67,2.56-14.62,8.55-19.57,15.78-1.5,2.2-2.35,4.83-4.42,7-1.08-3-1.94-5.81-4.63-7.45-2.85-1.73-5.78-.61-9.16,0l4.34-4.61a44.94,44.94,0,0,1,11.12-8.81c.62-.34,1.6-.7,1.35-1.61s-1.26-.64-2-.72a13.31,13.31,0,0,0-9.54,2.4,60,60,0,0,0-14.71,14.48c-3.37,4.83-5.66,10.08-4.66,16.17.83,5,3.36,9,8.22,10.91,4.3,1.67,7-1.72,10.06-3.86.26-.18.45-.48.71-.67,2.68-1.95,4.22-5,6.82-7.33.29,1.48.48,2.66.76,3.81,2,8.43,6.29,10.76,14.35,7.74a22.29,22.29,0,0,0,4-2.1C242,480,245.7,474.73,249.05,468.37Zm-79-3c4.28-1.32,8.69-.48,13-1.17,1.44-.24,4.07.67,4-1.17s-2.69-1.13-4.22-1.06c-2.56.12-3.05-1-2.26-3.16.26-.72.6-1.4.82-2.13.63-2.05.1-3.13-2.31-2.89-2.91.29-5.84.55-8.76.55-3.65,0-4,.31-3,3.64a6.32,6.32,0,0,1,.55,1.84c-.08,2.2,1.19,2.33,2.75,1.85a11.64,11.64,0,0,1,6.64-.14c-4.35.67-8.72,1.08-13.09,1.4-1,.07-2.09,0-2.13,1.35s1,1.36,2,1.33c.78,0,1.88-.78,2.31.36,1,2.58,2.33,5.19,2.51,7.86a5.84,5.84,0,0,0,1.32,3.38c-.78.12-1.21.19-1.63.24-.93.12-2.32-.06-2.15,1.3s1.39.52,2.18.49c2.61-.09,5.22-.07,7.81-.3,2.2-.2,4.52.65,6.83-.65-1.93-1.92-4.56-.44-6.64-1.68,1.27-1.12,4-.29,3.83-1.83-.36-2.66.88-4.63,1.53-6.88s-.52-3.39-2.64-3A46.92,46.92,0,0,1,170,465.35Zm-32.86-.3c1.09,1,2.37-.62,2.81.09,1.86,2.94,3.94,1,6,.53,1.17-.26,2.76-.76,3.38.2.87,1.33-.92,2.19-1.51,3.28-.47.86-1.47.83-2.33.91-4.61.47-4.61.47-3.34,5.06a8.86,8.86,0,0,1,.29,1.26c.23,1.66,1,1.75,2.5,1.28,2.12-.65,4.35-1.16,6.54.18,1.36.82,2-.42,2.38-1.4.49-1.32.61-2.76,1.07-4.09.53-1.56.44-2.81-1.22-3.5-.87-.36-1.88-.75-1-1.77s.69-3.86,3.2-3.35c1.58.31,3.42.84,3.82-1,.35-1.61-2-1.07-2.94-1.81-2.75-2.08-7.35-1.92-7.9-6.7-.08-.68-1-1.12-1.83-1.07a1.5,1.5,0,0,0-1.52,1.35c-.59,2.29-2.24,3.9-3.72,5.64S138.24,463,137.15,465.05Zm-25.94-6.12c0,1,.3,2,0,2.7-1.3,2.51-.8,3.57,2.13,3.32,1-.08,1,1,1.2,1.67.29,1-.5,1.35-1.23,1.53a15.85,15.85,0,0,1-2.57.33c-.78.06-1.59,0-1.85.95a1.82,1.82,0,0,0,.46,1.82c.79.77,1.36-.1,2-.34.5-.19,1.19-.22,1.48-.58,1.1-1.32,2.11-.25,2.8.25,1,.71.73,1.94.25,3-.73,1.59-2.33.22-3.39.93.29.4.52.77.8,1.1.77.93,1,2.69,2.76,2.22,1.59-.41,2-1.85,2.26-3.27a21,21,0,0,0,.56-7c-.11-.71-.28-1.12.44-1.59,1.79-1.15,5.14-1.86,1.64-4.85-.12-.1,0-.73.15-.85,2.54-1.7-.18-3.84.43-5.8.25-.81-1.76-1.94-2.46-1.47-2.39,1.58-5.5,1.74-8.23,4,2.44.34,4.06.8,4.08,3.08a1.06,1.06,0,0,0,1.26,1.14c.78-.19.87-1,.74-1.6a12.41,12.41,0,0,0-.76-1.77c-.31-.81.14-1.26.87-1.35s1.46-.39,1.73.39c.54,1.57-.32,3-.94,4.33-.68,1.52-2.23,1-3.43,1.19-1.62.2-1.1-1.21-1.32-2A1.67,1.67,0,0,0,111.21,458.93Zm22.62,11.94c-1,2.27-1.32,4.89-4.2,4.05-2.72-.8-2.3-3.2-2.17-5.41.27-4.33.4-8.67.57-13a5.08,5.08,0,0,0-.06-1.61,1.37,1.37,0,0,0-2-1.06c-1,.33-1.17.63-.88,1.82.39,1.63.07,3.43,0,5.16-.07,4.22-.6,8.46.36,12.63.8,3.45,4.09,4.87,8,3.71,4.16-1.22.85-3.49.74-5.31C134.28,471.66,134.13,471.48,133.83,470.87Zm133.58-7.73c-6.84,6.41-12.38,12.94-16.34,20.73a3.11,3.11,0,0,0-.35,1.23c-.05.77,0,1.63.88,1.87s1.06-.56,1.36-1.1a118.17,118.17,0,0,1,12.46-17.8A6.89,6.89,0,0,0,267.41,463.14ZM267,479.08a3.56,3.56,0,0,0-1.72-4c-1.53-.82-2.7.82-3.82,1.78-1.75,1.51-2.22,3.68-2.47,5.8a3.76,3.76,0,0,0,1.82,3.5c1.21.78,2.33,0,3.24-.75A7.22,7.22,0,0,0,267,479.08Zm9.28-1.92,13.18-.85a6.07,6.07,0,0,0-3.89-1.1c-1.05-.08-2.39.22-2.83-1s-.63-2.87.84-3.81c.73-.47,1.07-.82.11-1.24-1.13-.49-1.27-1.31-1.14-2.38.09-.69-.11-1.4-1-1.33-.65.05-.71.72-.71,1.27s.06,1.08.07,1.63C281.07,474.33,281.07,474.33,276.32,477.16Zm1.09-24.69c-1.38,1.43-.76,2.92-.63,4.19s-1.63,3.07.23,3.69c1.29.44,1.93-1.68,3-2.54a5.34,5.34,0,0,0,.81-1.36C276,458,278.86,453.82,277.41,452.47Z"/><path class="cls-3" d="M322,86.17c-.23-8,.05-16-.82-23.92-1.21-11,1-22-.52-33a22,22,0,0,1,.17-2.9c0-7.53,1.17-8.54,8.67-7.72a18.72,18.72,0,0,0,3.56-.25c2.86,0,5.62.91,8.54.67,7.92-.64,15.79.8,23.7.85,1,0,2.91.05,2.53,1.27-1,3.07.73,5.75.68,8.6-.21,11.92,1.29,23.81.41,35.75-.41,5.71.34,11.5-1.78,17a2.86,2.86,0,0,1-2.37,2.06c-4.59,1.24-9.33.32-13.89,1.33s-9.39.48-14.07.78c-4.1.27-8.15-.64-12.22,0a1.56,1.56,0,0,0-1.69.21C322.84,86.28,322.42,86.2,322,86.17Zm24.75-45.64,0-.15,0,.17c1,1.85.43,2.67-1.64,3-1.52.24-3.2-.25-4.54.8,1.59,0,3.21,0,4.83,0,.63,0,1.49-.14,1.65.63.21,1.06-.8,1.09-1.5,1.27-1.87.46-3.93-.19-6.22.79,2.78,0,5,0,7.29,0s1.94-1.77,1.95-3S349.63,40.46,346.71,40.53Zm10.42,27.36c-1.91,1.44-4.34.91-6.58,1.64,1.41,3,3.64,5.13,5.76,7.4,1.17,1.26,3.29,1.72,3.71,3.44.59,2.42,2.45,1.52,3.58,1.44,1.79-.11.83-1.72.8-2.76l-.08-2c-.1-5.56.71-11.15-.48-16.68.26-9.41,1.56-18.8.44-28.23-.32-2.66.7-6.37-.7-7.73s-5.06-.31-7.73-.32c-3.75-.18-7.5-.43-11.25-.49-1.46,0-4-.8-4.11,1-.14,2.36,2.35.69,3.61,1.12.69.24,1.68.25,1.63,1.23s-1.05.9-1.76,1c-1.11.15-2.24.23-3.49.36.95,1.29,3.12-.21,3.3,1.61.13,1.39-2.08.56-2.59,1.75,1.14.54,2.55-.39,3.38.88-.18,1.37-2.32,1.83-2.21,1.88,2.55,1.23-.21,2.65.22,4a17,17,0,0,0,7.29-.52c2.22-.5,3.25.46,2.85,2.88-.34,2-.45,4.09-.6,6.14-.1,1.45-.31,2.79-2,3.29,1.09,1.24,3.13,1.5,2.64,3.5a1.67,1.67,0,0,1-1.08,1.06c-1.79.15-2.57-1.19-3.31-2.52-.05-.09-.16-.15-.22-.23-2.23-3.09-3.31-3.09-6.28-.63-1.92,1.59-4.06,3-6.91,2.69.34-1.64,3-2.72,2-3.48-3.15-2.41-1-5.49-1.73-8.1-1-3.67,1.35-4.46,3.92-5.31.23-.07.39-.39.75-.76-2.69-1.28-4.35,1.83-6.71,1.33-.37-1.25,1.12-1.65,1-2.69-.49-.91-2.9-.13-2.18-1.53,1-1.91,1.42-4.82,5-4.4a2,2,0,0,0-2.21-.45c-1.23.19-3.08,1-3.32-.72s1.66-1.49,2.93-1.5c.44,0,.87-.09,1.3-.12a1.63,1.63,0,0,0,1.55-1.77c0-1.26-1.07-.8-1.7-.79A56.9,56.9,0,0,1,329,24c-3.21-.31-4,1.33-3.92,4,.09,3.57.75,7.11.87,10.65.33,10.3.27,20.62.42,30.93,0,3.37.26,6.73.37,10.1,0,1.23.31,2.11,1.84,2,1.79-.15.55-1.19.59-1.85.08-1.1.07-2.6,1-3,2.9-1.29,3.88-4.36,6.16-6.44.08,3.28-1.25,5.84-2.42,8.49-.33.76-.93,2.26.5,2.81s1.95-.51,2.44-1.56a49.8,49.8,0,0,0,2.45-5.31c1.43-4.33,2.49-8.76,1.21-13.31-.26-.91-1.05-1.5-.07-2.47.81-.81,1.56-1.63,2.78-1.21,3.69,1.28,7.32.29,10.91-.37,1.5-.28,2.8-.65,3.85.64s0,2.38-.42,3.59c-.61,1.61-2.67,3.2-.46,5.1Zm-19,14.16c5.37.69,9.94-.15,14.5-.44,1.49-.09.52-1.35.19-2q-2.07-4-4.3-8c-.6-1.07-1.05-2.43-2.84-2.07S344.19,71.2,344,72.3A14.16,14.16,0,0,1,338.17,82.05Zm9.62-15.4,1.48-.12c3-.26,4.71-1.94,4.15-4.72s-2.91-1.09-4.48-1.25a8.2,8.2,0,0,0-1.6.22c-2.86.34-2.48,2.57-2.48,4.44C344.86,67.77,346.88,66.27,347.79,66.65Zm-8.51-25c1.92-.25,4.05.64,6.45-.92A11.05,11.05,0,0,0,339.28,41.62Z"/><path class="cls-2" d="M238.84,301.82a4.9,4.9,0,0,1-4.78-3.58c-.95-2.52-4-3-5.76-4.87-5.25-5.55-4.13-12.53,3.17-14.88,5.93-1.91,9.74-6,13.48-10.42a51.27,51.27,0,0,0,7.78-11.5c.39-.86,1.44-1.79.76-2.64-.81-1-2.4-.8-3.34-.36a7.06,7.06,0,0,1-6.36-.06c-3.9-1.67-6.84-6.65-5.75-10.62.55-2,2.87-2,4.09-2.47,5.08-1.84,8.56-5.57,12.29-9,6.47-6,12.66-12.4,20.22-17.11a24.21,24.21,0,0,1,14.86-3.6c3.56.25,7.21,0,10,2.66,1.07,1,3,2.39.14,3.72l-.59.43v.06c-1.9-1.63-2.89-4.69-5.9-4.57-5.14.22-10.41-.11-15.21,2.28-7.66,3.82-13.75,9.67-19.9,15.46-4,3.74-7.69,7.76-12.53,10.57-2.31,1.34-4.93,3.65-4.09,6.74a5.51,5.51,0,0,0,5.46,3.89c3.69-.23,7.44,1.38,11.06-.38.1,1.68-1.11,2.85-1.89,4.06-2.67,4.14-2.12,9.25-4.72,13.81,3.49-.62,5.51-2.93,7.86-4.59,3.72-2.61,7.44-5.22,11-8.06,2.67-2.16,2-4.54-1.36-5.59-.79-.25-2.24.53-2.14-1.16.08-1.26,1.27-1.35,2.14-1.92,3.75-2.5,8-3.3,12.18-4.64a2.55,2.55,0,0,1,2.87.67c2.06,1.8,4.18,2.42,6.74.64,1.49-1,3-2,4.5-3.09,5.89-4.2,12.74-4.12,19.56-4,2.45,0,2.21,3,4,3.83a1.15,1.15,0,0,1-.16.82c-3.82,2.58-6,6.8-9.79,9.46-1.58,1.11-2.79,2.77-4.4,3.81-2.92,1.89-2.57,4-.88,6.4,1.12,1.56,2.48,3,3.72,4.42s3.28.22,4.32-1.12c3.3-4.27,8.06-6.86,12.29-9.81,3-2.07,7.05-3,11.91-.58,4.37,2.15,5,5.56,6.88,8.62,2.27,3.67,1.54,7.39-.05,11.45a39.77,39.77,0,0,1-6.74,11.69c-.76.89-1.56,1.46-2.8.9-2.34-1.06-4.84,1.78-7.15-.25,7.41-2,12.26-2.43,14.28-11.66a12.23,12.23,0,0,1,1-2.4A7.85,7.85,0,0,0,338.26,263a7,7,0,0,1-3.11-3.55,4.23,4.23,0,0,0-4.6-2.88c-4.13.41-7.82,1.64-10.48,5.1s-6.9,5.17-10.38,7.7c-1.82,1.32-6.45-1.41-7.45-3.91-3-7.5-2.18-10,4.35-15,1.17-.91,2.59-2,2.93-3.74.13-.66.34-1.43,1.15-1.33,3.56.42,2-2.31,1.68-3.32-.54-1.75-2.3-1.4-3.61-.69a2.52,2.52,0,0,1-2.15.16c-2.37-.72-4.09-1-6,1.74-2.57,3.73-11.68,5.09-16.08,3.28-4-1.65-5.5-1-7.14,3.08a3.82,3.82,0,0,1-1.62,1.95c-1.68,1-2.61,2.23-1.57,4.29a1.83,1.83,0,0,1-.66,2.35c-2.52,1.06-3.73,3.89-6.47,4.6a1.83,1.83,0,0,0-1.07.6c-2.29,4.33-6.74,5.34-10.75,6.91-1.9.75-1.87,2.14-1.82,3.72-1.25-.16-1.15-1.28-1.66-1.87-1.14-1.34-2.53-2.3-4.26-1.6-1.49.6-3.24,1-2.66,3.66.41,1.84-1.88,2.16-3.18,2.58-3.85,1.26-7.12,3.18-9.2,6.77a39,39,0,0,0-2.86,5.42c-.85,2.18.87,3.55,2.33,4.55C235,295.72,236.81,298.86,238.84,301.82Z"/><path class="cls-2" d="M162.57,156.09c.28,1.59,2.83,3.13,1.18,4.45-.92.74-3.38-.24-5.05-1.2-4.52-2.61-8.18-1.43-12.08,2.35-3.14,3-6.15,6.21-9.36,9.18-1.24,1.14-2.21.89-3.28-.27-4.7-5.14-10.47-8.62-16.6-11.92a104.42,104.42,0,0,1-13.11-9c-4.92-3.73-8.66-8.34-12.5-12.83A29,29,0,0,1,86,124.13c-1-4.81-.94-9.73-.83-14.62.05-2,2-.88,2.21-.61,1.49,2.13,4.23,2.4,5.93,4.32a5.13,5.13,0,0,0,6.42,1.44,7.66,7.66,0,0,1,4.13-.6c6.84.82,13.44,2.53,19.35,6.09,7.72,4.65,15.26,9.59,22.86,14.43.41.26.59.88,1,1.25,1.25,1.27,1.89,2.81,4.48,2.78,2.27,0,4.57,2,6.84,3.22.37.19,1,.7.91.83-2.18,4.9,3,4.92,4.86,7a8.92,8.92,0,0,0,5.12,3.21c2.39.07,4,1.17,4.45,3.6.17.93,1,1.1,1.48,1.61,2,2,4.47,3.45,5.22,6.42,1,3.92,4.69,5.92,7,8.84,1.86,2.36,5.58,3.85,8.51,5.67.83.52,1.92.86,1.75,2.07-1,7.36,4,12.47,6.77,18.42.67,1.44,2.1,2.57,1.78,4.41-2-.82-2.88-2.6-3.84-4.44-1.55-3-2.94-6-5.5-8.42-1.83-1.72-1.06-4.48-1.48-6.76-.22-1.23-.2-2.46-1.83-2.55-6.76-.39-9.64-5.77-13.05-10.31-3.16-4.19-5.88-8.72-8.95-13-2.89-4-4.62-4.47-8.75-2.83,1.12-2.34.5-4.1-1.76-5.34a9.09,9.09,0,0,1-3.79-4.31,8.39,8.39,0,0,0-3.73-4c-2.09-1.1-4.77-1.45-6.42-3a95.49,95.49,0,0,0-13.82-10.15c-5.59-3.54-11-7.44-18-7.62a2.26,2.26,0,0,1-1.4-.75c-1-1.14-2.55-1.12-3.68-1.75-3.19-1.8-6.49,0-9.75-.78-1.86-.47-3.9,1.79-6.43-.32-1-.81-3.06,2.22-4.21,3.91s.21,2.62.9,4c1.59,3.2,5.77,5.37,4.11,10-.33.91,1,1,1.72,1.45,1.84,1.06,4.08,2.32,4.37,4.44s.85,2.54,2.78,2.44c2.63-.14,4.79.62,4.87,3.86a2,2,0,0,0,.93,2c2.86,1.29,5.11,3.75,8.3,4.39.86.17,1.76.21,2.22,1.13,1.73,3.49,4.69,5.34,8.26,6.57,1.29.45,2.81.77,3.7,2s1.79,2.66,3.63,1.46c1.31-.85,3.67,0,4.14-1.47,1.59-4.78,6.29-4.81,9.63-6.91a7.62,7.62,0,0,1,8.35-.08A3.68,3.68,0,0,0,162.57,156.09Z"/><path class="cls-2" d="M322,86.17c.46,0,.88.11.9.7l1.69-.21c4.07-.59,8.12.32,12.22,0,4.68-.3,9.41.24,14.07-.78s9.3-.09,13.89-1.33a2.86,2.86,0,0,0,2.37-2.06c2.12-5.54,1.37-11.33,1.78-17,.88-11.94-.62-23.83-.41-35.75,0-2.85-1.63-5.53-.68-8.6.38-1.22-1.54-1.27-2.53-1.27-7.91-.05-15.78-1.49-23.7-.85-2.92.24-5.68-.67-8.54-.67,1.56-1.68,3.5-.53,5.26-.7,1.38-.12,2.8.32,4.5-.47-2.71-1.74-5.87.19-8.79-1.73a18.9,18.9,0,0,1,11.49-2.1c7.44,1,14.75,3,22.11,4.55a2.33,2.33,0,0,1,1.8,1.72,64.78,64.78,0,0,1,2.88,22.21c-.53,8.61-.79,17.37.51,26,1,6.75-2.18,12-5.12,17.35-1,1.9-4.25,1.74-6.34,1.73-9.71-.06-19.16,1.66-28.61,3.55a6.66,6.66,0,0,1-4.14-.18c-.69-.3-1.5-.7-2.09.08s.2,1.38.36,2.08a11.91,11.91,0,0,0,5.36,7.91c2.84,1.89,2.34,5.93,3.63,8.9-5.55-5.75-10.55-12-16.39-17.49-3.06-2.87-5.84-6-8.74-9.07,2.83.18,4.79,1.95,6.77,3.69C319,87.7,320.54,88.32,322,86.17Zm24.83-69.26.21-.16a2,2,0,0,0-.44-.21c-.05,0-.14.1-.2.16Z"/><path class="cls-3" d="M275.51,411.9a5,5,0,0,0-2.07,2c-.3.44-.82,1.26-.94,1.21-3.3-1.43-5.57,2.49-8.81,1.6s-4.21.84-4,3.85c.13,1.94,0,3.9-.08,5.86a2.65,2.65,0,0,1-2.92,2.8c-2.23.06-1.83-1.64-1.84-3,0-.22,0-.44,0-.65-.11-2.71.62-5.89-.56-8-1.31-2.33-4.82-.54-7.27-1.22a8.36,8.36,0,0,1-1.11-.57c2-.91,3.71-.34,5.34-.3,2.36,0,3.62-.64,3.61-3.3s2.58-3.68,4.75-2.44c1.26.72.12,1.47.18,2.2.09,1.09-.78,2.58.8,3.14,1.74.62,2.45-.93,3.32-2,1.19-1.49-.44-1.85-1.09-2.47-1.79-1.73-3.69-3.35-5.64-5.09a32.31,32.31,0,0,1-17.63,10.44c4.06-3.65,9-6.28,12-11.58-2,0-3.5-.4-3.19-2.74.25-1.81-.91-2.1-2.42-2.09a11.63,11.63,0,0,1-5.28-1c1.36-.07,2.71-.22,4.06-.19,2.14,0,3.8-.14,3.81-3,0-2.42,2.08-1.58,3.48-1.58,1.64,0,2,.71,1.34,2.25a1.39,1.39,0,0,0,1.26,2.1c1.73.09,3.46.16,5.2.12,1.34,0,1.46-1.14,1.41-2.14-.13-2.7,1.62-2.51,3.47-2.45,2.2.07,2.14,1,1.36,2.62a1.33,1.33,0,0,0,.92,1.83,2,2,0,0,0,2.64-1.7c2.37-2.12,3.22,1.27,5,1.37-.32,3.16-2.77,1.6-4.29,1.82-2,.29-4.49-.73-4.51,2.89,0,1.28-1.52,1.61-2.83,1.61-1.49,0-1.86-.84-1.8-2.09.11-2.1-1.06-2.57-2.88-2.36-1.18.13-2.39.06-3.58.17-.68.07-1.77-.18-1.66,1,.07.87,1,.61,1.59.63,1.7.07,3.63.16,4.63,1.55a16.76,16.76,0,0,0,11.17,6.91c1.71.3,3.37.75,5.06,1.14Z"/><path class="cls-2" d="M167,148.91a55.44,55.44,0,0,1-4-27.66,60.61,60.61,0,0,1,2.62-12c.3-.89.34-2.28,1.64-2,1.82.37,3.16-.58,4.6-1.2,4.14-1.8,8.59-1,12.87-1.58,2.17-.3,3.36-.62,3.33-3.13,0-3.26.25-6.5,0-9.77-.48-7.37,1.2-14.47,2.93-21.56.82-3.34,1.62-6.58.62-10.17s.19-5,4-5.41c1.23-.15,2.31-.26,3.09-1.8,1.18-2.31,8.35-2.81,10.41-1.11,1.2,1,1.8,2,.52,3.78,3.12-1.84,4.27-.18,5.19,1.81,3.91,8.42,5,17.27,4.62,26.48-.16,4.06,1,8.15.08,12.25-1.7-.52-1.51-1.94-1.46-3.22.25-6.17-.49-12.31-.3-18.51.17-5.48-1.79-10.88-4.6-15.77a3.58,3.58,0,0,0-2.7-1.57c-5-1.12-9.67.47-14.38,1.64a2.19,2.19,0,0,0-1.51,2.88c.76,2.73-.19,5.29-1.1,7.56C189.87,78,190,87.67,190,97.27c-.06,7.31-3.07,10.39-10.34,9.79-4.38-.35-8.44-.06-11.62,3.57a7.53,7.53,0,0,0-2.12,4.26c-.32,2.92-.6,5.84-1.09,8.72-1.14,6.73.37,13.18,2.1,19.55C167.46,145.19,167.11,147,167,148.91ZM204.21,52.2c-1,.3-2.65-.32-2.92,1.57a.94.94,0,0,0,1.44,1c1.45-.78,3.94,1.08,4.42-1.28C207.44,52.09,205.43,52.48,204.21,52.2Z"/><path class="cls-3" d="M269.72,286.75c3.72,2.82,5.56,7.06,8.1,10.77a3,3,0,0,1,0,3.61,151,151,0,0,1-13.35,15.12c-.7.69-1.71,1.77-3.1,1.1-.63-2.91.17-5.8.13-8.69,0-4.06,1.23-8.46-2.2-11.93l0-.18-.18-.05-.12-1.08,0-.07c1.53-1.62,3.81-2.44,4.89-4.55l.14-.13a1.22,1.22,0,0,0,1.24-1,.2.2,0,0,0,.29-.15C267.54,289.53,268.18,287.46,269.72,286.75Z"/><path class="cls-2" d="M328.52,294.42a89.27,89.27,0,0,1,6.79,6.83c1.59,1.95,2.47,1.21,3.85,0,3.49-3.15,4.81-7.67,7.29-11.45,11-16.72,17.23-35.44,21.37-54.79,1.33-6.22,2.5-12.79,1.83-19.33-1.63-15.74-1.26-31.7-5.34-47.16a3.25,3.25,0,0,1,2.47,2.74c.52,2.44,1.05,4.88,1.38,7.34,1.29,9.65,1.83,19.37,2.64,29.07a90.2,90.2,0,0,1-1.35,27.31c-2.4,10.79-4.93,21.58-9.6,31.7-1.09,2.36-2.41,4.72-2.89,7.22-.89,4.57-4.49,7.81-5.46,12.32-.44,2.07-2.56,3.4-3.79,5.19-2.49,3.61-3.17,8.24-6.84,11.23-2.94,2.4-5.34,2.66-7.87-.17-1.26-1.41-2.45-2.79-4.56-2.71l0,0C328.76,298,327.55,296.17,328.52,294.42Z"/><path class="cls-3" d="M198.07,419.36c.09,1.9,0,3.65,1.38,5.45s-.57,3.06-2.19,3.36a23,23,0,0,1-8.44,0,3.74,3.74,0,0,1-3.25-3.93c-.07-9.35-.08-18.69-.08-28,0-2.69,2-2,3.52-2,1.72.07,1.74.67,1.64,2.61-.44,8.35-.21,16.73-.26,25.1a1.59,1.59,0,0,0,1.77,1.82c1.49,0,3.22.37,3.94-1.45a37.45,37.45,0,0,0,1.17-4.37l.7,0a.9.9,0,0,0,.27,1.1l-.22.12Z"/><path class="cls-2" d="M219.63,95.82c4.7-1.82,9.34-3.82,14.26-5a5.29,5.29,0,0,0,4.44-5.25c.51-10.23,3.3-20.08,5-30.11a7.1,7.1,0,0,0-1.47-6.25c3.46-.66,5.35,1.44,5.16,6a14.6,14.6,0,0,1-.93,4.78,62.15,62.15,0,0,0-4.23,17.17c-.09.86-.5,1.84-.22,2.56,1.49,3.9,1.6,7.26-1.77,10.54-1.22,1.19-1.79,2.28-3.8,2.65a29.89,29.89,0,0,0-11,3.92C223.61,97.75,220.78,99.62,219.63,95.82Z"/><path class="cls-3" d="M251.39,144.39c2.67-.38,3.88,1.9,5.48,3.15,5.27,4.12,5.21,4.38-1.12,6.63-3.67,1.3-6.61,4-10.4,5-.75.19-1.68,1.14-2.32.09-.45-.76.08-1.63.5-2.43a59.35,59.35,0,0,0,2.51-5.92c.86-2.15,3.35-3.4,3.61-6C249.67,144.66,250.79,144.55,251.39,144.39Z"/><path class="cls-3" d="M216.24,169.47c0-5.29.18-10.58-.5-15.86-.17-1.26-.46-2.84,1-3.84a2.6,2.6,0,0,0,1.81,1.28l0,0a10.1,10.1,0,0,0,5.2,5.23l0,0c.25,2.27.86,4.3,3.39,5l0,0C226.86,166,222.19,169.47,216.24,169.47Z"/><path class="cls-2" d="M295.58,71.31c-3.8-2.7-7.47-5.62-12.6-7.55,2.37,2.66,5.79,2.8,7.42,6-7.57-3.33-13.82-7.69-20.26-11.73-1.44-.91-3-1.61-4.54-2.4.58-1.08.26-3.42,2.69-1.81a85.9,85.9,0,0,0,18.39,9.65c6.18,2.23,12.2,5.86,15.56,12.37.66,1.27,2.57,1.9,3.91,2.81s2.7,1.46,3.29,3c-6-2.28-10.63-6.74-16.29-10,1-.73,1.69-1,2.47-.31.34-.38.76-.79,1.25-.41.22.17.16.71.23,1.07,0-.06.1-.1.15-.15l.08.19L297.1,72C296.2,72.65,295.73,72.37,295.58,71.31Z"/><path class="cls-2" d="M364.23,167.28c-1.66-5-3.18-10.07-5-15a161.2,161.2,0,0,0-22.5-41.36,8.32,8.32,0,0,1-.7-1.4c3,0,3.9,2.83,5.65,4.41,2.08,1.87,2.12,6,6.36,5.55.58,0,.81,1.41.51,2-1.45,2.91.24,5.35,1.49,7.47,6,10.12,10.09,21,13.9,32.07C364.6,163,365.5,165.14,364.23,167.28Z"/><path class="cls-2" d="M275.47,411c-1.69-.39-3.35-.84-5.06-1.14a16.76,16.76,0,0,1-11.17-6.91c-1-1.39-2.93-1.48-4.63-1.55-.62,0-1.52.24-1.59-.63-.11-1.16,1-.91,1.66-1,1.19-.11,2.4,0,3.58-.17,1.82-.21,3,.26,2.88,2.36-.06,1.25.31,2.1,1.8,2.09,1.31,0,2.82-.33,2.83-1.61,0-3.62,2.5-2.6,4.51-2.89,1.52-.22,4,1.34,4.29-1.82,2.34,1.6.91,3.09-.42,4.09a22.19,22.19,0,0,1-4.65,2.24c-.68.3-1.69.29-1.79,1.18-.12,1.12,1,1.34,1.75,1.58,2,.58,4.06.93,5.44,2.67A5,5,0,0,1,275.47,411Z"/><path class="cls-3" d="M225.18,126.54c-4.38,2.69-3.34-.83-3.9-3.26-.71-3.11-.07-5.15,2.84-6.6a7.37,7.37,0,0,0,3.12-2.8,1.31,1.31,0,0,1,2.45.71c-.51,3.75-.7,7.59-2.42,11C227,126.1,226.81,128,225.18,126.54Z"/><path class="cls-3" d="M264.19,99c2.53-.52,2.14,1.13,1.89,2.37-1,4.91-3,9.27-7.11,12.42a1.43,1.43,0,0,1-1.18.27c-.23-.08-.44-.7-.4-1,.43-3.55.51-7.21,1.53-10.59C259.55,100.33,262.3,99.8,264.19,99Z"/><path class="cls-3" d="M181,133.27c-.84-5.13,1.22-10.68,4.53-12.76a3.85,3.85,0,0,1,3.94-.33c-.66,2.35-1.17,4.75-2,7C186.37,130.25,185.27,133.48,181,133.27Z"/><path class="cls-2" d="M248.59,335.78a56.75,56.75,0,0,1-6.06-2.2c-5.42-2.63-7.46-7.25-5.25-13.28,2.15-5.84,1.8-11.83,2.2-17.8,1.49.48,1.36,1.74,1.45,2.94a40.47,40.47,0,0,1-1.58,15.08c-2.12,6.83.57,8.87,5.32,11.85C246.14,333.29,248.39,333.38,248.59,335.78Z"/><path class="cls-2" d="M235.05,190.66c-.47,2.9-3.42,3.21-5.2,4.55-4.32,3.27-8.59,6.47-11.91,10.82-1.24,1.63-3.63.92-5.3,2.1-.63.44-1.69-1.32-2.28-2.34,4.8.22,7.94-2.48,11.22-5.62C225.55,196.39,229.25,192,235.05,190.66Z"/><path class="cls-2" d="M297.76,139.77c-.5,3.84,3.49,1.21,4.31,3.55l-3.14,4.22-.25,0-.24,0c-.14-.09,0-.58-.4-.31l.31.38c-.34,2.54-3,2.07-4.51,3.42,2.58-4.09,2.37-8.54,2.21-13.17C297.28,138.19,297.13,139.33,297.76,139.77Z"/><path class="cls-2" d="M181,133.27c4.24.21,5.34-3,6.46-6.06.84-2.28,1.35-4.68,2-7,1.39,2.9,2.24,5.36-.54,8.42-1.6,1.76-2.73,4.24-4.45,6.15-1,1.08-2,2.47-3.46,1.76S181.1,134.39,181,133.27Z"/><path class="cls-2" d="M216.24,169.47c5.95,0,10.62-3.44,10.94-8.06,1.92.93,1.35,2.45.81,3.85-1,2.71-6.31,6.15-9.19,6.07C217.51,171.3,216.47,171,216.24,169.47Z"/><path class="cls-2" d="M259.26,296.73c3.43,3.47,2.15,7.87,2.2,11.93,0,2.89-.76,5.78-.13,8.69a2.61,2.61,0,0,1-1.87-3,42.25,42.25,0,0,0-.51-15.41A6.34,6.34,0,0,1,259.26,296.73Z"/><path class="cls-2" d="M142.7,8.59c-.16,1.36-1.3,1.5-2.32,1.67s-1.76-.24-1.66-1.35A2.07,2.07,0,0,1,140.92,7C141.9,7,142.45,7.62,142.7,8.59Z"/><path class="cls-2" d="M227.14,161.37c-2.53-.74-3.14-2.77-3.39-5C226.27,157.07,226.55,159.33,227.14,161.37Z"/><path class="cls-2" d="M263.87,290.8c-1.08,2.11-3.36,2.93-4.89,4.55C258.89,292.39,260.14,291.23,263.87,290.8Z"/><path class="cls-2" d="M308.34,89.46a1.47,1.47,0,0,1,1.19,1.67c-.3,2.81.8,5.72-.57,8.46Q308.65,94.54,308.34,89.46Z"/><path class="cls-2" d="M100.72,79.11a3.19,3.19,0,0,1-2,1.9c-.63.15-1-.46-1-1,0-1.23.89-1.65,1.9-1.81C100.26,78.06,100.68,78.38,100.72,79.11Z"/><path class="cls-2" d="M223.73,156.31a10.1,10.1,0,0,1-5.2-5.23C221,152.14,223.05,153.52,223.73,156.31Z"/><path class="cls-2" d="M269.72,286.75c-1.54.71-2.18,2.78-4.18,2.8C266,287.24,267.09,285.84,269.72,286.75Z"/><path class="cls-2" d="M305.65,86.34c2,0,2.16,1.66,2.61,3A3.91,3.91,0,0,1,305.65,86.34Z"/><path class="cls-2" d="M241.92,47.46c-.17.14-.36.43-.59.46a.72.72,0,0,1-.89-.62c0-.18.32-.52.55-.57C241.42,46.64,241.78,46.85,241.92,47.46Z"/><path class="cls-2" d="M218.51,151.05a2.6,2.6,0,0,1-1.81-1.28C217.94,149.29,218.38,150,218.51,151.05Z"/><path class="cls-2" d="M239,46.05c-.14.13-.28.37-.43.37-.43,0-.43-.32-.27-.6s.32-.18.49-.27Z"/><path class="cls-2" d="M265.25,289.7a1.22,1.22,0,0,1-1.24,1A1,1,0,0,1,265.25,289.7Z"/><path class="cls-2" d="M258.94,295.42l.12,1.08C258,296.26,258.14,295.87,258.94,295.42Z"/><path class="cls-2" d="M310.51,82.53c-.57,0-.84-.33-1-.81Z"/><path class="cls-2" d="M239.49,302.48l-.66-.69Z"/><path class="cls-2" d="M198.24,419a.9.9,0,0,1-.27-1.1Z"/><path class="cls-2" d="M328.44,299.72l0,0Z"/><path class="cls-2" d="M305,85.65a.41.41,0,0,1,.28.47A.5.5,0,0,1,305,85.65Z"/><path class="cls-1" d="M299.73,176.3c-3,6.47-8.07,11.21-13.42,15.61-6.73,5.51-14.9,9.25-21,15.45-3.84,3.94-8.08,7.31-12,11-1.68,1.58-3.72,2.56-5.47,4a50.63,50.63,0,0,0-4.45,4.08c-.9-.86-1.39-.34-2.09.41-3.91,4.23-8.73,7.42-13,11.31-2.55,2.35-5.4,4.5-7.09,7.41-1.43,2.46-2.65,5.77-1.58,8.59,1.21,3.18.34,6-.19,8.89-.25,1.37-1.22,1.77-2.67,1.76-2.5,0-3.81,2.59-1.86,4,2.5,1.84,1.16,4.38.61,5.18-1,1.41-1.85,3.5-3.88,4-1.29.33-2.89.2-1.89,2.28.81,1.69,2.14,2,3.79,1.21.64-.32.83-1.36,1.67-1.16.44,3.38-1.14,6.38-1.57,9.54s.05,6.62-.46,10.08c-.74,4.94,1.15,10.12,0,15.35a24.48,24.48,0,0,0,0,9c.48,3.05-1.84,5.61-.37,9a40,40,0,0,1,2.4,9.45,41.5,41.5,0,0,1-.38,14.22c-.23,1.15-1.58,2-1.23,2.85,1.45,3.49-1.4,3.85-3.06,3.51a13.27,13.27,0,0,0-11.49,2.71c-.94.71-4,2.86-4.56-1.49-.16-1.18-2.42-3.26-4.41-3.28-3.08,0-2.66-1.68-2.34-3.67.26-1.58,1.11-2.74,2.83-4.09-4-.78-4.46-2.78-2.75-5.65a2.58,2.58,0,0,0-.38-2.49,3.48,3.48,0,0,1-.54-3.12c1.39-2.91.25-5.73.1-8.61-.2-3.56-1.72-7.3,1.17-10.59a2,2,0,0,0-.36-2.71c-1.46-1.39-.94-3.11-1.28-4.72-.75-3.51-.85-6.63,1.23-9.74.42-.62,0-1.89-.19-2.85-.49-2.92-.23-5.44,3-6.69,1.11-.42,1.62-.85.77-2.38-1.24-2.25-2.55-4.8-.11-7.4.62-.67.43-2.07.69-3.12.72-2.88-2.22-6.09.79-8.79.11-.1-.08-.62-.23-.9C191,271,191.31,268,191.82,265c.3-1.78.22-3.52-1.78-4.44l0,0-.54,1.87L186,257.2c-1.58-3.14-6.65-5.86-10.42-5.6h0c-1-1-2.12-.87-2.71.27-2.33,4.45-4.9,8.79-6.77,13.62-1.85-2.23-2.15-5.45-4.5-6.87,4-6.8,10.4-11.55,14.73-18a4.23,4.23,0,0,1,4-2.2.28.28,0,0,1,.06.38c1.16,3.34,3.93,2.88,6.48,2.62,5.39-.55,8.72-4.58,12.52-7.74a195.93,195.93,0,0,1,19.38-14.59c2.44-1.55,5.44-1.7,7.45-3.62,4.2-4,9.44-6.51,14.31-9.34,9-5.25,17.6-11.18,26.9-15.93,1.92-1,4.47-1.72,5.46-3.34,3-4.88,9.34-5.31,12.25-10a1.35,1.35,0,0,1,.88-.37C290.54,175.74,295.13,174.44,299.73,176.3Z"/><path class="cls-1" d="M202,444.94l-3.48,2.58-.9,0h-1a3.41,3.41,0,0,0-4.06-2c-4,1.07-7.93-.46-12,.05-3.1.4-6.44-1.2-9.68-1.86a12,12,0,0,0-5.17.29c-5.25,1.15-10.78,2.29-16.94-.51a18,18,0,0,1,6.7.34c.73.12,1.66.32,2-.6s-.7-1.18-1.28-1.57a3.49,3.49,0,0,0-2.79-.6,2.09,2.09,0,0,1-2.7-1.27c.46-1.19,1.73-.82,2.5-1,3.82-.74,5.66-3.07,6.57-6.7a5.24,5.24,0,0,1,8.16-3.1q8.25,5.31,11.17-4.4c.4-1.35.82-3.09,2.53-2.92,2,.19,1.68,1.88,1.4,3.33a2.75,2.75,0,0,0,1.28,2.77,11.53,11.53,0,0,0,11,2.65c4.38-1.12,5.93.33,5.09,4.74A15.15,15.15,0,0,0,202,444.94Z"/><path class="cls-3" d="M230.85,407.41c2.46-2.75,4.09-1.73,5.64-.38.47.41,1.11.92.8,1.64-1.9,4.39-.93,9.22-2.23,13.7-.51,1.77-.82,3.61-2.2,5-2.19,2.22-4.26,2.09-6.31-.28a14.15,14.15,0,0,0-2.56-1.92c.07-.18.13-.5.22-.51,6.1-.81,7.41-2.57,7.12-9.82-.09-2.16.62-5-3.51-3.76-1.73.53-2.11-1-1.92-2.48.34-2.59.79-5.17.95-7.76.07-1.06,1.1-3-1.15-3-1.84,0-1.38,1.7-1.39,2.76-.08,6.23-.75,12.36-3.11,18.2-1.61,4-3.88,7.48-7.77,9.74-1-1.08-.19-1.85.23-2.65,1-1.86-1.08-2.12-1.74-3-.93-1.24-1.39.35-1.84.83a22.26,22.26,0,0,1-6.56,4.43c-.7-1.17,0-1.71.62-2.34a16.7,16.7,0,0,0,4.28-5.95c.3-.78.53-1.43-.22-2s-1.17-.32-1.68.25a2.54,2.54,0,0,1-3.52.47c-1.23-.84-.58-2.21-.39-3.33.49-2.89,1.1-5.76,1.63-8.65.31-1.62.75-3.33-2.12-3.67,4.34-.73,3.36-4.14,4-6.63.37-1.5.35-3.1,2.68-2.73,1.82.28,3.8.12,2,2.89a3.91,3.91,0,0,0-.38,2.22c.05,1.1-1.1,2.42.26,3.27,1.2.75,2-.42,2.8-1.07,1.14-.92,1.84-.1,2.46.62s2.44,1.11,1.7,2.73c-1.74,3.79-1.29,8.14-3,11.92-.88,1.88.84,2.64,1.75,4.26a28.66,28.66,0,0,0,2.51-10.51c.2-2.82.31-5.64.48-8.46.13-2.21.33-4.43-3.29-4.16,2.63-1.06,5.07-.81,7.48-.87,1.69,0,3.31.26,4.85-1.16s2.44.62,3.54,1.31c.68.43,1.49.9.74,2.06C231.07,401,231.72,403.81,230.85,407.41Zm-19,.09-.13,0c.06-.64.09-1.29.2-1.93.14-.8.2-1.58-.78-1.82a1.36,1.36,0,0,0-1.66,1.19c-.65,2.83-1.21,5.68-1.75,8.53-.22,1.14.6,1.5,1.51,1.69s1.32-.5,1.47-1.27C211.12,411.74,211.48,409.62,211.86,407.5Z"/><path class="cls-3" d="M128.39,401.12c3.48-1.27,7-.72,10.57-.84.92,0,2.31.38,2.36-1s-1.36-1.06-2.27-1.08c-2.9,0-5.82.23-8.74-1.07,2-.42,4-1,6.08-1.22a83.67,83.67,0,0,0,14.69-2.86c3.24-1,4.92.62,5.91,2.92a7.34,7.34,0,0,0,3,3.91c.47.27,1.29.67.83,1.49a1.71,1.71,0,0,1-1.67.8c-2.82-.12-5.64-.3-8.45-.26-1.31,0-2.93-.55-3.81,1-.31.57-.29,1.53.39,1.69,1.55.37,3.49,1.17,4.66-.1,1.75-1.93,3-1,4.37.12,1.09.85,1.38,1.58,1,3.22-.67,2.91-.43,6-.64,9.06-.06.84.69,1,1,1.57.41.79,2,1.07,1.31,2.24-.57.95-1.8.46-2.74.46-2.39,0-4.78-.07-7.16-.19-1.69-.1-2.36.7-2.41,2.29-.07,1.79,1.19,1.88,2.41,1.82,2.6-.11,5.54.86,7.3-2.2a1.23,1.23,0,0,1,2-.29c1.12,1,2.83,1.51,3.25,3,.25.88-1.05,1-1.71,1-2.6,0-5.2-.16-7.8-.21-6.73-.13-13.46-.2-20.19-.37a8.8,8.8,0,0,1-4.86-.95c4-1.06,7.63,0,11.19-.33,1.32-.11,3.29,1,3.43-1.6s-1.73-2.35-3.34-2.42a44.25,44.25,0,0,1-8.9-.8c3.79-1.32,6.79-.43,9.72-.56,1.24-.05,2.39.13,2.47-1.69s-1.28-1.61-2.4-1.8a4.33,4.33,0,0,0-3.86,1.21,2.32,2.32,0,0,1-3,.4c-.9-.65-.94-1.63-.8-2.85a61,61,0,0,0,.19-8.45c-.07-2.29,1.06-2.72,2.8-2s3.21.36,4.8.51c.94.08,2.09.28,2.15-1.24s-.76-1.9-2-1.94c-3.15-.08-6.3-.19-9.45-.3C129.44,401.3,128.91,401.19,128.39,401.12Zm22.49-.58a10.18,10.18,0,0,1,1.11,0c2.1.26,3.76-1.05,3.66-2.7s-2.13-.65-3.34-.65a4,4,0,0,0-1.29.11c-1.46.53-4.23-.52-4.07,1.94C147.07,401.3,149.61,400.06,150.88,400.54Zm-.9,19.3c1.26-.18,3.36.47,3.3-1.39a3.1,3.1,0,0,0-3.58-2.37c-1.22.25-3.07-.54-3,1.8S148.55,419.67,150,419.84Zm-1-13.32c-.92.27-2.62-.91-2.62,1.47,0,2,1.45,1.88,2.59,1.8s2.85.82,3-1.33S150.4,406.61,149,406.52Zm.29,8.15c1.06-.22,2.76.55,2.69-1.69,0-1.73-1.21-1.77-2.5-1.73s-2.73-.16-2.81,1.81S148.1,414.45,149.24,414.67Zm-10-.18c.93-.26,2.3.45,2.29-1.44,0-2.31-1.68-1.74-2.95-1.87s-2.13,0-2.1,1.62C136.52,415,138.15,414.24,139.24,414.49Zm0-5c1.08-.11,2.3.26,2.3-1.5,0-2.11-1.55-1.64-2.72-1.73s-2.3-.09-2.31,1.47C136.5,409.75,138.16,409.26,139.24,409.5Z"/><path class="cls-1" d="M77.75,470.75c1-.16,2.49.22,1.92-1.65-.38-1.23,0-1.82,1.2-2.18.78-.24,2.35.29,1.93-1.37-.24-1-.69-2.17-2-2.25-1-.06-2.07.13-2.2-1.28a3.06,3.06,0,0,1,1.31-2.79c3.53-2.91,4.11-2.64,6.35,1.35,1.37,2.46-2.87,2.77-1.42,4.62s1.34,3-.63,4.15a3.37,3.37,0,0,0-.5.42c-1.49,1.35-3.08,3.1-2.59,5,.6,2.23,3.12,1.87,5.06,1.91,3.05.08,5.8.84,7.73,3.43a2.92,2.92,0,0,0,3.34,1.39,1.37,1.37,0,0,1,1.92,1.19c.13,1-.61,1.19-1.43,1.33A9.2,9.2,0,0,0,92,487.46c-1.09,1.36-2.22,1.23-4,.66-2.32-.77-4.16-2.83-6.91-2.48-1.76.23-3.45.3-4.51,2a1.4,1.4,0,0,1-1.93.72,1.53,1.53,0,0,1-.69-1.7c.49-3-1.24-3.05-3.33-2.58-4.56,1-8.94-.76-13.42-.84-.83,0-1.68-.94-2.43-1.55-1.13-.92-2.23-2.37-1.78-3.58.6-1.61,2.45-.77,3.78-.67,3.56.26,7.12.61,10.68.91a1.8,1.8,0,0,0,2.09-1.16,1.28,1.28,0,0,0-.66-1.65c-.76-.43-2.15-.36-1.65-1.86a2.84,2.84,0,0,1,2.39-2c2.26-.28,4.26-.59,4.58-3.49.1-.91,1.19-1.21,2.14-1,2,.53,1.42,2.11,1.37,3.47-.49.11-1.11,0-1.27.67,0,.07.1.22.18.24C77.37,471.78,77.53,471.23,77.75,470.75Z"/><path class="cls-1" d="M123.45,302.32c4.09.6,4.57,1.59,2.06,4.66-2,2.39-.62,4.32.49,6.49,1.69-1,1.18-2.59,1.39-3.9.11-.64.15-1.35,1-1.46.61-.08,1,.39,1.31.82a7.17,7.17,0,0,0,9.49,1.19c.85-.53,1.6-2.15,2.65-1.1s.28,2.72-.57,3.83a34.42,34.42,0,0,0-5.43,9.76c-1,2.86-1.19,6-3.21,8.45-.44.53-.62,1.66-1.63,1.08a1.59,1.59,0,0,1-.57-2c1.76-3.67-2.39-5.84-2.27-9.11,0-.69-1.08-1-1.9-.8a2.15,2.15,0,0,0-1.89,2.3c.14,1.8-.45,2.84-2.34,2.52s-1.27-1.61-1.12-3a10.18,10.18,0,0,0-.81-4.41c-1.32-3.48-.46-6.54,1.47-9.46a13.06,13.06,0,0,0,1.88-5.84Z"/><path class="cls-3" d="M177,408.61l-8.73-.52c-1.49-.08-2.65,0-2.32-2.34.27-1.91-.45-4-.74-6,4.45,1.24,5.42,3,4.07,6.76,5.69.79,5.71.81,8.43-5.62.63-1.49.9-2.91,3.14-1.81,3.25,1.6,3.33,1.56.73,4.16-.45.46-.87.95-1.41,1.54l.76.56c4.23,3,4.21,3.36-.52,5.57a7.79,7.79,0,0,0-3.69,2.95c2.39.66,4.76,0,7.3.32-.72,1.51-2.08,1.65-3.22,1.88-3.25.66-5,2.29-4.31,5.84a13.08,13.08,0,0,1-.1,2.92,3.66,3.66,0,0,1-2.86,3.53c-1.7.53-2.87-.09-3.59-1.79a13.59,13.59,0,0,0-1.59-2.3c.67-.15,2-.11,2.82-.74,1.12-.88.75-2.46.41-3.68-.4-1.44-1.63-.49-2.5-.5-1.21,0-2.47,1.43-3.6.06a3.89,3.89,0,0,1-.95-3.34c.32-1.2,1.6-.82,2.5-1,2-.42,4.84.53,5.07-3,0-.64,1-.69,1.68-.69C175.26,411.27,176.13,410.45,177,408.61Zm1.62-2.16c0-.08,0-.19,0-.22a.66.66,0,0,0-.25,0l.05.36Z"/><path class="cls-3" d="M86.94,338.14c3.55-.17,6.56.76,8.82,3.76,1.31,1.75,4.37,1.77,5.31,1.39,3.68-1.51,6.32,1.27,8.5,2.41,2.88,1.5,4.26,5.67,7,8.21.81.76-.38,2.24-1.52,2.81-1.7.85-3.71,2.39-5.32.5-4.7-5.51-12.18-6.85-17.18-11.9a68.73,68.73,0,0,1-6-6.74Z"/><path class="cls-3" d="M172.05,398.31c1.57,2.12,3.22,2.93,3.22,4.81,0,1.31-.45,2.46-1.81,2.74a1.76,1.76,0,0,1-2.25-1.76c0-4.28-2-6.08-6.65-5.24l.31-.89c4.5-1.6,8.93-3.46,13.54-4.66,2-.52,3.27,1.81,4.27,3.41.45.74-.65.87-1.26.89C178.5,397.71,175.76,399,172.05,398.31Z"/><path class="cls-1" d="M127.68,395.62c-1.61-.22-2.46-.53-3.29,0s-1.49,1.68-2.47.58a5.15,5.15,0,0,1-1-3.38.87.87,0,0,1,1-1c4.1,0,8.19,0,12.28,0,.94,0,2.32.1,2.28,1.3-.05,1.47-1.41.81-2.31.85C131.67,394.1,129.53,395.92,127.68,395.62Z"/><path class="cls-3" d="M240.54,427.42a94.14,94.14,0,0,0,7.45-8.75c1.47-2.06,3.46,0,4.68,1,1.81,1.45-.52,1.81-1.16,2.4C248.58,424.75,245.39,427,240.54,427.42Z"/><path class="cls-3" d="M261.51,418.61c4.25.11,7.39,1.26,9.79,4,1.27,1.41,1.73,3.23.07,4.59s-3,0-3.85-1.45C266,423.23,263.69,421.39,261.51,418.61Z"/><path class="cls-1" d="M246.11,436.93l-1.83.05a3.18,3.18,0,0,0-2.74-.53c-1.57.21-2.11-.65-2-2.06,4.06-.35,8.14-.26,11.85-2.22.52-.28,1.22-.86,1.72-.14s.09,1.43-.55,2C250.65,435.56,248.22,435.89,246.11,436.93Z"/><path class="cls-1" d="M145,310.37c-1.87-2.18-1.17-4.39-1.15-6.45,0-.7.54-1.36,1.3-1,1.39.71,2.25,2.1,1.49,3.45C146,307.54,145.83,308.83,145,310.37Z"/><path class="cls-1" d="M123.44,302.32a2.34,2.34,0,0,1-1.3-2.41c0-1.78.59-3.64-1-5.18a1.34,1.34,0,0,1,.27-2c.71-.42,1.12.41,1.59.81a2.78,2.78,0,0,1,.89,2.63c-.21,2-.28,4.11-.41,6.16Z"/><path class="cls-3" d="M116.7,345.18c2.46.5,4.16,2.21,5.56,3.46C120.63,347.77,118,347.54,116.7,345.18Z"/><path class="cls-1" d="M163.18,265.48a1.67,1.67,0,0,1,1.61,1.66,1.3,1.3,0,0,1-1.31,1.51c-.89,0-1.28-.7-1.36-1.51S162.15,265.62,163.18,265.48Z"/><path class="cls-1" d="M166.49,270.36c-1.12,1.8-1,4-1.72,5.89-.51,0-1.09.87-1.36.33C162.74,275.24,164.85,271.19,166.49,270.36Z"/><path class="cls-3" d="M151.26,361.42c.06,1.09-.33,1.7-1.44,1.68s-2.06-.52-2.16-1.83c-.08-.94.21-1.79,1.25-1.88C150.33,359.28,151,360.24,151.26,361.42Z"/><path class="cls-1" d="M199.22,419.16c.25.29.66.78.27.94s-.35-.49-.47-.8Z"/><path class="cls-1" d="M127.33,47.75l-.4-.27.45.22Z"/><path class="cls-3" d="M124.82,290.12l-.1-.07h.17Z"/><path class="cls-1" d="M162.57,156.09a3.68,3.68,0,0,1-4.93.67,7.62,7.62,0,0,0-8.35.08c-3.34,2.1-8,2.13-9.63,6.91-.47,1.43-2.83.62-4.14,1.47-1.84,1.2-2.68-.17-3.63-1.46s-2.41-1.51-3.7-2c-3.57-1.23-6.53-3.08-8.26-6.57-.46-.92-1.36-1-2.22-1.13-3.19-.64-5.44-3.1-8.3-4.39a2,2,0,0,1-.93-2c-.08-3.24-2.24-4-4.87-3.86-1.93.1-2.49-.35-2.78-2.44s-2.53-3.38-4.37-4.44c-.74-.42-2-.54-1.72-1.45,1.66-4.62-2.52-6.79-4.11-10-.69-1.37-2-2.38-.9-4s3.23-4.72,4.21-3.91c2.53,2.11,4.57-.15,6.43.32,3.26.83,6.56-1,9.75.78,1.13.63,2.67.61,3.68,1.75a2.26,2.26,0,0,0,1.4.75c7,.18,12.43,4.08,18,7.62A95.49,95.49,0,0,1,147,139c1.65,1.52,4.33,1.87,6.42,3a8.39,8.39,0,0,1,3.73,4,9.09,9.09,0,0,0,3.79,4.31c2.26,1.24,2.88,3,1.76,5.34A.67.67,0,0,1,162.57,156.09Z"/><path class="cls-2" d="M189.47,262.42l.54-1.87,0,0c2,.92,2.08,2.66,1.78,4.44-.51,3-.85,6,.72,8.89.15.28.34.8.23.9-3,2.7-.07,5.91-.79,8.79-.26,1-.07,2.45-.69,3.12-2.44,2.6-1.13,5.15.11,7.4.85,1.53.34,2-.77,2.38-3.26,1.25-3.52,3.77-3,6.69.16,1,.61,2.23.19,2.85-2.08,3.11-2,6.23-1.23,9.74.34,1.61-.18,3.33,1.28,4.72a2,2,0,0,1,.36,2.71c-2.89,3.29-1.37,7-1.17,10.59.15,2.88,1.29,5.7-.1,8.61a3.48,3.48,0,0,0,.54,3.12,2.58,2.58,0,0,1,.38,2.49c-1.71,2.87-1.3,4.87,2.75,5.65-1.72,1.35-2.57,2.51-2.83,4.09-.32,2-.74,3.63,2.34,3.67,2,0,4.25,2.1,4.41,3.28.59,4.35,3.62,2.2,4.56,1.49a13.27,13.27,0,0,1,11.49-2.71c1.66.34,4.51,0,3.06-3.51-.35-.84,1-1.7,1.23-2.85a41.5,41.5,0,0,0,.38-14.22,40,40,0,0,0-2.4-9.45c-1.47-3.41.85-6,.37-9a24.48,24.48,0,0,1,0-9c1.16-5.23-.73-10.41,0-15.35.51-3.46,0-6.79.46-10.08s2-6.16,1.57-9.54c-.84-.2-1,.84-1.67,1.16-1.65.83-3,.48-3.79-1.21-1-2.08.6-1.95,1.89-2.28,2-.51,2.91-2.6,3.88-4,.55-.8,1.89-3.34-.61-5.18-1.95-1.44-.64-4,1.86-4,1.45,0,2.42-.39,2.67-1.76.53-2.93,1.4-5.71.19-8.89-1.07-2.82.15-6.13,1.58-8.59,1.69-2.91,4.54-5.06,7.09-7.41,4.23-3.89,9-7.08,13-11.31.7-.75,1.19-1.27,2.09-.41-3,4.63-7.63,7.64-11.56,11.34-2.79,2.62-6.51,4.55-7.56,8.61-.77,3-1.09,6.07-1.61,9.11-1,6-2.43,11.85-3.83,17.75-.84,3.54,0,7.44-.73,11.22-1.63,8.65-1.81,17.41-1.81,26.22,0,5.21.86,10.35.73,15.49-.12,4.91.64,9.74.52,14.61-.09,3.57.84,7,.66,10.64s-1.47,6.93-1.89,10.46c-.33,2.75-3,2.93-5.16,3.94-3.51,1.63-7.19,1.73-10.74,2.66-4.71,1.23-9.14.29-13.41-1.71-2.34-1.09-4.51-2.2-2.72-5.61,1.07-2,.51-4.49.27-6.75a208.19,208.19,0,0,1-.66-31.19c.1-2.17.92-4.49-1.71-6.06-1-.61-.22-2.07,0-3.08,1.35-8.14,2.92-16.24,4.16-24.4.69-4.57.52-9.25,2.55-13.63a5.23,5.23,0,0,0-.52-5.59c-.69-.84-.34-1.55-.05-2.4A17.42,17.42,0,0,0,189.47,262.42Z"/><path class="cls-1" d="M258,251.53c-3.62,1.76-7.37.15-11.06.38a5.51,5.51,0,0,1-5.46-3.89c-.84-3.09,1.78-5.4,4.09-6.74,4.84-2.81,8.55-6.83,12.53-10.57,6.15-5.79,12.24-11.64,19.9-15.46,4.8-2.39,10.07-2.06,15.21-2.28,3-.12,4,2.94,5.9,4.57a211.18,211.18,0,0,1-16.59,14.14c-3.7,2.72-6.38,6.64-10.11,9.43-3.39,2.53-6.42,5.51-10.45,7.19C260.41,248.93,259.27,250.43,258,251.53Z"/><path class="cls-2" d="M299.73,176.3c-4.6-1.86-9.19-.56-13.77.1a1.35,1.35,0,0,0-.88.37c-2.91,4.74-9.29,5.17-12.25,10-1,1.62-3.54,2.36-5.46,3.34-9.3,4.75-17.9,10.68-26.9,15.93-4.87,2.83-10.11,5.31-14.31,9.34-2,1.92-5,2.07-7.45,3.62a195.93,195.93,0,0,0-19.38,14.59c-3.8,3.16-7.13,7.19-12.52,7.74-2.55.26-5.32.72-6.48-2.62,5.82,2.64,10.06.21,14.52-3.63,6-5.15,11.74-10.52,18.64-14.66,4-2.4,7.93-5.12,11.78-7.84,6.08-4.3,13-7.2,19-11.45,3.74-2.62,8.31-3.76,11.59-7.41,1.37-1.51,4-2.64,6.32-3.65a39.52,39.52,0,0,0,12.94-8.55,32.51,32.51,0,0,1,10.67-7.1c4-1.58,8.48-1.1,12.76-1.42,1.11-.08,2.67-.47,3.08,1C302,175.38,300.45,175.6,299.73,176.3Z"/><path class="cls-2" d="M58.74,269c2.59,1.43,5.63,2.73,5,5.12-.84,3.31.64,4.18,2.65,6.11,2.49,2.38,3.86,5.95,5.63,9.05.54.93,1.07,2.17-.28,2.83-1.56.76-1.69-.95-2.18-1.71-1.23-1.9-1.38-4.65-4.72-4.65-.72,0-.47-2-1-3.17A55.85,55.85,0,0,1,58.74,269Z"/><path class="cls-2" d="M50.26,196.86a18.23,18.23,0,0,0-.95,2.23c-.62,2-2.15,3.74-2.12,6,0,1.2-1.14,1.78-1.7,2.68-.62-.58-1.26-1.15-1.85-1.76a4.1,4.1,0,0,1-1-1.28c-.47-1.15-2.71-1.28-2.22-2.4.57-1.3,3-2.65,3.59-2.53,3.25.65,2.38-1.93,2.94-3.26.39-.9.69-1.5,1.82-1.31A1.48,1.48,0,0,1,50.26,196.86Z"/><path class="cls-2" d="M175.54,251.6c3.77-.26,8.84,2.46,10.42,5.6a8.11,8.11,0,0,1-2.69-1A27.85,27.85,0,0,0,175.54,251.6Z"/><path class="cls-2" d="M57.51,261.81c1.91-1.45,0-3.15.39-5a32.7,32.7,0,0,1,2.42,9l-3-3.86Z"/><path class="cls-2" d="M73.47,304.43c-1.12.9-2.22,1.83-3.37,2.7-.52.39-1.28.71-1.69,0-.57-1,.32-1.37,1-1.55a9.94,9.94,0,0,0,3.54-2Z"/><path class="cls-2" d="M50.53,223.56c-.44-2.17-1.43-4.43-.34-6.83C50.3,219,50.41,221.28,50.53,223.56Z"/><path class="cls-2" d="M68.48,300.35c-1.44,1.29-3.17,3.73-3.66-.67C66.08,300,67.21,300.63,68.48,300.35Z"/><path class="cls-2" d="M50.26,206.63c.09.93.08,1.68-1.08,1.57-1.4-.15-1.31-1.22-1.35-2.18,0-.78-.07-1.67,1-1.67C50.52,204.35,50.09,205.76,50.26,206.63Z"/><path class="cls-2" d="M142.44,62c1.46.29,2.58-.8,4.59-1-1.84,1.85-3.83,2.23-5.66,3.12-.19-1.22,1.18-1.28,1.15-2.17Z"/><path class="cls-2" d="M139.89,64.73l-.25-.1c-.11.28,0,.32.19.15Z"/><path class="cls-2" d="M139.83,64.78l.13-.12-.08.07Z"/><path class="cls-1" d="M299.08,217.48l.59-.43Z"/><path class="cls-2" d="M249.05,468.37c-3.35,6.36-7,11.67-12.72,15.2a22.29,22.29,0,0,1-4,2.1c-8.06,3-12.34.69-14.35-7.74-.28-1.15-.47-2.33-.76-3.81-2.6,2.31-4.14,5.38-6.82,7.33-.26.19-.45.49-.71.67-3,2.14-5.76,5.53-10.06,3.86-4.86-1.88-7.39-5.89-8.22-10.91-1-6.09,1.29-11.34,4.66-16.17a60,60,0,0,1,14.71-14.48,13.31,13.31,0,0,1,9.54-2.4c.72.08,1.73-.2,2,.72s-.73,1.27-1.35,1.61a44.94,44.94,0,0,0-11.12,8.81l-4.34,4.61c3.38-.63,6.31-1.75,9.16,0,2.69,1.64,3.55,4.47,4.63,7.45,2.07-2.16,2.92-4.79,4.42-7,4.95-7.23,10.9-13.22,19.57-15.78,4.27-1.26,6.74.73,6.86,5.18a2.69,2.69,0,0,0,.35,1.2c2.49,4.33,1.93,8.75.3,13.15-.38,1.05-1.06,2.25,0,2.92s1.55-.81,2.3-1.32c1.15-.79,2.34-2.11,3.74-1.22a4.3,4.3,0,0,1,1.7,4.33c-.36,3-2.11,5.15-4.46,6.88-1.55,1.15-2.42.07-3.11-1.07S249.86,470.16,249.05,468.37Zm-24.43,6.84c.08,5.74,1.65,6.67,5.68,4.48a5.15,5.15,0,0,0,.56-.33c7.55-5.63,13.38-12.59,16.57-21.56a7.85,7.85,0,0,0-.15-5.13,2.09,2.09,0,0,0-3.09-1.41c-3.8,1.78-7.64,3.34-10.7,6.52C228.41,463.05,225,469,224.62,475.21Zm-26.73.28c.19,1.89-.53,4.66,2.9,4,5.31-1,11.86-9.08,12.05-14.48.12-3.18-1.39-4.17-4.28-2.71s-5.18,3.88-7.6,6A8,8,0,0,0,197.89,475.49Zm59.17-10.66c-2.92-.08-3.94,1.56-4.51,3.68a1.33,1.33,0,0,0,.54,1.71c.69.34,1.22-.07,1.69-.57A7.8,7.8,0,0,0,257.06,464.83Z"/><path class="cls-2" d="M170,465.35a46.92,46.92,0,0,0,9.31-.45c2.12-.41,3.25.88,2.64,3s-1.89,4.22-1.53,6.88c.21,1.54-2.56.71-3.83,1.83,2.08,1.24,4.71-.24,6.64,1.68-2.31,1.3-4.63.45-6.83.65-2.59.23-5.2.21-7.81.3-.79,0-2,.77-2.18-.49s1.22-1.18,2.15-1.3c.42-.05.85-.12,1.63-.24a5.84,5.84,0,0,1-1.32-3.38c-.18-2.67-1.51-5.28-2.51-7.86-.43-1.14-1.53-.39-2.31-.36-1.06,0-2.09.11-2-1.33s1.1-1.28,2.13-1.35c4.37-.32,8.74-.73,13.09-1.4a11.64,11.64,0,0,0-6.64.14c-1.56.48-2.83.35-2.75-1.85a6.32,6.32,0,0,0-.55-1.84c-1-3.33-.68-3.65,3-3.64,2.92,0,5.85-.26,8.76-.55,2.41-.24,2.94.84,2.31,2.89-.22.73-.56,1.41-.82,2.13-.79,2.15-.3,3.28,2.26,3.16,1.53-.07,4.16-.68,4.22,1.06s-2.58.93-4,1.17C178.7,464.87,174.29,464,170,465.35Zm.81-6a16.34,16.34,0,0,0,5.58-.08c1.4-.16,1.57-1.26,1.76-2.35.12-.71,0-1.4-.77-1.52-2.36-.38-4.59.11-7.52.84,3,1.68,5.45-.6,7.67,1.07C175.6,458.88,173.12,457.71,170.82,459.37Zm-.42,14.31a3.07,3.07,0,0,0,2.87-.16C172.12,472.85,171.45,473.12,170.4,473.68Z"/><path class="cls-2" d="M137.15,465.05c1.09-2.09,3.21-3.17,4.66-4.86s3.13-3.35,3.72-5.64a1.5,1.5,0,0,1,1.52-1.35c.87-.05,1.75.39,1.83,1.07.55,4.78,5.15,4.62,7.9,6.7,1,.74,3.29.2,2.94,1.81-.4,1.79-2.24,1.26-3.82,1-2.51-.51-2.17,2.19-3.2,3.35s.12,1.41,1,1.77c1.66.69,1.75,1.94,1.22,3.5-.46,1.33-.58,2.77-1.07,4.09-.36,1-1,2.22-2.38,1.4-2.19-1.34-4.42-.83-6.54-.18-1.52.47-2.27.38-2.5-1.28a8.86,8.86,0,0,0-.29-1.26c-1.27-4.59-1.27-4.59,3.34-5.06.86-.08,1.86-.05,2.33-.91.59-1.09,2.38-1.95,1.51-3.28-.62-1-2.21-.46-3.38-.2-2,.43-4.11,2.41-6-.53C139.52,464.43,138.24,466,137.15,465.05Zm10.66,10.33c1.46-.26,3.79.35,3.77-2.48,0-2.36-2-1.56-3.13-1.46-1.51.13-3.82-.62-4,1.9C144.21,475.53,146,475.46,147.81,475.38Zm-.43-17.63a7.51,7.51,0,0,0-1.16,1.07c-.53.75.2.85.65,1.05a3.21,3.21,0,0,1,2.28,2.45c.23,1.24,1.36.79,2.11.49.48-.19,1.56-.49,1-1.23C151,459.93,149.22,458.91,147.38,457.75Zm-2.61,6.48c1,0,1.88-.2,1.69-1.34-.15-.91-.61-2-1.86-1.81a2.35,2.35,0,0,0-2,1.9C142.55,464.3,143.81,464.19,144.77,464.23Z"/><path class="cls-2" d="M111.21,458.93a1.67,1.67,0,0,1,1.83,1.43c.22.83-.3,2.24,1.32,2,1.2-.15,2.75.33,3.43-1.19.62-1.37,1.48-2.76.94-4.33-.27-.78-1.14-.45-1.73-.39s-1.18.54-.87,1.35a12.41,12.41,0,0,1,.76,1.77c.13.63,0,1.41-.74,1.6a1.06,1.06,0,0,1-1.26-1.14c0-2.28-1.64-2.74-4.08-3.08,2.73-2.27,5.84-2.43,8.23-4,.7-.47,2.71.66,2.46,1.47-.61,2,2.11,4.1-.43,5.8-.18.12-.27.75-.15.85,3.5,3,.15,3.7-1.64,4.85-.72.47-.55.88-.44,1.59a21,21,0,0,1-.56,7c-.27,1.42-.67,2.86-2.26,3.27-1.77.47-2-1.29-2.76-2.22-.28-.33-.51-.7-.8-1.1,1.06-.71,2.66.66,3.39-.93.48-1.05.74-2.28-.25-3-.69-.5-1.7-1.57-2.8-.25-.29.36-1,.39-1.48.58-.66.24-1.23,1.11-2,.34a1.82,1.82,0,0,1-.46-1.82c.26-.93,1.07-.89,1.85-.95a15.85,15.85,0,0,0,2.57-.33c.73-.18,1.52-.5,1.23-1.53-.2-.68-.18-1.75-1.2-1.67-2.93.25-3.43-.81-2.13-3.32C111.51,461,111.21,460,111.21,458.93Z"/><path class="cls-2" d="M133.83,470.87c.3.61.45.79.46,1,.11,1.82,3.42,4.09-.74,5.31-3.94,1.16-7.23-.26-8-3.71-1-4.17-.43-8.41-.36-12.63,0-1.73.34-3.53,0-5.16-.29-1.19-.08-1.49.88-1.82a1.37,1.37,0,0,1,2,1.06,5.08,5.08,0,0,1,.06,1.61c-.17,4.33-.3,8.67-.57,13-.13,2.21-.55,4.61,2.17,5.41C132.51,475.76,132.85,473.14,133.83,470.87Z"/><path class="cls-2" d="M267.41,463.14a6.89,6.89,0,0,1-2,4.93A118.17,118.17,0,0,0,253,485.87c-.3.54-.54,1.33-1.36,1.1s-.93-1.1-.88-1.87a3.11,3.11,0,0,1,.35-1.23C255,476.08,260.57,469.55,267.41,463.14Z"/><path class="cls-2" d="M267,479.08a7.22,7.22,0,0,1-3,6.32c-.91.72-2,1.53-3.24.75a3.76,3.76,0,0,1-1.82-3.5c.25-2.12.72-4.29,2.47-5.8,1.12-1,2.29-2.6,3.82-1.78A3.56,3.56,0,0,1,267,479.08Zm-1.44.39c.25-1.73-.66-2.31-1.22-2-1.47,1-3.2,1.9-3.08,4.13,0,.87.26,1.66,1.28,1.33A4.56,4.56,0,0,0,265.6,479.47Z"/><path class="cls-2" d="M276.32,477.16c4.75-2.83,4.75-2.83,4.67-8.84,0-.55-.07-1.09-.07-1.63s.06-1.22.71-1.27c.85-.07,1.05.64,1,1.33-.13,1.07,0,1.89,1.14,2.38,1,.42.62.77-.11,1.24-1.47.94-1.31,2.47-.84,3.81s1.78.95,2.83,1a6.07,6.07,0,0,1,3.89,1.1Z"/><path class="cls-2" d="M280.78,461.66c1.9-2.93,4.8-5.34,4.85-9.26a.79.79,0,0,1,.87-.77c.73.05.78.66.72,1.2a4.87,4.87,0,0,1-.37,1.57c-.86,1.85-1.09,3.47,1.07,4.68.82.46.94,1.35.15,2.52-2.62-5.25-4.84-.5-7.3.12Z"/><path class="cls-2" d="M277.41,452.47c1.45,1.35-1.38,5.51,3.38,4a5.34,5.34,0,0,1-.81,1.36c-1,.86-1.68,3-3,2.54-1.86-.62-.1-2.4-.23-3.69S276,453.9,277.41,452.47Z"/><path class="cls-2" d="M280.77,461.72l-.2,0,.12.18.09-.2Z"/><path class="cls-2" d="M197.58,447.48l.9,0C198.16,448,197.87,447.88,197.58,447.48Z"/><path class="cls-2" d="M357.1,66.77c-2.21-1.9-.15-3.49.46-5.1.46-1.21,1.45-2.31.42-3.59s-2.35-.92-3.85-.64c-3.59.66-7.22,1.65-10.91.37-1.22-.42-2,.4-2.78,1.21-1,1-.19,1.56.07,2.47,1.28,4.55.22,9-1.21,13.31a49.8,49.8,0,0,1-2.45,5.31c-.49,1-1.15,2.07-2.44,1.56s-.83-2-.5-2.81c1.17-2.65,2.5-5.21,2.42-8.49-2.28,2.08-3.26,5.15-6.16,6.44-.89.4-.88,1.9-1,3,0,.66,1.2,1.7-.59,1.85-1.53.13-1.8-.75-1.84-2-.11-3.37-.33-6.73-.37-10.1-.15-10.31-.09-20.63-.42-30.93-.12-3.54-.78-7.08-.87-10.65-.07-2.7.71-4.34,3.92-4a56.9,56.9,0,0,0,6.51-.23c.63,0,1.74-.47,1.7.79a1.63,1.63,0,0,1-1.55,1.77c-.43,0-.86.11-1.3.12-1.27,0-3.17-.25-2.93,1.5s2.09.91,3.32.72a2,2,0,0,1,2.21.45c-3.6-.42-4,2.49-5,4.4-.72,1.4,1.69.62,2.18,1.53.11,1-1.38,1.44-1,2.69,2.36.5,4-2.61,6.71-1.33-.36.37-.52.69-.75.76-2.57.85-4.94,1.64-3.92,5.31.73,2.61-1.42,5.69,1.73,8.1,1,.76-1.66,1.84-2,3.48,2.85.36,5-1.1,6.91-2.69,3-2.46,4.05-2.46,6.28.63.06.08.17.14.22.23.74,1.33,1.52,2.67,3.31,2.52a1.67,1.67,0,0,0,1.08-1.06c.49-2-1.55-2.26-2.64-3.5,1.73-.5,1.94-1.84,2-3.29.15-2,.26-4.12.6-6.14.4-2.42-.63-3.38-2.85-2.88a17,17,0,0,1-7.29.52c-.43-1.33,2.33-2.75-.22-4-.11,0,2-.51,2.21-1.88-.83-1.27-2.24-.34-3.38-.88.51-1.19,2.72-.36,2.59-1.75-.18-1.82-2.35-.32-3.3-1.61,1.25-.13,2.38-.21,3.49-.36.71-.09,1.72,0,1.76-1s-.94-1-1.63-1.23c-1.26-.43-3.75,1.24-3.61-1.12.11-1.76,2.65-1,4.11-1,3.75.06,7.5.31,11.25.49-1,.44-2.66-.22-3.18,2.17,2.47-1.88,4.69-.67,6.87-.64,4.1.05,2.24,3.31,2.67,5.34.09.42.36.79.47,1.21,1.26,5-.08,7.28-5,8.1a3.59,3.59,0,0,0-3.29,2.84c-1,2.91.41,5.59.13,8.38-.19,2,.32,3.46,2.75,3.44,1,0,2.15.42,2.2,1.54C359.64,60.1,360.11,63.86,357.1,66.77Zm-28-5.33A3,3,0,0,0,332,59.9c.93-.13,1.23.74,1.81,1.17,1.14.85,2.37.87,3.17-.22,1-1.38-.2-2.19-1.27-2.76s-2.36-1-3.55-1.51a6.87,6.87,0,0,1,.71-2.46c3.18-3.9.47-8,.53-12,0-.78-.78-1.33-1.54-1.51-1.92-.45-2.28-1.22-1.51-3.21.89-2.31.45-4.9-.09-7.31-.19-.84-.62-2.18-1.84-1.89a2,2,0,0,0-1.12,2.7c1.19,3.29,1.18,6.63,1.06,10.06-.18,5.17.09,10.35-.15,15.51a8.23,8.23,0,0,0,.86,5Zm21.13-32.79c.25-1.49,1.49-3.22-.94-3.69-2-.39-2.2,1-2.46,2.5a24.84,24.84,0,0,1-1.5,4.12c1.52-.2,2.78-.4,4.05-.51.65-.05,1.75-.61,1.71.64a1.55,1.55,0,0,1-1.85,1.41,17.74,17.74,0,0,0-2.51-.51c-.76,0-1.81.87-.76,1.38,3.09,1.51-.3,2.08-.54,3.78,4.15-2.08,7.62-1.07,10.91,1.16a2.16,2.16,0,0,0,1.56,0A1.45,1.45,0,0,0,359,37.44c0-.69-.5-.91-1-1.08s-1.05-.24-1.57-.38c-1.09-.32-2.58-.5-2.88-1.57s1-2.06,1.72-2.95a2.69,2.69,0,0,1,1.32-.82c.89-.23,1.91-.46,1.58-1.56-.29-.95-1.37-.87-2.26-.81C354,28.41,352.21,28.52,350.22,28.65ZM328.59,64.33c.92,1.4,1.61,2.6,2.46,3.68a2,2,0,0,0,3.07.4c1.21-1.11.52-2.08-.49-2.93A5.29,5.29,0,0,0,328.59,64.33Z"/><path class="cls-1" d="M357.1,66.77c3-2.91,2.54-6.67,2.39-10.29-.05-1.12-1.17-1.55-2.2-1.54-2.43,0-2.94-1.48-2.75-3.44.28-2.79-1.15-5.47-.13-8.38a3.59,3.59,0,0,1,3.29-2.84c4.9-.82,6.24-3.13,5-8.1-.11-.42-.38-.79-.47-1.21-.43-2,1.43-5.29-2.67-5.34-2.18,0-4.4-1.24-6.87.64.52-2.39,2.16-1.73,3.18-2.17,2.67,0,6.34-1,7.73.32s.38,5.07.7,7.73c1.12,9.43-.18,18.82-.44,28.23.07,5.56-.8,11.15.48,16.68,0,.67.05,1.33.08,2-.67.61-1.39,1.12-2.26.36-2.23-2-4.49-3.91-6.65-6-1.18-1.12-.71-2.13.6-2.81s2-1.36,1-2.76Z"/><path class="cls-2" d="M338.17,82.05A14.16,14.16,0,0,0,344,72.3c.18-1.1.07-2.41,1.71-2.74s2.24,1,2.84,2.07q2.24,3.95,4.3,8c.33.64,1.3,1.9-.19,2C348.11,81.9,343.54,82.74,338.17,82.05Z"/><path class="cls-2" d="M347.79,66.65c-.91-.38-2.93,1.12-2.93-1.43,0-1.87-.38-4.1,2.48-4.44a8.2,8.2,0,0,1,1.6-.22c1.57.16,3.9-1.58,4.48,1.25s-1.12,4.46-4.15,4.72Z"/><path class="cls-2" d="M357.13,67.89c.93,1.4.17,2.14-1,2.76s-1.78,1.69-.6,2.81c2.16,2,4.42,4,6.65,6,.87.76,1.59.25,2.26-.36,0,1,1,2.65-.8,2.76-1.13.08-3,1-3.58-1.44-.42-1.72-2.54-2.18-3.71-3.44-2.12-2.27-4.35-4.44-5.76-7.4C352.79,68.8,355.22,69.33,357.13,67.89Z"/><path class="cls-2" d="M346.71,40.53c2.92-.07,1.8,2.14,1.79,3.48s.3,3.05-1.95,3-4.51,0-7.29,0c2.29-1,4.35-.33,6.22-.79.7-.18,1.71-.21,1.5-1.27-.16-.77-1-.62-1.65-.63-1.62,0-3.24,0-4.83,0,1.34-1.05,3-.56,4.54-.8,2.07-.32,2.64-1.14,1.64-3Z"/><path class="cls-2" d="M364.32,77.06c-1.28-5.53-.41-11.12-.48-16.68C365,65.91,364.22,71.5,364.32,77.06Z"/><path class="cls-2" d="M339.28,41.62a11.05,11.05,0,0,1,6.45-.92C343.33,42.26,341.2,41.37,339.28,41.62Z"/><path class="cls-1" d="M324.55,86.66l-1.69.21A1.56,1.56,0,0,1,324.55,86.66Z"/><path class="cls-2" d="M346.68,40.55l0-.17s0,.1,0,.15Z"/><path class="cls-1" d="M346.79,16.91l-.43-.21c.06-.06.15-.17.2-.16a2,2,0,0,1,.44.21Z"/><path class="cls-1" d="M204.21,52.2c1.22.28,3.23-.11,2.94,1.33-.48,2.36-3,.5-4.42,1.28a.94.94,0,0,1-1.44-1C201.56,51.88,203.2,52.5,204.21,52.2Z"/><path class="cls-3" d="M297.1,72c-.07-.37,0-.91-.23-1.08-.49-.38-.91,0-1.25.41l0-.07c.15,1.07.62,1.35,1.52.66Z"/><path class="cls-3" d="M297.1,72l.23.11-.08-.19c-.05.05-.1.09-.15.15Z"/><path class="cls-1" d="M298.35,147.61l-.31-.38c.42-.27.26.22.4.31Z"/><path class="cls-2" d="M190,260.55l0,0Z"/><path class="cls-2" d="M211.86,407.5c-.38,2.12-.74,4.24-1.14,6.36-.15.77-.42,1.5-1.47,1.27s-1.73-.55-1.51-1.69c.54-2.85,1.1-5.7,1.75-8.53a1.36,1.36,0,0,1,1.66-1.19c1,.24.92,1,.78,1.82-.11.64-.14,1.29-.2,1.93Z"/><path class="cls-2" d="M150.88,400.54c-1.27-.48-3.81.76-3.93-1.3-.16-2.46,2.61-1.41,4.07-1.94a4,4,0,0,1,1.29-.11c1.21,0,3.25-.95,3.34.65s-1.56,3-3.66,2.7A10.18,10.18,0,0,0,150.88,400.54Z"/><path class="cls-2" d="M150,419.84c-1.43-.17-3.3.5-3.33-2s1.83-1.55,3-1.8a3.1,3.1,0,0,1,3.58,2.37C153.34,420.31,151.24,419.66,150,419.84Z"/><path class="cls-2" d="M149,406.52c1.45.09,3.17-.33,3,1.94s-1.95,1.25-3,1.33-2.58.17-2.59-1.8C146.33,405.61,148,406.79,149,406.52Z"/><path class="cls-2" d="M149.24,414.67c-1.14-.22-2.7.42-2.62-1.61s1.48-1.78,2.81-1.81,2.46,0,2.5,1.73C152,415.22,150.3,414.45,149.24,414.67Z"/><path class="cls-2" d="M139.24,414.49c-1.09-.25-2.72.47-2.76-1.69,0-1.58.93-1.74,2.1-1.62s2.94-.44,2.95,1.87C141.54,414.94,140.17,414.23,139.24,414.49Z"/><path class="cls-2" d="M139.24,409.5c-1.08-.24-2.74.25-2.73-1.76,0-1.56,1.23-1.55,2.31-1.47s2.72-.38,2.72,1.73C141.54,409.76,140.32,409.39,139.24,409.5Z"/><path class="cls-2" d="M77.75,470.75c-.22.48-.38,1-1.09.91-.08,0-.2-.17-.18-.24.16-.7.78-.56,1.27-.67Z"/><path class="cls-2" d="M178.58,406.45l-.24.1-.05-.36a.66.66,0,0,1,.25,0S178.57,406.37,178.58,406.45Z"/><path class="cls-3" d="M224.62,475.21c.42-6.26,3.79-12.16,8.87-17.43,3.06-3.18,6.9-4.74,10.7-6.52a2.09,2.09,0,0,1,3.09,1.41,7.85,7.85,0,0,1,.15,5.13c-3.19,9-9,15.93-16.57,21.56a5.15,5.15,0,0,1-.56.33C226.27,481.88,224.7,481,224.62,475.21Z"/><path class="cls-3" d="M197.89,475.49a8,8,0,0,1,3.07-7.17c2.42-2.15,4.66-4.54,7.6-6s4.4-.47,4.28,2.71c-.19,5.4-6.74,13.44-12.05,14.48C197.36,480.15,198.08,477.38,197.89,475.49Z"/><path class="cls-3" d="M257.06,464.83a7.8,7.8,0,0,1-2.28,4.82c-.47.5-1,.91-1.69.57a1.33,1.33,0,0,1-.54-1.71C253.12,466.39,254.14,464.75,257.06,464.83Z"/><path class="cls-3" d="M170.82,459.37c2.3-1.66,4.78-.49,6.72-2-2.22-1.67-4.69.61-7.67-1.07,2.93-.73,5.16-1.22,7.52-.84.77.12.89.81.77,1.52-.19,1.09-.36,2.19-1.76,2.35A16.34,16.34,0,0,1,170.82,459.37Z"/><path class="cls-3" d="M170.4,473.68c1-.56,1.72-.83,2.87-.16A3.07,3.07,0,0,1,170.4,473.68Z"/><path class="cls-3" d="M147.81,475.38c-1.79.08-3.6.15-3.4-2,.22-2.52,2.53-1.77,4-1.9,1.17-.1,3.12-.9,3.13,1.46C151.6,475.73,149.27,475.12,147.81,475.38Z"/><path class="cls-3" d="M147.38,457.75c1.84,1.16,3.65,2.18,4.88,3.83.56.74-.52,1-1,1.23-.75.3-1.88.75-2.11-.49a3.21,3.21,0,0,0-2.28-2.45c-.45-.2-1.18-.3-.65-1.05A7.51,7.51,0,0,1,147.38,457.75Z"/><path class="cls-3" d="M144.77,464.23c-1,0-2.22.07-2.14-1.25a2.35,2.35,0,0,1,2-1.9c1.25-.22,1.71.9,1.86,1.81C146.65,464,145.73,464.27,144.77,464.23Z"/><path class="cls-3" d="M265.6,479.47a4.56,4.56,0,0,1-3,3.51c-1,.33-1.24-.46-1.28-1.33-.12-2.23,1.61-3.17,3.08-4.13C264.94,477.16,265.85,477.74,265.6,479.47Z"/><path class="cls-1" d="M332,59.9a3,3,0,0,1-2.92,1.54v0a8.23,8.23,0,0,1-.86-5c.24-5.16,0-10.34.15-15.51.12-3.43.13-6.77-1.06-10.06a2,2,0,0,1,1.12-2.7c1.22-.29,1.65,1,1.84,1.89.54,2.41,1,5,.09,7.31-.77,2-.41,2.76,1.51,3.21.76.18,1.55.73,1.54,1.51-.06,4,2.65,8.11-.53,12a6.87,6.87,0,0,0-.71,2.46c-1.49.37-.84,1.64-1.08,2.53l.85.79Z"/><path class="cls-3" d="M350.22,28.65c2-.13,3.81-.24,5.63-.38.89-.06,2-.14,2.26.81.33,1.1-.69,1.33-1.58,1.56a2.69,2.69,0,0,0-1.32.82c-.76.89-2,1.78-1.72,2.95s1.79,1.25,2.88,1.57c.52.14,1.06.22,1.57.38s1,.39,1,1.08a1.45,1.45,0,0,1-1.07,1.46,2.16,2.16,0,0,1-1.56,0c-3.29-2.23-6.76-3.24-10.91-1.16.24-1.7,3.63-2.27.54-3.78-1-.51,0-1.36.76-1.38a17.74,17.74,0,0,1,2.51.51,1.55,1.55,0,0,0,1.85-1.41c0-1.25-1.06-.69-1.71-.64-1.27.11-2.53.31-4.05.51a24.84,24.84,0,0,0,1.5-4.12c.26-1.53.44-2.89,2.46-2.5C351.71,25.43,350.47,27.16,350.22,28.65Z"/><path class="cls-3" d="M331.09,59.11c.24-.89-.41-2.16,1.08-2.53,1.19.5,2.42.91,3.55,1.51S338,59.47,337,60.85c-.8,1.09-2,1.07-3.17.22-.58-.43-.88-1.3-1.81-1.17h-.07C332,59.31,331.59,59.14,331.09,59.11Z"/><path class="cls-3" d="M328.59,64.33a5.29,5.29,0,0,1,5,1.15c1,.85,1.7,1.82.49,2.93a2,2,0,0,1-3.07-.4C330.2,66.93,329.51,65.73,328.59,64.33Z"/><path class="cls-1" d="M329.09,61.44v0Z"/><path class="cls-2" d="M331.09,59.11c.5,0,.86.2.85.78Z"/></svg>